<svg id="Layer_1" data-name="Layer 1" xmlns="http://www.w3.org/2000/svg" xmlns:xlink="http://www.w3.org/1999/xlink" viewBox="0 0 548.81 65.33"><defs><style>.cls-1{fill:none;}.cls-2{clip-path:url(#clip-path);}.cls-3{fill:#fff;fill-rule:evenodd;}.cls-4{clip-path:url(#clip-path-2);}.cls-5{clip-path:url(#clip-path-3);}.cls-6{clip-path:url(#clip-path-4);}</style><clipPath id="clip-path" transform="translate(0 0)"><rect class="cls-1" y="6.52" width="237.52" height="43.26"/></clipPath><clipPath id="clip-path-2" transform="translate(0 0)"><rect class="cls-1" x="243.57" y="0.01" width="305.23" height="65.33"/></clipPath><clipPath id="clip-path-3" transform="translate(0 0)"><rect class="cls-1" x="389.35" y="12.4" width="8.91" height="8.63"/></clipPath><clipPath id="clip-path-4" transform="translate(0 0)"><rect class="cls-1" x="487.76" y="12.54" width="8.91" height="8.64"/></clipPath></defs><g class="cls-2"><polyline class="cls-3" points="0.06 6.96 0 48.99 29.54 49.03 29.55 40.74 11.27 40.71 11.28 31.96 29.56 31.99 29.57 23.81 11.29 23.78 11.3 15.29 29.53 15.32 29.54 7 0.06 6.96"/><polyline class="cls-3" points="69.92 7.06 69.88 34.08 45.82 7.03 34.7 7.01 34.64 49.04 45.89 49.06 45.93 21.89 69.98 49.09 80.92 49.1 80.98 7.08 69.92 7.06"/><path class="cls-3" d="M132.85,16.27c-2.61-3.12-3.9-4.3-6.37-5.82a27.72,27.72,0,0,0-14.8-3.93C97.17,6.5,85.51,16,85.49,27.84c0,12.38,11.16,21.91,25.71,21.93A31.72,31.72,0,0,0,126.35,46c5.49-3.17,9.76-9.52,9.77-14.52V26l-24.21,0v8.24h12.47c-1.86,3.21-3.09,4.37-5.8,5.48a16,16,0,0,1-6.07,1.14c-8.62,0-15.42-5.7-15.41-12.89,0-6.84,6.94-12.59,15.19-12.58A16.69,16.69,0,0,1,121,17.82a14.7,14.7,0,0,1,4.36,4.07l7.48-5.62" transform="translate(0 0)"/><polyline class="cls-3" points="139.99 7.16 139.93 49.19 151.19 49.2 151.25 7.17 139.99 7.16"/><polyline class="cls-3" points="191.69 7.23 191.65 34.25 167.59 7.2 156.47 7.18 156.41 49.21 167.66 49.23 167.7 22.05 191.75 49.26 202.7 49.27 202.75 7.24 191.69 7.23"/><polyline class="cls-3" points="208.01 7.25 207.95 49.28 237.49 49.32 237.5 41.03 219.22 41 219.23 32.25 237.51 32.28 237.52 24.1 219.24 24.07 219.25 15.58 237.48 15.61 237.49 7.29 208.01 7.25"/></g><g class="cls-4"><path class="cls-3" d="M522.36,37.37V38l-.28.28a6.93,6.93,0,0,1,1.43.26,5.23,5.23,0,0,1,1.37.65,7.31,7.31,0,0,1,1.09.91c.17.16.33.33.49.5a14.82,14.82,0,0,1,1.38,1.8,14.5,14.5,0,0,0,2.34-1.61,11.33,11.33,0,0,0,1.21-1.19,7.93,7.93,0,0,0,.82-1.17,6,6,0,0,0,.56-1.45,10.25,10.25,0,0,0,.29-2.54,9.48,9.48,0,0,0-.1-1.3,25.76,25.76,0,0,0-.58-2.88c-.1-.36-.2-.73-.31-1.09q-1.77,1.62-3.61,3.18c-1.36,1.16-2.73,2.3-4.11,3.44l-2,1.61M507.8,32c.81-.42,1.61-.86,2.39-1.33.44-.26.86-.54,1.27-.83a10,10,0,0,0,1-.8,7.17,7.17,0,0,0,1.09-1.18,5,5,0,0,0,.68-1.18,2,2,0,0,0,.13-.41.62.62,0,0,0,0-.19.39.39,0,0,0-.06-.21,1.09,1.09,0,0,0-.14-.23.43.43,0,0,0-.1-.09.26.26,0,0,0-.12-.05,1.31,1.31,0,0,0-.28,0,4.17,4.17,0,0,0-.49.08c-.23,0-.45.09-.67.15a14.9,14.9,0,0,0-3,1.12c-.4.21-.78.43-1.16.66a20.33,20.33,0,0,0-1.79,1.24,24.1,24.1,0,0,0-5.69,6.35A74.24,74.24,0,0,0,507.8,32Zm-62.4-7.43a33,33,0,0,0,2.57-3.2,36.91,36.91,0,0,0,2.24-3.53,44,44,0,0,0,3.5-7.95,72.3,72.3,0,0,0-6.13,6.5c-.91,1.09-1.77,2.21-2.6,3.35s-1.54,2.23-2.25,3.38A46.45,46.45,0,0,0,439.28,30,35.93,35.93,0,0,0,445.4,24.61Zm-36.85,7.06c-.73.35-1.45.72-2.16,1.1s-1.51.86-2.23,1.34q-.57.39-1.11.84a7.79,7.79,0,0,0-2.38,3.42,9.22,9.22,0,0,0-.38,1.57,3.08,3.08,0,0,0,0,.68,1.67,1.67,0,0,0,.15.54A2.49,2.49,0,0,0,401,42a.8.8,0,0,0,.42.16,1.87,1.87,0,0,0,.53-.05,4.48,4.48,0,0,0,.62-.2,14.19,14.19,0,0,0,1.38-.62,25,25,0,0,0,2.43-1.48q.76-.53,1.5-1.08c.84-.64,1.67-1.31,2.48-2s1.81-1.56,2.68-2.37a100,100,0,0,0,7.38-7.61q-4.73,1.69-9.31,3.74C410.26,30.86,409.4,31.26,408.55,31.67Zm-70.69.14c.82-.42,1.62-.87,2.4-1.34.43-.26.85-.53,1.27-.82s.69-.52,1-.8a8.11,8.11,0,0,0,1.09-1.18,6,6,0,0,0,.68-1.18,2.25,2.25,0,0,0,.13-.42.55.55,0,0,0,0-.18.43.43,0,0,0-.06-.22.74.74,0,0,0-.14-.22.43.43,0,0,0-.09-.1.28.28,0,0,0-.13,0h-.27l-.5.08-.66.15a14.7,14.7,0,0,0-3,1.13q-.6.3-1.17.66a19.69,19.69,0,0,0-1.79,1.24,23.86,23.86,0,0,0-3.87,3.78A24.33,24.33,0,0,0,331,34.92C333.34,34,335.63,33,337.86,31.81Zm-38,10.39,1.55-.17.73,0a6.85,6.85,0,0,1,.79,0,13.94,13.94,0,0,1,1.69.31q2.19-2.12,4.24-4.36c.46-.52.92-1,1.36-1.57l.68-.87c.19-.26.37-.52.54-.79a7.51,7.51,0,0,0,.56-1,5,5,0,0,0,.34-1,1.82,1.82,0,0,0,.06-.46,1.12,1.12,0,0,0-.05-.36,1.17,1.17,0,0,0-.09-.24.47.47,0,0,0-.41-.27,9.62,9.62,0,0,0-1.83.54c-.32.13-.64.28-.95.44s-.68.38-1,.59-.73.49-1.08.75c-.6.45-1.18.92-1.73,1.41s-1.22,1.1-1.8,1.69a45.22,45.22,0,0,0-4.63,5.53Zm220.46-5.63v-.78q3.81-3.32,7.53-6.74c1.09-1,2.17-2,3.23-3.08.42-.43.85-.86,1.26-1.29a6.61,6.61,0,0,1,1-2.58,3.81,3.81,0,0,1,1.27-1.19,4.8,4.8,0,0,1,.93-.39,8,8,0,0,1,1.37-.24,8.79,8.79,0,0,1,1.45,0,1.55,1.55,0,0,1,.67.21.8.8,0,0,1,.33.54,1.88,1.88,0,0,1,0,.71,6.17,6.17,0,0,1-.12.73,1.53,1.53,0,0,0,0,.37c.07.35.14.69.23,1,.21.8.42,1.6.62,2.4s.33,1.33.46,2a10.59,10.59,0,0,1,.14,2.81,13.84,13.84,0,0,1-3.63,8.33,15.07,15.07,0,0,1-4.23,3.29,14.76,14.76,0,0,1-2.78,1.1,12.46,12.46,0,0,0,1.62.28c.14,0,.27.05.41.06a3.12,3.12,0,0,0,.61,0A14.78,14.78,0,0,0,537,43a19.77,19.77,0,0,0,2.21-1.1c1.09-.63,2.15-1.3,3.18-2q3.3-2.26,6.35-4.83l.08,3a77.17,77.17,0,0,1-7.67,6.4,47.33,47.33,0,0,1-4.4,2.86c-.79.45-1.6.86-2.43,1.24a19,19,0,0,1-2.64,1,12.09,12.09,0,0,1-3.16.48,10.44,10.44,0,0,1-3.29-.47,13.75,13.75,0,0,1-3.89-1.89,10.87,10.87,0,0,1-1.64-1.39,7.81,7.81,0,0,1-1.94-3.42,4,4,0,0,1-.11-.5c-.86.72-1.74,1.4-2.63,2.07s-2,1.41-3,2a25.55,25.55,0,0,1-3.69,1.87,18.09,18.09,0,0,1-3.9,1.1,14.3,14.3,0,0,1-3.58.16,9.9,9.9,0,0,1-2.35-.47,7.18,7.18,0,0,1-4.39-3.86,9.84,9.84,0,0,1-.67-2.05,13.34,13.34,0,0,1-.3-2.52c-1.2,1.21-2.46,2.38-3.75,3.5-.81.7-1.64,1.36-2.5,2a21.36,21.36,0,0,1-2.93,1.81,13.51,13.51,0,0,1-2.13.85,9.74,9.74,0,0,1-2.57.43,7.41,7.41,0,0,1-1.82-.2,5.9,5.9,0,0,1-2.81-1.54,6.75,6.75,0,0,1-1.16-1.55,9.13,9.13,0,0,1-.87-2.24,13.6,13.6,0,0,1-.37-2.27.49.49,0,0,0,0-.12q-1.86,1.59-3.82,3.07a51.92,51.92,0,0,1-4.34,3,26.72,26.72,0,0,1-2.35,1.28,19,19,0,0,1-2.49,1,12.54,12.54,0,0,1-2.64.56,6,6,0,0,1-1.74,0,4.72,4.72,0,0,1-2.16-1,3.56,3.56,0,0,1-1.07-1.53,5.92,5.92,0,0,1-.29-1.82,8.36,8.36,0,0,1,.13-1.58,16,16,0,0,1,.63-2.35,24.11,24.11,0,0,1,1.42-3.21c-1,.94-2,1.86-3,2.78-1.56,1.43-3.18,2.79-4.85,4.1-1.06.82-2.15,1.6-3.29,2.33A17.42,17.42,0,0,1,440.22,49a7.73,7.73,0,0,1-2.29.72,5,5,0,0,1-2.64-.36,6.84,6.84,0,0,1-1.61-1,9.49,9.49,0,0,1-1.93-2.22A11.59,11.59,0,0,1,430,40.84c-1.51,1.4-3.06,2.78-4.63,4.13-.84.72-1.7,1.41-2.58,2.08a20,20,0,0,1-2.57,1.69,10.12,10.12,0,0,1-1.68.75,7,7,0,0,1-1.82.38,4.24,4.24,0,0,1-2.37-.52,4.08,4.08,0,0,1-2.06-2.84,4.83,4.83,0,0,1,0-1.47,12.55,12.55,0,0,1,.31-1.48q.68-2.33,1.51-4.61l0-.14c-1.86,1.77-3.8,3.47-5.8,5.08a47.59,47.59,0,0,1-4.58,3.27c-.41.25-.82.49-1.24.71a6.26,6.26,0,0,1-.93.38,3,3,0,0,1-1.1.15,2.74,2.74,0,0,1-1.15-.41,6,6,0,0,1-1.09-.91,18.25,18.25,0,0,1-3-4.36,11.74,11.74,0,0,1-.75-2c-1.13,1.12-2.31,2.21-3.51,3.26-.81.69-1.64,1.35-2.5,2a21.36,21.36,0,0,1-2.93,1.81,13.55,13.55,0,0,1-2.13.86,9.66,9.66,0,0,1-2.57.42,7.41,7.41,0,0,1-1.82-.19,5.91,5.91,0,0,1-2.81-1.55A6.75,6.75,0,0,1,375,45.79a9.13,9.13,0,0,1-.87-2.24,13.27,13.27,0,0,1-.37-2.27.57.57,0,0,0,0-.13c-1.2,1.08-2.43,2.12-3.71,3.12a46.44,46.44,0,0,1-4.16,2.93c-.74.46-1.5.89-2.29,1.28a17.74,17.74,0,0,1-2.46,1,10.65,10.65,0,0,1-1.84.42,7,7,0,0,1-4.43-.83,9,9,0,0,1-2-1.51,11.82,11.82,0,0,1-2.79-4.54,13.45,13.45,0,0,1-.58-2.57q-2.15,1.92-4.47,3.65c-1,.72-2,1.41-3,2a25.54,25.54,0,0,1-3.69,1.87,19.31,19.31,0,0,1-3.9,1.1,14.73,14.73,0,0,1-3.57.16,11,11,0,0,1-2.36-.47,7.4,7.4,0,0,1-3.08-1.93,7,7,0,0,1-1.3-1.93,10.06,10.06,0,0,1-.68-2,14.72,14.72,0,0,1-.24-1.6q-1.89,1.58-3.87,3.05c-1,.79-2.11,1.53-3.21,2.24a31.59,31.59,0,0,1-3.77,2.11,19.13,19.13,0,0,1-4.51,1.44,9.94,9.94,0,0,1-1.72.18,8.22,8.22,0,0,1-2-.2,16.74,16.74,0,0,1-2.22-.55,9.11,9.11,0,0,1-1.89-.9,17.73,17.73,0,0,1-2.4.32,7.65,7.65,0,0,1-2.19-.2l-.93-.23c-1.43,3.13-2.94,6.24-4.53,9.3-.5,1-1,1.94-1.57,2.9a23.65,23.65,0,0,1-1.67,2.54,7.49,7.49,0,0,1-1.58,1.55,2.73,2.73,0,0,1-.95.43,1.11,1.11,0,0,1-.9-.2,2.55,2.55,0,0,1-.95-1.49,4.79,4.79,0,0,1-.1-1.07,21.45,21.45,0,0,1,.69-5.17,19.92,19.92,0,0,1,1.45-3.78,31.35,31.35,0,0,1,4.32-6.35c.48-.56,1-1.13,1.42-1.7q1.1-1.42,2-2.94c.41-.65.8-1.3,1.18-2l6.08-10.51c-1.78,1.8-3.62,3.52-5.52,5.18l-1.08.93a8.18,8.18,0,0,1-.41,1,21.11,21.11,0,0,1-3.15,4.81,13.26,13.26,0,0,1-4.16,3.18,25.32,25.32,0,0,1-2.78,1.2c-1.46.53-3,1-4.46,1.38a75.44,75.44,0,0,1-9.55,1.8,84.07,84.07,0,0,1-9.9.62,49.66,49.66,0,0,1-5-.23,29.47,29.47,0,0,1-5.11-.94,11.76,11.76,0,0,1-2.57-1.05,5.38,5.38,0,0,1-1.59-1.33,2.61,2.61,0,0,1-.47-1,1.59,1.59,0,0,1,.16-1.11c.14-.28.3-.56.46-.84l1-1.73a14,14,0,0,1,1.08-1.67,7.29,7.29,0,0,1,.91-1,5.13,5.13,0,0,1,1.35-.85,12.45,12.45,0,0,1,2.12-.68,27.23,27.23,0,0,1,4.49-.61,6.08,6.08,0,0,1-2.35,1.94c-.2.1-.41.19-.62.27.91.09,1.82.17,2.73.23,1.36.09,2.73.16,4.1.19,2.44,0,4.87-.1,7.3-.32a68.94,68.94,0,0,0,13.81-2.74,25.3,25.3,0,0,0,3.36-1.29,5.6,5.6,0,0,0,1.62-1.1,1.81,1.81,0,0,0,.43-.63,1.33,1.33,0,0,0-.1-1.15,3.37,3.37,0,0,0-1-1.1,7.74,7.74,0,0,0-1.53-.89,24.56,24.56,0,0,0-2.81-1c-1.15-.33-2.3-.64-3.47-.92q-3.51-.84-7-1.63-2.85-.64-5.68-1.36c-.95-.25-1.9-.52-2.84-.82a19,19,0,0,1-2.54-1,9,9,0,0,1-1.47-.86,4.85,4.85,0,0,1-1.93-3.06,9.29,9.29,0,0,1-.13-2,18.13,18.13,0,0,1,.52-3.34,18.67,18.67,0,0,1,1.51-4,8.89,8.89,0,0,1,2.15-2.77,14.22,14.22,0,0,1,2.16-1.52,29,29,0,0,1,3.29-1.66A45.55,45.55,0,0,1,269.5,3,69.59,69.59,0,0,1,290.24,0a37,37,0,0,1,6.22.59,17.08,17.08,0,0,1,2.64.69,5.88,5.88,0,0,1,1.16.55,2.62,2.62,0,0,1,1,1.05A2.64,2.64,0,0,1,301.49,4a7,7,0,0,1-.31,1.63,10.43,10.43,0,0,1-.75,1.87A6.36,6.36,0,0,1,298.29,10,9,9,0,0,1,296,11.17q-3.57,1.3-7,2.92c-.48.23-.94.48-1.39.75s-.77.44-1.17.64a2,2,0,0,1-.8.21.94.94,0,0,1-.89-.62.66.66,0,0,1,0-.34,3.07,3.07,0,0,1,.54-.79,11.65,11.65,0,0,1,1.68-1.46c1.18-.81,2.37-1.6,3.58-2.37-.73,0-1.46,0-2.19-.07s-1.72,0-2.58.08q-3.53.17-7,.62A43.88,43.88,0,0,0,271,12.48a30,30,0,0,0-4.15,1.68,17.55,17.55,0,0,0-2.1,1.24,7.55,7.55,0,0,0-1.49,1.33,2.31,2.31,0,0,0-.46.86,1.13,1.13,0,0,0,.29,1.06,3.5,3.5,0,0,0,.8.62,15,15,0,0,0,2.3,1c1.27.43,2.56.81,3.86,1.15q2.49.68,5,1.27a66.4,66.4,0,0,1,8.58,2.86,32.35,32.35,0,0,1,3.5,1.71A18.78,18.78,0,0,1,289.73,29a11.2,11.2,0,0,1,2.1,2.14,6.49,6.49,0,0,1,.93,1.74q1.73-1.61,3.33-3.32,1.95-2.08,3.81-4.26c1.4-1.62,2.78-3.27,4.13-4.93a28.1,28.1,0,0,1,3-3.33,10.1,10.1,0,0,1,2.17-1.61,7.39,7.39,0,0,1,4-.9,3.33,3.33,0,0,1,1.37.43,2.5,2.5,0,0,1,.47.39.82.82,0,0,1,.15.69,3.11,3.11,0,0,1-.35.87,13.71,13.71,0,0,1-1.29,1.83q-1.17,1.36-2.37,2.7c-.93,1.06-1.83,2.14-2.69,3.25-.53.7-1,1.41-1.52,2.14l-4.22,6.36a59,59,0,0,1,5.86-4.45,43.18,43.18,0,0,1,4.19-2.49A22.61,22.61,0,0,1,316,24.89a9.73,9.73,0,0,1,2.21-.51,3,3,0,0,1,1.6.27,2.31,2.31,0,0,1,1.29,2,6.21,6.21,0,0,1,0,1.14,14.61,14.61,0,0,1-2.18,5.89A23.63,23.63,0,0,1,317,36.22a43.63,43.63,0,0,1-4.23,4.48c-1,1-2.12,1.89-3.24,2.77.52.08,1,.19,1.54.31a3.62,3.62,0,0,0,.93,0,13,13,0,0,0,4.64-1.42A25.38,25.38,0,0,0,318.92,41c1.54-1.06,3-2.19,4.48-3.37,0-.13.05-.25.08-.38A13.91,13.91,0,0,1,325,33.4a19.54,19.54,0,0,1,2.24-3.12,28.35,28.35,0,0,1,3-2.91,29.5,29.5,0,0,1,4.7-3.2,22.05,22.05,0,0,1,5-2,21.48,21.48,0,0,1,5.7-.67,11.59,11.59,0,0,1,1.56.14,6.74,6.74,0,0,1,1.39.35,4,4,0,0,1,1,.48,3,3,0,0,1,.62.57,1.88,1.88,0,0,1,.45,1.26,3.3,3.3,0,0,1-.1.88,7.23,7.23,0,0,1-.49,1.42,10.89,10.89,0,0,1-1.22,2,13.28,13.28,0,0,1-1.11,1.27A19.59,19.59,0,0,1,345,32.08a32.44,32.44,0,0,1-4.51,2.58,43.06,43.06,0,0,1-9.76,3.25v.34a6.27,6.27,0,0,0,.29,2,4.57,4.57,0,0,0,3.3,3,6.75,6.75,0,0,0,1.85.16,12.39,12.39,0,0,0,1.83-.25,17.62,17.62,0,0,0,2.76-.85,27.41,27.41,0,0,0,3.45-1.67,47.18,47.18,0,0,0,5.25-3.47l.21-.17a11.2,11.2,0,0,1,.71-2.31A15.37,15.37,0,0,1,353,30.49a23.86,23.86,0,0,1,2.44-2.38,35.25,35.25,0,0,1,6.23-4.2,30.73,30.73,0,0,1,3.46-1.56,18.77,18.77,0,0,1,3.52-1,10.18,10.18,0,0,1,1.91-.15,4.88,4.88,0,0,1,1.07.12,3.42,3.42,0,0,1,1.18.5,2.31,2.31,0,0,1,1,1.61,4.44,4.44,0,0,1,0,1,8.68,8.68,0,0,1-.62,2.17,11.69,11.69,0,0,1-1.44,2.49,15.38,15.38,0,0,1-2.48,2.62,10.38,10.38,0,0,1-1.41,1,6.51,6.51,0,0,1-1.46.63,2.25,2.25,0,0,1-.58.08,1,1,0,0,1-.69-.24,1.59,1.59,0,0,1-.46-.57,3.45,3.45,0,0,1-.29-1,4.41,4.41,0,0,1,0-.52c-1.29.68-2.55,1.42-3.76,2.22a28.73,28.73,0,0,0-3.05,2.31A19.48,19.48,0,0,0,355.12,38c0,.44,0,.89,0,1.34a6.38,6.38,0,0,0,.24,1.2A4.15,4.15,0,0,0,358,43.18a5.5,5.5,0,0,0,1.56.28,10.69,10.69,0,0,0,1.79-.09,17.3,17.3,0,0,0,3.7-.93,25.66,25.66,0,0,0,3.48-1.63c.77-.43,1.52-.88,2.26-1.36,1.07-.69,2.13-1.42,3.16-2.18a13.84,13.84,0,0,1,1.63-4.56,17.28,17.28,0,0,1,1.55-2.25,32,32,0,0,1,2.49-2.72c.92-.9,1.89-1.77,2.89-2.59a15.34,15.34,0,0,1,2.05-1.43,8.26,8.26,0,0,1,1.7-.74,7.82,7.82,0,0,1,2.59-.33,4.43,4.43,0,0,1,.72.09,2.21,2.21,0,0,1,1,.48,1.62,1.62,0,0,1,.44.57,1.53,1.53,0,0,1,.13.59,2.51,2.51,0,0,1,0,.61,5.4,5.4,0,0,1-.34,1.17,11.09,11.09,0,0,1-1,1.93,18.14,18.14,0,0,1-1.31,1.72c-.73.84-1.5,1.64-2.3,2.41a57.62,57.62,0,0,1-5.35,4.5,9.41,9.41,0,0,0-.41,1.82,2.73,2.73,0,0,0,0,.7,3.84,3.84,0,0,0,.34,1.32,2.92,2.92,0,0,0,.61.83,4,4,0,0,0,3.05,1,6.88,6.88,0,0,0,1.28-.24,12.38,12.38,0,0,0,2-.77,24.53,24.53,0,0,0,2.65-1.48q2.06-1.3,4-2.79a7.17,7.17,0,0,1,.39-1.13,11.5,11.5,0,0,1,1-1.71,18.64,18.64,0,0,1,2.18-2.68,30.9,30.9,0,0,1,2.4-2.17,40.8,40.8,0,0,1,9.74-5.85q3.1-1.29,6.32-2.28c1.06-.32,2.14-.61,3.22-.85.78-.18,1.56-.35,2.35-.5a4.26,4.26,0,0,1,1.07-.08,3.52,3.52,0,0,1,1.75.59,5.16,5.16,0,0,1,1.44,1.39,3.82,3.82,0,0,1,.58,1.4.86.86,0,0,1,0,.39.81.81,0,0,1-.28.4,3.21,3.21,0,0,1-.48.34c-.21.12-.43.23-.65.33l-1.43.74,1.35,2.45a2.9,2.9,0,0,1,.38.84c0,.07.05.14.07.22a.63.63,0,0,1,0,.36,3.36,3.36,0,0,1-.3.71,13,13,0,0,1-.69,1.12c-.42.62-.86,1.22-1.33,1.8s-1,1.26-1.45,1.9A14.14,14.14,0,0,0,420.51,37a10.18,10.18,0,0,0-.77,1.91,5.35,5.35,0,0,0-.18,1,1.46,1.46,0,0,0,.07.55,1.49,1.49,0,0,0,.55.69,2.65,2.65,0,0,0,1.45.43,6.63,6.63,0,0,0,1.92-.34,10.15,10.15,0,0,0,1.88-.81c.58-.32,1.14-.66,1.68-1,1.05-.7,2.07-1.44,3.06-2.21A23.84,23.84,0,0,1,431,33.9a37.65,37.65,0,0,1,1.81-4.47,53.84,53.84,0,0,1,4-6.86c.52-.78,1.07-1.54,1.63-2.3q2.39-3.21,5.08-6.19a59.44,59.44,0,0,1,6.8-6.47,31.55,31.55,0,0,1,2.54-1.89,14.42,14.42,0,0,1,2.33-1.32,6.64,6.64,0,0,1,1.5-.51,2.2,2.2,0,0,1,.57-.05,1.05,1.05,0,0,1,.67.29,2.32,2.32,0,0,1,.44.6,2.6,2.6,0,0,1,.3,1.11,8.44,8.44,0,0,1,0,1A31.13,31.13,0,0,1,457,13.92a26,26,0,0,1-2.38,5,36.94,36.94,0,0,1-3.41,4.67c-.8.95-1.64,1.87-2.51,2.76a66.25,66.25,0,0,1-11,9c0,.76,0,1.52,0,2.29a12.72,12.72,0,0,0,.17,1.62,6.74,6.74,0,0,0,.66,2,3.38,3.38,0,0,0,.88,1.11,3.48,3.48,0,0,0,2.79.67,6.24,6.24,0,0,0,1.34-.46,18.92,18.92,0,0,0,2-1.16c.84-.55,1.67-1.13,2.47-1.74,1.21-.91,2.41-1.83,3.59-2.78l0-.87c1.79-1.64,3.53-3.33,5.23-5.05q2.18-2.22,4.2-4.57c-1.16-.17-2.33-.28-3.5-.34h-2.38a.79.79,0,0,1-.45-.13.29.29,0,0,1-.15-.34,2.56,2.56,0,0,1,.16-.49,9.48,9.48,0,0,1,.74-1.32,21.75,21.75,0,0,1,2.35-2.9,9.06,9.06,0,0,1,1.46-1.23,5.26,5.26,0,0,1,1.53-.68,15.66,15.66,0,0,1,1.91-.36c.95-.12,1.9-.19,2.85-.23.63,0,1.27-.05,1.9-.05.21-.24.42-.48.61-.73a28.37,28.37,0,0,1,2.26-2.39A13.3,13.3,0,0,1,472,14a9.58,9.58,0,0,1,3.25-1.43,10.86,10.86,0,0,1,1.8-.27,2.05,2.05,0,0,1,.74.07,2.7,2.7,0,0,1,.67.36.88.88,0,0,1,.33.88,2.35,2.35,0,0,1-.42.94,3.35,3.35,0,0,1-.53.6l-3.29,3.47a15.22,15.22,0,0,1,2.52.31,4.57,4.57,0,0,1,1.14.41.83.83,0,0,1,.38.36.51.51,0,0,1,0,.4,1.78,1.78,0,0,1-.21.44c-.18.27-.36.53-.56.78-.55.74-1.14,1.46-1.76,2.14a23.12,23.12,0,0,1-2.62,2.42,7,7,0,0,1-1.53.92,5.84,5.84,0,0,1-1.53.39,20.59,20.59,0,0,1-2.48.06l-1.25,0a34.42,34.42,0,0,0-3.77,4.93,26,26,0,0,0-2,3.79,17.86,17.86,0,0,0-1.29,4.41,9.05,9.05,0,0,0-.12,1.37,2.27,2.27,0,0,0,.12.86,2,2,0,0,0,1.91,1.22,4.75,4.75,0,0,0,1-.16,10.06,10.06,0,0,0,1.4-.48,19.18,19.18,0,0,0,2-1c.74-.44,1.47-.9,2.18-1.38q2.18-1.47,4.28-3.05v-.11A14,14,0,0,1,474,32.85a18.25,18.25,0,0,1,1.54-2.25,29.3,29.3,0,0,1,2.5-2.72c.93-.91,1.89-1.77,2.89-2.6A15.27,15.27,0,0,1,483,23.86a8.88,8.88,0,0,1,1.7-.75,8.05,8.05,0,0,1,2.59-.33,4.43,4.43,0,0,1,.72.09,2.08,2.08,0,0,1,1,.49,1.62,1.62,0,0,1,.44.57,1.44,1.44,0,0,1,.13.58,2.47,2.47,0,0,1-.05.61,5.82,5.82,0,0,1-.34,1.17,10.83,10.83,0,0,1-1,1.94,18,18,0,0,1-1.31,1.71c-.73.84-1.5,1.65-2.3,2.41a56.2,56.2,0,0,1-5.35,4.51,9.48,9.48,0,0,0-.41,1.81,2.73,2.73,0,0,0,0,.7,3.84,3.84,0,0,0,.34,1.33,2.62,2.62,0,0,0,.62.82,4,4,0,0,0,3,1,6.88,6.88,0,0,0,1.28-.24,12.38,12.38,0,0,0,2-.77A26.37,26.37,0,0,0,488.69,40c1.48-.94,2.92-2,4.3-3l.7-.55a14.09,14.09,0,0,1,1.23-2.78,19.16,19.16,0,0,1,2.25-3.12,25.69,25.69,0,0,1,3-2.91,29.47,29.47,0,0,1,4.69-3.21,21.82,21.82,0,0,1,5-2,21.07,21.07,0,0,1,5.7-.67,11.44,11.44,0,0,1,1.55.13,7.36,7.36,0,0,1,1.4.35,4.46,4.46,0,0,1,.95.48,3.36,3.36,0,0,1,.62.57,2,2,0,0,1,.45,1.26,3.65,3.65,0,0,1-.1.88,6.48,6.48,0,0,1-.5,1.42,10.57,10.57,0,0,1-1.22,2,13.35,13.35,0,0,1-1.1,1.27,19,19,0,0,1-2.68,2.22,31.87,31.87,0,0,1-4.51,2.58,43.81,43.81,0,0,1-9.75,3.25v.34a5.94,5.94,0,0,0,.29,2,4.56,4.56,0,0,0,3.29,3,6.47,6.47,0,0,0,1.86.15,11.5,11.5,0,0,0,1.83-.25,17.91,17.91,0,0,0,2.76-.84,28.86,28.86,0,0,0,3.45-1.67,48.58,48.58,0,0,0,5.24-3.48C519.69,37.1,520,36.84,520.36,36.57Z" transform="translate(0 0)"/></g><g class="cls-5"><path class="cls-3" d="M390.32,15.7a7.24,7.24,0,0,1,1.41-1.62c.16-.14.33-.27.51-.4a6.56,6.56,0,0,1,1.27-.71,7.05,7.05,0,0,1,1.58-.48q.36-.06.72-.09a3.2,3.2,0,0,1,.69,0,2.09,2.09,0,0,1,1.75,1.79,2.69,2.69,0,0,1,0,.75,5,5,0,0,1-.11.56,6.83,6.83,0,0,1-.87,2,8.81,8.81,0,0,1-1.86,2.09,6.68,6.68,0,0,1-1.89,1.08,5.37,5.37,0,0,1-1.24.31,3,3,0,0,1-.67,0,2.38,2.38,0,0,1-.94-.28,2.75,2.75,0,0,1-.67-.49,2.53,2.53,0,0,1-.48-.66,1.91,1.91,0,0,1-.13-.45,2.54,2.54,0,0,1,0-.55,4.49,4.49,0,0,1,.11-.82,7,7,0,0,1,.86-2.09" transform="translate(0 0)"/></g><g class="cls-6"><path class="cls-3" d="M488.73,15.84a7,7,0,0,1,1.41-1.62c.16-.14.33-.27.51-.4a7.18,7.18,0,0,1,1.27-.72,7.59,7.59,0,0,1,1.58-.47,4.43,4.43,0,0,1,.72-.09,3.83,3.83,0,0,1,.68,0,2.09,2.09,0,0,1,1.76,1.79,2.76,2.76,0,0,1,0,.76,3.69,3.69,0,0,1-.11.56,6.77,6.77,0,0,1-.87,2,8.62,8.62,0,0,1-1.86,2.09,6.85,6.85,0,0,1-1.89,1.09,5.93,5.93,0,0,1-1.24.31,3.75,3.75,0,0,1-.67,0,2.4,2.4,0,0,1-.94-.29,2.74,2.74,0,0,1-.68-.49,2.4,2.4,0,0,1-.47-.66,1.71,1.71,0,0,1-.13-.44,2.63,2.63,0,0,1,0-.56,4.5,4.5,0,0,1,.11-.81,6.84,6.84,0,0,1,.86-2.09" transform="translate(0 0)"/></g></svg>