<?xml version="1.0" encoding="utf-8"?>
<!-- Generator: Adobe Illustrator 24.2.1, SVG Export Plug-In . SVG Version: 6.00 Build 0)  -->
<svg version="1.2" baseProfile="tiny" id="Layer_1" xmlns="http://www.w3.org/2000/svg" xmlns:xlink="http://www.w3.org/1999/xlink"
	 x="0px" y="0px" viewBox="0 0 654.02 110.22" overflow="visible" xml:space="preserve">
<g>
	<g>
		<path fill-rule="evenodd" fill="#FFFFFF" d="M617.87,79.52c0.86-0.03,1.72,0.02,2.57,0.13c2.83,0.27,5.21,2.24,6.01,4.97
			c0.36,1.43,0.32,2.92-0.11,4.33c-0.18,0.64-0.38,1.27-0.6,1.89c-1.52,4.3-2.99,8.61-4.41,12.94c-0.56,1.98-1.75,3.71-3.4,4.94
			c-1.66,1.1-3.63,1.62-5.62,1.48c-2.08-0.06-4.15-0.07-6.23-0.05c-84.27-0.05-168.54-0.14-252.81-0.25c-2.63-0.04-5.26-0.04-7.89,0
			c-2.84,0.11-5.48-1.44-6.78-3.97c-0.79-1.72-0.91-3.68-0.33-5.49c0.21-0.67,0.43-1.33,0.68-1.99c1.63-4.5,3.22-9.02,4.76-13.55
			c0.82-2.61,2.89-4.63,5.52-5.38c1.23-0.25,2.48-0.34,3.73-0.25L617.87,79.52 M232.19,0.27c1.14-0.05,2.27-0.09,3.41-0.12
			l408.46,0.41c0.62,0.04,1.24,0.04,1.86,0c2.29-0.24,4.56,0.56,6.2,2.16c1.74,1.9,2.33,4.58,1.56,7.03
			c-0.09,0.34-0.19,0.67-0.31,0.99c-2.36,6.65-4.66,13.32-6.91,20.01l-0.39,1.12c-1.15,3.87-4.92,6.35-8.93,5.87
			c-0.54-0.02-1.09-0.02-1.63,0c-91.65-0.1-183.3-0.22-274.95-0.37c-1.56,0-3.11,0-4.67,0.02c-7.14,20.8-14.26,41.61-21.36,62.42
			l-1.14,3.26c-0.62,2.01-1.85,3.77-3.51,5.06c-1.76,1.21-3.86,1.83-6,1.76c-1.8,0.02-3.61,0.03-5.41,0.02
			c-19.84-0.08-39.69-0.11-59.53-0.07c-1.03,0.03-2.06-0.02-3.08-0.17c-2.45-0.34-4.57-1.89-5.65-4.12
			c-0.61-1.38-0.8-2.91-0.55-4.39c0.12-0.8,0.32-1.58,0.6-2.34c6.98-20.47,13.92-40.96,20.82-61.45l-44.03-0.05
			c-1.17-0.02-2.33-0.08-3.5-0.16c-3.45,0.12-6.9,0.16-10.35,0.14c-14.52-0.03-29.04-0.04-43.57-0.04
			c-12.33-0.02-24.65,0.07-36.97,0.27c-4.39,0.07-8.76,0.61-13.04,1.61c-6.13,1.47-11.82,4.41-16.57,8.56
			c-1.66,1.43-3.15,3.05-4.44,4.82c-2.64,3.56-3.9,7.96-3.54,12.38c0.34,5.79,4.14,10.79,9.61,12.68c2.33,0.84,4.78,1.29,7.25,1.34
			c4.07,0.07,8.13,0.09,12.2,0.05l3.29,0.02l0.15-0.48c-2.36-0.02-4.73-0.01-7.09,0.03c-1.07,0.02-2.14-0.16-3.15-0.52
			c-3.32-1.21-5.23-4.68-4.47-8.13c0.13-0.67,0.31-1.32,0.55-1.95c2.57-6.93,5.06-13.89,7.48-20.88l0.48-1.31
			c0.81-2.46,2.68-4.43,5.09-5.37c1.23-0.43,2.54-0.62,3.84-0.58c2.47-0.02,4.94-0.02,7.41-0.01c26,0.07,51.99,0.09,77.99,0.08
			c0.94-0.01,1.89,0.12,2.79,0.37c3.74,1.05,5.92,4.93,4.87,8.67c-0.27,1.11-0.62,2.2-1.03,3.26
			c-5.66,16.66-11.27,33.33-16.84,50.01l-0.59,1.7c-0.77,2.5-2.65,4.51-5.08,5.46c-1.36,0.45-2.78,0.65-4.21,0.58
			c-31.58,0.1-63.15,0.07-94.73-0.1c-6.5-0.04-13.01-0.1-19.51-0.18c-6.51-0.08-13.02-0.58-19.47-1.5
			c-10.54-1.49-20.81-4.48-30.5-8.87c-6.24-2.84-12.08-6.49-17.36-10.86c-3.52-2.89-6.54-6.35-8.92-10.23
			c-4.65-7.62-6.22-16.73-4.39-25.47c0.94-4.49,2.63-8.8,5-12.73c3.42-5.7,7.86-10.73,13.11-14.81c3.65-2.84,7.52-5.37,11.58-7.58
			C40.99,11.82,52.28,7.51,63.99,4.77c6.91-1.62,13.92-2.79,20.99-3.51c7.86-0.76,15.75-1.16,23.64-1.22
			c2.87-0.03,5.74-0.04,8.61-0.04c36.96,0.07,73.92,0.12,110.89,0.15C229.47,0.16,230.83,0.19,232.19,0.27z M487.19,59.43
			c0.32-0.04,0.63-0.08,0.94-0.14c0.6-0.13,1.18-0.37,1.69-0.71c-0.71-0.17-1.44-0.27-2.17-0.3l-0.16,0.36L487.19,59.43z
			 M526.15,78.63c-0.98,0.29-2.01,0.4-3.03,0.35c-1.82-0.04-3.64-0.05-5.46-0.02c-1.39,0.01-2.78,0-4.17-0.05
			c-1.04-0.02-2.08-0.15-3.1-0.37c-1.78-0.33-3.39-1.27-4.54-2.67c-0.53,0.28-1.07,0.53-1.63,0.77c-3.53,1.46-7.31,2.24-11.13,2.28
			c-4.69,0.06-9.38,0.06-14.07,0c-4.48-0.04-8.97-0.04-13.45,0.02c-0.71,0.03-1.43,0.01-2.14-0.05c-0.67-0.05-1.33-0.18-1.96-0.4
			c-0.42,0.11-0.85,0.19-1.28,0.23c-0.6,0.07-1.21,0.09-1.82,0.07l-3.48-0.09c-0.78-0.01-1.57,0.02-2.35,0.08
			c-1.33,0.12-2.67,0.16-4,0.11c-1.59-0.07-3.17-0.39-4.65-0.96c-2.77-1.14-4.99-3.3-6.21-6.04c-3.7-0.01-7.4-0.05-11.1-0.13
			c-0.83,1.23-1.8,2.34-2.9,3.33c-2.26,2.02-5.08,3.3-8.08,3.66c-1.52,0.18-3.06,0.19-4.59,0c-0.96-0.1-1.92-0.15-2.88-0.14
			c-2.24,0-4.47,0.04-6.71,0.1l-13.97,0.37l0.46-0.52c-4.32-0.55-8.16-3.02-10.45-6.72c-0.1,0.32-0.21,0.64-0.34,0.95
			c-0.96,2.55-3.04,4.51-5.63,5.33c-1.31,0.38-2.68,0.52-4.04,0.41c-3.04-0.13-6.08-0.15-9.11-0.04c-0.83,0.05-1.67,0.03-2.5-0.04
			c-1.44-0.12-2.81-0.65-3.96-1.52c-1.6-1.24-2.58-3.11-2.68-5.13c-0.06-1.12,0.1-2.24,0.46-3.29l0.79-2.31
			c2.32-6.63,4.58-13.29,6.77-19.97c0.24-0.78,0.56-1.54,0.96-2.25c1.03-1.8,2.73-3.13,4.73-3.71c1-0.27,2.04-0.4,3.09-0.37
			c11.44,0.04,22.88,0.07,34.32,0.07c1.66,0.01,3.32,0.25,4.91,0.73c1.57,0.47,3.04,1.22,4.35,2.21c2.04,1.57,3.54,3.74,4.26,6.21
			l2-2.29c0.96-1.12,1.94-2.23,2.94-3.33c1.83-2.23,4.57-3.51,7.46-3.46c5.44-0.02,10.89-0.02,16.33,0c1.79-0.05,3.59-0.05,5.38,0
			c2,0.04,3.93,0.77,5.46,2.07c1.06,0.97,1.9,2.17,2.43,3.51c1.42,3.15,2.81,6.32,4.17,9.5l1.15,2.6l0.41-1.15
			c1.23-3.58,2.5-7.14,3.79-10.69c0.79-2.41,2.58-4.36,4.92-5.34c1.21-0.45,2.49-0.66,3.78-0.62c8.08,0.01,16.16,0.03,24.24,0.06
			l2.51,0.04c3.67,0.01,7.23,1.21,10.16,3.42c0.61,0.48,1.18,1.01,1.72,1.58c0.93-1.9,2.49-3.41,4.41-4.28
			c1.46-0.58,3.03-0.82,4.59-0.7c2.38,0.09,4.76,0.1,7.14,0.02L532.3,40c0.98-0.04,1.96,0.07,2.9,0.32
			c3.62,1.02,5.77,4.73,4.85,8.38l4.75-5.41c1.73-1.96,4.19-3.13,6.8-3.23c0.97-0.03,1.94-0.04,2.92-0.03
			c6.22,0.06,12.45,0.06,18.67,0c3.4-0.12,6.55,1.74,8.1,4.76c0.46,0.9,0.88,1.81,1.26,2.75c1.37,3.17,2.76,6.34,4.17,9.5
			c1.04-3.06,2.07-6.13,3.08-9.21c0.25-0.8,0.53-1.58,0.83-2.36c1.29-3.4,4.61-5.58,8.24-5.42c3.52,0.1,7.05,0.11,10.57,0.03
			c0.75-0.03,1.49-0.02,2.24,0.04c1.4,0.11,2.75,0.6,3.9,1.42c1.83,1.36,2.89,3.52,2.84,5.8c-0.02,1.08-0.23,2.16-0.61,3.17
			c-1.06,3.01-2.1,6.04-3.11,9.07c3.61-0.01,7.23-0.01,10.84,0.01c0.75-0.01,1.5,0.06,2.23,0.19c2.76,0.5,4.98,2.57,5.67,5.3
			c0.34,1.72,0.21,3.5-0.37,5.15c-0.26,0.9-0.54,1.78-0.85,2.66c-0.42,1.21-1.07,2.33-1.91,3.29c-1.26,1.38-2.95,2.31-4.79,2.63
			c-1.7,0.25-3.42,0.34-5.13,0.26l-13.51-0.02c-5.56-0.05-11.13-0.05-16.69,0.01c-1.16,0.03-2.32-0.15-3.42-0.53
			c-0.94,0.2-1.9,0.27-2.86,0.21c-3.18-0.15-6.37-0.16-9.56-0.02c-0.68,0.03-1.35,0.03-2.03-0.01c-1.86-0.11-3.64-0.76-5.13-1.86
			c-1.61-1.29-2.76-3.06-3.28-5.05c-2.26,0.33-4.56,0.33-6.83,0.01c-1.31-0.21-2.64-0.2-3.95,0.02c-1.33,0.28-2.46,1.12-3.1,2.32
			c-1.17,2.16-3.2,3.71-5.59,4.28c-0.87,0.18-1.76,0.25-2.64,0.22L526.15,78.63z"/>
	</g>
	<g>
		<path fill="#ED242B" d="M232.17,6.36c1.33-0.05,2.66-0.13,3.98-0.13C372.06,6.37,507.97,6.5,643.88,6.64
			c0.78,0,1.55,0.05,2.33-0.01c1.84-0.16,1.97,0.59,1.42,2.15c-2.49,6.99-4.91,14.01-7.27,21.04c-0.47,1.4-1.18,2.01-2.64,1.87
			c-0.77-0.07-1.55-0.02-2.33-0.02c-93.12-0.1-186.24-0.17-279.36-0.38c-3.53-0.01-4.89,1.07-5.98,4.32
			c-7.34,21.83-14.95,43.57-22.36,65.38c-0.75,2.2-1.76,2.85-4,2.85c-21.84-0.1-43.68-0.13-65.51-0.08c-2.51,0-3.01-0.53-2.16-3.02
			c7.36-21.48,14.6-43,21.85-64.51c1.82-5.39,2.34-4.92-3.34-4.93c-15.75-0.03-31.49-0.03-47.23-0.06c-1.21,0-2.42-0.11-3.64-0.17
			C226.5,22.84,229.33,14.6,232.17,6.36"/>
	</g>
	<g>
		<path fill="#1252A1" d="M232.17,6.36c-2.84,8.24-5.67,16.48-8.5,24.72c-2.54,0.05-5.09,0.15-7.64,0.15
			c-27.82,0.04-55.65-0.24-83.47,0.22c-12.35,0.21-24.19,3.3-33.79,11.91C92.26,49.2,88.29,56.45,89,65.33
			C89.93,77.05,99.05,84.69,111.82,85c5.87,0.15,11.75-0.02,17.63,0.08c1.69,0.03,2.64-0.43,3.13-2.13c0.8-2.76,1.7-5.51,2.77-8.18
			c0.84-2.12-0.02-2.41-1.86-2.38c-4.21,0.08-8.42-0.06-12.63,0.06c-2.15,0.05-2.4-0.61-1.7-2.51c2.69-7.27,5.31-14.57,7.84-21.9
			c0.56-1.63,1.35-2.2,3.09-2.19c28.48,0.08,56.98,0.11,85.46,0.08c2.25,0,2.24,0.72,1.63,2.52c-6.03,17.72-12.01,35.45-17.91,53.21
			c-0.56,1.69-1.36,2.2-3.07,2.19c-38.24-0.09-76.5,0.17-114.73-0.3c-16.34-0.2-32.42-2.89-47.53-9.82
			c-5.79-2.66-11.12-5.96-16.01-10.02C5.19,73.15,2.51,57.4,10.97,43.12c5.25-8.88,13.03-14.99,21.86-19.9
			C49.24,14.07,66.95,9.22,85.58,7.31c9.61-0.98,19.22-1.25,28.88-1.22c38.13,0.1,76.27,0.11,114.4,0.15
			C229.96,6.24,231.06,6.32,232.17,6.36"/>
	</g>
	<g>
		<path fill="#1252A1" d="M485.43,85.46c43.99,0.04,88,0.09,131.99,0.13c3.68,0,3.69,0.01,2.48,3.54
			c-1.47,4.29-3.02,8.57-4.39,12.89c-0.48,1.54-1.24,2.18-2.84,2.08c-1.77-0.11-3.55-0.04-5.32-0.04
			c-86.33-0.09-172.67-0.17-259-0.26c-0.89,0-1.77-0.04-2.66,0c-1.53,0.07-1.99-0.49-1.45-1.99c1.8-5,3.59-10.01,5.29-15.04
			c0.61-1.82,1.98-1.44,3.24-1.44c10.75-0.01,21.5,0.01,32.25,0.02C418.49,85.4,451.97,85.43,485.43,85.46"/>
	</g>
	<g>
		<path fill="none" d="M433.03,55.17c-0.97,1.12-1.94,2.26-3.37,3.94c2.49,0,4.31-0.13,6.1,0.04c2.89,0.28,3.36-0.59,2.11-3.19
			C435.88,51.81,436.01,51.74,433.03,55.17z"/>
		<path d="M460.14,70.31c-3.4-7.43-6.69-14.92-9.95-22.42c-0.58-1.32-1.32-1.8-2.74-1.79c-7.08,0.05-14.16,0.03-21.24,0
			c-1.07,0-1.89,0.29-2.61,1.11c-7.2,8.23-14.43,16.43-22.33,25.41l0,0c4.1,0,7.3-0.28,10.43,0.08c4.28,0.49,7.43-0.82,9.87-4.38
			c0.87-1.28,1.8-2.74,3.88-2.68c4.86,0.15,9.73,0.14,14.6,0.16c1.19,0,2.33,0.18,2.58,1.53c1.05,5.57,5.03,5.75,9.48,5.37
			c2.09-0.18,4.2-0.08,6.3,0c0.94,0.03,1.62-0.02,1.94-0.36l0.2-0.73C460.52,71.28,460.39,70.86,460.14,70.31z M435.75,59.15
			c-1.79-0.17-3.61-0.04-6.1-0.04c1.44-1.68,2.4-2.82,3.37-3.94c2.98-3.43,2.85-3.37,4.84,0.78
			C439.11,58.56,438.64,59.42,435.75,59.15z"/>
	</g>
	<g>
		<path fill="none" d="M491.22,52.66c-6.36-1.32-8.16-0.23-10.19,5.89c-0.21,0.63-0.42,1.26-0.62,1.89c-1.7,5.11-1.7,5.11,4.02,5.12
			c2.87,0.14,6.17-0.06,9.02-2.1c2.1-1.51,3.4-3.56,2.89-6.24C495.82,54.49,493.7,53.18,491.22,52.66z"/>
		<path d="M504.29,46.7l-1.2-0.33c-0.75-0.16-1.53-0.25-2.36-0.27c-8.96-0.17-17.92-0.03-26.87-0.11c-1.62-0.02-2.33,0.58-2.84,2.06
			c-2.58,7.4-5.2,14.79-7.98,22.11l-0.32,1.16c-0.11,0.73,0.08,1.13,0.54,1.33l0.56,0.15c0.37,0.05,0.83,0.06,1.35,0.05
			c4.64-0.09,9.29-0.02,13.93-0.02c4.64,0.01,9.29,0.1,13.93,0c9.27-0.2,15.64-4.64,17.51-11.85l0-0.01
			c0.27-1.03,0.44-2.12,0.52-3.26C511.42,52.39,508.78,48.2,504.29,46.7z M493.44,63.46c-2.85,2.04-6.15,2.23-9.02,2.1
			c-5.71-0.01-5.71-0.01-4.02-5.12c0.2-0.63,0.41-1.26,0.62-1.89c2.04-6.12,3.84-7.21,10.19-5.89c2.48,0.52,4.6,1.83,5.12,4.56
			C496.84,59.9,495.54,61.95,493.44,63.46z"/>
	</g>
	<path d="M408.18,51.67c-0.55-3.42-3.47-5.57-7.88-5.63c-5.64-0.06-11.29-0.02-16.94-0.04c-5.75-0.01-11.51,0.01-17.27-0.03
		c-1.41-0.01-2.43,0.1-2.98,1.81c-2.42,7.46-4.98,14.88-7.56,22.29l-0.21,0.76c-0.24,1.18,0.25,1.65,1.88,1.61
		c3.54-0.1,7.09-0.17,10.62,0.03c2.26,0.13,3.33-0.52,3.93-2.81c1.31-5.03,2.94-9.97,4.49-14.93c0.3-0.97,0.36-2.24,1.97-2.21
		c3.76,0.05,7.53-0.03,11.29,0.06c1.24,0.03,2.43,0.53,2.76,1.96c0.33,1.47-0.31,2.58-1.48,3.41c-1.84,1.29-3.96,1.23-6.07,1.23
		c-6.06,0-5.55-0.15-3.71,5.71c1.93,6.16,5.22,8.24,11.67,7.71c7.9-0.66,8.04-0.19,4.82-7.44c-1.2-2.7-1.66-4.45,2.2-4.5
		c0.96-0.02,1.93-0.45,2.86-0.79c2.88-1.03,4.68-2.61,5.39-4.67l0.22-0.81C408.33,53.54,408.33,52.64,408.18,51.67z"/>
	<g>
		<path fill="none" d="M555.62,58.98c3.36,0,6.17,0,9.29,0.01c-1.05-2.39-1.99-4.51-3.11-7.07
			C559.61,54.42,557.74,56.56,555.62,58.98z"/>
		<path d="M585.83,69.88c-3.28-7.14-6.44-14.34-9.58-21.54c-0.48-1.1-1-1.82-1.98-2.1l-0.02-0.01c-0.33-0.09-0.7-0.13-1.15-0.13
			c-6.86,0.1-13.73,0.05-20.61,0c-1.27,0-2.28,0.22-3.21,1.28c-7.13,8.18-14.33,16.29-22.15,25.16l0,0c5.7,0,10.53,0,15.36,0.02
			c1.01,0,1.72-0.52,2.18-1.3c3.04-5.24,7.78-6.19,13.3-5.47c1.63,0.21,3.35,0.25,4.98,0c3.62-0.56,5.93,0.62,6.81,4.31
			c0.49,2.04,1.86,2.67,3.94,2.56c3.43-0.17,6.87-0.16,10.31,0c1.25,0.06,1.96-0.09,2.23-0.53l0.12-0.43
			C586.38,71.27,586.19,70.68,585.83,69.88z M555.62,58.98c2.12-2.42,3.99-4.55,6.18-7.06c1.13,2.56,2.06,4.69,3.11,7.07
			C561.8,58.98,558.99,58.98,555.62,58.98z"/>
	</g>
	<path d="M627.33,68.13c0.59-2.01,0.05-2.49-1.92-2.46c-5.32,0.09-10.64-0.16-15.94,0.08c-3.16,0.14-3.09-0.97-2.21-3.34
		c1.69-4.56,3.1-9.23,4.76-13.8c0.72-1.96,0.22-2.52-1.8-2.45c-3.76,0.1-7.54,0.11-11.3-0.02c-1.63-0.05-2.33,0.57-2.82,2.06
		c-2.47,7.45-4.98,14.89-7.59,22.29l-0.24,0.88c-0.18,0.9,0.06,1.36,0.81,1.54l0,0c0.32,0.08,0.73,0.1,1.24,0.1
		c5.53-0.09,11.07-0.02,16.61-0.02c4.65,0,9.3,0.01,13.96,0.01C625.99,72.99,625.91,72.97,627.33,68.13z"/>
	<path d="M534.1,47.38c0.14-0.74-0.07-1.1-0.68-1.23l-0.01,0c-0.27-0.06-0.6-0.07-1.02-0.07c-3.76,0.08-7.53,0.18-11.29,0.02
		c-1.93-0.07-2.7,0.71-3.29,2.41c-1.89,5.54-3.92,11.04-5.91,16.55c-1.76,4.88-2.43,6.7-0.66,7.39l0.67,0.18
		c1.14,0.23,2.89,0.23,5.43,0.24c1.99,0,3.98-0.05,5.98,0.02c1.42,0.06,2.15-0.44,2.63-1.86c2.57-7.66,5.2-15.28,7.93-22.87
		L534.1,47.38z"/>
</g>
</svg>
