<?xml version="1.0" encoding="utf-8"?>
<!-- Generator: Adobe Illustrator 24.2.1, SVG Export Plug-In . SVG Version: 6.00 Build 0)  -->
<svg version="1.2" baseProfile="tiny" id="Layer_1" xmlns="http://www.w3.org/2000/svg" xmlns:xlink="http://www.w3.org/1999/xlink"
	 x="0px" y="0px" viewBox="0 0 417.4 140.7" overflow="visible" xml:space="preserve">
<path fill="#FF7C00" d="M348.18,0.28H69.5C31.28,0.29,0.29,31.65,0.28,70.34v0.03c0.01,38.68,30.98,70.03,69.19,70.05h278.73
	c38.22-0.02,69.19-31.38,69.19-70.07C417.4,31.66,386.41,0.29,348.18,0.28z"/>
<path d="M344.44,5.57H72.87C35.61,5.57,5.4,34.6,5.4,70.41c0,35.81,30.21,64.84,67.47,64.84h271.57c37.27,0,67.47-29.03,67.47-64.84
	C411.91,34.6,381.7,5.57,344.44,5.57z"/>
<g>
	<path fill="none" d="M340.66,101.94c0.19-0.18,0.28-0.52,0.28-1.04v-1.54c0-0.47-0.1-0.81-0.3-1.01c-0.2-0.2-0.56-0.3-1.08-0.3
		h-6.85v4.15h6.85C340.11,102.21,340.48,102.12,340.66,101.94z"/>
	<path fill="none" d="M218.3,101.94c0.19-0.18,0.28-0.52,0.28-1.04v-1.54c0-0.47-0.1-0.81-0.3-1.01c-0.2-0.2-0.56-0.3-1.08-0.3
		h-6.85v4.15h6.85C217.75,102.21,218.11,102.12,218.3,101.94z"/>
	<path fill="#FFFFFF" d="M52.72,108.41c0.43-0.42,0.64-1.22,0.64-2.41v-1.54c0-1.19-0.22-1.99-0.66-2.41
		c-0.44-0.42-1.26-0.63-2.47-0.63h-8.25v-3.33H51v1.69l2.21-0.47v-0.31c0-1.05-0.23-1.78-0.68-2.19c-0.45-0.41-1.28-0.62-2.47-0.62
		H42.9c-1.21,0-2.04,0.22-2.47,0.64c-0.43,0.43-0.65,1.23-0.65,2.41v1.21c0,1.19,0.22,1.99,0.65,2.41c0.43,0.42,1.26,0.63,2.47,0.63
		h8.28v3.62h-9.71v-1.91l-2.22,0.46V106c0,1.19,0.22,1.99,0.66,2.41c0.44,0.42,1.26,0.63,2.48,0.63h7.86
		C51.47,109.04,52.29,108.83,52.72,108.41z"/>
	<rect x="74.42" y="96.21" fill="#FFFFFF" width="2.42" height="12.83"/>
	<path fill="#FFFFFF" d="M112.28,108.4c0.44-0.42,0.66-1.22,0.66-2.4v-4.15h-7.68v1.75h5.25v3.5h-10.16v-9.01h10.16v1.75l2.43-0.41
		v-0.37c0-1.07-0.23-1.81-0.68-2.24c-0.45-0.42-1.28-0.64-2.47-0.64h-8.72c-1.21,0-2.04,0.22-2.49,0.64
		c-0.44,0.43-0.67,1.23-0.67,2.41V106c0,1.19,0.22,1.99,0.66,2.41c0.44,0.42,1.26,0.63,2.48,0.63h8.75
		C111.01,109.04,111.84,108.83,112.28,108.4z"/>
	<path fill="#FFFFFF" d="M148.66,96.18h-2.24v7.76c0,0.42,0.02,0.83,0.05,1.23c0.03,0.4,0.09,0.79,0.16,1.17
		c-0.25-0.37-0.5-0.69-0.75-0.98c-0.25-0.29-0.52-0.55-0.79-0.79l-9.44-8.4h-1.85v12.86h2.24v-7.99c0-0.39-0.01-0.77-0.04-1.16
		c-0.03-0.39-0.07-0.77-0.13-1.14c0.19,0.3,0.4,0.59,0.64,0.87c0.24,0.28,0.53,0.58,0.87,0.9l9.63,8.52h1.66V96.18z"/>
	<polygon fill="#FFFFFF" points="188.73,96.18 186.56,96.18 183,106 179.3,96.18 177.7,96.18 173.9,106 170.35,96.18 167.83,96.18 
		172.81,109.04 174.63,109.04 178.42,99.45 182.04,109.04 183.81,109.04 	"/>
	<path fill="#FFFFFF" d="M216.57,104h1.7c0.96,0,1.65-0.19,2.07-0.58s0.63-1.01,0.63-1.88v-2.87c0-0.88-0.21-1.51-0.63-1.9
		c-0.42-0.39-1.11-0.58-2.06-0.59h-10.34v12.86h2.43V104h3.51l5.13,5.04h3.24L216.57,104z M210.36,102.21v-4.15h6.85
		c0.52,0,0.88,0.1,1.08,0.3c0.2,0.2,0.3,0.53,0.3,1.01v1.54c0,0.51-0.09,0.86-0.28,1.04s-0.55,0.27-1.1,0.27H210.36z"/>
	<rect x="241.95" y="96.21" fill="#FFFFFF" width="2.42" height="12.83"/>
	<polygon fill="#FFFFFF" points="271.93,109.04 271.93,98.09 278.04,98.09 278.04,96.18 263.44,96.18 263.44,98.09 269.52,98.09 
		269.52,109.04 	"/>
	<polygon fill="#FFFFFF" points="310.24,107.16 299.6,107.16 299.6,103.31 305.94,103.31 305.94,101.39 299.6,101.39 299.6,98.09 
		310.12,98.09 310.12,96.18 297.17,96.18 297.17,109.04 310.24,109.04 	"/>
	<path fill="#FFFFFF" d="M338.93,104h1.7c0.96,0,1.65-0.19,2.07-0.58s0.63-1.01,0.63-1.88v-2.87c0-0.88-0.21-1.51-0.63-1.9
		c-0.42-0.39-1.11-0.58-2.06-0.59h-10.34v12.86h2.43V104h3.51l5.13,5.04h3.24L338.93,104z M332.72,102.21v-4.15h6.85
		c0.52,0,0.88,0.1,1.08,0.3c0.2,0.2,0.3,0.53,0.3,1.01v1.54c0,0.51-0.09,0.86-0.28,1.04c-0.19,0.18-0.55,0.27-1.1,0.27H332.72z"/>
	<path fill="#FFFFFF" d="M365.15,96.82c-0.43,0.43-0.65,1.23-0.65,2.41v1.21c0,1.19,0.22,1.99,0.65,2.41
		c0.43,0.42,1.26,0.63,2.47,0.63h8.28v3.62h-9.7v-1.91l-2.22,0.46V106c0,1.19,0.22,1.99,0.66,2.41c0.44,0.42,1.26,0.63,2.48,0.63
		h7.86c1.21,0,2.04-0.21,2.46-0.63c0.43-0.42,0.64-1.22,0.64-2.41v-1.54c0-1.19-0.22-1.99-0.66-2.41c-0.44-0.42-1.26-0.63-2.47-0.63
		h-8.25v-3.33h9.02v1.69l2.21-0.47v-0.31c0-1.05-0.23-1.78-0.68-2.19c-0.45-0.41-1.28-0.62-2.47-0.62h-7.16
		C366.4,96.18,365.58,96.39,365.15,96.82z"/>
</g>
<g>
	<path fill="none" d="M291.48,56.34c-0.1,0.01-0.2,0.03-0.3,0.04c-0.11,0.01-0.22,0.03-0.33,0.05c-0.19,0.03-0.38,0.07-0.56,0.13
		c-0.01,0.02-0.02,0.05-0.03,0.07c-0.08,0.22-0.16,0.44-0.23,0.66l0,0.01h13.38c0.26,0,0.53-0.01,0.79-0.02
		c0.24-0.01,0.48-0.03,0.72-0.06c0.12-0.02,0.25-0.03,0.37-0.05c0.1-0.02,0.2-0.04,0.3-0.06c0.08-0.02,0.15-0.04,0.23-0.06
		c0.06-0.02,0.11-0.04,0.17-0.06l0.06-0.05c0.01-0.01,0.01-0.03,0.02-0.04c0.07-0.15,0.13-0.31,0.19-0.47
		c0.01-0.03,0.02-0.06,0.03-0.09h-14.65C291.6,56.32,291.54,56.33,291.48,56.34z"/>
	<path fill="#FF7C00" d="M388.2,50.21c-0.02-0.33-0.04-0.66-0.08-0.98c-0.06-0.48-0.14-0.95-0.23-1.42
		c-0.1-0.47-0.21-0.93-0.35-1.39c-0.09-0.31-0.19-0.62-0.3-0.92c-0.17-0.47-0.36-0.93-0.57-1.38c-0.22-0.47-0.48-0.93-0.75-1.37
		c-0.38-0.6-0.8-1.18-1.27-1.72c-0.23-0.27-0.47-0.53-0.72-0.79c-0.26-0.26-0.52-0.52-0.8-0.77c-0.29-0.26-0.58-0.51-0.88-0.75
		c-0.45-0.36-0.91-0.71-1.38-1.04c-0.49-0.35-1-0.68-1.51-0.99c-0.72-0.44-1.45-0.85-2.21-1.22c-0.81-0.4-1.65-0.76-2.5-1.07
		c-0.44-0.16-0.88-0.3-1.33-0.44c-0.67-0.2-1.35-0.37-2.04-0.52c-0.7-0.15-1.4-0.28-2.11-0.39c-0.47-0.07-0.94-0.14-1.42-0.21
		c-0.79-0.11-1.58-0.2-2.37-0.27c-0.42-0.04-0.85-0.07-1.27-0.09c-0.44-0.02-0.88-0.03-1.32-0.03h-13.27c-0.8,0-1.6,0.02-2.39,0.05
		c-1.22,0.05-2.44,0.16-3.65,0.33c-0.61,0.08-1.23,0.19-1.83,0.31c-0.62,0.12-1.23,0.26-1.84,0.42c-2.96,0.79-5.8,2-8.43,3.58
		c-0.6,0.36-1.18,0.74-1.75,1.14c-0.27,0.19-0.54,0.38-0.8,0.58c-0.03-0.03-0.07-0.06-0.1-0.1c-0.71-0.66-1.46-1.26-2.26-1.8
		c-0.41-0.28-0.83-0.54-1.26-0.79c-0.46-0.26-0.93-0.51-1.4-0.74c-1-0.48-2.04-0.9-3.09-1.24c-0.57-0.18-1.14-0.35-1.72-0.5
		c-0.61-0.16-1.23-0.29-1.85-0.41c-0.66-0.13-1.32-0.23-1.98-0.32c-1.03-0.14-2.07-0.24-3.11-0.3c-1.07-0.07-2.13-0.1-3.2-0.1
		h-15.86c-0.33,0-0.65,0.01-0.98,0.03c-0.43,0.02-0.86,0.05-1.28,0.1c-0.33,0.03-0.67,0.07-1,0.11c-0.38,0.04-0.75,0.09-1.12,0.15
		c-0.14,0.02-0.28,0.04-0.42,0.06c-0.12,0.02-0.24,0.03-0.36,0.05c-0.16,0.02-0.33,0.04-0.49,0.06c-0.39,0.05-0.78,0.1-1.17,0.16
		c-0.54,0.09-1.08,0.19-1.61,0.31c-0.93,0.21-1.86,0.45-2.78,0.72c-0.52,0.15-1.04,0.31-1.55,0.49c-0.53,0.18-1.06,0.37-1.59,0.58
		c-0.52,0.2-1.03,0.43-1.54,0.66c-0.74,0.34-1.46,0.72-2.15,1.14c-0.68,0.4-1.33,0.84-1.97,1.31c-0.82,0.61-1.59,1.27-2.33,1.98
		c-0.71,0.69-1.37,1.42-1.99,2.19c-0.32,0.39-0.62,0.79-0.91,1.19c-0.47,0.66-0.9,1.35-1.3,2.06c-0.08,0.15-0.17,0.31-0.25,0.46
		c-0.09-0.4-0.19-0.79-0.3-1.19c-0.19-0.65-0.41-1.29-0.67-1.92c-0.26-0.62-0.55-1.21-0.89-1.79c-0.45-0.77-0.97-1.49-1.55-2.16
		c-0.29-0.33-0.59-0.65-0.91-0.96c-0.32-0.31-0.65-0.6-0.98-0.88c-0.71-0.59-1.46-1.13-2.24-1.62c-0.84-0.53-1.73-0.99-2.64-1.38
		c-0.46-0.19-0.92-0.37-1.4-0.53c-0.62-0.21-1.24-0.4-1.87-0.57c-0.48-0.13-0.96-0.24-1.44-0.35c-0.21-0.05-0.43-0.09-0.65-0.14
		c-0.24-0.05-0.49-0.09-0.74-0.13c-0.15-0.02-0.3-0.04-0.45-0.05c-0.01,0-0.01,0-0.02,0c-0.09-0.01-0.19-0.03-0.28-0.04
		c-0.3-0.04-0.6-0.08-0.9-0.11c-0.18-0.02-0.35-0.04-0.53-0.06c-0.27-0.03-0.54-0.05-0.81-0.07c-0.16-0.01-0.33-0.03-0.49-0.05
		c-0.19-0.02-0.38-0.04-0.56-0.06c-0.35-0.04-0.7-0.06-1.05-0.09c-0.41-0.03-0.82-0.04-1.23-0.04H227.3c-0.8,0-1.61,0.03-2.41,0.08
		l0.49-1.08h-19.42l2.92-9.94l-11.27-0.66c-0.49-0.03-0.98-0.04-1.47-0.03c-0.71,0.01-1.41,0.06-2.12,0.14
		c-0.66,0.07-1.32,0.17-1.97,0.28c-0.89,0.15-1.78,0.35-2.65,0.6c-0.87,0.24-1.73,0.53-2.56,0.87c-0.82,0.33-1.62,0.71-2.39,1.13
		c-0.59,0.32-1.16,0.67-1.71,1.04l1.51-5.5l-11.83,0.14c-0.57,0.01-1.15,0.04-1.72,0.1c-0.41,0.04-0.83,0.1-1.24,0.16
		c-0.6,0.1-1.2,0.21-1.79,0.35c-0.56,0.13-1.12,0.27-1.67,0.43c-1.03,0.29-2.04,0.64-3.03,1.04c-0.5,0.2-0.98,0.42-1.47,0.65
		c-0.48,0.23-0.96,0.49-1.42,0.76c-0.89,0.52-1.74,1.1-2.54,1.74c-0.73,0.58-1.41,1.22-2.05,1.9c-0.29,0.32-0.58,0.64-0.85,0.98
		c-0.2,0.25-0.4,0.51-0.58,0.78c-0.28,0.4-0.53,0.81-0.77,1.24c-0.24,0.43-0.45,0.88-0.63,1.34l-0.68,1.72l-13.28-0.03
		c-0.99,0-1.98,0.04-2.96,0.14c-1.41,0.13-2.82,0.35-4.21,0.64c-1.3,0.27-2.58,0.61-3.85,0.99c-0.05,0.02-0.1,0.03-0.15,0.05
		l1.06-3.85l-12.29,0.6c-2.03,0.1-4.04,0.42-5.99,0.96c-0.94,0.26-1.87,0.57-2.77,0.93c-0.88,0.35-1.73,0.76-2.56,1.21
		c-0.8,0.44-1.57,0.93-2.31,1.47c-0.71,0.52-1.38,1.08-2.02,1.68c-0.29,0.27-0.56,0.55-0.83,0.84l2.15-8.09l-12.35,0.79
		c-0.96,0.06-1.91,0.17-2.85,0.34c-0.98,0.17-1.95,0.41-2.9,0.7c-0.96,0.29-1.9,0.64-2.82,1.03c-0.91,0.39-1.8,0.82-2.66,1.29
		c-0.83,0.45-1.63,0.94-2.41,1.48c-0.37,0.26-0.74,0.52-1.1,0.8c-0.34,0.26-0.68,0.54-1.01,0.82c-0.03,0.02-0.05,0.04-0.08,0.07
		l1.66-6.1l-11.29-0.33c-0.43-0.01-0.86-0.01-1.29,0c-0.68,0.02-1.36,0.08-2.04,0.18c-0.72,0.11-1.43,0.25-2.13,0.43
		c-0.48,0.13-0.95,0.26-1.42,0.42c-0.72,0.23-1.43,0.49-2.13,0.78c-0.7,0.28-1.39,0.59-2.08,0.92c-0.89,0.43-1.75,0.9-2.59,1.4
		c-0.41,0.25-0.81,0.51-1.21,0.78c-0.38,0.26-0.76,0.54-1.12,0.83c-0.35,0.28-0.7,0.57-1.03,0.87c-0.47,0.43-0.92,0.89-1.34,1.37
		c-0.63,0.73-1.2,1.53-1.69,2.36c-0.29,0.5-0.54,1.01-0.77,1.54c-0.22,0.53-0.41,1.08-0.56,1.64l-9.73,36.45v0l5.73,0.22l20.03,0.03
		l32.22,0.03c1.95,0,3.89-0.16,5.81-0.48c1.83-0.3,3.63-0.72,5.39-1.28c0.1-0.03,0.2-0.06,0.3-0.1l-0.51,1.87l28.52,0.07l6.5-24.57
		c0.07-0.02,0.15-0.03,0.23-0.05c0.08-0.02,0.17-0.03,0.25-0.04c0.03,0,0.07-0.01,0.1,0l5.33,0.03c0.83,0.01,1.67-0.03,2.5-0.1
		c0.04,0,0.07-0.01,0.11-0.01l-6.66,24.66l28.61,0.07l2.5-9.27c0.13,0.24,0.26,0.48,0.4,0.72c0.38,0.63,0.81,1.23,1.28,1.79
		c0.24,0.28,0.49,0.56,0.76,0.82c0.27,0.27,0.55,0.53,0.85,0.79c0.3,0.25,0.6,0.5,0.91,0.73c0.48,0.36,0.99,0.7,1.5,1.01
		c0.54,0.33,1.1,0.63,1.67,0.9c0.78,0.38,1.59,0.7,2.41,0.99c0.85,0.29,1.71,0.54,2.58,0.73c0.43,0.1,0.87,0.19,1.31,0.27
		c0.69,0.13,1.39,0.23,2.08,0.3c0.73,0.08,1.47,0.12,2.21,0.12l17.2,0.03l10.02-0.12l-0.1-0.8c1.22,0.22,2.45,0.39,3.69,0.51
		c1.35,0.13,2.72,0.2,4.08,0.2l34.11,0.03l-3.5-11.52c-0.18-0.59-0.38-1.16-0.62-1.73l9.99-0.01c0.02,0.05,0.04,0.09,0.06,0.14
		c0.3,0.77,0.65,1.52,1.05,2.25c0.21,0.39,0.43,0.77,0.67,1.14c0.24,0.38,0.49,0.75,0.75,1.11c0.55,0.74,1.15,1.44,1.81,2.09
		c0.67,0.66,1.38,1.26,2.15,1.81c0.39,0.28,0.78,0.54,1.19,0.79c0.61,0.38,1.25,0.73,1.9,1.05c0.68,0.33,1.37,0.64,2.07,0.92
		c1.07,0.43,2.16,0.78,3.28,1.06c0.66,0.17,1.32,0.31,1.99,0.43c0.76,0.13,1.52,0.24,2.28,0.32c0.85,0.09,1.71,0.17,2.57,0.22
		c1.43,0.09,2.87,0.14,4.3,0.17c1.58,0.03,3.16,0.05,4.75,0.05c1.11,0,2.23,0,3.34-0.01c1.67-0.01,3.34-0.05,5.01-0.11
		c0.79-0.03,1.58-0.07,2.36-0.12c0.73-0.04,1.47-0.1,2.2-0.17c0.87-0.08,1.74-0.19,2.6-0.33c1.11-0.17,2.21-0.41,3.29-0.7
		c0.11-0.03,0.22-0.06,0.33-0.09l-0.36,1.28l28.88,0.22l6.71-24.52h10.43l-6.78,24.45l28.71-0.03l7.44-27.03
		c0.17-0.6,0.29-1.21,0.36-1.83c0.03-0.29,0.05-0.59,0.07-0.88V50.21z M306.27,56.41c-0.06,0.16-0.12,0.32-0.19,0.47
		c-0.01,0.01-0.01,0.03-0.02,0.04L306,56.97c-0.06,0.02-0.11,0.04-0.17,0.06c-0.08,0.02-0.15,0.04-0.23,0.06
		c-0.1,0.02-0.2,0.04-0.3,0.06c-0.12,0.02-0.25,0.04-0.37,0.05c-0.24,0.03-0.48,0.05-0.72,0.06c-0.26,0.02-0.53,0.02-0.79,0.02
		h-13.38l0-0.01c0.07-0.22,0.15-0.44,0.23-0.66c0.01-0.02,0.02-0.05,0.03-0.07c0.18-0.05,0.37-0.1,0.56-0.13
		c0.11-0.02,0.22-0.03,0.33-0.05c0.1-0.01,0.2-0.03,0.3-0.04c0.06-0.01,0.12-0.02,0.18-0.02h14.65
		C306.3,56.34,306.29,56.37,306.27,56.41z"/>
</g>
<g>
	<path fill="none" d="M199.45,61.19c0.72,0.18,1.58,0.51,2.44,0.83c0.02-1.71,0.05-3.43,0.45-5.3c0.4-1.88,1.18-3.91,1.97-5.95
		c-0.57,0.13-1.15,0.26-1.71,0.34c-0.57,0.08-1.12,0.12-1.68,0.12l-5.14,0.03l-2.66,9.69l4.48-0.02
		C198.17,60.94,198.74,61.01,199.45,61.19z"/>
	<path fill="none" d="M310.44,52.16c-0.35-0.04-0.7-0.07-1.06-0.07h-17.86c-0.14,0-0.28,0.02-0.4,0.03
		c-0.12,0.01-0.23,0.03-0.47,0.06c-0.24,0.03-0.6,0.08-1.05,0.18c-0.45,0.1-0.99,0.27-1.38,0.45c-0.4,0.18-0.65,0.38-0.89,0.61
		c-0.24,0.23-0.47,0.51-0.72,1.03c-0.25,0.52-0.51,1.29-0.78,2.18c-0.26,0.89-0.53,1.89-0.67,2.66c-0.15,0.77-0.18,1.3-0.14,1.83
		l0.14,0.17c0.34,0.06,0.68,0.12,1.13,0.15c0.45,0.04,1,0.06,1.55,0.06h15.6c0.92,0,1.85-0.07,2.61-0.2s1.35-0.32,1.82-0.54
		c0.47-0.22,0.84-0.47,1.16-0.79c0.33-0.32,0.61-0.72,0.9-1.34c0.29-0.62,0.58-1.48,0.87-2.55c0.29-1.08,0.58-2.38,0.8-3.7
		l-0.12-0.07C311.13,52.26,310.79,52.2,310.44,52.16z"/>
	<path d="M58.77,76.9l0.01-0.02l32.21,0.03c3.47,0,6.92-0.61,9.93-1.56c3.02-0.95,5.6-2.55,8.18-4.16l-1.58,5.74l19.74,0.05
		l5.86-22.15c0.06-0.22,0.14-0.44,0.27-0.66c0.13-0.22,0.3-0.46,0.45-0.64c0.15-0.18,0.26-0.32,0.47-0.44
		c0.21-0.12,0.51-0.22,0.89-0.33c0.38-0.11,0.85-0.23,1.27-0.3c0.41-0.08,0.78-0.11,1.14-0.11l5.34,0.03
		c1.39,0.01,2.78-0.1,4.21-0.4c1.42-0.3,2.88-0.85,4.34-1.41l-7.13,26.37l19.87,0.05l6.94-25.76h4.8l-1.95,7.11
		c-0.57,2.06-1.05,4.16-1.23,5.75s-0.1,2.68,0.12,3.66s0.57,1.89,1.08,2.73s1.16,1.62,2.02,2.37c0.86,0.74,1.93,1.45,3.16,2.04
		c1.23,0.59,2.62,1.07,4.11,1.41s3.08,0.58,4.67,0.58l17.17,0.03l5.27-0.06l-0.3-2.45c1.77,0.63,3.54,1.27,5.66,1.65
		c2.12,0.38,4.6,0.65,7.08,0.66l28.41,0.03l-1.85-6.08c-0.43-1.4-1.05-2.73-1.9-3.92c-0.84-1.19-2.01-2.21-3.17-3.23l16.11-0.02
		l0.71-3.02c0.65-2.76,1.16-5.57,1.31-7.79s-0.02-3.85-0.33-5.28s-0.77-2.67-1.4-3.76c-0.63-1.08-1.44-2.01-2.5-2.89
		c-1.06-0.88-2.37-1.73-3.83-2.35c-1.46-0.62-3.07-1.02-3.98-1.22c-0.91-0.2-1.12-0.22-1.28-0.23c-0.15-0.01-0.25-0.03-0.48-0.06
		c-0.23-0.03-0.58-0.07-0.87-0.11c-0.28-0.03-0.49-0.06-1.18-0.12c-0.68-0.06-1.83-0.22-2.99-0.22H227.3
		c-1.62,0-3.24,0.12-4.83,0.36c-1.59,0.25-3.15,0.68-4.71,1.12l1.12-2.49h-18.55l3.02-10.26l-5.97-0.35
		c-1.54-0.09-3.08,0.07-4.59,0.33c-1.51,0.26-3,0.68-4.37,1.23c-1.37,0.55-2.61,1.24-3.65,1.99c-1.04,0.75-1.88,1.55-2.49,2.31
		c-0.61,0.76-0.98,1.48-1.21,2.25l-0.77,2.55l-0.86,0.01c-0.68,0.01-1.36,0.08-2.07,0.24c-0.71,0.15-1.45,0.42-2.19,0.69l0.32-1.19
		l-0.03,0l3.24-11.79h-0.02l-6.21,0.07c-1.79,0.02-3.57,0.39-5.32,0.88c-1.75,0.49-3.48,1.18-4.95,2.04
		c-1.47,0.85-2.69,1.87-3.61,2.86c-0.92,0.99-1.57,1.95-1.99,3.01l-1.74,4.39l-16.15-0.04c-3.43-0.01-6.82,0.69-9.77,1.59
		c-2.95,0.9-5.43,2.35-7.91,3.8l1.96-7.14l-6.47,0.32c-1.74,0.09-3.48,0.37-5.09,0.81c-1.61,0.44-3.1,1.05-4.42,1.77
		c-1.32,0.73-2.48,1.58-3.46,2.52c-0.99,0.93-1.8,1.95-2.38,2.94c-0.58,0.99-0.93,1.97-1.15,2.64c-0.22,0.67-0.29,1.04-0.39,1.4
		l-3.06,11.4c-0.06,0.24-0.16,0.47-0.28,0.71s-0.29,0.46-0.43,0.64c-0.14,0.18-0.25,0.31-0.46,0.42c-0.21,0.12-0.5,0.22-0.89,0.33
		c-0.38,0.11-0.84,0.23-1.27,0.31c-0.42,0.08-0.8,0.12-1.19,0.12l-2.75,0l7.09-26.63l-6.51,0.41c-1.59,0.1-3.17,0.37-4.77,0.86
		c-1.6,0.49-3.23,1.19-4.7,1.99c-1.46,0.8-2.76,1.69-3.77,2.58c-1.01,0.88-1.73,1.75-2.23,2.59c-0.5,0.85-0.78,1.67-0.96,2.22
		c-0.18,0.55-0.22,0.83-0.3,1.1l-3.27,12.36c-0.04,0.14-0.07,0.28-0.1,0.4c-0.03,0.12-0.05,0.21-0.07,0.33
		c-0.02,0.12-0.05,0.26-0.08,0.4c-0.12,0.2-0.28,0.38-0.46,0.51s-0.38,0.22-0.79,0.34s-1,0.3-1.49,0.41
		c-0.48,0.11-0.85,0.19-1.22,0.19l-2.76-0.02l7.05-25.98l-5.95-0.17c-1.36-0.04-2.72,0.08-4.26,0.48c-1.55,0.4-3.28,1.07-4.87,1.84
		c-1.59,0.77-3.02,1.64-4.15,2.52c-1.13,0.89-1.95,1.8-2.57,2.72s-1.07,1.85-1.34,2.83l-8.37,31.35v0l0.38,0l0,0.01L58.77,76.9z
		 M195.78,51.26l5.14-0.03c0.56,0,1.12-0.04,1.68-0.12c0.57-0.08,1.14-0.21,1.71-0.34c-0.78,2.04-1.56,4.08-1.97,5.95
		c-0.4,1.88-0.43,3.59-0.45,5.3c-0.86-0.33-1.72-0.65-2.44-0.83c-0.72-0.18-1.29-0.25-1.86-0.25l-4.48,0.02L195.78,51.26z"/>
	<path d="M383.99,50.43c-0.04-0.9-0.23-1.9-0.5-2.83c-0.27-0.93-0.63-1.78-1.15-2.61c-0.52-0.83-1.19-1.62-2.06-2.41
		s-1.93-1.57-3.12-2.3c-1.19-0.73-2.52-1.41-3.94-1.92c-1.42-0.51-2.94-0.86-4.69-1.14c-1.75-0.27-3.74-0.55-5.73-0.55h-13.27
		c-2.94,0-5.89,0.24-8.62,0.97c-2.73,0.73-5.24,1.85-7.34,3.12c-2.1,1.27-3.79,2.67-5.23,4.31c-0.61-1.17-1.42-2.23-2.47-3.21
		c-1.05-0.98-2.33-1.86-3.89-2.62s-3.39-1.38-5.62-1.81c-2.23-0.43-4.87-0.65-7.5-0.65H293c-1.02,0-2.04,0.12-2.78,0.2
		c-0.75,0.08-1.22,0.17-1.86,0.25c-0.64,0.08-1.44,0.15-2.88,0.46c-1.43,0.32-3.49,0.88-5.29,1.59c-1.8,0.71-3.33,1.56-4.69,2.57
		c-1.36,1.01-2.53,2.17-3.56,3.45c-1.03,1.27-1.93,2.66-2.74,4.63c-0.82,1.97-1.56,4.53-2.12,6.78c-0.56,2.25-0.94,4.19-0.99,5.72
		c-0.05,1.53,0.22,2.64,0.69,3.82c0.46,1.18,1.12,2.43,1.94,3.55c0.83,1.12,1.82,2.11,3.02,2.97c1.2,0.87,2.6,1.61,4.25,2.26
		c1.65,0.65,3.54,1.22,6.45,1.54c2.84,0.32,6.64,0.4,10.84,0.41h1.88c3.88-0.01,7.92-0.1,10.94-0.39c3.43-0.33,5.55-0.93,7.53-1.66
		c1.98-0.73,3.8-1.59,5.54-2.61l-1.25,4.45l20.12,0.15l6.45-23.56l0.1-0.13c0.5-0.2,0.99-0.41,1.55-0.54
		c0.55-0.13,1.16-0.26,1.77-0.26h14.62c0.32,0,0.65,0.01,0.88,0.02s0.37,0.04,0.52,0.07l-6.75,24.35l19.95-0.02l6.59-23.94
		c0.15-0.56,0.25-1.14,0.28-1.76V50.43z M310.78,56.09c-0.29,1.08-0.58,1.93-0.87,2.55c-0.29,0.62-0.58,1.02-0.9,1.34
		c-0.32,0.32-0.69,0.57-1.16,0.79c-0.48,0.22-1.06,0.41-1.82,0.54s-1.68,0.2-2.61,0.2h-15.6c-0.55,0-1.1-0.02-1.55-0.06
		c-0.45-0.04-0.79-0.09-1.13-0.15l-0.14-0.17c-0.04-0.53-0.01-1.06,0.14-1.83c0.15-0.77,0.41-1.77,0.67-2.66
		c0.26-0.89,0.53-1.66,0.78-2.18c0.25-0.52,0.48-0.79,0.72-1.03c0.24-0.23,0.5-0.43,0.89-0.61c0.4-0.18,0.93-0.34,1.38-0.45
		c0.45-0.1,0.82-0.15,1.05-0.18c0.24-0.03,0.34-0.05,0.47-0.06c0.12-0.01,0.26-0.03,0.4-0.03h17.86c0.36,0,0.71,0.03,1.06,0.07
		c0.35,0.04,0.69,0.1,1.03,0.16l0.12,0.07C311.36,53.71,311.08,55.01,310.78,56.09z"/>
</g>
<g>
	<path fill="none" d="M248.48,51.4c0.05-0.32,0.03-0.64-0.01-0.93c-0.03-0.28-0.08-0.52-0.18-0.72c-0.1-0.2-0.24-0.36-0.41-0.49
		c-0.17-0.13-0.38-0.23-0.63-0.33c-0.25-0.1-0.56-0.19-0.92-0.26c-0.36-0.08-0.79-0.14-1.18-0.17c-0.39-0.03-0.74-0.03-1.11-0.03
		c-0.37,0-0.75,0.01-1.14,0.01l-17.18,0.02c-0.61,0-1.22,0.1-1.84,0.22c-0.63,0.12-1.27,0.29-1.75,0.46
		c-0.48,0.18-0.78,0.36-1.06,0.57c-0.27,0.21-0.51,0.43-0.75,0.86c-0.24,0.43-0.49,1.06-0.66,1.7l28.5-0.02
		C248.32,52.02,248.44,51.72,248.48,51.4z"/>
	<path fill="none" d="M303.73,65c0.93,0,1.87-0.06,2.69-0.17c0.82-0.11,1.53-0.28,2.16-0.49c0.63-0.21,1.18-0.45,1.67-0.73
		c0.49-0.28,0.93-0.6,1.32-0.96c0.39-0.36,0.73-0.76,1.06-1.23c0.33-0.47,0.65-1.02,0.96-1.76c0.31-0.74,0.61-1.68,0.91-2.77
		s0.58-2.35,0.74-3.25c0.16-0.9,0.2-1.46,0.19-1.87c-0.01-0.41-0.08-0.66-0.15-0.84c-0.08-0.18-0.17-0.29-0.24-0.36
		c-0.07-0.08-0.12-0.12-0.23-0.25c-0.11-0.13-0.29-0.33-0.51-0.54s-0.49-0.42-0.82-0.59c-0.33-0.17-0.72-0.31-1.36-0.42
		c-0.64-0.11-1.54-0.23-2.43-0.23h-17.87c-0.46,0-0.92,0.08-1.35,0.13c-0.43,0.05-0.84,0.11-1.39,0.25
		c-0.55,0.13-1.24,0.34-1.84,0.59c-0.6,0.25-1.1,0.55-1.55,0.91c-0.45,0.36-0.85,0.78-1.2,1.24c-0.35,0.45-0.64,0.94-0.98,1.77
		c-0.34,0.84-0.73,2.03-1.03,3.12c-0.3,1.09-0.52,2.09-0.62,2.94s-0.09,1.55-0.04,2.11c0.06,0.57,0.16,1,0.3,1.34
		s0.32,0.61,0.56,0.84c0.24,0.23,0.54,0.43,0.96,0.61c0.42,0.18,0.96,0.33,1.73,0.45c0.77,0.11,1.76,0.17,2.74,0.17H303.73z"/>
	<path fill="#FFFFFF" d="M299.23,73.01c3.81-0.07,6.34-0.19,8.51-0.53c2.17-0.34,3.97-0.89,5.53-1.48s2.88-1.22,4.05-1.95
		c1.16-0.72,2.16-1.54,3.02-2.4c0.86-0.86,1.57-1.76,2.13-2.72c0.56-0.96,0.97-1.97,1.43-3.35c0.46-1.39,0.96-3.15,1.33-4.93
		c0.37-1.78,0.6-3.57,0.66-4.86s-0.04-2.1-0.28-2.87c-0.24-0.77-0.61-1.51-1.17-2.22c-0.56-0.71-1.29-1.39-2.16-1.99
		c-0.87-0.6-1.88-1.12-3.08-1.56c-1.2-0.45-2.6-0.82-4.3-1.08c-1.7-0.26-3.71-0.4-5.72-0.4h-15.85c-1.54,0-3.06,0.29-4.32,0.45
		c-1.26,0.16-2.25,0.32-3.48,0.63c-1.23,0.31-2.69,0.77-4.01,1.34c-1.31,0.57-2.48,1.23-3.48,1.98c-1,0.75-1.83,1.58-2.6,2.51
		c-0.77,0.93-1.48,1.97-2.12,3.39c-0.64,1.42-1.21,3.21-1.72,5.1c-0.51,1.89-0.95,3.87-1.15,5.21c-0.2,1.34-0.15,2.04,0.08,2.85
		c0.23,0.81,0.65,1.74,1.16,2.57c0.51,0.83,1.12,1.56,1.87,2.23c0.75,0.67,1.64,1.27,2.73,1.81c1.09,0.54,2.38,1,3.91,1.38
		c1.53,0.38,3.3,0.68,6.73,0.82c1.67,0.07,3.73,0.1,5.84,0.1h0.73C295.48,73.06,297.49,73.04,299.23,73.01z M285.38,64.83
		c-0.77-0.11-1.31-0.27-1.73-0.45c-0.42-0.18-0.72-0.38-0.96-0.61c-0.24-0.23-0.42-0.49-0.56-0.84s-0.24-0.78-0.3-1.34
		c-0.06-0.57-0.07-1.26,0.04-2.11s0.32-1.85,0.62-2.94c0.3-1.09,0.69-2.28,1.03-3.12c0.34-0.84,0.64-1.32,0.98-1.77
		c0.35-0.45,0.75-0.88,1.2-1.24c0.45-0.36,0.95-0.66,1.55-0.91c0.6-0.25,1.29-0.45,1.84-0.59c0.55-0.13,0.95-0.19,1.39-0.25
		c0.43-0.05,0.89-0.13,1.35-0.13h17.87c0.89,0,1.79,0.12,2.43,0.23c0.64,0.11,1.03,0.25,1.36,0.42c0.33,0.17,0.6,0.38,0.82,0.59
		s0.4,0.42,0.51,0.54c0.11,0.13,0.16,0.17,0.23,0.25c0.07,0.08,0.16,0.18,0.24,0.36c0.08,0.18,0.14,0.43,0.15,0.84
		c0.01,0.41-0.02,0.96-0.19,1.87c-0.16,0.9-0.45,2.16-0.74,3.25s-0.6,2.03-0.91,2.77c-0.31,0.74-0.63,1.29-0.96,1.76
		c-0.33,0.47-0.67,0.87-1.06,1.23c-0.39,0.36-0.83,0.67-1.32,0.96c-0.49,0.28-1.04,0.52-1.67,0.73c-0.63,0.2-1.34,0.37-2.16,0.49
		c-0.82,0.11-1.76,0.17-2.69,0.17h-15.6C287.14,65,286.15,64.94,285.38,64.83z"/>
	<path fill="#FFFFFF" d="M380.38,51.09c0.02-0.26,0.02-0.53-0.01-0.84c-0.06-0.62-0.24-1.36-0.44-1.96c-0.2-0.6-0.44-1.07-0.85-1.62
		c-0.41-0.55-1.01-1.17-1.75-1.78s-1.64-1.18-2.59-1.7c-0.94-0.52-1.93-1-3.08-1.36c-1.15-0.37-2.46-0.63-3.91-0.84
		c-1.45-0.21-3.05-0.43-4.65-0.43h-13.27c-1.88,0-3.76,0.11-5.41,0.37c-1.65,0.26-3.05,0.66-4.5,1.21
		c-1.44,0.56-2.93,1.28-4.16,2.02c-1.24,0.74-2.24,1.48-3.1,2.31c-0.86,0.82-1.58,1.73-2.12,2.56c-0.54,0.83-0.91,1.6-1.13,2.4
		l-6.01,21.44l11.98,0.09l5.69-20.79c0.11-0.39,0.26-0.76,0.46-1.09c0.21-0.33,0.46-0.61,0.84-0.89c0.37-0.28,0.86-0.56,1.48-0.81
		c0.62-0.25,1.38-0.47,2.13-0.63c0.75-0.16,1.49-0.27,2.24-0.27h14.63c0.6,0,1.2,0.02,1.69,0.09c0.49,0.07,0.88,0.17,1.26,0.31
		c0.38,0.14,0.75,0.31,1.08,0.49c0.32,0.18,0.6,0.37,0.85,0.63c0.25,0.27,0.48,0.61,0.58,0.95c0.1,0.34,0.08,0.66,0.03,1.01
		c-0.04,0.35-0.08,0.74-0.19,1.11l-5.5,19.85l11.81-0.01l5.8-21.07c0.07-0.24,0.11-0.48,0.13-0.74V51.09z"/>
	<path fill="#FFFFFF" d="M170.69,39.05l-1-0.01c-0.96-0.01-1.91,0.1-2.9,0.28c-1,0.18-2.03,0.46-2.93,0.8
		c-0.9,0.34-1.66,0.74-2.17,1.04c-0.52,0.3-0.79,0.51-1.07,0.73c-0.28,0.22-0.58,0.47-0.85,0.69s-0.53,0.4-0.88,0.71
		c-0.35,0.31-0.8,0.75-1.12,1.17c-0.32,0.42-0.5,0.83-0.61,1.26l-7.37,27.25l11.76,0.03L170.69,39.05z"/>
	<path fill="#FFFFFF" d="M172.81,27.36c-0.94,0.01-1.88,0.15-2.95,0.39c-1.07,0.24-2.28,0.6-3.35,1.02
		c-1.07,0.42-2.02,0.91-2.86,1.5c-0.85,0.59-1.6,1.29-2.12,1.86c-0.52,0.58-0.8,1.04-1,1.55l-1.12,2.82l11.92,0.01l2.52-9.17h-0.02
		L172.81,27.36z"/>
	<path fill="#FFFFFF" d="M177.05,63.96c-0.18,1.24-0.17,2.01-0.06,2.67c0.11,0.66,0.31,1.21,0.61,1.72c0.3,0.52,0.7,1,1.25,1.48
		s1.26,0.94,2.09,1.37c0.83,0.43,1.79,0.82,3.03,1.12c1.24,0.3,2.76,0.59,4.28,0.6l17.14,0.03l0.87-0.01l-0.11-0.87
		c-0.07-0.54-0.21-1.07-0.4-1.58c-0.19-0.5-0.44-0.98-0.89-1.51c-0.44-0.54-1.07-1.13-1.68-1.66s-1.19-0.99-1.79-1.34
		c-0.61-0.35-1.24-0.6-1.82-0.78c-0.58-0.18-1.12-0.37-1.67-0.37l-5.91,0.02c-0.4,0-0.8-0.03-1.13-0.08
		c-0.33-0.04-0.58-0.1-0.77-0.16c-0.19-0.06-0.33-0.13-0.44-0.2s-0.2-0.15-0.27-0.25c-0.07-0.1-0.13-0.21-0.18-0.38
		c-0.05-0.17-0.1-0.39-0.13-0.63c-0.03-0.24-0.05-0.49-0.04-0.71c0.01-0.22,0.03-0.41,0.08-0.6l3.98-14.51l8.1-0.04
		c1.89-0.01,3.74-0.64,5.4-1.49c1.66-0.85,3.12-2.06,4.21-3.18c1.09-1.13,1.81-2.17,2.32-3.32h-17.74l3.1-10.55l-1.05-0.06
		c-0.9-0.05-1.8,0.02-2.79,0.15c-0.99,0.12-2.07,0.32-3.11,0.64c-1.04,0.32-2.03,0.75-2.9,1.22c-0.86,0.47-1.59,0.97-2.18,1.52
		c-0.59,0.55-1.15,1.1-1.37,1.8l-1.6,5.29l-3.73,0.05c-0.56,0.01-1.12,0.09-1.73,0.26c-0.61,0.17-1.27,0.43-2,0.79
		c-0.73,0.35-1.54,0.8-2.24,1.39s-1.43,1.26-1.77,2.12l-1.32,3.37h10.7l-3.32,12.07C177.63,61.02,177.23,62.72,177.05,63.96z"/>
	<path fill="#FFFFFF" d="M217.7,59.57l39.94-0.05c0.52-2.22,0.92-4.47,1.11-6.15c0.19-1.68,0.18-2.8,0.07-3.83
		c-0.11-1.03-0.33-1.99-0.62-2.78c-0.28-0.79-0.63-1.41-1.1-1.98c-0.47-0.58-1.06-1.11-1.84-1.64s-1.74-1.07-2.72-1.45
		c-0.98-0.38-1.99-0.62-2.62-0.74c-0.63-0.13-0.9-0.15-1.19-0.18s-0.59-0.09-1.4-0.17c-0.8-0.08-2.1-0.28-3.41-0.28H227.6
		c-1.64,0-3.27,0.14-4.8,0.41c-1.53,0.27-2.94,0.66-4.37,1.16c-1.43,0.49-2.87,1.08-3.93,1.7c-1.07,0.62-1.76,1.28-2.51,2.21
		c-0.75,0.93-1.56,2.14-2.37,3.64c-0.81,1.5-1.62,3.28-2.21,4.9c-0.59,1.62-0.94,3.07-1.14,4.38c-0.19,1.32-0.22,2.5-0.12,3.58
		c0.1,1.09,0.33,2.08,0.69,3.02c0.35,0.93,0.83,1.8,1.37,2.54c0.54,0.73,1.14,1.33,1.9,1.87c0.76,0.54,1.68,1.03,2.88,1.47
		c1.2,0.43,2.7,0.81,4.44,1.09c1.74,0.28,3.73,0.48,5.73,0.48l23.12,0.02l-0.31-1.02c-0.29-0.96-0.71-1.89-1.31-2.74
		c-0.6-0.85-1.36-1.63-2.16-2.26s-1.64-1.13-2.62-1.47c-0.98-0.34-2.1-0.54-3.21-0.54h-11.76c-0.96,0-1.92-0.17-2.77-0.31
		s-1.59-0.32-2.17-0.49c-0.58-0.17-0.99-0.34-1.3-0.51s-0.53-0.33-0.7-0.5c-0.17-0.17-0.3-0.35-0.4-0.55s-0.16-0.42-0.19-0.68
		c-0.03-0.26-0.02-0.55,0.03-0.91C217.44,60.41,217.55,59.98,217.7,59.57z M220.32,50.62c0.24-0.43,0.48-0.65,0.75-0.86
		c0.27-0.21,0.58-0.39,1.06-0.57c0.48-0.18,1.12-0.34,1.75-0.46c0.63-0.12,1.23-0.22,1.84-0.22l17.18-0.02
		c0.38,0,0.77-0.01,1.14-0.01c0.37,0,0.72,0,1.11,0.03c0.39,0.03,0.82,0.09,1.18,0.17c0.36,0.08,0.67,0.17,0.92,0.26
		c0.25,0.1,0.46,0.2,0.63,0.33c0.17,0.13,0.32,0.29,0.41,0.49c0.1,0.2,0.15,0.44,0.18,0.72c0.03,0.28,0.05,0.61,0.01,0.93
		c-0.05,0.32-0.16,0.62-0.33,0.89l-28.5,0.02C219.83,51.68,220.08,51.05,220.32,50.62z"/>
	<path fill="#FFFFFF" d="M56.05,72.94l0-0.02l35.24,0.03c1.85,0,3.69-0.32,5.37-0.61c1.68-0.29,3.18-0.66,4.61-1.19
		c1.43-0.53,2.79-1.23,4.01-1.98c1.23-0.74,2.33-1.53,3.23-2.34c0.9-0.81,1.59-1.64,2.1-2.38c0.51-0.75,0.84-1.4,1.03-2.11
		l6.41-23.32l-1.07,0.05c-1.47,0.07-2.92,0.31-4.27,0.68c-1.34,0.37-2.57,0.88-3.64,1.48c-1.07,0.6-1.98,1.29-2.73,2.04
		c-0.75,0.75-1.34,1.54-1.79,2.38c-0.44,0.83-0.64,1.72-0.87,2.6l-3.06,11.4c-0.17,0.63-0.42,1.23-0.76,1.8
		c-0.34,0.57-0.76,1.12-1.19,1.54c-0.42,0.42-0.85,0.73-1.48,1.02c-0.63,0.29-1.46,0.56-2.31,0.75s-1.7,0.32-2.56,0.32l-7.85,0.01
		l7-26.3l-1.08,0.07c-1.32,0.08-2.63,0.31-3.96,0.72c-1.33,0.41-2.68,1-3.88,1.66c-1.2,0.66-2.25,1.38-3.03,2.05
		c-0.78,0.68-1.28,1.31-1.64,1.96c-0.36,0.65-0.49,1.35-0.67,2.03l-3.27,12.37c-0.15,0.58-0.22,1.18-0.43,1.66
		c-0.21,0.48-0.48,0.85-0.79,1.21c-0.31,0.36-0.65,0.7-1.05,0.99s-0.84,0.51-1.49,0.74c-0.65,0.23-1.5,0.47-2.25,0.64
		c-0.74,0.16-1.38,0.27-2.01,0.26l-7.85-0.04l7.08-26.1l-0.98-0.03c-1.01-0.03-2.02,0.06-3.21,0.37c-1.19,0.31-2.57,0.84-3.84,1.44
		c-1.27,0.6-2.45,1.27-3.34,1.93c-0.89,0.66-1.51,1.3-1.97,1.92c-0.46,0.62-0.76,1.21-0.93,1.84L43.86,72.9v0l0.43,0l0,0.01
		L56.05,72.94z"/>
	<path fill="#FFFFFF" d="M155.39,43.9c0.75-0.62,1.49-1.29,2.1-2.07l0.98-1.26l-19.48-0.05c-1.31,0-2.62,0.18-4.28,0.46
		c-1.66,0.28-3.68,0.72-5.35,1.27c-1.67,0.55-3,1.23-4.18,1.92c-1.18,0.69-2.22,1.4-3.07,2.18c-0.85,0.78-1.52,1.64-2.02,2.44
		c-0.51,0.8-0.87,1.54-1.09,2.33L112.96,73l11.59,0.03l5.09-19.23c0.15-0.58,0.37-1.14,0.71-1.7c0.33-0.56,0.77-1.13,1.2-1.58
		c0.43-0.44,0.86-0.76,1.5-1.06c0.64-0.3,1.49-0.57,2.34-0.76c0.85-0.19,1.69-0.32,2.54-0.31l5.34,0.03
		c1.28,0.01,2.56-0.11,3.82-0.42c1.26-0.31,2.49-0.78,3.48-1.21s1.74-0.8,2.51-1.26C153.85,45.06,154.64,44.52,155.39,43.9z"/>
</g>
</svg>
