<svg xmlns="http://www.w3.org/2000/svg" viewBox="0 0 3315.11 1185.89"><defs><style>.cls-1{fill:#d0d0cd;}.cls-2{fill:#221d1e;}.cls-3{fill:#fff;}.cls-4{fill:#db191e;}</style></defs><title>hlr-colour</title><g id="Layer_5" data-name="Layer 5"><path d="M2201.26,627.79c-4,9.38-15,32.51-22.46,40.36a21.49,21.49,0,0,0-2.72,2.91c-.17.19-.12.58-.31,1.74,3.34,1.3,6.75.69,10.18-.06,32.53-7.1,64.91-14.91,97.7-20.78,15.39-2.75,30.73-5.55,46.6-4.84,12.75.56,22.11,6.06,30.05,15.34,2,2.34,2.43,4.13.95,7-5.38,10.63-11.94,19.46-24.22,23.27-45.48,14.13-91.34,26.93-137.1,40.06-42.59,12.22-84.47,26.64-126.59,40.33a20.23,20.23,0,0,0-6.52,3.84c-18.34,14.46-35.24,30.57-52.84,45.87-43.7,38-86.11,77.5-131.18,113.84-38.9,31.35-80,59.81-121.24,88.07-34.64,23.75-70.68,45.25-105.8,68.21a174.59,174.59,0,0,1-16.29,9.3c-5.11,2.6-10.39,3.92-16.29,1.59a158,158,0,0,0-19-6c-7.25-1.85-10.5-7.06-11.18-13.62a53.53,53.53,0,0,1,5.65-30.61,273.42,273.42,0,0,1,30.58-45.56c7.93-9.74,18.8-16.82,24.7-28.19,18.15-14.09,33.5-31.27,51-46.14,43.59-37.1,90.34-69.94,137.05-102.84,7.88-5.55,16.15-10.54,24.22-15.83,1.07-.71,2.33-1.38,2.32-3.6-3.4-1.51-6.77.19-10.1.79-13.43,2.43-26.8,5.09-40.48,6.17-13.86,1.1-24.1-5-31.87-15.18-6.52-8.52-7.15-19.14-5.76-29.57.35-2.62,2-5.19-.34-7.36-2.91-2.64-5.66-.26-8.23,1-13.51,6.51-26.88,13.29-40.47,19.63-6.32,3-13,5.17-19.52,7.65-9.66,3.66-18.11.15-26.31-4.61-.24-.14-.26-.64-.49-.85-11.07-9.91-11.52-11.18-8.82-25.85.42-2.29,1-4.55,1.55-6.82.44-1.85,2-3.73.14-5.55-2.19-2.2-4.42-.49-6.45.33a138.37,138.37,0,0,0-12.75,5.66c-24.48,12.89-48.38,26.69-70.46,43.52-5.59,4.26-13,5-19.75,6.38-3,.61-5.64-.7-6.64-4.47-3.08-11.63-5.1-23.54-1.39-35.07A22,22,0,0,1,1575.57,753c-2.82-4.59-6.37-2.32-9.4-.9-12.05,5.65-24.09,11.34-36,17.36q-78.3,39.71-156.43,79.7a122.06,122.06,0,0,1-36,11.55c-19.83,3.37-32.09-9.68-31.12-26.62.36-6.15.06-12.34.06-19.21-5.09,1.15-9,3.64-13,5.9-59.36,34-120.65,64.07-183,92.06-15.92,7.14-32,13.38-49.75,13.68-7.17.12-13.68-1-20.14-4.46-4.84-2.62-8-6.33-9.1-11.09-3.29-14-5.28-27.86,4.46-40.94,4.25-5.7,6.79-12.74,12-17.94a4.36,4.36,0,0,0,1.3-4.81c-3.39-1.74-6.19.68-9,2-19.24,9.21-38.32,18.75-56,30.73q-49.68,33.6-99.13,67.56c-8.23,5.65-15.91,12.09-24,18-14.85,10.92-34.7,4.82-39.71-12.93-1.65-5.83-4.25-6.15-8.33-4.94a42.81,42.81,0,0,0-9.86,4.74c-19.64,12-39.4,23.73-58.73,36.18-12.36,8-25.63,14.15-38.55,21-7.73,4.1-16.66,4.44-25.39,3.1a17.47,17.47,0,0,1-11-6.24c-13-15.21-14.44-28.46-6.6-46C666.66,953,672,946.42,675,938c-4.72-1.44-7.87,1.56-10.94,3.34-16.43,9.51-32.94,18.92-48.93,29.15-24.13,15.45-47.85,31.52-71.72,47.38-3.55,2.36-7.34,4.53-9.76,8.19,2.19,4.23,6.29,4,9.62,4.83,28.95,7.25,58.14,13.61,86.87,21.62,37.94,10.59,76.2,19.86,114.34,29.63,57.13,14.63,113.33,32.39,169.69,49.65,17,5.21,26.71,17.64,31.33,34.51,2,7.46-3.26,11.71-6.75,16.75-3.28,4.75-7.84,2.32-11.89,1.55-42.62-8.15-84-21.09-125.58-33.11-75.28-21.74-151.44-39.65-228.41-54.3-31.41-6-62.68-12.71-94.19-18.25-9.85-1.73-16.74.45-22.37,8.49-12.18,17.39-29.93,28.15-47.51,39-6.6,4.07-9.85,2.73-13.21-4.21a26.48,26.48,0,0,1-2.53-12.6c.44-13.63-.62-27.3,1.57-40.89,1-6-1.67-9.33-8.81-11.17-19.68-5.06-39.21-10.72-59.3-14.11-18.73-3.15-37.42-6.54-56.13-9.76a46.32,46.32,0,0,1-9.57-2.75c-10.18-4.12-12.76-15.4-5.78-24.08a71.14,71.14,0,0,1,28.15-21c54.19-23.2,106.39-50.67,160.26-74.57,22.22-9.86,43.67-21.51,66.07-30.91,32.14-13.49,62.78-30,94.15-44.94,10.45-5,19-12.37,27.42-19.81,11.17-9.82,23.39-18.69,31.07-32a46.74,46.74,0,0,0,3.59-7.81c6.57-18.33.92-22.23-16.81-24.43-27.53-3.43-54.46,1.14-81,8.63a501.74,501.74,0,0,0-99.84,40.46c-42.09,22.4-83.86,45.35-123.85,71.31a1152,1152,0,0,0-226.29,192.55c-25.81,28.41-47.41,60.18-70,91.14a114.54,114.54,0,0,1-10.89,13c-9,9.17-20,9.15-31.55,7.14-3.9-.68-5.72-3-5.49-7,1.53-26.49,5.84-51.9,21.51-74.61,35.66-51.68,76.64-99,117.55-146.45a1200.29,1200.29,0,0,1,144.69-142c51.38-42.41,102.43-85.25,157-123.72,15.66-11,31.83-21.18,48-31.34a38.32,38.32,0,0,1,12.77-5.62c-6.24,19.78-11.11,39.06-19.32,57.2-3.32,7.34-9,13-15.52,18-14.08,10.66-28.64,20.71-41.83,32.5a34.45,34.45,0,0,0-5.54,5.66c-1.3,1.89-.15,3.81,1.54,5.18a2.63,2.63,0,0,0,3.62,0c12.74-11.28,28.92-16.14,43.89-23.12,23.8-11.12,47.62-22.57,73.08-29.42,31.65-8.53,63.46-16.75,96.21-20a198.84,198.84,0,0,1,68.43,5.34c19.23,4.82,28.77,14.81,32.38,37.15,2,12.52,1.12,24.82-5.34,36.76-7,12.93-14.17,25.31-24.22,36.33-22.65,24.87-48.79,45.11-76.9,63.35-48.75,31.62-100.21,58.21-152.27,83.75-21.23,10.41-42.66,20.42-64,30.65a64.73,64.73,0,0,0-7.92,4.25,10.1,10.1,0,0,0-4.78,8.28c.07,3.68,4,3.92,6.8,4.78,12.12,3.79,24.71,5.34,37.16,7.48,3.79.65,6.92-.92,10.18-3.05,36.5-23.87,73.72-46.59,111.36-68.63C635,898.27,703.82,864,773.26,830.89c36.64-17.45,73.31-35,112.51-46.34,14.36-4.16,28.78-8,43.45-10.82,12-2.3,25.3,5,28.92,16.79,3.42,11.18,11.62,19.24,17,29.1,1.19,2.19,2.64,1.94,4.92,1.15a172.5,172.5,0,0,0,28.37-12.61c19-10.83,39.14-18.91,58.63-28.51a1378.65,1378.65,0,0,1,139.5-59.57c24.79-9,50.28-15.23,76-20.58,4.86-1,9.79-1.7,14.67-2.62,5.83-1.1,11.19.48,16.46,2.67s8.62,9,7.16,15.77-3.22,13.59-6.57,19.83c-1.42,2.63-3,5.28-3.77,8.12s-4.12,6.61-.67,9.11c3.62,2.62,8.25,1.38,11.84-1,16.14-10.66,33.5-19.07,50.68-27.8,21.66-11,43.76-21,66.76-28.89,4.45-1.52,7.73-4.22,10.85-8.08,25.74-31.84,56.92-55.94,97.42-66,11.12-2.76,22.49-2.05,33.79-.93a20.09,20.09,0,0,1,5.78,1.53c7.4,3.14,8.79,10.24,3.89,16.82-13.19,17.67-30.26,30.8-48.86,42.11-17,10.35-33.88,21-51.65,30.12-6,3.08-11.74,7.38-17.28,11.57-5.28,4-8,9.44-8.35,16.71,4.54.82,8-1.5,11.33-3.11q44.48-21.28,88.61-43.29c38.4-19,77.71-36.23,118.47-49.73,8.15-2.7,15.83.44,21.92,6.13,4.34,4.05,7.88,9,11.75,13.48,2.6,3.05,5,4.14,9.46,2.42,9.46-3.7,19.55-5.82,29-9.59,11.35-4.53,23.13-6.3,35.08-7,9.09-.56,17.74.52,22.72,10.29a17,17,0,0,1,1.62,12.34c-1.81,8.19-5.83,15.41-10.26,23.08,5.12,1.61,8.59-.62,12.2-1.76,23.21-7.33,45.48-17.1,68-26.23,36.71-14.9,125.8-49.71,153-58.57s134.85-41.33,159.17-16.53C2208.28,602.2,2205.28,618.4,2201.26,627.79ZM3150.89,512c16.32.09,32.64-.78,49-1,16.52-.18,33,0,49.38,0,.81,2.26-.6,2.93-1.59,3.64-29.77,21.46-57.8,45.06-85.53,69.06-14.61,12.64-29.33,25.18-43.92,37.85a22.84,22.84,0,0,1-16.38,5.77c-36-.65-72,1.57-107.86,4.16-3,.22-5.81.48-8.27,2.74-20.85,19.18-43.24,36.62-63.52,56.43-1.17,1.14-2.64,2.09-2.76,4.28,2.36,3.24,5.91,1.68,9,1.68,30,0,60-1.82,90-1.1,2.89.07,5.9-.57,8.45.73,1.2,2.43-.46,3.45-1.62,4.4-41.33,33.71-79.7,70.83-120.7,104.92-8.14,6.77-16.18,10.12-26.85,10.47-31,1-62,1.78-93,.57-5.49-.21-9.44,1.46-14.1,5-33.9,26-65.4,54.77-97.38,83-4.39,3.88-8.87,6.38-15,6.79-77.86,5.21-155.16,15.29-232.26,27-41.83,6.35-83.83,11.69-125.28,20.4-75.41,15.83-149.47,36.7-223.06,59.42-39.79,12.28-79.51,24.74-118.45,39.58-28.72,11-56,24.81-82.94,39.48-10.77,5.87-21.57,11.67-33.09,16.65,2.87-3.44,5.41-7.24,8.66-10.27,35.49-33.21,68.69-68.82,105.23-100.89,16.52-14.5,33.23-28.91,50.93-41.88,13.4-9.83,29.09-16.18,44.71-22,43.36-16.25,86.88-32,131.84-43.42a21.17,21.17,0,0,0,8.87-4.3q20.54-17.52,41.12-35c1.25-1.06,2.59-2.15,2.48-4.64-8.55,1.17-16.53,4.17-24.55,6.88a584.27,584.27,0,0,0-77.46,32.14c-15.12,7.67-30.4,15-45.54,22.63-12.41,6.22-25.54,11-38.29,16.45-1.1-2.2-.24-3.25.66-4.07,36.06-32.63,72.19-65.18,109.1-96.85,22.77-19.54,45.6-38.83,72-53.57,19.69-11,40.8-17.91,61.91-25.09,37.21-12.64,73.64-27.47,111.23-39a49.17,49.17,0,0,0,19.52-11.37c12.44-11.53,25.28-22.58,37.32-34.6,15.23-15.21,31.63-29.26,47.77-43.53,5-4.41,11.32-6.75,17.71-8.8,26.66-8.55,53.75-15.52,80.78-22.73C2736.5,561.9,3063.9,512,3150.89,512ZM1136.52,830.62c3.62,2.18,6.39-.66,9.23-1.86,16.06-6.74,31.85-14,47.51-21.7,31.35-15.33,62.9-30.23,94.34-45.39,1.92-.93,4.52-1.35,5-4.28-5.35-2.72-10.95-2.24-16.58-1.41-11.28,1.67-22,5.35-32.28,10q-27.72,12.57-54.25,27.47c-18.88,10.56-37,22.21-52.69,37.34-.37,1.28-1-.44-.42.77a2.63,2.63,0,0,0,.29.39C1137.16,831.56,1137.12,831.11,1136.52,830.62Zm737-87.52c71.72-25.21,144.32-48.63,211.65-87.35C2047,655.43,1908.43,712.17,1873.48,743.1Zm-2.75,1-.55-.33-.06.52Z" transform="translate(0 0)"/><polygon class="cls-1" points="1870.73 744.14 1870.12 744.33 1870.17 743.81 1870.73 744.14"/><path class="cls-1" d="M1136.52,830.62c.6.49.64.94.14,1.35a2.63,2.63,0,0,1-.29-.39c-.56-1.21.05.51.41-.78Z" transform="translate(0 0)"/><path d="M1977.85,809.84c-7.82,6.83-15.11,13.54-22.76,19.81-20.73,17-41.6,33.81-62.43,50.68-14.9,12.07-30.88,22.83-45.61,35-25.23,20.82-52.13,39.18-78.75,58-25.8,18.22-51.89,36-79.45,51.55-13.25,7.47-26.41,15.08-40.4,21.14a4.41,4.41,0,0,1-4.59,0c3.07-3.48,5.93-6.94,9-10.19,8.46-8.93,16.82-18,25.57-26.61,12.9-12.75,27.06-24.08,41.07-35.6,10.57-8.7,21-17.59,32.13-25.56,28.09-20.12,54.87-42.07,84.58-60,24-14.41,47.29-29.87,71.35-44.11,21.8-12.91,44.78-23.67,67.62-34.63C1975.63,809.05,1976.4,809.51,1977.85,809.84Z" transform="translate(0 0)"/><path class="cls-2" d="M2122.45,710.22l.16.44a3.65,3.65,0,0,0-.31-.24S2122.45,710.22,2122.45,710.22Z" transform="translate(0 0)"/><path class="cls-2" d="M733.5,889l-.36-.19a4.8,4.8,0,0,0,.52,0S733.5,889,733.5,889Z" transform="translate(0 0)"/><path class="cls-2" d="M895.31,889.78l-.13-.51s.44.36.44.38Z" transform="translate(0 0)"/><path class="cls-2" d="M851.57,903l-.45-.11a4.63,4.63,0,0,0,.56-.19S851.57,903,851.57,903Z" transform="translate(0 0)"/><path class="cls-2" d="M1117.56,799.17l-.4-.26a4.63,4.63,0,0,0,.51,0S1117.56,799.17,1117.56,799.17Z" transform="translate(0 0)"/></g><g id="Layer_7" data-name="Layer 7"><path class="cls-3" d="M2662.72,604.42c-24.51,23.58-50.43,45.06-75.5,68.05,44.45-6.47,88-16.52,134.72-21.58-8.46,10.23-17.86,16.38-26,23.83-8.59,7.88-17.55,15.36-26.39,23q-12.87,11.09-25.83,22.08c-8.53,7.27-17.08,14.51-26.76,22.73,5.65,2.33,9.79.82,13.71.27,24.74-3.44,49.43-7.3,74.19-10.55,12.75-1.67,25.54-3.49,38.95-2.46-33.65,30.11-68.46,58.54-103,88,20-.39,39.47-5.54,59.31-6.7s39.85-2.21,59.54-3.3c1.9,2.92-.27,4-1.66,5.18q-47.76,41-95.52,82c-3.91,3.37-8,5.58-13.3,6-37.52,2.93-75.06,5.73-112.43,10.34a39.06,39.06,0,0,1-4.84,0c-.22-.59-.44-1.17-.65-1.76l100.23-86.68c-.15-.55-.29-1.11-.43-1.66q-30.68,3.75-61.36,7.48c-20.78,2.5-41.58,4.94-64.49,7.65,5.61-7.75,12.15-11.6,17.66-16.45,5.75-5.06,11.78-9.81,17.69-14.68l17.74-14.62c5.9-4.89,11.76-9.83,17.68-14.69s11.91-9.64,17.85-14.48,11.68-9.56,17.52-14.34l-.92-1.85-135.85,24.36-1.07-1.78c16.24-14.93,33.44-28.81,50.07-43.32,16.42-14.33,33-28.45,49.12-43.49-50.64,8.62-99.52,23.59-149.23,36.67.32-4.19,2.95-5.43,4.87-7.12q46.59-40.87,93.18-81.72c3.65-3.21,7.74-4.88,12.33-6.1,32.5-8.64,128.68-32.5,146-35.44Z" transform="translate(0 0)"/><path class="cls-3" d="M2877.84,713.43l116.37-5.52c-2.13,4.54-5,6.27-7.36,8.27q-47.71,40.35-95.49,80.61a16.78,16.78,0,0,1-10.82,4.27c-34.63,1.25-69.25,2.69-103.87,4.05-2.65.1-5.31,0-9.12,0,4-7.74,11-11.11,16.39-16s11.2-9.45,16.78-14.21c5.83-5,11.57-10,17.41-15,5.59-4.75,11.29-9.36,16.87-14.11,5.83-5,11.55-10.08,17.37-15.07,5.44-4.66,11-9.24,17.5-14.75-42.09-3-81.38,7.65-121.74,8.53,33.3-31.24,68.76-59.55,102.64-90.31-14.12.15-27.89,2.48-41.7,4.16s-27.79,3.37-41.63,5.42c-14.14,2.1-28.21,4.64-42.25,7-1.76-2.83.7-3.74,1.94-4.84,15-13.22,75.09-65.28,90-78.56a14.17,14.17,0,0,1,9.9-3.84c34.64-7,73.07-10.85,111.56-17,2.53,0,5.37-.64,7.93,2.78-9.49,8.33-79.57,72-89.12,80.35,41.09-3.87,81.67-6.63,122.64-9.84-16.31,16.88-34.17,31.48-51.37,46.81-17,15.19-33.85,30.64-51.66,45C2877.32,712.17,2877.58,712.8,2877.84,713.43Z" transform="translate(0 0)"/><path class="cls-3" d="M2983.37,617.79c12.84-10.78,24.52-20.61,36.23-30.4,21.19-17.72,42.43-35.35,63.56-53.14a20,20,0,0,1,12.49-5.23c34.54-1.73,69.07-3.73,103.61-5.6,3.57-.19,7.19-.92,11.17.44-.09,3.59-3.19,4.87-5.27,6.58-31.16,25.49-62.47,50.8-93.54,76.4-5.45,4.49-11,6.29-18.08,6.6-32.56,1.41-65.11,3.41-97.66,5.17C2992.32,618.8,2988.72,619.43,2983.37,617.79Z" transform="translate(0 0)"/><path class="cls-3" d="M2314.44,809.5l103.37-86.89c-12.38-.41-22.84,4-33.6,7.23-29.36,8.72-57.74,20.42-87.3,28.6-35.08,9.7-67.26,25.47-95.27,48.92-27.58,23.09-54.72,46.71-82,70.18-1.8,1.55-4.94,2.69-3.73,6.2l-.09.08c30.82-17.51,64-29.68,97.25-41.28,25.77-9,52.18-16.12,78.32-24,4.06-1.23,8-3.06,13.6-3l-100.48,85.59,1.19,2q75.66-22.19,152.93-37.62l2.51-2.3c37.73-27.67,71.49-60,107.06-90.47C2416.39,783.3,2365.76,797.38,2314.44,809.5Z" transform="translate(0 0)"/><path class="cls-3" d="M2494.59,839.9c-38.34,4.64-76.18,12-113.79,20.7-6.39,1.48-12.87,3.45-19.64,2.57l-2.51,2.3a76.07,76.07,0,0,1-5.55,5.66q-48.26,40.35-96.57,80.63c-1.45,1.21-3.51,2-3.36,4.88,2-.3,3.94-.48,5.85-.89q65.4-14.06,131.49-24.47a17.54,17.54,0,0,0,9-3.93c17.14-14.72,34.7-28.93,51.59-44,5.86-5.22,11.18-11.4,17.86-15.46,7.43-4.51,13.13-10.89,19.47-16.46,4-3.47,8.8-6.41,12.35-10.68C2498.38,838.78,2496.4,839.68,2494.59,839.9Z" transform="translate(0 0)"/><path class="cls-3" d="M1904.68,1064.65c16.14-14.37,32.14-28.89,48.45-43.06,14.57-12.66,28.6-26,44.21-37.4,22-16.12,46.55-27.18,72-36.23,38.54-13.7,76.86-28.14,116.8-37.53,3.16-.75,6.23-2,9.51-1.46.69,3.37-1.92,4.33-3.56,5.72q-46.89,39.66-93.83,79.28c-4.25,3.61-9.24,5.17-14.27,6.83-38.54,12.75-77.51,24.18-115.58,38.36-21.22,7.91-42.25,16.19-62.12,27.15Z" transform="translate(0 0)"/><path class="cls-3" d="M851.57,903c-5.42,2.52-10.17,6.06-15.1,9.4-33.31,22.52-66.36,45.46-101.61,64.93-12.78,7-25.82,13.67-39,20-13.35,6.41-23.91,0-25.32-14.75-.52-5.53,1.07-10.51,3.25-15.41,6.65-14.92,14.85-29,25.5-41.32,11-12.75,21.74-25.85,34.35-37.12a4.8,4.8,0,0,1-.52,0l.36.19a377.79,377.79,0,0,0-52.94,27.95c-3.65,2.3-7.5,4.29-11.32,6.29-36.37,19.06-70.35,42-104.6,64.46-12.42,8.16-25.76,14.84-37.57,23.93l-26.72,20.56c1,3.89,3.9,3.06,5.9,3.54,13,3.08,26,5.72,38.94,9,25.56,6.5,51.46,11.51,76.94,18.4,25.93,7,52.11,13.13,78.06,20.06q38.61,10.29,77,21.45c25.59,7.4,51,15.3,76.57,22.88,17.55,5.21,35.13,10.35,52.76,15.3,6,1.69,10.77,4.48,14.3,9.92,3.9,6,8.64,11.49,12.77,16.88-1.78,2.65-3.48,2.31-5.07,2-15.31-3.21-30.61-6.49-45.92-9.72-24.17-5.09-47.3-13.81-71-20.57-64.42-18.38-129.48-34.12-195-47.81-48.58-10.15-97.27-19.79-145.81-30.14-8.66-1.85-14.67,0-20.09,6.64-6.51,8-13.5,15.64-20.27,23.45-5.72,6.61-12.12,12.36-20.05,16.24-2.57,1.26-5.4,1-4.92-2.09,1.79-11.63-1.17-23.27.64-34.88,1-6.28,3.27-11.36,9-14.75,2.18-1.29,4.73-2.57,5.93-6.22l-37.67-8.18c-37.45-8.08-75.1-15.19-112.88-21.56-1.31-.22-2.64-.36-3.94-.64-2.28-.48-4.78-.76-5.22-3.73a5.23,5.23,0,0,1,2.44-5.14c10.5-7.57,20-16.5,32.25-21.62,33.14-13.82,66.36-27.49,99-42.43,31.64-14.47,63.34-28.84,94.71-43.94C533,883.61,576,862.08,618,838.46c9-5.06,17.55-10.87,26.31-16.35a8,8,0,0,0,1.64-1.13c13-13.56,27.3-26.09,34.7-44.11,5.82-14.18,1.1-27.36-12.63-34.55-9.77-5.11-20.47-5.78-31.11-6.14-19.08-.65-37.57,2.76-55.92,8.06-11.6,3.36-23.74,4.83-35.38,8.34-42.59,12.82-82.32,32-120.81,54-19.39,11-38.08,23.34-57.66,34a491.52,491.52,0,0,0-54.31,34.66C286,894.78,258.92,914,233.49,935.35c-39.61,33.33-75.93,70-111.49,107.51-11.69,12.33-23.3,24.75-34.64,37.4-20.31,22.66-36.33,48.53-53.94,73.19-3.8,5.32-7.88,8.22-14.34,9-8.33,1-9.5.66-8.5-7.93,2.06-17.84,8.81-34.13,18.22-49.25,13.94-22.38,30.25-43.07,46.56-63.73C115,991.29,157,943,202.41,897.87c44-43.74,90.72-84.46,139.07-123.3,31.69-25.45,63.41-50.91,96.83-74.11,9-6.27,18.15-12.42,27.29-18.53,2.15-1.44,4.23-3.27,7.8-3.08-1.83,13.31-6,24.87-17.59,32.88-32.14,22.18-61.36,48.07-91.65,72.59-41.71,33.75-81.36,69.84-121,105.93-2,1.82-5.13,3.15-4.8,6.69,2.19,1.31,3.26-.33,4.48-1.28,44.89-35,92.59-65.76,140.87-95.84,33.59-20.93,68.75-38.65,104.25-55.79,53-25.61,109-40.8,167.9-44.53,12.39-.79,24.91.2,36.51,4.36,10.67,3.83,21.55,9.09,27.89,19,5.53,8.64,10,18.18,4.21,29.34-3.69,7.15-3.92,15.65-8.26,22.94-9.71,16.32-23,29.35-36.9,41.76-24.48,21.8-51.91,39.55-79.64,56.82C583,884.09,566.46,894.88,548.53,903c-16.81,7.6-33.26,16-49.28,24.93-32.49,18.16-66.33,33.56-99.5,50.33-12.09,6.11-24.7,11.17-37.05,16.77-2.33,1.06-5.05,1.52-7.06,4.25,2.2,2.35,5.39,2.45,8,3.15,27.06,7.15,54.31,13.45,81.82,18.61a20.45,20.45,0,0,0,16-3.33q34.92-22.66,70.19-44.8Q565.13,952,599,931.68c20.73-12.39,41.45-24.83,62.64-36.41,57.7-31.52,116.39-60.94,178.4-83.29q34.6-12.48,69.58-23.82c11.75-3.79,23-3,33.8,2.86,7.28,4,7.83,6.81,1.36,11.51-9.09,6.6-18.19,13.17-29.92,15.12-17.47,2.91-34.19,8.54-50.34,15.91-29.72,13.57-59.21,27.49-85.3,47.62-14.57,11.24-27.2,24.5-40.11,37.49-5.63,5.67-11.13,11.47-16.66,17.24a49.38,49.38,0,0,0-3.93,4.51c-1.24,1.67-2,3.61-.39,5.43s3.64,1.45,5.48.39c7.19-4.18,14.32-8.47,21.51-12.65,48.39-28.16,95.69-58.1,143.22-87.65q22.92-14.25,46-28.32c9.65-5.92,9.66-5.9,21.23.41-1.16,5-4.72,8.5-8,12.05-14.27,15.39-28.85,30.49-42.95,46-3.58,4-9.1,7-9,13.54,0,0-.44-.38-.44-.38l.13.51c22.31-16.35,45.81-30.89,69.14-45.71q33.94-21.57,69.65-40c41.39-21.33,84.69-38.57,128.24-55.1,21.47-8.15,43.61-14.22,65.16-22.05,10.32-3.75,20.48-7.92,31-11a117.78,117.78,0,0,1,43.45-4.32c2,.18,4,.28,6.06,2.06.27,5.07-1.8,10-4.16,14.49-6.93,13.23-6.07,13-18.4,11.6-10.14-1.11-19.83,1.89-29.32,5-24.55,7.91-46.82,20.78-69.6,32.5-9.09,4.68-18.7,9-26.63,15.09-13.44,10.24-27.35,20-39.79,31.6a215.38,215.38,0,0,0-33.86,40.2c-.87,1.34-2,2.6-1.48,5.23,6.91-2.42,13.79-4.61,20.5-7.21,23.06-8.92,46-18.1,68.38-28.65,32-15.06,63.7-30.77,95.69-45.85,50.4-23.75,100.33-48.45,150.36-73,3.88-1.9,7.76-3.84,11.53-5.95a21.58,21.58,0,0,1,10.52-2.63c8.38-.13,12.8,3.82,13.48,12.24.3,3.58-.53,6.43-3.92,8.42-5.75,3.37-11.33,7-17,10.56-24.09,15.18-46.31,32.58-64.57,54.65-1.48,1.79-3,3.59-4.34,5.47a49.69,49.69,0,0,0-4.8,7.78c16.19-9.45,33.34-16.73,50.08-24.86q47.85-23.26,95.74-46.44c5-2.43,10.38-4.16,15.42-6.57,14.15-6.76,28.06-14.06,42.36-20.49,28.11-12.65,55.62-26.64,84.38-37.85,11.45-4.46,22.5-10,34.61-12.7,7-1.55,18.13,3.63,21,10,1.84,4.12.61,9.91-3.29,13.54-6.53,6.09-13.24,12-19.08,19.27,6.49-3.06,13-6.08,19.46-9.19a316.14,316.14,0,0,1,89-28c3.5-.55,7.4-2.27,9.77,2.12s2.25,9.07-.84,13.13c-1.58,2.08-3.82,3.69-5.85,5.41-14.7,12.54-29.51,25-44.1,37.62-6.23,5.41-12,11.32-18,17-1.32,1.25-1.4,2.86-1.55,5.29,12-3.8,23.16-8.83,34.52-13.35,67-26.67,132.29-57.56,199.83-82.93,21.76-8.17,44.29-14.35,66.15-22.12,23.5-8.35,47.08-16,71.32-21.56,21.74-5,43.62-9.35,66.1-9.78,7.09-.14,13,2.42,18.89,5.46,2.75,1.42,4.45,4,5.71,6.75,1.45,3.2,1.27,5.88-2.41,7.32a88.43,88.43,0,0,0-19.23,10.5c-2.8,2-6.28,1.94-9.61,2.28a703.24,703.24,0,0,0-154.77,34c-33.12,11.29-64.49,26.83-95.62,42.75-20.47,10.47-40.67,21.41-59.24,35.1-6.75,5-13.12,10.33-18.1,17.08-4.73,6.42-3.15,10.37,4.44,12.31,3.64.94,7.29.62,10.93.2a142.33,142.33,0,0,0,34.62-8.09c42.62-16.18,85.53-31.63,127.87-48.51,30.13-12,58.89-27.2,87.84-41.85A578.61,578.61,0,0,0,2155.42,635c5.78-3.81,12.4-5.7,18.18-9.51,3.88-2.56,9.82-.43,12.38,3.1,2.78,3.82.76,6.53-1.69,9.64-10.63,13.46-20.11,27.78-32.51,39.88-8.05,7.85-14.89,16.93-22.37,25.36-2.2,2.47-4.74,4.63-7.11,6.93a3.65,3.65,0,0,1,.31.24l-.16-.44c2.25,1.66,4.4.59,6.6-.2,9-3.26,18.27-6.13,27-9.77,28.6-11.93,58.37-19.77,88.17-27.61,26.81-7.06,54-12.14,81.85-11.73,5.66.08,11.38.07,16.79,2.07,5.79,2.15,6.34,5.44,1.49,9.23-4.25,3.31-9.26,5.2-14.29,7-25.39,9.22-51.47,16.22-77.52,23.19-60.76,16.26-120.93,34.35-179.9,56.31a34.66,34.66,0,0,0-11.09,6.37c-25.12,21.89-50.08,44-75.52,65.49-19,16.1-39.48,30.6-57.9,47.35-28.4,25.82-58.85,49-89.49,71.88-33.62,25.14-67.35,50.18-101.9,74-31.22,21.52-62.37,43.33-96.74,59.84-4.49,2.16-9.06,4.18-13.61,6.22a20.08,20.08,0,0,1-11.77,1.26c-9.36-1.56-12.3-5.81-9.3-14.69,6.21-18.34,14.32-35.63,26.42-51.13,20.58-26.38,43.11-50.83,68.61-72.45,20.44-17.33,41.1-34.38,62.84-50.17,13-9.44,25.13-20.22,38.54-29.13C1840,848.15,1878.46,823,1919.61,802c19.08-9.7,38.3-19.24,57.36-29,25.36-13,51.86-23.8,78-35.37a36,36,0,0,0,10-6.44q21-19.25,42.09-38.39a25.43,25.43,0,0,0,3.4-3.64c.49-.66.85-2.14.49-2.53-.84-.91-2.09-1.63-3.44-.48-5.5,4.65-12.37,6.83-18.54,10.28-35.74,20-72.19,38.55-109.73,54.93C1945.1,766.24,1911,781,1875.52,792.26c-16.84,5.34-34.3,8.28-51.84,10.46a56.35,56.35,0,0,1-12,.19c-17.36-1.59-25.67-15.38-18.81-31.47,4.65-10.9,12.67-19.48,20.67-28,3.63-3.85,7.41-7.55,10.65-12.29-10.32,4.38-20.62,8.81-31,13.11q-38.43,16-76.24,33.34a41.91,41.91,0,0,1-19.57,3.24c-10.18-.55-13.25-5.1-11-15.31a40.47,40.47,0,0,1,3.22-8.26c6.76-14.66,17.29-26.53,28.2-38.13,2-2.15,4.61-3.84,5.78-6.71-1.69-1.74-3.08-.38-4.38.26-37.61,18.52-76,35.58-111.72,57.74-8.51,5.27-16.85,10.75-24.85,16.75-2.11,1.57-4,3.62-6.83,3.89-1.77.17-3.55,0-3.82-2.09-.88-6.79-2.3-13,3.76-19.29,20.9-21.78,42.1-43.22,64-64a6.92,6.92,0,0,0,1-1.89c-2.36-1.89-4.17.1-6,.95-16.34,7.58-32.88,14.75-49.27,22.18-8.61,3.9-17,9.25-25.53,13.23-9.47,4.43-19.19,8.71-28.63,13.34q-43.4,21.29-86.44,43.3c-29.7,15.2-59.22,30.76-88.76,46.27a54.2,54.2,0,0,1-26.9,6.35c-7.94-.19-10.89-3.27-10.64-11.1.23-7.4,1.92-14.28,6.23-20.7,11.31-16.86,23.61-33,35.49-50-9.21,4.88-18.48,9.67-27.64,14.65-42.49,23.11-84.62,46.92-127.91,68.51-33.83,16.88-67.15,34.83-101.94,49.74a315.22,315.22,0,0,1-29.83,11.46c-5.91,1.86-11.87,1.94-17.8,1.43-7.71-.67-10.5-3.94-10.88-11.57-.53-10.49.86-20.32,7.23-29.36a450.81,450.81,0,0,1,39.07-47.76c8.6-9.24,18.74-16.64,27.11-25.94a4.63,4.63,0,0,1-.51,0l.4.26a15.62,15.62,0,0,0-9.52,2.48c-9.2,5.91-19.71,8.81-29.52,13.31a972,972,0,0,0-94.19,49.41c-36,21.53-69.75,46.36-104.27,70.08-9.31,6.41-18.51,13-27.93,19.21-7.24,4.79-10.51,4.56-16.34.37s-5.51-9.46-3.52-15.15c4.57-13.08,10.3-25.55,19.41-36.17a4.63,4.63,0,0,1-.56.19Zm1126.28-93.17c-1.45-.33-2.22-.79-2.66-.57-22.84,11-45.82,21.72-67.62,34.63-24.06,14.24-47.39,29.7-71.35,44.11-29.71,17.88-56.49,39.83-84.58,60-11.12,8-21.56,16.86-32.13,25.56-14,11.52-28.17,22.85-41.07,35.6-8.75,8.64-17.11,17.68-25.57,26.61-3.08,3.25-5.94,6.71-9,10.19a4.41,4.41,0,0,0,4.59,0c14-6.06,27.15-13.67,40.4-21.14,27.56-15.54,53.65-33.33,79.45-51.55,26.62-18.8,53.52-37.16,78.75-58,14.73-12.14,30.71-22.9,45.61-35,20.83-16.87,41.7-33.69,62.43-50.68C1962.74,823.38,1970,816.67,1977.85,809.84Z" transform="translate(0 0)"/><path class="cls-3" d="M1580,632.9c-25.94,23.47-53.61,40.75-81.52,57.68-9.11,5.52-18.51,10.57-27.42,16.4-4.77,3.13-8.1,1.15-11.68-1.44-3.77-2.71-1.67-6-.55-9,5-13.16,14-23.29,24.7-32A106,106,0,0,1,1501,652.93c9.11-4.81,18.56-8.94,27.84-13.37C1544.27,632.15,1561.14,631.44,1580,632.9Z" transform="translate(0 0)"/></g><g id="Layer_3" data-name="Layer 3"><path d="M3260.58,573.08h27.53L2970.74,386.84c-11.58-6.8-23.41-13.76-35.31-20.79.93-.9,1.86-1.8,2.77-2.71a169.06,169.06,0,0,0,35.67-52.07,166.8,166.8,0,0,0,13.73-67,162.38,162.38,0,0,0-29.5-93.42A179.72,179.72,0,0,0,2933.86,123c-.9-1.37-1.81-2.74-2.76-4.09-15.09-21.6-35.69-40.37-61.24-55.78-34.1-20.57-77.33-35.65-132.17-46.1C2648.42,0,2550,0,2517.66,0h-667V303.38H1527.22c-10,0-18.79-.23-26.53-.6V32h-27V0H723.53V151.42h-170V32h-27V0H106.64V573.08h27v32H553.55V452.47h170V573.08h27v32h419.91V525.16q27.75,19.1,63.47,33.48c38.71,15.57,85.64,27.36,139.49,35.06,52.81,7.55,113.65,11.38,180.82,11.38H2297.6V457.21h134.09l212.51,132.7,24.31,15.17h646.6Z" transform="translate(0 0)"/></g><g id="Layer_2" data-name="Layer 2"><path class="cls-4" d="M2965.68,395.46c-28-16.44-57.46-33.86-85.89-50.81a183,183,0,0,0,24.33-20.37c30.41-30.47,46.48-69.19,46.48-112,0-33.17-11.16-95.55-85.9-140.64-33.07-20-75.23-34.61-128.88-44.84C2647.48,10,2549.77,10,2517.66,10h-657V313.38H1527.22c-30.93,0-51-2.11-63.53-4.31V10H733.53V161.42h-217V10H116.64V563.08H516.55V410.47h217V563.08h399.91V473.21c21.21,17.23,47,32,77.2,44.15,38,15.27,84.12,26.86,137.17,34.44,52.35,7.49,112.71,11.28,179.41,11.28H2260.6V415.21h147L2622.5,549.42l21.87,13.66h607Z" transform="translate(0 0)"/></g><g id="Layer_9" data-name="Layer 9"><path class="cls-3" d="M2660.18,313c0-7.57,200.42,1.67,200.42-100.67,0-109.1-263.35-112.31-342.94-112.31h-567V473.08H2170.6V325.21h262.76l236.8,147.87h250S2660.18,320.54,2660.18,313Zm-138.31-56.81-16.87,0H2170.6V169.07H2505s129.95,0,129.95,43.24C2635,254.23,2577.43,256.17,2521.87,256.17Z" transform="translate(0 0)"/><path class="cls-3" d="M1373.69,100V334.35c0,27.63,7.72,69,153.53,69h334.4v69.7h-334.4c-256.75,0-373.44-58.35-373.44-138.73V100h219.91" transform="translate(0 0)"/><polyline class="cls-3" points="1043.44 100.01 1043.44 473.08 823.53 473.08 823.53 320.47 426.55 320.47 426.55 473.08 206.64 473.08 206.64 100.01 426.55 100.01 426.55 251.42 823.53 251.42 823.53 100.01 1043.44 100.01"/></g></svg>