<svg id="Layer_1" data-name="Layer 1" xmlns="http://www.w3.org/2000/svg" xmlns:xlink="http://www.w3.org/1999/xlink" viewBox="0 0 455.74 236.34"><defs><style>.cls-1{fill:none;}.cls-2{clip-path:url(#clip-path);}.cls-3{fill:#fff;fill-rule:evenodd;}</style><clipPath id="clip-path" transform="translate(0 0)"><rect class="cls-1" width="455.72" height="236.32"/></clipPath></defs><g class="cls-2"><path class="cls-3" d="M164.06,156.71l3.54-10.66h1a7.06,7.06,0,0,1,1.18.07,3.3,3.3,0,0,1,.74.2,2.36,2.36,0,0,1,.43.24,1.48,1.48,0,0,1,.28.28,1.56,1.56,0,0,1,.18.34,1.81,1.81,0,0,1,.11.47,2.86,2.86,0,0,1,0,.75,7.44,7.44,0,0,1-.29,1.12l-1.22,3.67a8.94,8.94,0,0,1-.47,1.14,4.7,4.7,0,0,1-.47.75,3.31,3.31,0,0,1-.42.47,4.58,4.58,0,0,1-.42.35,4,4,0,0,1-.46.28,6,6,0,0,1-.59.24,4.39,4.39,0,0,1-.86.2,7.85,7.85,0,0,1-1.24.09h-.95m.47-14.05-5.81,17.46h5.45a21.21,21.21,0,0,0,2.9-.13,8.12,8.12,0,0,0,1.7-.38,7,7,0,0,0,1-.41,7.14,7.14,0,0,0,1.48-1,7.91,7.91,0,0,0,1.45-1.67,10.79,10.79,0,0,0,1.21-2.48l1.77-5.34a8.19,8.19,0,0,0,.45-2.4,3.75,3.75,0,0,0-.34-1.7,2.85,2.85,0,0,0-.81-1.06,3.27,3.27,0,0,0-.73-.41,4.82,4.82,0,0,0-1.46-.37,19,19,0,0,0-2.83-.09Zm-17.17,17.49h4.21l4.67-14.07H161l1.13-3.4-13.72,0-1.13,3.39H152Zm-17.52,0,12.43,0,1.13-3.4-8.23,0,4.68-14.07h-4.21Zm-21.49,0,11,0,1-2.9h-3.58l4.84-14.56H113.9l-1,2.9h3.83l-3.88,11.67h-3.58Zm-14.31,0,11,0,1-2.9h-3.57l4.84-14.56-7.67,0-1,2.89h3.83l-3.88,11.66H95ZM86.16,150a20.92,20.92,0,0,1,.82-2.13,7.46,7.46,0,0,1,.65-1.16,5.77,5.77,0,0,1,.44-.55,4.45,4.45,0,0,1,.32-.31,2,2,0,0,1,.28-.19,1.3,1.3,0,0,1,.26-.14l.26-.11a2.65,2.65,0,0,1,.3-.06,1.84,1.84,0,0,1,.33,0,1.51,1.51,0,0,1,.32,0,.83.83,0,0,1,.25.06l.2.1a.75.75,0,0,1,.17.14.72.72,0,0,1,.14.19,1,1,0,0,1,.12.31,2.15,2.15,0,0,1,.06.6,7,7,0,0,1-.16,1.26,20,20,0,0,1-.56,2l-1,3.08c-.25.76-.54,1.51-.78,2a8,8,0,0,1-.62,1.14,3.9,3.9,0,0,1-.41.55,3,3,0,0,1-.3.31,2.14,2.14,0,0,1-.25.21,1.58,1.58,0,0,1-.24.15l-.23.11-.24.08a1.07,1.07,0,0,1-.27.06l-.31,0-.31,0-.26-.07-.2-.1a1,1,0,0,1-.17-.14,1.15,1.15,0,0,1-.14-.2,2,2,0,0,1-.12-.31,2.75,2.75,0,0,1-.07-.55,5.05,5.05,0,0,1,.12-1.17,19.3,19.3,0,0,1,.6-2.11Zm-4.5,1.51a23.08,23.08,0,0,0-.85,3.24,9.49,9.49,0,0,0-.17,2.14,5.79,5.79,0,0,0,.18,1.3,3.67,3.67,0,0,0,.34.86,3.1,3.1,0,0,0,.44.6,3.79,3.79,0,0,0,.54.45,4.65,4.65,0,0,0,.67.33,4.4,4.4,0,0,0,.85.21,6.93,6.93,0,0,0,1.06.08,8.05,8.05,0,0,0,1.11-.08,6.85,6.85,0,0,0,1-.23,6.14,6.14,0,0,0,.88-.33,6.77,6.77,0,0,0,.83-.45,7,7,0,0,0,.84-.6,9.58,9.58,0,0,0,.9-.84,11.54,11.54,0,0,0,1-1.29,15.16,15.16,0,0,0,1.26-2.13,30.52,30.52,0,0,0,1.3-3.23,23.08,23.08,0,0,0,.85-3.24,9.37,9.37,0,0,0,.17-2.13,6,6,0,0,0-.18-1.3,3.76,3.76,0,0,0-.34-.85,3.1,3.1,0,0,0-.44-.6,2.54,2.54,0,0,0-.54-.44,3.22,3.22,0,0,0-.67-.33,4.19,4.19,0,0,0-.85-.22,7,7,0,0,0-1.06-.08,6.77,6.77,0,0,0-1.12.09,7,7,0,0,0-1,.22,7.2,7.2,0,0,0-.88.33,8.45,8.45,0,0,0-.83.45,8.18,8.18,0,0,0-.83.6,8.41,8.41,0,0,0-.9.84,12.3,12.3,0,0,0-1,1.28A15.25,15.25,0,0,0,83,148.31,29.48,29.48,0,0,0,81.66,151.53Zm-17.23,8.8,12.25,0,1.08-3.23-7.77,0c.36-.33.73-.65,1.15-1s.91-.69,1.92-1.37S75.6,153,77.15,152a13.6,13.6,0,0,0,1.78-1.45,8.22,8.22,0,0,0,1.13-1.39,6.2,6.2,0,0,0,.68-1.45A5.75,5.75,0,0,0,81,146a3.43,3.43,0,0,0-.3-1.46,3.24,3.24,0,0,0-.83-1.12,4,4,0,0,0-1.38-.74,6.56,6.56,0,0,0-1.9-.26,9,9,0,0,0-2.07.25,8.65,8.65,0,0,0-1.86.69,9.82,9.82,0,0,0-1.87,1.23,14.9,14.9,0,0,0-2,2l2.42,1.88a12.49,12.49,0,0,1,1-1.37,7.29,7.29,0,0,1,.86-.84,5.27,5.27,0,0,1,.68-.47,3.73,3.73,0,0,1,.57-.28,2.63,2.63,0,0,1,.53-.15,3.05,3.05,0,0,1,.52,0,1.85,1.85,0,0,1,.63.09,1.4,1.4,0,0,1,.48.26,1.13,1.13,0,0,1,.31.43,1.41,1.41,0,0,1,.12.64,2.5,2.5,0,0,1-.15.82,4,4,0,0,1-.26.63,5.74,5.74,0,0,1-.34.55,4.38,4.38,0,0,1-.48.56,11,11,0,0,1-.82.76,18,18,0,0,1-1.43,1.09c-.73.51-1.81,1.26-2.91,2a25.41,25.41,0,0,0-2.6,2,12.62,12.62,0,0,0-1.6,1.71,11.13,11.13,0,0,0-1.08,1.59A13.14,13.14,0,0,0,64.43,160.33Zm145.91-31.4a8.12,8.12,0,0,1-1.12,1.63,7.35,7.35,0,0,1-1.43,1.2,6.55,6.55,0,0,1-1.66.75,7,7,0,0,1-1.77.27,4.84,4.84,0,0,1-1.48-.16,3.42,3.42,0,0,1-1.11-.5,2.74,2.74,0,0,1-.77-.82,3.26,3.26,0,0,1-.43-1.16,5.91,5.91,0,0,1,0-1.58,10.83,10.83,0,0,1,.48-2,12.74,12.74,0,0,1,.88-2,9,9,0,0,1,1.09-1.57,8,8,0,0,1,1.2-1.15,7,7,0,0,1,1.29-.8,6.16,6.16,0,0,1,1.38-.5,8.08,8.08,0,0,1,1.4-.17,5,5,0,0,1,1.09.08,3.06,3.06,0,0,1,.79.27,2.35,2.35,0,0,1,.66.5,3.75,3.75,0,0,1,.57.84,2.61,2.61,0,0,0,.37.62,1.25,1.25,0,0,0,.35.32,1.61,1.61,0,0,0,.65.25,2.5,2.5,0,0,0,.4,0,2.32,2.32,0,0,0,1.11-.33,2.39,2.39,0,0,0,.52-.38,2.14,2.14,0,0,0,.41-.49,2.38,2.38,0,0,0,.28-.55,2,2,0,0,0,.12-.77,2.26,2.26,0,0,0-.21-.84,3.11,3.11,0,0,0-.65-.88,4.93,4.93,0,0,0-1.08-.79,5.86,5.86,0,0,0-1.23-.53,8.38,8.38,0,0,0-1.45-.32,11.94,11.94,0,0,0-1.72-.11,13.35,13.35,0,0,0-3.16.41,12.19,12.19,0,0,0-2.87,1.17,12.77,12.77,0,0,0-2.54,1.85,14.09,14.09,0,0,0-2.15,2.58,15.44,15.44,0,0,0-1.56,3.22,11.69,11.69,0,0,0-.68,3.22,6.71,6.71,0,0,0,.36,2.65,4.83,4.83,0,0,0,1.29,1.92,5.42,5.42,0,0,0,2.08,1.17,9.67,9.67,0,0,0,2.63.38,9.21,9.21,0,0,0,2.41-.28,8.71,8.71,0,0,0,2.12-.85,12.23,12.23,0,0,0,2.08-1.48h0l-.17,1.36a1.77,1.77,0,0,0,0,.46.81.81,0,0,0,.12.33.7.7,0,0,0,.2.22.91.91,0,0,0,.3.13,1.6,1.6,0,0,0,.39.05l.31,0,.27-.06.23-.08a1.18,1.18,0,0,0,.19-.11l.19-.13.18-.18.17-.23a2,2,0,0,0,.19-.33l.18-.44,2.33-6.75a2.43,2.43,0,0,0,.11-.4,1.89,1.89,0,0,0,0-.31,1.64,1.64,0,0,0,0-.23.75.75,0,0,0-.07-.18.64.64,0,0,0-.13-.15.83.83,0,0,0-.18-.13,1.36,1.36,0,0,0-.29-.11,2.07,2.07,0,0,0-.46-.09c-.2,0-.45,0-.7,0h-4.24a2.26,2.26,0,0,0-.53.06,2.78,2.78,0,0,0-.46.13,2.42,2.42,0,0,0-.39.21,2.69,2.69,0,0,0-.32.27,3.18,3.18,0,0,0-.26.35,1.89,1.89,0,0,0-.2.43,2.11,2.11,0,0,0-.1.5,1.18,1.18,0,0,0,.07.43,1,1,0,0,0,.24.33,1.17,1.17,0,0,0,.4.21,1.73,1.73,0,0,0,.52.06Zm-29.51,4.67,3.54-10.22h0l3.12,10.38a4.41,4.41,0,0,0,.31.95,1.84,1.84,0,0,0,.34.49,2.09,2.09,0,0,0,.3.25,1.52,1.52,0,0,0,.34.15,3.43,3.43,0,0,0,.47.1,6.08,6.08,0,0,0,.61,0,4.56,4.56,0,0,0,.55,0,3.51,3.51,0,0,0,.42-.08l.34-.12a2.69,2.69,0,0,0,.29-.16,1.64,1.64,0,0,0,.26-.2,1.6,1.6,0,0,0,.26-.26,3.13,3.13,0,0,0,.28-.38,6,6,0,0,0,.33-.6c.11-.25.23-.56.34-.88l4.57-13.23a4.73,4.73,0,0,0,.18-.63,3,3,0,0,0,.05-.47,1.63,1.63,0,0,0-.05-.34,1.12,1.12,0,0,0-.11-.25.77.77,0,0,0-.18-.18.86.86,0,0,0-.25-.14,1.46,1.46,0,0,0-.35-.1,3.53,3.53,0,0,0-.48,0,2.7,2.7,0,0,0-.49,0,2.26,2.26,0,0,0-.41.09,1.84,1.84,0,0,0-.35.15,2,2,0,0,0-.31.19,1.62,1.62,0,0,0-.28.25,2.42,2.42,0,0,0-.28.34,2.54,2.54,0,0,0-.28.47,6.1,6.1,0,0,0-.26.62L190.13,130h0l-2.89-9.67a7.58,7.58,0,0,0-.41-1.47,2.12,2.12,0,0,0-.43-.67,1.81,1.81,0,0,0-.32-.28,1.2,1.2,0,0,0-.32-.16,1.87,1.87,0,0,0-.39-.09,3.62,3.62,0,0,0-.5,0c-.19,0-.39,0-.56,0a4.56,4.56,0,0,0-.47.08l-.36.1-.29.13-.26.16-.24.2a3.08,3.08,0,0,0-.24.26c-.08.1-.16.22-.26.37a5.65,5.65,0,0,0-.3.57c-.11.25-.23.56-.33.87L177,133.61c-.07.22-.14.44-.18.63a3,3,0,0,0-.05.47,1.63,1.63,0,0,0,.05.34.66.66,0,0,0,.11.24.61.61,0,0,0,.17.19,1.17,1.17,0,0,0,.25.14,1.58,1.58,0,0,0,.36.09,2.39,2.39,0,0,0,.48,0,3.73,3.73,0,0,0,.48,0,1.84,1.84,0,0,0,.42-.1,1.73,1.73,0,0,0,.34-.14,2.32,2.32,0,0,0,.31-.19A2.35,2.35,0,0,0,180,135a2,2,0,0,0,.29-.34c.09-.13.18-.28.28-.46A5,5,0,0,0,180.83,133.6Zm-5.72-14-4.92,14.24a3,3,0,0,0-.15.63,1.26,1.26,0,0,0,0,.48.79.79,0,0,0,.14.34.93.93,0,0,0,.27.25,1.68,1.68,0,0,0,.42.16,3.7,3.7,0,0,0,.59,0,3.45,3.45,0,0,0,.58,0,2.09,2.09,0,0,0,.48-.13,2.32,2.32,0,0,0,.39-.18,1.5,1.5,0,0,0,.33-.23,3.14,3.14,0,0,0,.31-.32,4.2,4.2,0,0,0,.29-.44,5.06,5.06,0,0,0,.25-.58L179,119.6a3.35,3.35,0,0,0,.15-.63,1.26,1.26,0,0,0,0-.48.92.92,0,0,0-.14-.35,1.05,1.05,0,0,0-.27-.24,1.14,1.14,0,0,0-.43-.16,2.65,2.65,0,0,0-.58-.06,3.39,3.39,0,0,0-.58,0,2.8,2.8,0,0,0-.48.12,2.32,2.32,0,0,0-.39.18,2,2,0,0,0-.33.24,1.89,1.89,0,0,0-.31.32,3.36,3.36,0,0,0-.29.44A3.89,3.89,0,0,0,175.11,119.61ZM160.72,121h4.85a4.72,4.72,0,0,1,.87.07,2.24,2.24,0,0,1,.62.22,1.39,1.39,0,0,1,.39.32,1.12,1.12,0,0,1,.21.44,1.7,1.7,0,0,1,0,.57,3.84,3.84,0,0,1-.17.71,3.11,3.11,0,0,1-.26.61,3.05,3.05,0,0,1-.3.48,1.91,1.91,0,0,1-.33.36,2.6,2.6,0,0,1-.36.3l-.43.24a4.8,4.8,0,0,1-.54.19,3.81,3.81,0,0,1-.69.14,7.66,7.66,0,0,1-.86,0H159.1Zm-4.46,12.91,1.79-5.18h4.21c.24,0,.49,0,.69,0a4.46,4.46,0,0,1,.52.08l.35.12a.87.87,0,0,1,.25.15,1,1,0,0,1,.17.18.84.84,0,0,1,.12.23,1.16,1.16,0,0,1,.06.38,3.45,3.45,0,0,1-.07.76,10.49,10.49,0,0,1-.3,1.2c-.18.58-.33,1.17-.43,1.62a5.33,5.33,0,0,0-.13,1,1.66,1.66,0,0,0,0,.51,1.27,1.27,0,0,0,.11.3,1.56,1.56,0,0,0,.16.2l.21.15a1.69,1.69,0,0,0,.27.11,3,3,0,0,0,.37.08l.47,0a3.38,3.38,0,0,0,.72-.08,3,3,0,0,0,.62-.22,2.93,2.93,0,0,0,.5-.34,2.38,2.38,0,0,0,.4-.44,2.19,2.19,0,0,0,.28-.55,1.15,1.15,0,0,0,.07-.27c0-.12,0-.29.07-.54s.08-.59.11-.93c0-.18.08-.37.15-.62s.18-.56.27-.86.17-.59.24-.87a4.85,4.85,0,0,0,.14-1,2.33,2.33,0,0,0-.08-.73,1.58,1.58,0,0,0-.7-1,2.69,2.69,0,0,0-.68-.33h0a6.2,6.2,0,0,0,1.14-.42,5.62,5.62,0,0,0,1-.6,5.37,5.37,0,0,0,.86-.8,6.49,6.49,0,0,0,.76-1,7.55,7.55,0,0,0,.59-1.32,7,7,0,0,0,.35-1.38,3.7,3.7,0,0,0,0-1.1,2.43,2.43,0,0,0-.26-.84,2.33,2.33,0,0,0-.53-.65,3,3,0,0,0-.85-.52,5.23,5.23,0,0,0-1.31-.35,11.41,11.41,0,0,0-1.83-.13l-6.9,0a5.41,5.41,0,0,0-.59,0,2.79,2.79,0,0,0-.46.07l-.36.11a1.51,1.51,0,0,0-.29.13,2.2,2.2,0,0,0-.26.15l-.24.2a3.08,3.08,0,0,0-.24.26,3.3,3.3,0,0,0-.26.37,5,5,0,0,0-.3.58c-.11.24-.23.55-.34.86l-4.54,13.16a2.65,2.65,0,0,0-.16.63,1.51,1.51,0,0,0,0,.48,1,1,0,0,0,.15.34.78.78,0,0,0,.26.25,1.76,1.76,0,0,0,.43.16,3.51,3.51,0,0,0,.59.05,3.6,3.6,0,0,0,.58,0,2,2,0,0,0,.47-.13,2.85,2.85,0,0,0,.39-.17,2.62,2.62,0,0,0,.34-.24c.1-.1.2-.2.3-.32a3,3,0,0,0,.29-.44A5.06,5.06,0,0,0,156.26,133.88Zm-6.94-1.49-8.67,0,1.59-4.6,7.33,0c.23,0,.46,0,.66,0a3.47,3.47,0,0,0,.53-.12,3.17,3.17,0,0,0,.41-.17,1.85,1.85,0,0,0,.33-.21,1.6,1.6,0,0,0,.27-.25,1.92,1.92,0,0,0,.23-.31c.06-.12.12-.25.17-.38a2.24,2.24,0,0,0,.1-.39,1.18,1.18,0,0,0,0-.33.92.92,0,0,0-.09-.25.76.76,0,0,0-.19-.21.88.88,0,0,0-.29-.16,2,2,0,0,0-.46-.12,4,4,0,0,0-.63,0l-7.33,0,1.32-3.8,8.15,0a4.8,4.8,0,0,0,.67-.05,2.44,2.44,0,0,0,.53-.12,2,2,0,0,0,.42-.17,1.63,1.63,0,0,0,.34-.21,2.16,2.16,0,0,0,.27-.25,2.62,2.62,0,0,0,.23-.32,1.84,1.84,0,0,0,.17-.38,2.24,2.24,0,0,0,.1-.39,1.18,1.18,0,0,0,0-.33.74.74,0,0,0-.1-.26.77.77,0,0,0-.19-.22,1.19,1.19,0,0,0-.3-.17,2,2,0,0,0-.46-.12,4,4,0,0,0-.62,0l-9.63,0a5.35,5.35,0,0,0-.58,0,3.93,3.93,0,0,0-.46.08l-.36.1a2.08,2.08,0,0,0-.3.13l-.26.16a2.12,2.12,0,0,0-.24.2l-.24.26a3.36,3.36,0,0,0-.25.37,4.07,4.07,0,0,0-.31.57c-.11.25-.22.55-.33.86l-4.18,12.11a7.59,7.59,0,0,0-.28.91,3.63,3.63,0,0,0-.09.6,1.94,1.94,0,0,0,0,.38.88.88,0,0,0,.09.26.56.56,0,0,0,.14.2.83.83,0,0,0,.2.16l.3.12a1.88,1.88,0,0,0,.43.09,5.6,5.6,0,0,0,.6,0l10.14,0a4.45,4.45,0,0,0,.65,0,2.52,2.52,0,0,0,.54-.13,3.33,3.33,0,0,0,.42-.17l.34-.22a1.85,1.85,0,0,0,.28-.28,2.3,2.3,0,0,0,.25-.34,2.65,2.65,0,0,0,.18-.42,1.74,1.74,0,0,0,.11-.42,1.36,1.36,0,0,0,0-.35.79.79,0,0,0-.1-.27.73.73,0,0,0-.18-.22,1.07,1.07,0,0,0-.3-.17,2,2,0,0,0-.46-.13A5.7,5.7,0,0,0,149.32,132.39Zm-16.08,0-8.66,0,1.59-4.61h7.33a4.51,4.51,0,0,0,.65,0,3.22,3.22,0,0,0,.53-.12,2,2,0,0,0,.41-.16,2.08,2.08,0,0,0,.33-.21,2.16,2.16,0,0,0,.27-.25,1.78,1.78,0,0,0,.23-.31,2.32,2.32,0,0,0,.18-.39,2,2,0,0,0,.09-.39,1.14,1.14,0,0,0,0-.32.82.82,0,0,0-.1-.26.67.67,0,0,0-.18-.2,1.19,1.19,0,0,0-.3-.17,1.65,1.65,0,0,0-.45-.11,4.13,4.13,0,0,0-.63,0l-7.33,0,1.31-3.79,8.16,0a4.54,4.54,0,0,0,.66,0,3.61,3.61,0,0,0,.54-.12,3.33,3.33,0,0,0,.42-.17,1.85,1.85,0,0,0,.33-.21,2.27,2.27,0,0,0,.28-.26,1.73,1.73,0,0,0,.22-.31,2.32,2.32,0,0,0,.18-.39,1.46,1.46,0,0,0,.09-.39,1.14,1.14,0,0,0,0-.32.79.79,0,0,0-.1-.27.76.76,0,0,0-.19-.21,1.07,1.07,0,0,0-.3-.17,2.35,2.35,0,0,0-.46-.12,4.17,4.17,0,0,0-.63,0l-9.62,0a5.41,5.41,0,0,0-.59,0,4.52,4.52,0,0,0-.46.07l-.36.11-.29.13a2.26,2.26,0,0,0-.26.16l-.24.19a3.08,3.08,0,0,0-.24.26,3.3,3.3,0,0,0-.26.37,5,5,0,0,0-.3.58c-.11.24-.23.55-.34.86l-4.18,12.1c-.11.33-.21.65-.27.91a3.58,3.58,0,0,0-.09.61,1.39,1.39,0,0,0,0,.37,1,1,0,0,0,.09.27,1.43,1.43,0,0,0,.14.2,1.13,1.13,0,0,0,.21.15,1.32,1.32,0,0,0,.29.13,3.21,3.21,0,0,0,.44.08,5.47,5.47,0,0,0,.6,0l10.13,0a4.54,4.54,0,0,0,.66,0,3.22,3.22,0,0,0,.53-.12,2,2,0,0,0,.42-.18,1.66,1.66,0,0,0,.34-.22,1.86,1.86,0,0,0,.29-.27,2.27,2.27,0,0,0,.24-.34,3.17,3.17,0,0,0,.19-.42,1.78,1.78,0,0,0,.1-.43,1,1,0,0,0,0-.34.78.78,0,0,0-.09-.27.79.79,0,0,0-.19-.22,1,1,0,0,0-.3-.18,2.07,2.07,0,0,0-.45-.12A4.17,4.17,0,0,0,133.24,132.43Zm-27.53,1.34,3.54-10.22h0l3.12,10.38a4.41,4.41,0,0,0,.31,1,1.84,1.84,0,0,0,.34.49,2.09,2.09,0,0,0,.3.25,1.52,1.52,0,0,0,.34.15,4.24,4.24,0,0,0,.47.1,6.08,6.08,0,0,0,.61,0,4.44,4.44,0,0,0,.55,0,3.51,3.51,0,0,0,.42-.08l.34-.12a2.69,2.69,0,0,0,.29-.16,1.64,1.64,0,0,0,.26-.2,2.17,2.17,0,0,0,.27-.26,3.69,3.69,0,0,0,.27-.39,4.81,4.81,0,0,0,.33-.59c.11-.25.23-.56.34-.88L122.41,120c.07-.22.13-.44.17-.63a2.15,2.15,0,0,0,0-.47,1.63,1.63,0,0,0,0-.34,1.12,1.12,0,0,0-.11-.25.77.77,0,0,0-.18-.18.68.68,0,0,0-.25-.14,1.46,1.46,0,0,0-.35-.1,3.48,3.48,0,0,0-.47,0,2.74,2.74,0,0,0-.5,0,2.26,2.26,0,0,0-.41.09,1.84,1.84,0,0,0-.35.15,2,2,0,0,0-.31.19,1.62,1.62,0,0,0-.28.25,2.42,2.42,0,0,0-.28.34,2.54,2.54,0,0,0-.28.47,6.1,6.1,0,0,0-.26.62L115,130.2h0l-2.89-9.67a7.91,7.91,0,0,0-.41-1.48,2.17,2.17,0,0,0-.43-.66,1.52,1.52,0,0,0-.32-.28,1.2,1.2,0,0,0-.32-.16,1.87,1.87,0,0,0-.39-.09,2.47,2.47,0,0,0-.5,0,5.12,5.12,0,0,0-.56,0,4.56,4.56,0,0,0-.47.08,2.47,2.47,0,0,0-.35.1l-.3.13a2.26,2.26,0,0,0-.26.16l-.24.2a2.05,2.05,0,0,0-.24.26c-.08.1-.16.22-.26.37a5.65,5.65,0,0,0-.3.57c-.11.25-.23.56-.33.87l-4.56,13.18a4.6,4.6,0,0,0-.17.63,1.67,1.67,0,0,0,0,.47,1.18,1.18,0,0,0,0,.34.66.66,0,0,0,.11.24,1,1,0,0,0,.17.19,1.17,1.17,0,0,0,.25.14,1.58,1.58,0,0,0,.36.09,2.39,2.39,0,0,0,.48,0,3.73,3.73,0,0,0,.48,0,2.58,2.58,0,0,0,.42-.1,2.13,2.13,0,0,0,.35-.14l.31-.19c.09-.08.19-.16.29-.26a2.68,2.68,0,0,0,.28-.34,3.24,3.24,0,0,0,.28-.47A4.3,4.3,0,0,0,105.71,133.77Zm-5.72-14L95.07,134a3.35,3.35,0,0,0-.15.63,1.32,1.32,0,0,0,0,.49.94.94,0,0,0,.14.34.93.93,0,0,0,.27.25,1.62,1.62,0,0,0,.43.16,3.51,3.51,0,0,0,.59.05,3.6,3.6,0,0,0,.58,0,2.15,2.15,0,0,0,.47-.13,2.32,2.32,0,0,0,.39-.18,1.55,1.55,0,0,0,.33-.24,2.27,2.27,0,0,0,.31-.31,3,3,0,0,0,.29-.44A5.06,5.06,0,0,0,99,134l4.92-14.24a3.35,3.35,0,0,0,.15-.63,1.26,1.26,0,0,0,0-.48.78.78,0,0,0-.14-.35,1.05,1.05,0,0,0-.27-.24,1.15,1.15,0,0,0-.42-.16,2.81,2.81,0,0,0-.59-.06,3.39,3.39,0,0,0-.58.05,2.8,2.8,0,0,0-.48.12,2.32,2.32,0,0,0-.39.18,3.43,3.43,0,0,0-.33.24,1.89,1.89,0,0,0-.31.32,2.8,2.8,0,0,0-.29.44A5.31,5.31,0,0,0,100,119.78Zm-9.42,9.42a8.12,8.12,0,0,1-1.12,1.63A7.07,7.07,0,0,1,88,132a6.55,6.55,0,0,1-1.66.75,7,7,0,0,1-1.77.27,5.17,5.17,0,0,1-1.48-.16,3.42,3.42,0,0,1-1.11-.5,2.74,2.74,0,0,1-.77-.82,3.07,3.07,0,0,1-.42-1.16,5.49,5.49,0,0,1,0-1.58,10.83,10.83,0,0,1,.48-2,12.74,12.74,0,0,1,.88-1.95,9.63,9.63,0,0,1,1.09-1.57,8,8,0,0,1,1.2-1.15,7,7,0,0,1,1.29-.8,6.16,6.16,0,0,1,1.38-.5,7.21,7.21,0,0,1,1.4-.17,5,5,0,0,1,1.09.08,3.06,3.06,0,0,1,.79.27,2.35,2.35,0,0,1,.66.5,3.75,3.75,0,0,1,.57.84,3,3,0,0,0,.37.62,1.41,1.41,0,0,0,.35.32,1.61,1.61,0,0,0,.65.25,2.5,2.5,0,0,0,.4,0,2.32,2.32,0,0,0,1.11-.33,2.74,2.74,0,0,0,1.21-1.42,2,2,0,0,0,.12-.77,2.26,2.26,0,0,0-.21-.84,3.26,3.26,0,0,0-.64-.88,5.46,5.46,0,0,0-1.08-.79,6.17,6.17,0,0,0-1.24-.53,8.38,8.38,0,0,0-1.45-.32,11.94,11.94,0,0,0-1.72-.11,13.35,13.35,0,0,0-3.16.41,12.19,12.19,0,0,0-2.87,1.17,12.43,12.43,0,0,0-2.53,1.85,13.33,13.33,0,0,0-2.15,2.58,15.48,15.48,0,0,0-1.57,3.22,11.69,11.69,0,0,0-.68,3.22,6.71,6.71,0,0,0,.36,2.65,4.94,4.94,0,0,0,1.29,1.92,5.42,5.42,0,0,0,2.08,1.17,9.68,9.68,0,0,0,2.64.38,9.14,9.14,0,0,0,2.4-.28,8.71,8.71,0,0,0,2.12-.85,12.23,12.23,0,0,0,2.08-1.48h0L89.34,135a1.77,1.77,0,0,0,0,.46,1,1,0,0,0,.12.33.7.7,0,0,0,.2.22.91.91,0,0,0,.3.13,1.6,1.6,0,0,0,.39,0l.31,0,.27-.06.23-.08.2-.11.18-.13.18-.18a2.67,2.67,0,0,0,.18-.23,3.27,3.27,0,0,0,.18-.33l.18-.44,2.33-6.76a2.09,2.09,0,0,0,.11-.39,1.25,1.25,0,0,0,0-.31.85.85,0,0,0,0-.23.75.75,0,0,0-.07-.18.61.61,0,0,0-.12-.15.7.7,0,0,0-.19-.13,1.36,1.36,0,0,0-.29-.11,2,2,0,0,0-.46-.09c-.2,0-.45,0-.7,0H88.64a2.33,2.33,0,0,0-.53.06,2.78,2.78,0,0,0-.46.13,2,2,0,0,0-.38.21,1.69,1.69,0,0,0-.32.27,2.33,2.33,0,0,0-.27.35,1.89,1.89,0,0,0-.2.43,1.69,1.69,0,0,0-.09.49,1,1,0,0,0,.06.44,1,1,0,0,0,.24.33,1.17,1.17,0,0,0,.4.21,2.11,2.11,0,0,0,.52.07Zm-29.51,4.67,3.54-10.22h0L67.74,134a5,5,0,0,0,.31.95,1.68,1.68,0,0,0,.34.49,2.09,2.09,0,0,0,.3.25,1.52,1.52,0,0,0,.34.15,3.8,3.8,0,0,0,.47.1,6.08,6.08,0,0,0,.61,0,4.44,4.44,0,0,0,.55,0,3.51,3.51,0,0,0,.42-.08l.34-.12a2.69,2.69,0,0,0,.29-.16,1.64,1.64,0,0,0,.26-.2,2.17,2.17,0,0,0,.27-.26c.08-.11.18-.23.28-.39s.2-.34.32-.59.23-.56.34-.88l4.58-13.23c.07-.22.13-.44.17-.63a2.15,2.15,0,0,0,0-.47,1.16,1.16,0,0,0,0-.34,1.12,1.12,0,0,0-.11-.25.77.77,0,0,0-.18-.18.86.86,0,0,0-.25-.14,1.46,1.46,0,0,0-.35-.1,3.48,3.48,0,0,0-.47,0,2.74,2.74,0,0,0-.5,0,2.26,2.26,0,0,0-.41.09,1.84,1.84,0,0,0-.35.15,2,2,0,0,0-.31.19,2.1,2.1,0,0,0-.28.25,2.42,2.42,0,0,0-.28.34,2.54,2.54,0,0,0-.28.47,6.1,6.1,0,0,0-.26.62L70.36,130.3h0l-2.89-9.67a7.91,7.91,0,0,0-.41-1.48,2.17,2.17,0,0,0-.43-.66,1.52,1.52,0,0,0-.32-.28,1.2,1.2,0,0,0-.32-.16,1.87,1.87,0,0,0-.39-.09,3.63,3.63,0,0,0-.5,0l-.56,0a4.56,4.56,0,0,0-.47.08l-.35.1-.3.13-.26.16-.24.2a3.08,3.08,0,0,0-.24.26c-.08.1-.16.22-.26.37a5.65,5.65,0,0,0-.3.57c-.11.25-.23.56-.33.87l-4.56,13.18c-.07.22-.14.44-.18.63a2.07,2.07,0,0,0,0,.47,1.18,1.18,0,0,0,0,.34.88.88,0,0,0,.11.24.77.77,0,0,0,.17.19,1.17,1.17,0,0,0,.25.14,1.58,1.58,0,0,0,.36.09,2.39,2.39,0,0,0,.48,0,3.73,3.73,0,0,0,.48,0,2.58,2.58,0,0,0,.42-.1,2.13,2.13,0,0,0,.35-.14l.31-.19c.09-.08.19-.16.29-.26a2.68,2.68,0,0,0,.28-.34,3.71,3.71,0,0,0,.28-.46A5,5,0,0,0,61.06,133.87Zm-7-1.26-8.66,0L47,128l7.33,0a4.45,4.45,0,0,0,.65,0,3.22,3.22,0,0,0,.53-.12,2,2,0,0,0,.42-.17,2.63,2.63,0,0,0,.33-.2,3.2,3.2,0,0,0,.27-.25,1.81,1.81,0,0,0,.22-.32,1.91,1.91,0,0,0,.18-.38,1.46,1.46,0,0,0,.09-.39.86.86,0,0,0,0-.32,1,1,0,0,0-.09-.26,1.09,1.09,0,0,0-.48-.37,2,2,0,0,0-.46-.12,5.9,5.9,0,0,0-.63,0l-7.33,0,1.31-3.8h8.16a6.57,6.57,0,0,0,.66,0,3.12,3.12,0,0,0,.54-.12,2.81,2.81,0,0,0,.42-.17l.33-.21a2.27,2.27,0,0,0,.28-.26,2,2,0,0,0,.23-.32,1.63,1.63,0,0,0,.17-.38,2,2,0,0,0,.1-.39,1.19,1.19,0,0,0,0-.33.82.82,0,0,0-.1-.26.63.63,0,0,0-.19-.21,1,1,0,0,0-.3-.17,2,2,0,0,0-.46-.12,4,4,0,0,0-.62,0l-9.63,0a5.22,5.22,0,0,0-.58,0,2.93,2.93,0,0,0-.47.07,2.42,2.42,0,0,0-.35.11,2.08,2.08,0,0,0-.3.13,1.83,1.83,0,0,0-.26.16,2,2,0,0,0-.24.19,3.08,3.08,0,0,0-.24.26c-.08.1-.16.22-.26.37a5,5,0,0,0-.3.58,8.2,8.2,0,0,0-.33.86l-4.19,12.1c-.11.33-.21.65-.27.91a3.58,3.58,0,0,0-.09.61,1.9,1.9,0,0,0,0,.37,1.46,1.46,0,0,0,.08.27.9.9,0,0,0,.15.19.83.83,0,0,0,.2.16,1.1,1.1,0,0,0,.29.12,2.11,2.11,0,0,0,.44.09,5.6,5.6,0,0,0,.6,0l10.14,0a4.51,4.51,0,0,0,.65-.05,3.61,3.61,0,0,0,.54-.12,2.65,2.65,0,0,0,.42-.18,2.46,2.46,0,0,0,.34-.22,2.37,2.37,0,0,0,.28-.27,1.72,1.72,0,0,0,.24-.34,2.26,2.26,0,0,0,.19-.42,2.72,2.72,0,0,0,.11-.43,1.92,1.92,0,0,0,0-.34.85.85,0,0,0-.1-.28.72.72,0,0,0-.18-.21,1.09,1.09,0,0,0-.3-.18,2,2,0,0,0-.46-.12A4,4,0,0,0,54.09,132.61Zm329.59-43.2-35.16.08,4.75-22L383,67.44a15.75,15.75,0,0,0,2.63-.21,10.92,10.92,0,0,0,2.11-.56,8.63,8.63,0,0,0,1.61-.8,7.45,7.45,0,0,0,1.26-1,7.3,7.3,0,0,0,1-1.2,8.06,8.06,0,0,0,.8-1.49,10.44,10.44,0,0,0,.57-1.82,10.65,10.65,0,0,0,.24-1.87,6.48,6.48,0,0,0-.14-1.53,4.7,4.7,0,0,0-.48-1.22,3.92,3.92,0,0,0-.81-1,4.79,4.79,0,0,0-1.26-.8,8.21,8.21,0,0,0-1.89-.56,15.81,15.81,0,0,0-2.58-.2l-29.75.07,3.92-18.12,33.1-.07a16.12,16.12,0,0,0,2.67-.22,10.64,10.64,0,0,0,2.15-.57,9.18,9.18,0,0,0,1.63-.82,8.14,8.14,0,0,0,1.28-1,8,8,0,0,0,1-1.22,9.05,9.05,0,0,0,.81-1.52,11.18,11.18,0,0,0,.57-1.83,10.49,10.49,0,0,0,.23-1.86,6.18,6.18,0,0,0-.15-1.55,4.59,4.59,0,0,0-.49-1.25,4.23,4.23,0,0,0-.84-1A5.2,5.2,0,0,0,401,21.4a8,8,0,0,0-1.91-.57,14.61,14.61,0,0,0-2.56-.2l-39.07.09a19.24,19.24,0,0,0-2.35.13,12.81,12.81,0,0,0-1.86.36,10,10,0,0,0-1.41.5,8.35,8.35,0,0,0-1.15.63,7.16,7.16,0,0,0-1,.75,8.22,8.22,0,0,0-.9.95,10.07,10.07,0,0,0-.88,1.23A16.47,16.47,0,0,0,347,27a22.51,22.51,0,0,0-1,2.76c-.36,1.16-.72,2.63-1,4.1L332.43,91.66c-.34,1.55-.62,3.12-.77,4.36a16.31,16.31,0,0,0-.13,2.88,9,9,0,0,0,.23,1.79,5.85,5.85,0,0,0,.45,1.25,4.49,4.49,0,0,0,.65.94,4.3,4.3,0,0,0,.88.75,6,6,0,0,0,1.24.59,8.56,8.56,0,0,0,1.8.42,18.84,18.84,0,0,0,2.47.15l41.13-.09a15.82,15.82,0,0,0,2.64-.23,10.57,10.57,0,0,0,2.13-.59,8.62,8.62,0,0,0,2.93-1.89,7.86,7.86,0,0,0,1.05-1.3,9.72,9.72,0,0,0,.86-1.64,13.48,13.48,0,0,0,.62-2,11.53,11.53,0,0,0,.26-2,6.39,6.39,0,0,0-.14-1.64,4.37,4.37,0,0,0-.48-1.3,3.88,3.88,0,0,0-.83-1,4.67,4.67,0,0,0-1.27-.84,7.65,7.65,0,0,0-1.9-.58A14.69,14.69,0,0,0,383.68,89.41ZM275.39,104.93l35.72-.08a24,24,0,0,0,2.78-.16,13.44,13.44,0,0,0,2.12-.42,10.88,10.88,0,0,0,1.55-.57,8.28,8.28,0,0,0,1.19-.68,7.42,7.42,0,0,0,1-.78,8.06,8.06,0,0,0,.81-.93,8.77,8.77,0,0,0,.72-1.13,10.36,10.36,0,0,0,.62-1.44,13.06,13.06,0,0,0,.5-1.77,9.32,9.32,0,0,0,.2-1.77,5.66,5.66,0,0,0-.18-1.52,5,5,0,0,0-.56-1.29,4.7,4.7,0,0,0-1-1.09,5.53,5.53,0,0,0-1.48-.89,9,9,0,0,0-2.15-.62,16.6,16.6,0,0,0-2.81-.22l-29.53.07L298,28.84a16.1,16.1,0,0,0,.4-3,8.15,8.15,0,0,0-.22-2.29,5.06,5.06,0,0,0-.71-1.63,4.2,4.2,0,0,0-1.17-1.17,5.38,5.38,0,0,0-1.79-.78,10.36,10.36,0,0,0-2.44-.27,11.41,11.41,0,0,0-2.45.29,9,9,0,0,0-3.84,2,10.37,10.37,0,0,0-1.49,1.7A12.2,12.2,0,0,0,283.06,26a16.44,16.44,0,0,0-.9,2.88L268.57,91.8c-.33,1.56-.62,3.13-.77,4.36a18.56,18.56,0,0,0-.13,2.88,8.8,8.8,0,0,0,.23,1.79,5.85,5.85,0,0,0,.45,1.25,4.31,4.31,0,0,0,.65,1,5,5,0,0,0,.88.75,6,6,0,0,0,1.24.59,9.6,9.6,0,0,0,1.8.42A18.92,18.92,0,0,0,275.39,104.93ZM237.82,37.57h.07l3.24,36.12-22.91,0ZM204.19,99.88l6.51-12.14,31.74-.07,1.13,12.12a11.62,11.62,0,0,0,.46,2.44,6,6,0,0,0,.89,1.73,4.76,4.76,0,0,0,1.23,1.14,5.5,5.5,0,0,0,1.7.7,8.85,8.85,0,0,0,2.35.24,11.62,11.62,0,0,0,2.76-.39,9.91,9.91,0,0,0,4.53-2.69A9,9,0,0,0,259,100.9a9.26,9.26,0,0,0,.9-2.4,15.48,15.48,0,0,0,.27-1.56,11.8,11.8,0,0,0,.06-1.44,11.18,11.18,0,0,0-.12-1.42L252,28.39a20.27,20.27,0,0,0-.56-3.48,8.08,8.08,0,0,0-.81-2,5.64,5.64,0,0,0-.85-1.13,4.38,4.38,0,0,0-1-.78,6.9,6.9,0,0,0-1.43-.61,12.21,12.21,0,0,0-2.2-.43,31.65,31.65,0,0,0-3.28-.15c-1.21,0-2.49.07-3.51.18a14.78,14.78,0,0,0-2.46.47,10.59,10.59,0,0,0-1.68.64,9.08,9.08,0,0,0-1.37.83,11.31,11.31,0,0,0-1.36,1.19,15.89,15.89,0,0,0-1.71,2.07,32.91,32.91,0,0,0-2.11,3.5L190.24,94.24a14.6,14.6,0,0,0-.75,1.4,14.91,14.91,0,0,0-1,3,8,8,0,0,0-.2,2.41,5.62,5.62,0,0,0,.56,2.08,4.92,4.92,0,0,0,1.29,1.62,5.8,5.8,0,0,0,2,1,9.77,9.77,0,0,0,2.56.36,10.39,10.39,0,0,0,2.49-.27,8.85,8.85,0,0,0,2.05-.73A8.64,8.64,0,0,0,201,104a10.56,10.56,0,0,0,1.67-1.72A16.94,16.94,0,0,0,204.19,99.88ZM175,89.88,139.88,90l4.75-22,29.75-.07A15.75,15.75,0,0,0,177,67.7a10.92,10.92,0,0,0,2.11-.56,8.63,8.63,0,0,0,1.61-.8,7.45,7.45,0,0,0,1.26-1,7.3,7.3,0,0,0,1-1.2,8.06,8.06,0,0,0,.8-1.49,10.44,10.44,0,0,0,.57-1.82,10.65,10.65,0,0,0,.24-1.87,6.48,6.48,0,0,0-.14-1.53,4.7,4.7,0,0,0-.48-1.22,3.92,3.92,0,0,0-.81-1,4.79,4.79,0,0,0-1.26-.8,8.21,8.21,0,0,0-1.89-.56,15.81,15.81,0,0,0-2.58-.2l-29.75.07,3.92-18.12,33.1-.07a16.12,16.12,0,0,0,2.67-.22,10.64,10.64,0,0,0,2.15-.57,9.18,9.18,0,0,0,1.63-.82,8.14,8.14,0,0,0,1.28-1,8,8,0,0,0,1-1.22,9.05,9.05,0,0,0,.81-1.52,11.18,11.18,0,0,0,.57-1.83,9.64,9.64,0,0,0,.23-1.86,6.18,6.18,0,0,0-.15-1.55,4.59,4.59,0,0,0-.49-1.25,4.23,4.23,0,0,0-.84-1,5.2,5.2,0,0,0-1.29-.82,8,8,0,0,0-1.91-.57,14.61,14.61,0,0,0-2.56-.2l-39.07.09a21.47,21.47,0,0,0-2.35.13,12.81,12.81,0,0,0-1.86.36,11.46,11.46,0,0,0-1.41.5,8.35,8.35,0,0,0-1.15.63,7.16,7.16,0,0,0-1,.75,8.22,8.22,0,0,0-.9,1,10.07,10.07,0,0,0-.88,1.23,16.47,16.47,0,0,0-.91,1.76,22.51,22.51,0,0,0-1,2.76c-.36,1.16-.72,2.63-1,4.1L123.79,92.13c-.34,1.55-.62,3.12-.77,4.36a17.34,17.34,0,0,0-.13,2.88,9,9,0,0,0,.23,1.79,5.85,5.85,0,0,0,.45,1.25,4.49,4.49,0,0,0,.65.94,4.3,4.3,0,0,0,.88.75,6,6,0,0,0,1.24.6,9.3,9.3,0,0,0,1.8.41,18.84,18.84,0,0,0,2.47.15l41.13-.1a15.84,15.84,0,0,0,2.64-.22,10.39,10.39,0,0,0,2.13-.59,8.62,8.62,0,0,0,2.93-1.89,7.86,7.86,0,0,0,1.05-1.3,9.72,9.72,0,0,0,.86-1.64,13.48,13.48,0,0,0,.62-2,11.53,11.53,0,0,0,.26-2,6.39,6.39,0,0,0-.14-1.64,4.48,4.48,0,0,0-.48-1.3,3.88,3.88,0,0,0-.83-1,4.67,4.67,0,0,0-1.27-.84,7.69,7.69,0,0,0-1.89-.58A14.81,14.81,0,0,0,175,89.88ZM72.69,68.14l18.93,0a28.39,28.39,0,0,1,3.7.2,14.87,14.87,0,0,1,2.65.57,9,9,0,0,1,1.77.79,6,6,0,0,1,1.22.94,5.28,5.28,0,0,1,.85,1.11,6,6,0,0,1,.57,1.31,8.31,8.31,0,0,1,.3,1.63,12.17,12.17,0,0,1,0,2.08,19.06,19.06,0,0,1-.39,2.55,22,22,0,0,1-.69,2.47,14.59,14.59,0,0,1-.88,2,12.73,12.73,0,0,1-1,1.59,10.85,10.85,0,0,1-2.51,2.43,11.85,11.85,0,0,1-1.66,1,13.66,13.66,0,0,1-2.13.79,17.9,17.9,0,0,1-2.84.58,31.65,31.65,0,0,1-3.64.22l-19,0Zm7-32.34,18.27,0a27.9,27.9,0,0,1,3.43.17,13.41,13.41,0,0,1,2.41.5,8.12,8.12,0,0,1,1.57.67,5.32,5.32,0,0,1,1.06.79,4.49,4.49,0,0,1,.73.91,5,5,0,0,1,.48,1.05,6.49,6.49,0,0,1,.25,1.27,8.31,8.31,0,0,1,0,1.58,12.91,12.91,0,0,1-.29,1.93,16.34,16.34,0,0,1-.56,2,12.16,12.16,0,0,1-.73,1.65,11,11,0,0,1-.86,1.34,8.8,8.8,0,0,1-1,1.11,9.25,9.25,0,0,1-1.18.95,11.17,11.17,0,0,1-1.46.83,14.05,14.05,0,0,1-1.89.69,17.14,17.14,0,0,1-2.53.5,27.13,27.13,0,0,1-3.23.19l-18.39,0ZM59.1,105.42l25.76-.06a46.52,46.52,0,0,0,9.41-1,34.52,34.52,0,0,0,7.69-2.57,29.41,29.41,0,0,0,6-3.77,28.41,28.41,0,0,0,4.68-4.81,30.25,30.25,0,0,0,3.62-6.09,37.35,37.35,0,0,0,2.4-7.32,29.81,29.81,0,0,0,.74-7,16,16,0,0,0-1.06-5.48,12.41,12.41,0,0,0-2.78-4.26,16.22,16.22,0,0,0-4.67-3.24,23.69,23.69,0,0,0,4.7-2.84,19.91,19.91,0,0,0,3.64-3.64A22.17,22.17,0,0,0,122,48.61a33.44,33.44,0,0,0,1.94-6,27.85,27.85,0,0,0,.71-5.57,17.68,17.68,0,0,0-.44-4.53,13,13,0,0,0-1.43-3.66,12.09,12.09,0,0,0-2.44-3,14.74,14.74,0,0,0-3.7-2.38,22.3,22.3,0,0,0-5.37-1.64,39.55,39.55,0,0,0-7.09-.57l-26.95.06a21.47,21.47,0,0,0-2.35.13,12.66,12.66,0,0,0-1.85.36,11.07,11.07,0,0,0-1.42.5,8.35,8.35,0,0,0-1.15.63,8.12,8.12,0,0,0-1,.76,7.37,7.37,0,0,0-.9.94,11.27,11.27,0,0,0-.88,1.23,16.72,16.72,0,0,0-.91,1.77,21.68,21.68,0,0,0-1,2.75c-.36,1.16-.72,2.63-1,4.1L52.28,92.29c-.33,1.56-.62,3.12-.77,4.36a18.51,18.51,0,0,0-.13,2.88,8.9,8.9,0,0,0,.23,1.79,5.85,5.85,0,0,0,.45,1.25,4.49,4.49,0,0,0,.65.94,4.3,4.3,0,0,0,.88.75,6,6,0,0,0,1.24.6,9.47,9.47,0,0,0,1.8.41A18.84,18.84,0,0,0,59.1,105.42Zm363.13,52.82-5.05,6.25-9.36.89,4.54,7.1-4.93,11,10.32-5.84,7.12,6.66.19-11.52,8.17-6.48L425,164.48Zm-4.07,8.41,3.33-4,1.41,4,5.17.86L422.58,172l-.2,6.25-4-3.65-6.34,3.67,3.54-5.93L412.24,167Zm-26.4-31-5.05,6.26-9.36.88,4.54,7.1-4.93,11,10.32-5.84,7.13,6.66.18-11.53,8.17-6.48-8.18-1.81Zm-4.07,8.41,3.33-4,1.41,4,5.17.85-5.48,4.54-.21,6.24-4-3.65-6.34,3.68,3.54-5.94-3.35-5.37Zm-28.76,16-5.05,6.26-9.37.88,4.54,7.1-4.93,11,10.33-5.84,7.12,6.66.19-11.53,8.17-6.48-8.19-1.81Zm-4.08,8.41,3.33-4,1.41,4,5.17.85-5.48,4.53-.2,6.25-4-3.65-6.35,3.67,3.54-5.93-3.35-5.38Zm29.65,30.83-5,6.25-9.37.89,4.54,7.1-4.93,11L380,218.71l7.12,6.67.19-11.53,8.17-6.48-8.19-1.81Zm-4.07,8.41,3.33-4,1.41,4,5.17.85-5.48,4.53-.2,6.25-4-3.65-6.34,3.67,3.54-5.93-3.35-5.38Zm-36-71.2L330.29,226a19.66,19.66,0,0,1-5,1.1,39,39,0,0,1-6.51-.44,16.42,16.42,0,0,0-5.58,1.31c-1.78.76-3.44,1.83-4,3s.13,2.44,1.44,3.37a12.92,12.92,0,0,0,5.88,1.81c2.57.31,5.74.34,12.27-.46S345.2,233.27,356,232a242,242,0,0,1,36.37-1.63,341,341,0,0,1,46.24,5l15.83-98.44-52.65-6.73-44.06,3.52-9.84,1.73Zm-33.19,81.8-3,10.06a33.18,33.18,0,0,0,3.47-1.75,10.84,10.84,0,0,1,4.11-1.79,33.63,33.63,0,0,1,6.69.08c2.41.15,4.76.23,5.87-.37s1-1.86.63-3a5,5,0,0,0-2.06-2.87,12.5,12.5,0,0,0-4.7-1.67,17.7,17.7,0,0,0-5.24,0A36,36,0,0,0,311.24,218.33ZM26.13,175.76c-.5,0-1,0-1.49,0s-1-.11-1.47-.17a16.46,16.46,0,0,1-2.27-.5,15.37,15.37,0,0,1-2.16-.85,13.82,13.82,0,0,1-2-1.18,14.08,14.08,0,0,1-1.8-1.47,15,15,0,0,1-1.54-1.74,14.43,14.43,0,0,1-1.25-2,16.45,16.45,0,0,1-1.06-2.7,16.21,16.21,0,0,1-.59-2.85,16.52,16.52,0,0,1-.1-2.9,18.63,18.63,0,0,1,.39-2.88L36.55,30.56c.11-.52.24-1,.38-1.53s.31-1,.48-1.5a26.07,26.07,0,0,1,1.77-3.74,25.59,25.59,0,0,1,2.35-3.39,25.18,25.18,0,0,1,2.86-3,25.51,25.51,0,0,1,3.32-2.5A24.79,24.79,0,0,1,51.47,13a24.36,24.36,0,0,1,4.08-1.26,24.05,24.05,0,0,1,4.23-.49l369.8-.83c.5,0,1,0,1.48,0s1,.11,1.47.18a13.52,13.52,0,0,1,2.27.5A13.91,13.91,0,0,1,437,12a14.79,14.79,0,0,1,2,1.18,14.41,14.41,0,0,1,3.34,3.21,14.43,14.43,0,0,1,1.25,2A17.5,17.5,0,0,1,444.62,21a16.1,16.1,0,0,1,.59,2.84,16.52,16.52,0,0,1,.1,2.9,19.94,19.94,0,0,1-.39,2.88l-19.77,96.64,10.75,1.16,19.19-95.63A27.1,27.1,0,0,0,453,14.1a26.81,26.81,0,0,0-2.32-3.89,24.61,24.61,0,0,0-2.41-2.79,26.65,26.65,0,0,0-2.8-2.4A25.45,25.45,0,0,0,439,1.55a24.66,24.66,0,0,0-3.55-1,25,25,0,0,0-3.65-.48L430.69,0c-.38,0-.76,0-31.87,0S305.87.26,244,.41,120.34.7,58.5.86a34.78,34.78,0,0,0-5.75.82A34.46,34.46,0,0,0,42.09,6.16a36,36,0,0,0-4.6,3.48A35.21,35.21,0,0,0,28,23.17a31.78,31.78,0,0,0-1.62,5.3L.6,154.43c-.23,1.39-.47,2.79-.56,4.19s0,2.82,0,4.24A25.27,25.27,0,0,0,2,170.5,26.44,26.44,0,0,0,3.75,174a26.11,26.11,0,0,0,2.31,3.21A24.5,24.5,0,0,0,8.83,180c.6.5,1.23,1,1.87,1.41s1.32.86,2,1.25,1.38.73,2.09,1.06,1.44.61,2.18.87,1.49.49,2.25.69,1.52.35,2.3.48,1.55.22,2.33.28,1.56.09,17.75.06L121,186l94.79-.22,2-10.41Zm235-24.92-9.82.5L226.2,171.21l9.66.13ZM287.79,146,280,147.47l28.87,14.36.63-4.6Zm8.34-24.59-15.35,11.13L293,130l13.93-9.55,11.86-8.11-6.18,0Zm-26.32-5L267.16,137l-37.23,4.36-1.09,9.2,36.76-3.73-3,24.87,8.73-.16,4.06-26.16,38-5,1.24-10.62-38,5.79,2-19.82Zm-38,3.73-.14,4,21.58,12,6.34-.17Zm-3.88,34.4-2.19,13.95,22.15-16.69Zm3.27-27.74-1.09,11.57,9.67-.5,10.93-.81Zm32,7.06,2.33-16.65-13,1.45-14.42,1.78ZM282.49,115l-1.55,14.59,15.82-10.18,14.09-7.48-15.69,1.93Zm-56.92,58.62-7.33,54.22a240.06,240.06,0,0,0,38.26.37,177.64,177.64,0,0,0,29.32-4.81c7.89-2,13.84-4,19.55-5.49s11.18-2.47,15.06-2.43a14,14,0,0,1,7.51,1.93c1.33.83,1.67,1.43,1.69,2.1l13.27-93.07a8.83,8.83,0,0,0-1.2-6.89,15.2,15.2,0,0,0-7-5.81,27.63,27.63,0,0,0-9.13-1.65,19.31,19.31,0,0,0-5.22.29L309.6,120l-12.66,8.91,19.65-1.79-2.5,15.38-22,3.06,19.83,9-1.56,10.94-32.69-16.41-3,22.83-16.48.51L261,153.69l-23.41,19.08Z" transform="translate(0 0)"/></g></svg>