<?xml version="1.0" encoding="utf-8"?>
<!-- Generator: Adobe Illustrator 24.2.1, SVG Export Plug-In . SVG Version: 6.00 Build 0)  -->
<svg version="1.2" baseProfile="tiny" id="Layer_1" xmlns="http://www.w3.org/2000/svg" xmlns:xlink="http://www.w3.org/1999/xlink"
	 x="0px" y="0px" viewBox="0 0 719.47 373.57" overflow="visible" xml:space="preserve">
<polygon fill="#FFFFFF" points="75.41,14.53 56.15,30.83 11.7,241.23 8.74,260.49 30.96,284.2 353.97,293.09 352.49,344.95 
	450.28,331.61 491.63,340 487.85,352.35 486.14,358.87 485.11,363.33 487.85,367.45 499.18,371.23 644,363.33 685.53,364.71 
	698.57,224 684.67,214.77 687.83,200.95 711.54,43.91 703.32,17.44 673.2,6.48 673.18,6.48 "/>
<path fill="#112287" d="M505.5,177.9l-17.01,11.95l-20.01,13.94l30.98-2.67l-4.05,24.22L460.67,230l31.19,14.31l-2.54,17.23
	l-51.39-26.1l-4.83,35.96l-25.98,0.69l4.56-29.47l-37.04,29.89l-18.99,1.2l-11.94,85.4v0.01c10.49,0.96,21.02,1.51,31.22,1.65h10.1
	c6.56-0.09,12.92-0.35,18.97-0.79c18.3-1.34,33.8-4.31,46.25-7.37c12.45-3.05,21.83-6.2,30.84-8.51c9.01-2.32,17.64-3.8,23.76-3.71
	c6.12,0.09,9.74,1.77,11.82,3.09c2.08,1.32,2.62,2.27,2.65,3.32l21.58-146.58c0.89-3.45,0.39-7.21-1.84-10.87s-6.18-7.19-10.98-9.2
	c-4.8-2.01-10.45-2.5-14.37-2.67c-0.26-0.01-0.5-0.02-0.74-0.03h-4.04C507.65,177.52,506.57,177.67,505.5,177.9z"/>
<polygon fill="#112287" points="465.79,180.05 445.8,181.75 443.25,204.73 443.25,204.73 468.26,188.8 490.52,177.11 "/>
<polygon fill="#112287" points="419.07,185.19 419.07,185.19 419.07,185.19 398.58,187.39 375.85,190.08 415.26,211.41 
	415.26,211.41 "/>
<polygon fill="#112287" points="395.52,216.36 395.52,216.36 364.83,200.05 363.04,218.28 378.28,217.57 "/>
<polygon fill="#112287" points="355.94,265.72 390.97,239.58 390.96,239.58 359.49,243.75 355.94,265.72 "/>
<polygon fill="#CA282E" points="365.59,195.8 399.52,214.87 409.51,214.64 365.86,189.56 "/>
<polygon fill="#CA282E" points="439.8,182.99 439.8,182.99 425.81,183.96 421.49,216.42 362.78,223.03 361,237.51 418.96,231.9 
	414.09,271.08 414.13,271.08 427.86,270.89 434.45,229.69 494.41,222.09 496.45,205.36 436.48,214.21 "/>
<polygon fill="#CA282E" points="442.99,209.47 442.99,209.47 462.23,205.52 484.24,190.59 503,177.89 503,177.89 493.26,177.87 
	467.26,192.05 "/>
<polygon fill="#CA282E" points="441.68,232.95 487.09,255.79 488.1,248.55 453.93,230.73 "/>
<polygon fill="#CA282E" points="356.68,269.97 356.68,269.97 371.87,270.26 371.91,270.26 411.95,238.13 411.95,238.13 
	396.46,238.84 "/>
<path fill="#112287" d="M719.47,41.33c-0.03-1.2-0.12-2.41-0.25-3.6c-0.27-2.37-0.73-4.72-1.39-7.01c-0.66-2.29-1.51-4.53-2.54-6.68
	c-1.03-2.15-2.25-4.21-3.62-6.16c-1.15-1.56-2.42-3.03-3.79-4.4c-1.37-1.37-2.83-2.65-4.38-3.81s-3.19-2.21-4.89-3.13
	s-3.47-1.72-5.29-2.39c-1.82-0.67-3.69-1.2-5.58-1.6c-1.9-0.4-3.82-0.66-5.75-0.78c-0.59-0.05-1.19-0.08-1.78-0.11
	C679.6,1.63,679,1.62,629.97,1.5S483.48,1.15,386.02,0.93C288.55,0.7,191.09,0.49,93.63,0.28c-3.05,0.17-6.08,0.59-9.06,1.27
	c-2.98,0.68-5.9,1.6-8.72,2.77c-2.82,1.17-5.54,2.57-8.12,4.2c-2.58,1.63-5.02,3.48-7.26,5.45s-4.29,4.06-6.16,6.3
	c-1.87,2.24-3.56,4.62-5.05,7.13c-1.49,2.5-2.79,5.13-3.87,7.83c-1.08,2.71-2,5.49-2.59,8.34L1.27,241.89
	c-0.38,2.2-0.76,4.4-0.91,6.61c-0.15,2.21-0.06,4.44,0.02,6.67c0.17,2.07,0.51,4.12,0.99,6.14s1.13,4,1.92,5.92
	c0.79,1.92,1.73,3.78,2.8,5.56c1.07,1.78,2.28,3.47,3.61,5.07c1.33,1.59,2.78,3.09,4.34,4.46c0.95,0.79,1.93,1.53,2.95,2.24
	c1.02,0.7,2.06,1.36,3.13,1.97c1.07,0.61,2.17,1.17,3.29,1.69c1.12,0.52,2.27,0.98,3.43,1.4c1.16,0.42,2.34,0.78,3.54,1.09
	c1.19,0.31,2.4,0.57,3.62,0.78c1.22,0.21,2.44,0.36,3.67,0.46c1.23,0.1,2.46,0.14,27.98,0.22c25.51,0.07,75.31,0.18,125.1,0.29
	c49.78,0.11,99.55,0.23,149.33,0.34h0.05l3.32-16.38L41.34,275.7c-0.78,0-1.56-0.03-2.33-0.1s-1.55-0.17-2.32-0.28
	c-1.21-0.17-2.41-0.44-3.57-0.8c-1.17-0.36-2.31-0.81-3.4-1.35c-1.1-0.54-2.15-1.16-3.15-1.87c-1-0.7-1.94-1.49-2.82-2.34
	c-0.88-0.85-1.69-1.77-2.42-2.75c-0.73-0.98-1.39-2.02-1.96-3.1c-0.67-1.37-1.23-2.8-1.65-4.27c-0.43-1.47-0.73-2.97-0.91-4.49
	c-0.17-1.52-0.22-3.05-0.14-4.57c0.08-1.53,0.33-3.04,0.64-4.53L58.83,46.93c0.17-0.81,0.37-1.62,0.6-2.41
	c0.23-0.8,0.5-1.58,0.78-2.36c0.78-2.03,1.72-3.99,2.82-5.87s2.34-3.66,3.72-5.34c1.38-1.68,2.9-3.24,4.53-4.67s3.38-2.74,5.25-3.91
	c1.87-1.17,3.87-2.21,5.95-3.05c2.08-0.84,4.23-1.5,6.43-1.95c2.2-0.45,4.44-0.7,6.68-0.74L678.38,18c0.78,0,1.56,0.03,2.33,0.1
	s1.55,0.17,2.32,0.28c1.21,0.17,2.41,0.44,3.57,0.8c1.17,0.36,2.31,0.81,3.4,1.35c1.1,0.54,2.15,1.16,3.15,1.87
	c1,0.7,1.94,1.49,2.82,2.34c0.88,0.85,1.69,1.77,2.42,2.75s1.39,2.02,1.96,3.1c0.67,1.37,1.22,2.8,1.65,4.27
	c0.43,1.47,0.73,2.97,0.91,4.49c0.17,1.52,0.22,3.05,0.14,4.57c-0.08,1.53-0.33,3.04-0.64,4.53l-31.86,152.16l16.94,1.91
	l30.93-150.58c0.53-2.33,0.87-4.7,1-7.08c0.03-0.48,0.04-0.97,0.05-1.45V41.33z"/>
<path fill="#112287" d="M518.72,351.86c-0.05-0.58-0.18-1.18-0.35-1.75c-0.53-1.76-1.38-3.29-3.22-4.54s-4.68-2.22-7.4-2.67
	c-1.36-0.22-2.69-0.32-4.05-0.31h-0.02c-1.36,0.01-2.73,0.12-4.18,0.3c-2.9,0.37-6.06,1.03-9.15,1.96l-4.76,15.83v0h0
	c1.84-0.8,3.66-1.66,5.48-2.73c1.82-1.07,3.63-2.34,6.49-2.8c2.85-0.45,6.75-0.08,10.54,0.18s7.5,0.39,9.25-0.54
	c0.87-0.46,1.26-1.2,1.36-2.03V351.86z"/>
<polygon fill="#CA282E" points="590.15,329.13 595.39,337.63 589.77,346.96 599.79,341.21 606.06,346.99 606.42,337.15 
	615.09,330.04 615.09,330.04 606.95,328.66 604.76,322.38 599.48,328.65 "/>
<polygon fill="#CA282E" points="564.73,260.35 564.73,260.35 559.46,266.62 550.12,267.11 555.36,275.61 549.74,284.93 
	559.77,279.18 566.03,284.97 566.4,275.13 575.07,268.02 566.93,266.64 "/>
<polygon fill="#CA282E" points="616.66,222.13 611.38,228.39 602.05,228.88 607.29,237.38 601.67,246.7 601.67,246.7 611.69,240.96 
	617.96,246.74 617.96,246.74 618.32,236.9 626.99,229.79 618.85,228.41 "/>
<polygon fill="#CA282E" points="665.81,282.53 666.17,272.68 674.85,265.57 674.85,265.57 666.7,264.2 664.51,257.91 659.24,264.18 
	649.9,264.67 655.14,273.17 649.52,282.49 659.55,276.74 "/>
<path fill="#112287" d="M507.95,146.46c-0.39-0.63-0.89-1.21-1.52-1.74c-0.63-0.53-1.39-1.01-2.33-1.42s-2.05-0.75-3.38-0.99
	c-1.33-0.24-2.88-0.36-4.43-0.36l-46.54-0.11l21.14-95.71c0.36-1.64,0.6-3.32,0.65-4.75c0.05-1.43-0.08-2.61-0.33-3.61
	c-0.25-1.01-0.62-1.85-1.1-2.57s-1.08-1.34-1.84-1.85c-0.76-0.52-1.67-0.94-2.81-1.23c-1.14-0.29-2.5-0.44-3.84-0.45
	s-2.66,0.15-3.86,0.44c-1.21,0.29-2.3,0.72-3.3,1.25s-1.92,1.17-2.76,1.93c-0.85,0.76-1.63,1.64-2.36,2.67
	c-0.73,1.03-1.4,2.21-1.98,3.58c-0.58,1.37-1.08,2.94-1.43,4.53l-21.88,99.06c-0.54,2.45-1.01,4.92-1.24,6.87
	c-0.14,1.14-0.2,2.08-0.23,2.91v1.64c0.04,1.15,0.17,2.05,0.35,2.81c0.18,0.77,0.42,1.41,0.7,1.97s0.62,1.05,1.01,1.49
	c0.39,0.44,0.85,0.83,1.39,1.19c0.54,0.35,1.18,0.67,1.95,0.94c0.77,0.27,1.69,0.51,2.83,0.67c1.14,0.16,2.52,0.24,3.89,0.25
	l56.29,0.13c1.54,0,3.07-0.08,4.39-0.23c1.31-0.16,2.4-0.39,3.35-0.65c0.94-0.26,1.74-0.56,2.45-0.89c0.7-0.33,1.32-0.68,1.87-1.06
	c0.56-0.38,1.06-0.79,1.52-1.23s0.89-0.92,1.29-1.45c0.4-0.53,0.78-1.11,1.13-1.78s0.69-1.41,1-2.26s0.59-1.82,0.79-2.79
	c0.2-0.96,0.32-1.91,0.33-2.78c0.01-0.87-0.09-1.67-0.28-2.4C508.63,147.76,508.34,147.09,507.95,146.46z"/>
<path fill="#112287" d="M560.85,33.95c-1.12,0.13-2.08,0.32-2.92,0.55c-0.84,0.23-1.57,0.49-2.23,0.78
	c-0.66,0.29-1.26,0.62-1.81,0.97c-0.56,0.36-1.07,0.75-1.56,1.19c-0.49,0.44-0.97,0.92-1.43,1.48c-0.47,0.56-0.92,1.18-1.39,1.94
	s-0.94,1.64-1.45,2.77s-1.05,2.5-1.61,4.33c-0.57,1.83-1.15,4.14-1.66,6.46l-20.09,90.95c-0.54,2.45-1,4.92-1.24,6.87
	c-0.14,1.13-0.2,2.07-0.23,2.9v1.66c0.05,1.15,0.17,2.04,0.35,2.8c0.18,0.77,0.42,1.41,0.7,1.97s0.62,1.05,1.01,1.49
	s0.85,0.83,1.39,1.19c0.54,0.35,1.18,0.67,1.95,0.94s1.69,0.51,2.83,0.67s2.52,0.24,3.89,0.25l63.99,0.15h0.94
	c1.41,0,2.81-0.12,4.05-0.33c1.27-0.22,2.38-0.53,3.36-0.91c0.98-0.38,1.83-0.82,2.59-1.32c0.76-0.5,1.44-1.04,2.05-1.65
	c0.61-0.61,1.17-1.28,1.67-2.04c0.51-0.76,0.96-1.61,1.36-2.58s0.74-2.06,0.98-3.16c0.24-1.1,0.39-2.2,0.43-3.18
	c0.04-0.98-0.04-1.83-0.2-2.59s-0.41-1.43-0.75-2.04c-0.34-0.61-0.76-1.16-1.3-1.65c-0.54-0.5-1.18-0.94-2-1.33
	c-0.81-0.38-1.79-0.71-2.99-0.93c-1.2-0.22-2.63-0.34-4.06-0.34l-55.41-0.13l7.64-34.61l46.88,0.11c1.44,0,2.87-0.11,4.14-0.31
	s2.37-0.51,3.34-0.87c0.97-0.36,1.81-0.78,2.55-1.25c0.75-0.47,1.4-0.98,1.99-1.55s1.12-1.19,1.6-1.88c0.48-0.7,0.91-1.47,1.28-2.35
	c0.37-0.88,0.68-1.86,0.91-2.87c0.22-1.01,0.36-2.03,0.39-2.94c0.03-0.91-0.05-1.7-0.21-2.41c-0.16-0.71-0.41-1.34-0.73-1.91
	c-0.33-0.57-0.75-1.09-1.27-1.56s-1.17-0.9-1.98-1.27c-0.81-0.37-1.78-0.68-2.98-0.89c-1.2-0.22-2.63-0.33-4.06-0.33l-46.88-0.11
	l6.3-28.52l52.17,0.12c1.46,0,2.92-0.11,4.21-0.32c1.29-0.21,2.4-0.52,3.39-0.89s1.83-0.8,2.59-1.28c0.76-0.48,1.42-1,2.02-1.58
	c0.6-0.58,1.13-1.21,1.61-1.92c0.48-0.71,0.92-1.49,1.29-2.38c0.37-0.89,0.69-1.88,0.91-2.88c0.22-1.01,0.36-2.03,0.38-2.94
	c0.03-0.91-0.06-1.72-0.22-2.44s-0.42-1.37-0.76-1.96c-0.34-0.59-0.77-1.13-1.32-1.62c-0.55-0.49-1.21-0.93-2.03-1.3
	c-0.82-0.38-1.8-0.69-3-0.91c-1.2-0.22-2.61-0.33-4.03-0.34l-61.48-0.15h-0.13C563.25,33.76,561.97,33.82,560.85,33.95z"/>
<g>
	<path fill="none" d="M143.51,141.16c1.73-0.21,3.2-0.52,4.48-0.89c1.28-0.36,2.38-0.78,3.36-1.24c0.98-0.46,1.83-0.95,2.62-1.49
		s1.49-1.11,2.15-1.74c0.66-0.63,1.26-1.31,1.83-2.06c0.57-0.75,1.1-1.58,1.6-2.51c0.5-0.93,0.97-1.97,1.39-3.15
		c0.42-1.18,0.81-2.52,1.11-3.89c0.3-1.37,0.53-2.78,0.64-4.02c0.11-1.24,0.12-2.32,0.04-3.28c-0.08-0.96-0.24-1.8-0.46-2.56
		c-0.23-0.76-0.52-1.45-0.88-2.08c-0.37-0.63-0.8-1.21-1.33-1.75s-1.15-1.03-1.91-1.49c-0.76-0.46-1.67-0.88-2.79-1.25
		s-2.47-0.7-4.18-0.92s-3.77-0.34-5.83-0.34l-29.83-0.07l-7.73,34.98l30,0.07C139.78,141.48,141.78,141.37,143.51,141.16z"/>
	<path fill="none" d="M154.52,83.82c1.54-0.19,2.85-0.46,3.99-0.77c1.14-0.32,2.12-0.68,2.98-1.08s1.62-0.82,2.31-1.29
		c0.69-0.46,1.31-0.96,1.88-1.5c0.57-0.54,1.09-1.11,1.58-1.75c0.49-0.63,0.94-1.32,1.36-2.1c0.42-0.77,0.81-1.63,1.16-2.6
		s0.66-2.05,0.9-3.11c0.24-1.06,0.4-2.11,0.48-3.04c0.08-0.93,0.07-1.76,0-2.5s-0.2-1.4-0.39-2c-0.19-0.6-0.44-1.15-0.74-1.67
		c-0.31-0.51-0.68-0.99-1.14-1.43s-1-0.86-1.67-1.25c-0.67-0.39-1.46-0.75-2.47-1.07s-2.23-0.6-3.79-0.8c-1.57-0.2-3.48-0.3-5.4-0.3
		l-28.8-0.07l-6.3,28.52l28.97,0.07C151.2,84.1,152.98,84,154.52,83.82z"/>
	<polygon fill="none" points="375.96,59.45 344.82,116.31 380.93,116.39 376.08,59.45 	"/>
	<path fill="#112287" d="M302.48,53.4c0.76-0.48,1.42-1,2.02-1.58c0.6-0.58,1.13-1.21,1.61-1.92c0.48-0.71,0.92-1.49,1.29-2.38
		c0.37-0.89,0.69-1.88,0.91-2.88c0.22-1.01,0.36-2.03,0.38-2.94c0.03-0.91-0.06-1.72-0.22-2.44s-0.42-1.37-0.76-1.96
		c-0.34-0.59-0.77-1.13-1.32-1.62c-0.55-0.49-1.21-0.93-2.03-1.3s-1.8-0.69-3-0.91c-1.2-0.22-2.61-0.33-4.03-0.34l-61.58-0.15
		c-1.29,0-2.58,0.06-3.71,0.19c-1.12,0.13-2.08,0.32-2.92,0.55c-0.84,0.23-1.57,0.49-2.23,0.78c-0.66,0.29-1.26,0.62-1.81,0.97
		c-0.56,0.36-1.07,0.75-1.56,1.19s-0.97,0.92-1.43,1.48c-0.46,0.56-0.92,1.18-1.39,1.94s-0.94,1.64-1.45,2.77s-1.05,2.5-1.61,4.33
		c-0.57,1.84-1.15,4.14-1.66,6.46l-20.09,90.95c-0.54,2.45-1,4.92-1.24,6.87c-0.24,1.95-0.28,3.37-0.23,4.53s0.17,2.06,0.35,2.83
		c0.18,0.77,0.42,1.41,0.7,1.97s0.62,1.05,1.01,1.49c0.39,0.44,0.85,0.83,1.39,1.19c0.54,0.35,1.18,0.67,1.95,0.94
		c0.77,0.27,1.69,0.51,2.83,0.67c1.14,0.16,2.52,0.24,3.89,0.25l64.82,0.15c1.44,0,2.88-0.11,4.16-0.33s2.38-0.53,3.36-0.91
		c0.98-0.38,1.83-0.82,2.59-1.32c0.76-0.5,1.44-1.04,2.05-1.65s1.17-1.28,1.67-2.04c0.51-0.76,0.96-1.61,1.36-2.58
		c0.4-0.97,0.74-2.06,0.98-3.16s0.39-2.2,0.43-3.18c0.04-0.98-0.04-1.83-0.2-2.59s-0.41-1.43-0.75-2.04
		c-0.34-0.61-0.76-1.16-1.3-1.65c-0.54-0.5-1.18-0.94-2-1.33c-0.81-0.38-1.79-0.71-2.99-0.93c-1.2-0.22-2.63-0.34-4.06-0.34
		l-55.41-0.13l7.64-34.61l46.88,0.11c1.44,0,2.88-0.11,4.14-0.31c1.27-0.21,2.37-0.51,3.34-0.87c0.97-0.36,1.81-0.78,2.55-1.25
		c0.75-0.47,1.4-0.98,1.99-1.55c0.59-0.57,1.12-1.19,1.6-1.88c0.48-0.7,0.91-1.47,1.28-2.35s0.68-1.86,0.91-2.87
		s0.36-2.03,0.39-2.94s-0.05-1.7-0.21-2.42c-0.16-0.71-0.41-1.34-0.73-1.91c-0.33-0.57-0.75-1.09-1.27-1.56
		c-0.53-0.47-1.17-0.9-1.98-1.27c-0.81-0.37-1.78-0.68-2.98-0.89c-1.2-0.22-2.63-0.33-4.06-0.33l-46.88-0.11l6.3-28.52l52.17,0.12
		c1.46,0,2.92-0.11,4.21-0.32c1.29-0.21,2.4-0.52,3.39-0.89C300.88,54.31,301.73,53.88,302.48,53.4z"/>
	<path fill="#112287" d="M82.75,160.53c0.28,0.56,0.62,1.05,1.01,1.49c0.39,0.44,0.85,0.83,1.39,1.19c0.54,0.35,1.18,0.67,1.95,0.94
		c0.77,0.27,1.69,0.51,2.83,0.67c1.14,0.16,2.52,0.24,3.89,0.25l40.59,0.1c5.13,0.01,10.26-0.49,14.83-1.44
		c4.57-0.95,8.58-2.33,12.15-4.01c3.56-1.68,6.68-3.65,9.45-5.89c2.78-2.24,5.22-4.73,7.41-7.56s4.12-5.98,5.75-9.56
		c1.63-3.58,2.96-7.59,3.83-11.51c0.88-3.92,1.29-7.74,1.22-11.06c-0.08-3.32-0.65-6.13-1.63-8.64c-0.98-2.51-2.37-4.73-4.35-6.74
		c-1.98-2.01-4.55-3.82-7.34-5.14c2.69-1.21,5.23-2.74,7.44-4.43s4.07-3.56,5.75-5.71s3.19-4.58,4.48-7.47
		c1.29-2.89,2.37-6.25,3.1-9.4c0.73-3.16,1.1-6.12,1.17-8.78c0.07-2.66-0.17-5.01-0.66-7.15c-0.49-2.13-1.23-4.04-2.23-5.77
		s-2.25-3.31-3.83-4.74c-1.58-1.42-3.48-2.7-5.82-3.78c-2.34-1.09-5.11-1.99-8.46-2.62c-3.34-0.63-7.26-0.94-11.16-0.95l-42.47-0.1
		c-1.29,0-2.58,0.06-3.71,0.2c-1.12,0.13-2.08,0.32-2.92,0.55c-0.84,0.23-1.57,0.49-2.23,0.78c-0.66,0.29-1.26,0.62-1.81,0.97
		c-0.56,0.36-1.07,0.75-1.56,1.19s-0.97,0.92-1.43,1.48s-0.92,1.18-1.39,1.94c-0.47,0.76-0.95,1.64-1.45,2.77
		c-0.51,1.13-1.05,2.5-1.61,4.33c-0.57,1.84-1.15,4.14-1.66,6.46l-20.09,90.95c-0.54,2.45-1,4.92-1.24,6.87
		c-0.14,1.16-0.21,2.12-0.23,2.96v1.57c0.04,1.16,0.17,2.06,0.35,2.83C82.23,159.33,82.46,159.97,82.75,160.53z M126.75,55.5
		l28.8,0.07c1.91,0,3.83,0.1,5.4,0.3c1.57,0.2,2.79,0.48,3.79,0.8s1.8,0.68,2.47,1.07c0.67,0.39,1.21,0.81,1.67,1.25
		s0.83,0.92,1.14,1.43c0.31,0.51,0.55,1.06,0.74,1.67c0.19,0.6,0.32,1.26,0.39,2s0.07,1.56,0,2.5c-0.08,0.93-0.24,1.98-0.48,3.04
		c-0.24,1.06-0.55,2.14-0.9,3.11s-0.74,1.82-1.16,2.6c-0.42,0.77-0.87,1.46-1.36,2.1c-0.49,0.63-1.01,1.21-1.58,1.75
		c-0.57,0.54-1.19,1.03-1.88,1.5c-0.69,0.46-1.44,0.89-2.31,1.29s-1.84,0.76-2.98,1.08c-1.14,0.32-2.44,0.59-3.99,0.77
		c-1.54,0.19-3.32,0.28-5.1,0.28l-28.97-0.07L126.75,55.5z M115.51,106.43l29.83,0.07c2.06,0,4.13,0.12,5.83,0.34
		s3.05,0.55,4.18,0.92s2.03,0.79,2.79,1.25c0.76,0.46,1.38,0.95,1.91,1.49s0.97,1.12,1.33,1.75c0.37,0.63,0.66,1.32,0.88,2.08
		c0.23,0.76,0.38,1.61,0.46,2.56c0.08,0.96,0.08,2.03-0.04,3.28c-0.11,1.24-0.34,2.65-0.64,4.02c-0.3,1.37-0.69,2.7-1.11,3.89
		c-0.42,1.18-0.89,2.22-1.39,3.15c-0.5,0.93-1.03,1.76-1.6,2.51c-0.57,0.75-1.17,1.43-1.83,2.06c-0.66,0.63-1.36,1.21-2.15,1.74
		s-1.64,1.03-2.62,1.49c-0.98,0.46-2.07,0.87-3.36,1.24c-1.28,0.36-2.75,0.67-4.48,0.89c-1.73,0.21-3.74,0.32-5.74,0.32l-30-0.07
		L115.51,106.43z"/>
	<path fill="#112287" d="M398.33,45.09c-0.15-2.01-0.48-4.02-0.86-5.5c-0.39-1.47-0.83-2.41-1.27-3.16
		c-0.43-0.75-0.85-1.31-1.33-1.79c-0.47-0.48-0.99-0.88-1.61-1.24s-1.33-0.68-2.24-0.96c-0.91-0.28-2.01-0.53-3.46-0.69
		c-1.45-0.17-3.26-0.26-5.17-0.26c-1.91,0-3.92,0.08-5.54,0.26c-1.62,0.17-2.84,0.43-3.88,0.73c-1.04,0.29-1.88,0.62-2.65,1
		c-0.77,0.37-1.47,0.79-2.16,1.29s-1.37,1.08-2.16,1.87s-1.66,1.77-2.71,3.25c-1.05,1.48-2.26,3.46-3.36,5.5l-59.36,103.04
		c-0.44,0.72-0.84,1.47-1.2,2.21c-0.36,0.74-0.66,1.48-0.94,2.27c-0.27,0.79-0.52,1.62-0.71,2.47c-0.31,1.27-0.42,2.58-0.33,3.79
		s0.38,2.31,0.86,3.29c0.48,0.98,1.16,1.84,2.02,2.55c0.87,0.71,1.92,1.28,3.16,1.66c1.24,0.38,2.66,0.57,4.04,0.58
		s2.72-0.13,3.92-0.4c1.2-0.27,2.26-0.66,3.24-1.14c0.98-0.49,1.89-1.08,2.78-1.81c0.89-0.73,1.76-1.6,2.63-2.7
		c0.87-1.09,1.73-2.41,2.47-3.79l10.34-19.08l50.03,0.12l1.69,19.11c0.12,1.36,0.35,2.72,0.72,3.85s0.83,2,1.38,2.74
		c0.55,0.73,1.18,1.32,1.93,1.8c0.75,0.48,1.62,0.86,2.68,1.13s2.31,0.41,3.7,0.39c1.39-0.02,2.92-0.21,4.35-0.59
		c1.43-0.38,2.76-0.95,3.95-1.67c1.2-0.71,2.27-1.57,3.21-2.54c0.93-0.97,1.73-2.05,2.37-3.23s1.13-2.47,1.43-3.79
		c0.19-0.83,0.34-1.66,0.43-2.45c0.09-0.79,0.12-1.53,0.11-2.28c-0.01-0.74-0.07-1.49-0.18-2.23L398.33,45.09z M344.82,116.31
		l31.15-56.86l0.11,0l4.85,56.94L344.82,116.31z"/>
</g>
<g>
	<path fill="none" d="M264.45,191.32c-0.16-0.2-0.36-0.37-0.62-0.51c-0.26-0.15-0.58-0.26-0.98-0.35c-0.4-0.08-0.88-0.12-1.36-0.12
		l-7.64-0.02l-2.6,7.4l7.35,0.02c0.47,0,0.95-0.03,1.36-0.08c0.42-0.05,0.77-0.13,1.09-0.21c0.31-0.09,0.59-0.19,0.84-0.3
		c0.25-0.11,0.47-0.24,0.68-0.38c0.21-0.14,0.4-0.29,0.58-0.46s0.35-0.36,0.52-0.57s0.33-0.46,0.48-0.74
		c0.15-0.28,0.3-0.61,0.42-0.97c0.12-0.36,0.22-0.76,0.26-1.11s0.02-0.65-0.05-0.91C264.72,191.75,264.61,191.52,264.45,191.32z"/>
	<path fill="none" d="M262.31,246.55c0.56-0.08,1-0.19,1.36-0.31s0.66-0.25,0.93-0.38c0.27-0.13,0.51-0.28,0.73-0.44
		s0.44-0.33,0.66-0.54c0.22-0.21,0.44-0.44,0.67-0.75c0.23-0.3,0.48-0.67,0.74-1.17c0.26-0.5,0.53-1.14,0.75-1.79l1.95-5.77
		c0.21-0.62,0.38-1.26,0.46-1.77c0.08-0.51,0.08-0.88,0.06-1.18c-0.03-0.3-0.08-0.54-0.16-0.74c-0.08-0.21-0.17-0.38-0.29-0.54
		c-0.12-0.16-0.26-0.3-0.43-0.44c-0.18-0.13-0.39-0.26-0.68-0.38c-0.29-0.12-0.65-0.24-1.16-0.32c-0.52-0.08-1.19-0.13-1.87-0.13
		l-1.51,0l-5.67,16.78l1.51,0C261.05,246.68,261.75,246.63,262.31,246.55z"/>
	<path fill="none" d="M133.87,247.25c0.08,0.09,0.17,0.16,0.26,0.22c0.1,0.06,0.2,0.12,0.32,0.16c0.12,0.04,0.25,0.08,0.4,0.1
		c0.15,0.02,0.33,0.04,0.49,0.04c0.17,0,0.33-0.01,0.49-0.03c0.15-0.02,0.29-0.05,0.42-0.08c0.13-0.04,0.26-0.08,0.38-0.13
		s0.24-0.11,0.36-0.17c0.12-0.07,0.24-0.14,0.37-0.23c0.13-0.09,0.26-0.2,0.4-0.33c0.14-0.13,0.3-0.28,0.48-0.49
		s0.38-0.47,0.65-0.87s0.59-0.93,0.98-1.78c0.39-0.86,0.84-2.04,1.24-3.23l1.63-4.84c0.37-1.11,0.71-2.23,0.9-3.12
		c0.19-0.89,0.25-1.54,0.26-2c0.01-0.46-0.03-0.73-0.09-0.94c-0.05-0.21-0.12-0.36-0.19-0.49c-0.07-0.13-0.14-0.23-0.22-0.31
		c-0.08-0.09-0.17-0.16-0.26-0.22s-0.2-0.11-0.31-0.16c-0.12-0.04-0.25-0.08-0.4-0.1c-0.15-0.02-0.32-0.04-0.5-0.04
		c-0.18,0-0.36,0.01-0.53,0.04c-0.17,0.02-0.32,0.06-0.47,0.1c-0.15,0.04-0.29,0.1-0.42,0.16s-0.27,0.13-0.41,0.22
		c-0.14,0.09-0.28,0.19-0.44,0.31c-0.15,0.13-0.32,0.28-0.51,0.48s-0.41,0.46-0.69,0.86c-0.28,0.4-0.63,0.94-1.04,1.82
		c-0.41,0.88-0.88,2.11-1.3,3.36l-1.63,4.84c-0.41,1.2-0.77,2.43-0.96,3.32s-0.2,1.45-0.19,1.85c0.01,0.41,0.05,0.66,0.1,0.87
		c0.05,0.21,0.12,0.36,0.19,0.48C133.71,247.06,133.79,247.16,133.87,247.25z"/>
	<path fill="#CA282E" d="M135.54,252.32c0.56-0.08,1.07-0.2,1.56-0.34c0.49-0.15,0.94-0.32,1.39-0.52s0.88-0.43,1.31-0.7
		s0.87-0.58,1.33-0.94c0.45-0.37,0.92-0.79,1.43-1.33c0.5-0.53,1.04-1.17,1.65-2.02c0.61-0.85,1.28-1.9,1.99-3.34
		c0.71-1.44,1.46-3.26,2.08-5.09c0.62-1.82,1.1-3.65,1.37-5.09s0.31-2.51,0.28-3.36c-0.03-0.86-0.13-1.5-0.28-2.04
		c-0.14-0.54-0.32-0.97-0.53-1.34c-0.21-0.37-0.44-0.68-0.69-0.95c-0.25-0.27-0.53-0.5-0.85-0.71c-0.31-0.2-0.65-0.38-1.05-0.52
		s-0.83-0.27-1.34-0.35c-0.51-0.08-1.09-0.13-1.68-0.13c-0.59,0-1.2,0.04-1.77,0.12s-1.08,0.2-1.57,0.34
		c-0.49,0.15-0.94,0.32-1.39,0.52c-0.44,0.2-0.88,0.43-1.31,0.7c-0.43,0.27-0.87,0.58-1.32,0.94c-0.45,0.37-0.92,0.79-1.42,1.32
		s-1.04,1.17-1.64,2.01c-0.6,0.84-1.28,1.9-1.99,3.33c-0.71,1.44-1.46,3.26-2.08,5.08s-1.1,3.65-1.37,5.1
		c-0.27,1.45-0.31,2.51-0.28,3.37s0.13,1.51,0.28,2.05c0.14,0.54,0.32,0.97,0.53,1.35c0.21,0.37,0.44,0.68,0.69,0.96
		c0.26,0.27,0.53,0.5,0.85,0.71c0.31,0.2,0.65,0.38,1.04,0.52s0.83,0.27,1.33,0.35c0.5,0.08,1.07,0.13,1.65,0.13h0.04
		C134.39,252.45,134.99,252.4,135.54,252.32z M133.35,245.58c-0.01-0.41,0.01-0.96,0.19-1.85s0.55-2.11,0.96-3.32l1.63-4.84
		c0.42-1.24,0.89-2.48,1.3-3.36c0.41-0.88,0.76-1.42,1.04-1.82c0.28-0.4,0.5-0.66,0.69-0.86s0.36-0.36,0.51-0.48
		c0.15-0.13,0.3-0.23,0.44-0.31c0.14-0.09,0.27-0.16,0.41-0.22s0.28-0.11,0.42-0.16c0.15-0.04,0.3-0.08,0.47-0.1
		c0.17-0.02,0.35-0.04,0.53-0.04c0.18,0,0.35,0.01,0.5,0.04c0.15,0.02,0.28,0.06,0.4,0.1c0.12,0.04,0.22,0.1,0.31,0.16
		s0.18,0.13,0.26,0.22c0.08,0.09,0.15,0.19,0.22,0.31c0.07,0.13,0.13,0.28,0.19,0.49c0.05,0.21,0.1,0.48,0.09,0.94
		c-0.01,0.46-0.07,1.11-0.26,2c-0.19,0.89-0.52,2.01-0.9,3.12l-1.63,4.84c-0.4,1.2-0.85,2.38-1.24,3.23
		c-0.39,0.85-0.71,1.39-0.98,1.78s-0.47,0.66-0.65,0.87s-0.34,0.36-0.48,0.49c-0.14,0.13-0.28,0.23-0.4,0.33
		c-0.13,0.09-0.25,0.17-0.37,0.23c-0.12,0.07-0.24,0.12-0.36,0.17s-0.25,0.09-0.38,0.13c-0.13,0.04-0.27,0.06-0.42,0.08
		c-0.15,0.02-0.32,0.03-0.49,0.03c-0.17,0-0.34-0.01-0.49-0.04c-0.15-0.02-0.28-0.06-0.4-0.1c-0.12-0.04-0.22-0.1-0.32-0.16
		c-0.1-0.06-0.18-0.13-0.26-0.22c-0.08-0.09-0.16-0.19-0.23-0.32c-0.07-0.13-0.13-0.28-0.19-0.48
		C133.41,246.24,133.37,245.99,133.35,245.58z"/>
	<path fill="#CA282E" d="M150.26,187.38c-0.47-0.46-1.08-0.9-1.7-1.26c-0.62-0.36-1.24-0.62-1.94-0.84
		c-0.69-0.22-1.45-0.4-2.29-0.52c-0.84-0.12-1.77-0.18-2.7-0.18c-1.69,0-3.38,0.22-4.98,0.63c-1.6,0.41-3.11,1.02-4.54,1.81
		s-2.76,1.75-4.01,2.9c-1.25,1.15-2.4,2.5-3.41,4.05c-1.01,1.55-1.88,3.31-2.5,5.06c-0.62,1.75-1,3.5-1.09,5.07
		c-0.09,1.57,0.11,2.97,0.55,4.17c0.44,1.21,1.12,2.22,2.01,3.04c0.89,0.82,1.98,1.44,3.27,1.85c1.29,0.41,2.78,0.61,4.15,0.63
		c1.37,0.02,2.63-0.14,3.8-0.43c1.17-0.29,2.23-0.71,3.34-1.32c1.11-0.61,2.25-1.41,3.3-2.31l0,0l-0.28,2.14
		c-0.03,0.25-0.03,0.51,0,0.72s0.1,0.39,0.18,0.53c0.09,0.14,0.19,0.26,0.32,0.35c0.13,0.09,0.28,0.16,0.46,0.21s0.4,0.07,0.61,0.07
		c0.17,0,0.34-0.01,0.5-0.03c0.16-0.02,0.3-0.05,0.42-0.08s0.25-0.08,0.36-0.13c0.11-0.05,0.21-0.1,0.31-0.17
		c0.1-0.06,0.19-0.13,0.29-0.21s0.19-0.17,0.28-0.28c0.09-0.11,0.19-0.23,0.28-0.37s0.19-0.31,0.29-0.52
		c0.1-0.21,0.2-0.45,0.28-0.69l3.73-10.62c0.07-0.21,0.14-0.43,0.18-0.62c0.04-0.19,0.05-0.35,0.06-0.49c0-0.14-0.01-0.26-0.04-0.37
		c-0.03-0.11-0.06-0.2-0.11-0.29c-0.05-0.09-0.11-0.17-0.19-0.24c-0.08-0.07-0.17-0.14-0.29-0.21c-0.12-0.06-0.26-0.12-0.45-0.18
		s-0.42-0.1-0.73-0.14c-0.31-0.03-0.71-0.05-1.1-0.05l-6.68-0.02c-0.29,0-0.57,0.03-0.84,0.08c-0.26,0.05-0.5,0.12-0.73,0.22
		c-0.22,0.09-0.42,0.2-0.61,0.33s-0.35,0.27-0.51,0.43c-0.15,0.16-0.29,0.34-0.42,0.54s-0.23,0.42-0.32,0.68
		c-0.08,0.25-0.14,0.53-0.16,0.78c-0.01,0.25,0.03,0.48,0.11,0.68s0.21,0.38,0.37,0.52c0.17,0.14,0.37,0.26,0.62,0.33
		c0.25,0.08,0.54,0.11,0.82,0.11l4.67,0.01c-0.49,0.94-1.1,1.81-1.78,2.56s-1.44,1.37-2.26,1.88c-0.82,0.51-1.69,0.91-2.62,1.17
		c-0.93,0.27-1.92,0.4-2.8,0.42s-1.65-0.08-2.32-0.26c-0.67-0.18-1.25-0.45-1.74-0.8c-0.49-0.35-0.9-0.78-1.21-1.29
		c-0.32-0.52-0.54-1.13-0.66-1.84c-0.12-0.72-0.13-1.54-0.01-2.48c0.13-0.94,0.39-2,0.77-3.07s0.86-2.13,1.4-3.07
		s1.12-1.76,1.73-2.46c0.61-0.71,1.25-1.3,1.9-1.81c0.66-0.51,1.33-0.92,2.03-1.26c0.7-0.34,1.42-0.59,2.18-0.76
		c0.76-0.17,1.55-0.25,2.22-0.27c0.67-0.01,1.23,0.04,1.71,0.14s0.88,0.24,1.25,0.43s0.71,0.44,1.04,0.8
		c0.33,0.36,0.64,0.82,0.88,1.32c0.17,0.37,0.38,0.73,0.58,0.98c0.2,0.25,0.38,0.4,0.55,0.51c0.17,0.11,0.32,0.19,0.48,0.26
		c0.16,0.06,0.34,0.11,0.54,0.14c0.2,0.03,0.42,0.05,0.64,0.05c0.29,0,0.58-0.04,0.87-0.13c0.29-0.08,0.59-0.21,0.88-0.37
		c0.29-0.16,0.56-0.37,0.81-0.6c0.25-0.23,0.47-0.49,0.66-0.77c0.18-0.28,0.33-0.57,0.44-0.88c0.14-0.38,0.21-0.78,0.19-1.21
		c-0.02-0.43-0.11-0.87-0.33-1.33C151.05,188.31,150.72,187.84,150.26,187.38z"/>
	<path fill="#CA282E" d="M164.33,185.72c-0.11-0.15-0.24-0.28-0.42-0.39c-0.18-0.11-0.39-0.2-0.67-0.26
		c-0.27-0.06-0.61-0.09-0.93-0.09c-0.32,0-0.63,0.02-0.91,0.07c-0.28,0.05-0.53,0.11-0.75,0.19s-0.42,0.17-0.61,0.28
		s-0.36,0.23-0.53,0.37s-0.33,0.31-0.49,0.5c-0.16,0.19-0.31,0.42-0.46,0.69c-0.15,0.27-0.29,0.59-0.4,0.91l-7.86,22.4
		c-0.12,0.34-0.21,0.69-0.25,0.99s-0.03,0.55,0.01,0.76c0.04,0.21,0.12,0.39,0.23,0.54c0.11,0.15,0.24,0.28,0.42,0.39
		c0.18,0.11,0.39,0.2,0.67,0.26c0.27,0.06,0.61,0.09,0.93,0.09s0.63-0.02,0.91-0.07c0.28-0.04,0.53-0.11,0.75-0.19
		c0.22-0.08,0.42-0.17,0.61-0.28s0.36-0.23,0.53-0.37s0.33-0.31,0.49-0.5c0.16-0.19,0.31-0.42,0.46-0.69
		c0.15-0.27,0.29-0.59,0.4-0.91l7.86-22.4c0.12-0.34,0.21-0.69,0.25-0.99s0.03-0.55-0.01-0.76
		C164.51,186.05,164.43,185.88,164.33,185.72z"/>
	<path fill="#CA282E" d="M115.46,242.88c1.59-1.08,4.02-2.68,6.47-4.25c1.05-0.71,2.04-1.52,2.82-2.28s1.33-1.47,1.79-2.18
		c0.46-0.71,0.81-1.44,1.08-2.27c0.27-0.84,0.45-1.8,0.46-2.66c0.01-0.86-0.16-1.63-0.46-2.31s-0.74-1.27-1.31-1.76
		c-0.57-0.5-1.29-0.9-2.16-1.17c-0.87-0.27-1.91-0.42-3-0.43c-1.09,0-2.22,0.13-3.26,0.38c-1.04,0.25-1.98,0.6-2.94,1.08
		s-1.92,1.07-2.96,1.92s-2.14,1.94-3.13,3.13l3.8,2.97c0.5-0.8,1.06-1.56,1.57-2.14c0.51-0.59,0.96-1,1.36-1.32
		c0.4-0.32,0.75-0.56,1.07-0.74c0.32-0.19,0.62-0.33,0.9-0.43s0.56-0.19,0.83-0.24s0.55-0.08,0.83-0.08c0.34,0,0.69,0.05,0.98,0.14
		c0.3,0.1,0.55,0.24,0.76,0.42c0.21,0.18,0.38,0.41,0.5,0.68c0.12,0.28,0.19,0.6,0.18,1c-0.01,0.4-0.09,0.86-0.24,1.29
		c-0.12,0.35-0.26,0.69-0.43,1s-0.34,0.59-0.54,0.86s-0.42,0.54-0.75,0.87s-0.78,0.75-1.3,1.19c-0.52,0.44-1.12,0.89-2.27,1.7
		c-1.15,0.81-2.87,1.97-4.6,3.11c-1.53,1.04-3,2.18-4.12,3.18c-1.12,1-1.88,1.85-2.54,2.68c-0.66,0.82-1.2,1.61-1.71,2.5
		s-0.96,1.9-1.34,2.93l19.31,0.05l1.72-5.09l-12.24-0.03c0.56-0.52,1.15-1.02,1.82-1.55C113.1,244.52,113.86,243.96,115.46,242.88z"
		/>
	<polygon fill="#CA282E" points="157.35,224.29 155.81,228.85 161.85,228.87 155.65,247.22 150.02,247.21 148.48,251.77 
		165.8,251.81 167.34,247.25 161.71,247.24 169.45,224.32 	"/>
	<path fill="#CA282E" d="M339.01,187.83c-0.47-0.46-1.08-0.9-1.7-1.26s-1.24-0.62-1.94-0.84s-1.45-0.4-2.29-0.52
		c-0.84-0.12-1.77-0.18-2.7-0.18c-1.69,0-3.38,0.22-4.98,0.63c-1.6,0.41-3.11,1.02-4.54,1.81s-2.76,1.75-4.01,2.9
		s-2.4,2.5-3.41,4.05c-1.01,1.55-1.88,3.31-2.5,5.06c-0.62,1.75-1,3.5-1.09,5.07c-0.09,1.57,0.11,2.97,0.55,4.17
		c0.44,1.21,1.12,2.22,2.01,3.04c0.89,0.82,1.98,1.44,3.27,1.85s2.78,0.61,4.15,0.63s2.63-0.14,3.8-0.43
		c1.17-0.29,2.23-0.71,3.34-1.32c1.11-0.61,2.25-1.41,3.3-2.31l0,0l-0.28,2.14c-0.03,0.25-0.03,0.51,0,0.72s0.1,0.39,0.18,0.53
		c0.09,0.14,0.19,0.26,0.32,0.35c0.13,0.09,0.28,0.16,0.46,0.21s0.4,0.07,0.61,0.07c0.17,0,0.34-0.01,0.5-0.03
		c0.16-0.02,0.3-0.05,0.42-0.08c0.13-0.04,0.25-0.08,0.36-0.13c0.11-0.05,0.21-0.1,0.31-0.17c0.1-0.06,0.19-0.13,0.29-0.21
		s0.19-0.17,0.28-0.28c0.09-0.11,0.19-0.23,0.28-0.37s0.19-0.31,0.29-0.52c0.1-0.2,0.2-0.45,0.28-0.69l3.73-10.62
		c0.07-0.21,0.14-0.43,0.18-0.62s0.05-0.35,0.06-0.49s-0.01-0.26-0.04-0.37c-0.03-0.11-0.06-0.2-0.11-0.29s-0.11-0.17-0.19-0.24
		c-0.08-0.07-0.17-0.14-0.29-0.21c-0.12-0.06-0.26-0.12-0.45-0.18s-0.42-0.1-0.73-0.14c-0.31-0.03-0.71-0.05-1.1-0.05l-6.68-0.02
		c-0.29,0-0.57,0.03-0.84,0.08c-0.26,0.05-0.5,0.12-0.73,0.22s-0.42,0.2-0.61,0.33c-0.18,0.13-0.35,0.27-0.51,0.43
		c-0.15,0.16-0.29,0.34-0.42,0.54c-0.12,0.2-0.23,0.42-0.32,0.67s-0.14,0.53-0.16,0.78c-0.01,0.25,0.03,0.48,0.11,0.68
		c0.08,0.2,0.21,0.38,0.37,0.52c0.17,0.14,0.37,0.26,0.62,0.33c0.25,0.08,0.54,0.11,0.82,0.11l4.67,0.01
		c-0.49,0.94-1.1,1.81-1.78,2.56c-0.68,0.75-1.44,1.37-2.26,1.88c-0.82,0.51-1.69,0.91-2.62,1.17c-0.93,0.27-1.92,0.4-2.8,0.42
		c-0.88,0.02-1.65-0.08-2.32-0.26c-0.67-0.18-1.25-0.45-1.74-0.8c-0.49-0.35-0.9-0.78-1.21-1.29c-0.32-0.52-0.54-1.13-0.66-1.84
		s-0.13-1.54-0.01-2.48c0.13-0.94,0.39-2,0.77-3.07c0.38-1.06,0.86-2.13,1.4-3.07s1.12-1.76,1.73-2.46c0.61-0.71,1.25-1.3,1.9-1.81
		c0.66-0.51,1.33-0.92,2.03-1.26c0.7-0.34,1.42-0.59,2.18-0.76c0.76-0.17,1.55-0.25,2.22-0.27c0.67-0.01,1.23,0.04,1.71,0.14
		c0.48,0.1,0.88,0.24,1.25,0.43c0.37,0.19,0.71,0.44,1.04,0.8s0.64,0.82,0.88,1.32c0.17,0.37,0.38,0.73,0.58,0.98
		c0.2,0.25,0.38,0.4,0.55,0.51c0.17,0.11,0.32,0.19,0.48,0.26c0.16,0.06,0.34,0.11,0.54,0.14s0.42,0.05,0.64,0.05
		c0.29,0,0.58-0.04,0.87-0.13c0.29-0.08,0.59-0.21,0.88-0.37c0.29-0.16,0.56-0.37,0.81-0.6c0.25-0.23,0.47-0.49,0.66-0.77
		s0.33-0.57,0.44-0.88c0.14-0.38,0.21-0.78,0.19-1.21c-0.02-0.43-0.11-0.87-0.33-1.33C339.8,188.76,339.48,188.29,339.01,187.83z"/>
	<path fill="#CA282E" d="M193.59,185.78c-0.07-0.11-0.17-0.21-0.28-0.3c-0.11-0.09-0.24-0.16-0.39-0.22
		c-0.16-0.06-0.34-0.11-0.56-0.15c-0.22-0.04-0.48-0.05-0.74-0.05s-0.53,0.02-0.78,0.05c-0.24,0.04-0.46,0.09-0.66,0.15
		c-0.2,0.06-0.38,0.14-0.55,0.23c-0.17,0.09-0.33,0.19-0.48,0.3s-0.3,0.24-0.45,0.39s-0.3,0.32-0.44,0.53
		c-0.15,0.21-0.29,0.45-0.44,0.74c-0.15,0.29-0.29,0.63-0.41,0.97l-5.66,16.13l-0.03,0.01l-4.48-15.25
		c-0.15-0.88-0.4-1.76-0.64-2.33c-0.24-0.57-0.48-0.85-0.67-1.05c-0.19-0.2-0.34-0.34-0.5-0.45s-0.32-0.19-0.5-0.25
		c-0.18-0.06-0.38-0.12-0.62-0.15c-0.23-0.03-0.5-0.05-0.79-0.05c-0.29,0-0.61,0.01-0.89,0.04c-0.28,0.03-0.52,0.07-0.73,0.11
		c-0.21,0.05-0.4,0.1-0.56,0.16c-0.17,0.06-0.32,0.13-0.47,0.2c-0.14,0.07-0.28,0.16-0.41,0.25c-0.13,0.09-0.26,0.19-0.38,0.31
		c-0.13,0.12-0.25,0.25-0.38,0.41c-0.13,0.16-0.26,0.34-0.41,0.58s-0.31,0.52-0.48,0.91c-0.18,0.38-0.36,0.87-0.53,1.36L161,210.08
		c-0.12,0.34-0.22,0.69-0.28,0.99c-0.06,0.3-0.08,0.54-0.08,0.75c0,0.21,0.02,0.38,0.07,0.53c0.04,0.15,0.1,0.28,0.17,0.39
		s0.16,0.21,0.27,0.3c0.11,0.09,0.24,0.16,0.39,0.22c0.16,0.06,0.34,0.11,0.56,0.15c0.22,0.04,0.49,0.05,0.75,0.06
		c0.26,0,0.53-0.02,0.77-0.05c0.24-0.04,0.45-0.09,0.65-0.15c0.2-0.06,0.38-0.14,0.55-0.23s0.33-0.19,0.49-0.3
		c0.16-0.11,0.31-0.24,0.46-0.4s0.3-0.33,0.45-0.53c0.15-0.21,0.3-0.45,0.44-0.74c0.15-0.29,0.29-0.62,0.41-0.97l5.64-16.09
		l0.03-0.01l4.85,16.38c0.12,0.57,0.3,1.12,0.48,1.51s0.37,0.6,0.53,0.77s0.31,0.29,0.47,0.39c0.16,0.1,0.33,0.18,0.54,0.24
		c0.21,0.07,0.44,0.12,0.74,0.16c0.29,0.04,0.65,0.06,0.96,0.06c0.32,0,0.61-0.02,0.86-0.05c0.25-0.03,0.47-0.08,0.67-0.13
		c0.2-0.05,0.37-0.12,0.53-0.19c0.16-0.07,0.31-0.15,0.46-0.24c0.14-0.09,0.28-0.19,0.42-0.31c0.14-0.12,0.27-0.25,0.42-0.42
		c0.14-0.16,0.29-0.35,0.44-0.6s0.33-0.54,0.51-0.94c0.18-0.39,0.38-0.89,0.55-1.38l7.3-20.82c0.12-0.34,0.22-0.68,0.28-0.98
		c0.06-0.29,0.08-0.54,0.08-0.75c0-0.21-0.03-0.38-0.07-0.53S193.67,185.89,193.59,185.78z"/>
	<path fill="#CA282E" d="M95.36,186.08c-0.07-0.12-0.17-0.24-0.3-0.34c-0.13-0.1-0.28-0.19-0.48-0.27c-0.2-0.08-0.43-0.14-0.72-0.19
		s-0.64-0.07-0.98-0.07l-15.17-0.04c-0.32,0-0.64,0.01-0.92,0.04s-0.52,0.07-0.73,0.11c-0.21,0.05-0.4,0.1-0.56,0.16
		c-0.17,0.06-0.32,0.13-0.47,0.2c-0.14,0.07-0.28,0.16-0.41,0.25c-0.13,0.09-0.26,0.19-0.38,0.31c-0.13,0.12-0.25,0.25-0.38,0.41
		s-0.26,0.34-0.41,0.58c-0.15,0.24-0.31,0.52-0.48,0.91s-0.36,0.87-0.53,1.36l-6.68,19.04c-0.18,0.51-0.34,1.03-0.44,1.43
		s-0.13,0.71-0.14,0.95s0,0.43,0.03,0.59c0.03,0.16,0.08,0.3,0.14,0.41c0.06,0.12,0.13,0.22,0.22,0.31s0.19,0.17,0.32,0.25
		c0.13,0.07,0.28,0.14,0.46,0.2c0.19,0.06,0.41,0.11,0.69,0.14c0.28,0.03,0.61,0.05,0.95,0.05l15.97,0.04
		c0.36,0,0.71-0.02,1.03-0.07s0.6-0.11,0.84-0.19c0.25-0.08,0.47-0.17,0.66-0.28c0.2-0.1,0.37-0.22,0.54-0.34
		c0.16-0.13,0.31-0.27,0.45-0.43s0.27-0.34,0.39-0.54c0.12-0.2,0.22-0.43,0.3-0.66c0.08-0.23,0.14-0.46,0.17-0.67
		c0.03-0.21,0.03-0.38,0-0.55c-0.03-0.16-0.07-0.3-0.15-0.43s-0.17-0.24-0.29-0.35c-0.12-0.1-0.28-0.2-0.47-0.28
		c-0.19-0.08-0.43-0.15-0.72-0.19c-0.29-0.05-0.64-0.07-0.99-0.07l-13.65-0.03l2.54-7.25l11.55,0.03c0.36,0,0.71-0.02,1.03-0.07
		c0.32-0.04,0.59-0.11,0.84-0.18s0.46-0.16,0.65-0.26c0.19-0.1,0.36-0.2,0.52-0.32c0.16-0.12,0.3-0.25,0.43-0.39
		c0.13-0.15,0.25-0.31,0.36-0.49c0.11-0.18,0.2-0.39,0.28-0.6c0.07-0.21,0.13-0.43,0.15-0.62c0.02-0.19,0.02-0.36-0.01-0.51
		c-0.03-0.15-0.08-0.28-0.15-0.4c-0.07-0.12-0.16-0.23-0.29-0.33c-0.12-0.1-0.27-0.19-0.46-0.26s-0.43-0.14-0.72-0.19
		c-0.29-0.05-0.64-0.07-0.99-0.07l-11.55-0.03l2.09-5.97l12.85,0.03c0.36,0,0.72-0.02,1.04-0.07c0.32-0.04,0.6-0.11,0.85-0.19
		c0.25-0.08,0.47-0.17,0.66-0.27c0.19-0.1,0.37-0.21,0.53-0.33c0.16-0.12,0.3-0.25,0.43-0.4c0.13-0.15,0.25-0.31,0.36-0.5
		c0.11-0.19,0.21-0.39,0.28-0.6s0.13-0.42,0.15-0.62c0.02-0.19,0.02-0.36-0.01-0.51C95.49,186.34,95.44,186.21,95.36,186.08z"/>
	<path fill="#CA282E" d="M123.22,185.62c-0.08-0.11-0.17-0.21-0.28-0.3c-0.11-0.09-0.24-0.16-0.39-0.22s-0.34-0.11-0.56-0.15
		c-0.22-0.04-0.48-0.05-0.74-0.05s-0.53,0.02-0.78,0.05s-0.46,0.09-0.66,0.15c-0.2,0.06-0.38,0.14-0.55,0.23
		c-0.17,0.09-0.33,0.19-0.48,0.3c-0.15,0.11-0.3,0.24-0.45,0.39s-0.3,0.32-0.44,0.53c-0.15,0.21-0.29,0.45-0.44,0.74
		c-0.15,0.29-0.29,0.63-0.41,0.97l-5.66,16.13l-0.03,0.01l-4.48-15.25c-0.15-0.88-0.4-1.76-0.64-2.33
		c-0.24-0.57-0.48-0.85-0.67-1.05c-0.19-0.2-0.34-0.34-0.5-0.45c-0.16-0.11-0.32-0.19-0.5-0.25c-0.18-0.06-0.38-0.12-0.61-0.15
		c-0.23-0.03-0.5-0.05-0.79-0.05s-0.61,0.01-0.89,0.04c-0.28,0.03-0.52,0.07-0.73,0.12c-0.21,0.05-0.4,0.1-0.56,0.16
		c-0.17,0.06-0.32,0.13-0.47,0.2c-0.14,0.07-0.28,0.16-0.41,0.25c-0.13,0.09-0.26,0.19-0.38,0.31c-0.13,0.12-0.25,0.25-0.38,0.41
		s-0.26,0.34-0.41,0.58s-0.31,0.52-0.48,0.91s-0.36,0.87-0.53,1.36l-7.28,20.74c-0.12,0.34-0.22,0.69-0.28,0.99
		c-0.06,0.3-0.08,0.54-0.08,0.75c0,0.21,0.02,0.38,0.07,0.53c0.04,0.15,0.1,0.28,0.17,0.39s0.16,0.21,0.27,0.3s0.24,0.16,0.39,0.22
		c0.16,0.06,0.34,0.12,0.56,0.15s0.49,0.06,0.75,0.06c0.26,0,0.53-0.02,0.77-0.05c0.24-0.04,0.45-0.09,0.65-0.15
		c0.2-0.06,0.38-0.14,0.55-0.23s0.33-0.19,0.49-0.3c0.16-0.11,0.31-0.24,0.46-0.4c0.15-0.15,0.3-0.33,0.45-0.53
		c0.15-0.21,0.3-0.45,0.44-0.74s0.29-0.62,0.41-0.97l5.64-16.09l0.03-0.01l4.85,16.38c0.12,0.57,0.3,1.12,0.48,1.51
		c0.18,0.39,0.37,0.6,0.53,0.77s0.31,0.29,0.47,0.39c0.16,0.1,0.33,0.18,0.54,0.24s0.44,0.12,0.74,0.16s0.64,0.06,0.96,0.06
		c0.32,0,0.61-0.02,0.86-0.05c0.25-0.03,0.47-0.08,0.67-0.13c0.2-0.05,0.37-0.12,0.53-0.19s0.31-0.15,0.46-0.24
		c0.14-0.09,0.28-0.19,0.42-0.31s0.27-0.25,0.42-0.42c0.14-0.16,0.29-0.35,0.44-0.6c0.16-0.24,0.33-0.54,0.51-0.94
		c0.18-0.39,0.38-0.89,0.55-1.38l7.3-20.82c0.12-0.34,0.22-0.68,0.28-0.98c0.06-0.29,0.08-0.54,0.08-0.75
		c0-0.21-0.03-0.38-0.07-0.53S123.3,185.73,123.22,185.62z"/>
	<path fill="#CA282E" d="M220.1,186.37c-0.07-0.12-0.17-0.24-0.3-0.34c-0.13-0.1-0.28-0.19-0.48-0.27c-0.2-0.08-0.43-0.14-0.72-0.19
		s-0.64-0.07-0.98-0.07l-15.17-0.04c-0.32,0-0.64,0.01-0.92,0.04s-0.52,0.07-0.73,0.11s-0.4,0.1-0.56,0.16
		c-0.17,0.06-0.32,0.13-0.47,0.2c-0.14,0.07-0.28,0.16-0.41,0.25c-0.13,0.09-0.26,0.19-0.38,0.31c-0.13,0.12-0.25,0.25-0.38,0.41
		c-0.13,0.16-0.26,0.34-0.41,0.58c-0.15,0.24-0.3,0.52-0.48,0.91c-0.17,0.38-0.36,0.87-0.53,1.36l-6.68,19.04
		c-0.18,0.51-0.34,1.03-0.44,1.43c-0.1,0.41-0.13,0.71-0.14,0.95c-0.01,0.24,0,0.43,0.03,0.59c0.03,0.16,0.08,0.3,0.14,0.41
		c0.06,0.12,0.13,0.22,0.22,0.31c0.09,0.09,0.19,0.17,0.32,0.25c0.13,0.07,0.28,0.14,0.46,0.2c0.19,0.06,0.41,0.11,0.68,0.14
		c0.28,0.03,0.62,0.05,0.95,0.05l15.97,0.04c0.36,0,0.71-0.02,1.03-0.07c0.32-0.05,0.6-0.11,0.84-0.19
		c0.25-0.08,0.46-0.17,0.66-0.28c0.2-0.1,0.37-0.22,0.54-0.34s0.31-0.27,0.45-0.43c0.14-0.16,0.27-0.34,0.39-0.54
		c0.12-0.2,0.22-0.43,0.3-0.66c0.08-0.23,0.14-0.46,0.17-0.67c0.03-0.21,0.02-0.38,0-0.55s-0.07-0.3-0.15-0.43s-0.17-0.24-0.29-0.35
		s-0.27-0.2-0.47-0.28c-0.19-0.08-0.43-0.15-0.72-0.19c-0.29-0.05-0.64-0.07-0.99-0.07l-13.65-0.03l2.54-7.25l11.55,0.03
		c0.36,0,0.71-0.02,1.03-0.07c0.32-0.04,0.59-0.11,0.84-0.18c0.25-0.08,0.46-0.16,0.65-0.26s0.36-0.21,0.52-0.32
		c0.16-0.12,0.3-0.25,0.43-0.39c0.13-0.15,0.25-0.31,0.36-0.49c0.11-0.18,0.2-0.39,0.28-0.6c0.07-0.21,0.13-0.43,0.15-0.62
		c0.02-0.19,0.02-0.36-0.01-0.51c-0.03-0.15-0.08-0.28-0.15-0.4c-0.07-0.12-0.16-0.23-0.29-0.33c-0.12-0.1-0.27-0.19-0.46-0.26
		c-0.19-0.08-0.43-0.14-0.72-0.19c-0.29-0.04-0.64-0.07-0.99-0.07L201,196.21l2.09-5.97l12.85,0.03c0.36,0,0.72-0.02,1.04-0.07
		c0.32-0.04,0.6-0.11,0.85-0.19c0.25-0.08,0.47-0.17,0.66-0.27s0.37-0.21,0.53-0.33c0.16-0.12,0.3-0.25,0.43-0.4
		c0.13-0.15,0.25-0.31,0.36-0.5s0.21-0.39,0.28-0.6c0.07-0.21,0.13-0.42,0.15-0.62c0.02-0.19,0.02-0.36-0.01-0.51
		C220.22,186.64,220.17,186.5,220.1,186.37z"/>
	<path fill="#CA282E" d="M263.58,251.85c1.24-0.15,2.03-0.37,2.68-0.58c0.64-0.21,1.13-0.41,1.59-0.65
		c0.81-0.41,1.57-0.92,2.34-1.59c0.78-0.67,1.57-1.51,2.3-2.61c0.73-1.1,1.43-2.47,1.92-3.91l2.84-8.41
		c0.44-1.29,0.7-2.66,0.72-3.78c0.02-1.12-0.2-1.98-0.52-2.69c-0.32-0.71-0.75-1.25-1.28-1.67c-0.31-0.24-0.65-0.44-1.14-0.65
		c-0.5-0.21-1.15-0.44-2.3-0.59c-1.15-0.15-2.81-0.22-4.46-0.17l-8.58-0.02l-9.28,27.48l8.58,0.02
		C260.67,252.07,262.34,251.99,263.58,251.85z M264.52,229.9l1.51,0c0.67,0,1.35,0.05,1.87,0.13c0.52,0.08,0.88,0.2,1.16,0.32
		c0.29,0.12,0.5,0.25,0.68,0.38c0.18,0.13,0.32,0.28,0.43,0.44c0.12,0.16,0.21,0.33,0.29,0.54c0.08,0.2,0.13,0.44,0.16,0.74
		c0.03,0.3,0.03,0.67-0.06,1.18c-0.08,0.51-0.25,1.15-0.46,1.77l-1.95,5.77c-0.22,0.65-0.49,1.29-0.75,1.79
		c-0.26,0.5-0.51,0.87-0.74,1.17c-0.23,0.3-0.45,0.54-0.67,0.75c-0.22,0.21-0.43,0.38-0.66,0.54s-0.46,0.3-0.73,0.44
		c-0.27,0.14-0.57,0.26-0.93,0.38s-0.8,0.23-1.36,0.31c-0.56,0.08-1.26,0.13-1.95,0.13l-1.51,0L264.52,229.9z"/>
	<polygon fill="#CA282E" points="239.15,251.98 246.62,229.85 254.11,229.87 255.92,224.52 234.3,224.47 232.5,229.82 
		239.99,229.84 232.52,251.97 	"/>
	<path fill="#CA282E" d="M271.1,188.24c-0.2-0.39-0.47-0.73-0.83-1.04c-0.35-0.31-0.78-0.58-1.33-0.82s-1.22-0.43-2.06-0.57
		c-0.84-0.14-1.86-0.21-2.88-0.21l-10.89-0.03c-0.32,0-0.64,0.01-0.92,0.04c-0.28,0.03-0.52,0.07-0.73,0.11
		c-0.21,0.05-0.4,0.1-0.56,0.16c-0.17,0.06-0.32,0.13-0.47,0.2s-0.28,0.16-0.41,0.25s-0.26,0.19-0.38,0.31
		c-0.13,0.12-0.25,0.25-0.38,0.41c-0.13,0.16-0.26,0.34-0.41,0.58s-0.31,0.52-0.48,0.91c-0.17,0.38-0.36,0.87-0.53,1.36l-7.26,20.7
		c-0.12,0.34-0.21,0.69-0.25,0.99s-0.03,0.55,0.01,0.76c0.04,0.21,0.12,0.39,0.23,0.54c0.11,0.15,0.24,0.28,0.42,0.39
		c0.18,0.11,0.39,0.2,0.67,0.26c0.27,0.06,0.61,0.09,0.93,0.09c0.32,0,0.64-0.02,0.91-0.07c0.28-0.04,0.53-0.11,0.75-0.19
		s0.42-0.17,0.61-0.28c0.19-0.11,0.36-0.23,0.53-0.37s0.33-0.31,0.49-0.5s0.31-0.42,0.46-0.69c0.15-0.27,0.29-0.59,0.4-0.91
		l2.86-8.14l6.64,0.02c0.38,0,0.77,0.02,1.09,0.05c0.32,0.03,0.59,0.08,0.81,0.13c0.22,0.05,0.4,0.12,0.55,0.19
		c0.15,0.07,0.28,0.15,0.39,0.23c0.11,0.09,0.2,0.18,0.27,0.29c0.08,0.11,0.14,0.23,0.19,0.37c0.05,0.15,0.09,0.32,0.09,0.59
		c0.01,0.28-0.02,0.66-0.12,1.2c-0.1,0.53-0.27,1.22-0.48,1.89c-0.29,0.91-0.54,1.84-0.69,2.54c-0.15,0.71-0.21,1.2-0.22,1.57
		c-0.01,0.37,0.03,0.61,0.08,0.8c0.05,0.19,0.11,0.34,0.18,0.46c0.07,0.12,0.15,0.23,0.24,0.32s0.2,0.17,0.32,0.24
		c0.12,0.07,0.27,0.13,0.43,0.18c0.17,0.05,0.36,0.09,0.58,0.12c0.23,0.03,0.48,0.04,0.74,0.04c0.39,0,0.77-0.04,1.13-0.12
		c0.36-0.08,0.68-0.2,0.98-0.35c0.3-0.15,0.56-0.32,0.8-0.53c0.24-0.2,0.45-0.43,0.63-0.7s0.33-0.55,0.44-0.86
		c0.04-0.11,0.08-0.23,0.11-0.42c0.03-0.19,0.07-0.46,0.12-0.86c0.05-0.4,0.12-0.93,0.18-1.46c0.05-0.29,0.12-0.58,0.24-0.97
		c0.12-0.39,0.28-0.89,0.43-1.36s0.27-0.92,0.38-1.37c0.14-0.51,0.21-1.03,0.23-1.48c0.02-0.45-0.03-0.82-0.12-1.15
		c-0.09-0.33-0.22-0.6-0.4-0.86s-0.4-0.47-0.7-0.68c-0.3-0.2-0.67-0.39-1.06-0.52l0-0.01c0.62-0.17,1.23-0.39,1.79-0.66
		s1.07-0.58,1.55-0.94c0.48-0.36,0.93-0.77,1.36-1.25s0.83-1.02,1.19-1.65c0.36-0.62,0.69-1.33,0.95-2.07
		c0.26-0.74,0.46-1.5,0.56-2.17c0.1-0.67,0.1-1.24,0.03-1.74C271.44,189.07,271.31,188.63,271.1,188.24z M264.83,192.92
		c-0.04,0.35-0.14,0.75-0.26,1.11c-0.12,0.36-0.27,0.69-0.42,0.97c-0.15,0.28-0.31,0.53-0.48,0.74s-0.34,0.4-0.52,0.57
		s-0.37,0.32-0.58,0.46c-0.21,0.14-0.43,0.26-0.68,0.38c-0.25,0.11-0.52,0.21-0.84,0.3c-0.32,0.09-0.67,0.16-1.09,0.21
		c-0.42,0.05-0.89,0.08-1.36,0.08l-7.35-0.02l2.6-7.4l7.64,0.02c0.48,0,0.96,0.04,1.36,0.12c0.4,0.08,0.72,0.2,0.98,0.35
		c0.26,0.15,0.46,0.32,0.62,0.51c0.16,0.2,0.27,0.42,0.33,0.69C264.85,192.27,264.87,192.57,264.83,192.92z"/>
	<path fill="#CA282E" d="M279.11,211.35c-0.06,0.3-0.08,0.54-0.08,0.75c0,0.21,0.02,0.38,0.07,0.53c0.04,0.15,0.1,0.28,0.17,0.39
		s0.16,0.21,0.27,0.3c0.11,0.09,0.24,0.16,0.39,0.22c0.16,0.06,0.34,0.11,0.56,0.15s0.49,0.06,0.75,0.06c0.26,0,0.53-0.02,0.77-0.05
		c0.24-0.03,0.45-0.09,0.65-0.15c0.2-0.06,0.38-0.14,0.55-0.23c0.17-0.09,0.33-0.19,0.49-0.3c0.16-0.11,0.31-0.24,0.46-0.4
		s0.3-0.33,0.45-0.53c0.15-0.21,0.3-0.45,0.44-0.74c0.15-0.29,0.29-0.62,0.41-0.97l5.64-16.09l0.03-0.01l4.85,16.38
		c0.12,0.57,0.3,1.12,0.48,1.51c0.18,0.39,0.37,0.6,0.53,0.77s0.31,0.29,0.47,0.39c0.16,0.1,0.33,0.18,0.54,0.24
		s0.44,0.12,0.74,0.16c0.29,0.04,0.64,0.06,0.96,0.06c0.32,0,0.61-0.02,0.86-0.05c0.25-0.03,0.47-0.08,0.67-0.13
		c0.2-0.05,0.37-0.12,0.53-0.19s0.31-0.15,0.46-0.24c0.14-0.09,0.28-0.19,0.42-0.31s0.27-0.25,0.42-0.42
		c0.14-0.16,0.29-0.35,0.44-0.6s0.33-0.54,0.51-0.94c0.18-0.39,0.38-0.89,0.55-1.38l7.3-20.82c0.12-0.34,0.22-0.68,0.28-0.98
		c0.06-0.3,0.08-0.54,0.08-0.75c0-0.21-0.03-0.38-0.07-0.53s-0.1-0.28-0.18-0.39c-0.08-0.11-0.17-0.21-0.28-0.3
		c-0.11-0.09-0.24-0.16-0.39-0.22c-0.16-0.06-0.34-0.11-0.56-0.15c-0.22-0.04-0.48-0.05-0.74-0.05c-0.26,0-0.53,0.02-0.78,0.05
		c-0.24,0.04-0.46,0.09-0.66,0.15c-0.2,0.06-0.38,0.14-0.55,0.23c-0.17,0.09-0.33,0.19-0.48,0.3c-0.15,0.11-0.3,0.24-0.45,0.39
		c-0.15,0.15-0.3,0.32-0.44,0.53c-0.15,0.21-0.29,0.45-0.44,0.74c-0.15,0.29-0.29,0.63-0.41,0.97l-5.66,16.13l-0.03,0.01
		l-4.48-15.25c-0.15-0.88-0.4-1.76-0.64-2.33c-0.24-0.57-0.48-0.85-0.67-1.05c-0.19-0.2-0.34-0.34-0.5-0.45
		c-0.16-0.11-0.32-0.19-0.5-0.25c-0.18-0.06-0.38-0.12-0.61-0.15c-0.23-0.03-0.5-0.05-0.79-0.05c-0.29,0-0.61,0.01-0.89,0.04
		c-0.28,0.03-0.52,0.07-0.73,0.12c-0.21,0.05-0.4,0.1-0.56,0.16c-0.17,0.06-0.32,0.13-0.47,0.2s-0.28,0.16-0.41,0.25
		c-0.13,0.09-0.26,0.19-0.38,0.31c-0.13,0.12-0.25,0.25-0.38,0.41s-0.26,0.34-0.41,0.58c-0.15,0.24-0.31,0.52-0.48,0.91
		c-0.17,0.38-0.36,0.87-0.53,1.36l-7.28,20.74C279.27,210.7,279.17,211.05,279.11,211.35z"/>
	<polygon fill="#CA282E" points="179.91,224.34 178.37,228.9 184.4,228.92 178.21,247.27 172.58,247.26 171.04,251.82 
		188.36,251.86 189.9,247.3 184.27,247.29 192.01,224.37 	"/>
	<path fill="#CA282E" d="M282.71,186c-0.11-0.15-0.24-0.28-0.42-0.39c-0.18-0.11-0.39-0.2-0.67-0.26c-0.27-0.06-0.61-0.09-0.93-0.09
		c-0.32,0-0.63,0.02-0.91,0.07c-0.28,0.05-0.53,0.11-0.75,0.19s-0.42,0.17-0.61,0.28c-0.19,0.11-0.36,0.23-0.53,0.37
		s-0.33,0.31-0.49,0.5s-0.31,0.42-0.46,0.69c-0.15,0.27-0.29,0.59-0.4,0.91l-7.86,22.4c-0.12,0.34-0.21,0.69-0.25,0.99
		c-0.04,0.3-0.03,0.55,0.01,0.76c0.04,0.21,0.12,0.39,0.23,0.54s0.24,0.28,0.42,0.39c0.18,0.11,0.39,0.2,0.67,0.26
		c0.27,0.06,0.61,0.09,0.93,0.09c0.32,0,0.63-0.02,0.91-0.07c0.28-0.05,0.53-0.11,0.75-0.19s0.42-0.17,0.61-0.28
		c0.19-0.11,0.36-0.23,0.53-0.37s0.33-0.31,0.49-0.5c0.16-0.19,0.31-0.42,0.46-0.69c0.15-0.27,0.29-0.59,0.4-0.91l7.86-22.4
		c0.12-0.34,0.21-0.69,0.25-0.99s0.03-0.55-0.01-0.76C282.9,186.33,282.82,186.15,282.71,186z"/>
	<path fill="#CA282E" d="M245.43,186.43c-0.07-0.12-0.17-0.24-0.3-0.34c-0.13-0.1-0.28-0.19-0.48-0.27
		c-0.2-0.08-0.43-0.14-0.72-0.19s-0.64-0.07-0.98-0.07l-15.17-0.04c-0.32,0-0.64,0.01-0.92,0.04c-0.28,0.03-0.52,0.07-0.73,0.11
		s-0.4,0.1-0.56,0.16c-0.17,0.06-0.32,0.13-0.46,0.2c-0.14,0.07-0.28,0.16-0.41,0.25s-0.26,0.19-0.38,0.31
		c-0.13,0.12-0.25,0.25-0.38,0.41c-0.13,0.16-0.26,0.34-0.41,0.58c-0.15,0.24-0.31,0.52-0.48,0.91c-0.18,0.38-0.36,0.87-0.53,1.36
		l-6.68,19.04c-0.18,0.51-0.34,1.03-0.44,1.43s-0.13,0.71-0.14,0.95s0,0.43,0.03,0.59c0.03,0.16,0.08,0.3,0.14,0.41
		s0.13,0.22,0.22,0.31c0.09,0.09,0.19,0.17,0.32,0.25c0.13,0.07,0.28,0.14,0.46,0.2c0.19,0.06,0.41,0.11,0.69,0.14
		c0.28,0.03,0.61,0.05,0.95,0.05l15.97,0.04c0.36,0,0.71-0.02,1.03-0.07c0.32-0.05,0.6-0.11,0.84-0.19s0.47-0.17,0.66-0.28
		c0.2-0.1,0.37-0.22,0.54-0.34c0.16-0.13,0.31-0.27,0.45-0.43c0.14-0.16,0.27-0.34,0.39-0.54c0.12-0.2,0.22-0.43,0.3-0.66
		c0.08-0.23,0.14-0.46,0.17-0.67c0.03-0.21,0.02-0.38,0-0.55c-0.03-0.16-0.08-0.3-0.15-0.43s-0.17-0.24-0.29-0.35
		c-0.12-0.1-0.27-0.2-0.47-0.28c-0.19-0.08-0.43-0.15-0.72-0.19c-0.29-0.05-0.64-0.07-0.99-0.07l-13.65-0.03l2.54-7.25l11.55,0.03
		c0.36,0,0.71-0.02,1.03-0.06c0.32-0.04,0.59-0.11,0.84-0.18c0.25-0.08,0.46-0.16,0.65-0.26s0.36-0.21,0.52-0.32
		c0.16-0.12,0.3-0.25,0.43-0.39c0.13-0.15,0.25-0.31,0.36-0.49c0.11-0.18,0.2-0.39,0.28-0.6c0.07-0.21,0.13-0.43,0.15-0.62
		c0.02-0.19,0.02-0.36-0.01-0.51s-0.07-0.28-0.15-0.4c-0.07-0.12-0.16-0.23-0.29-0.33c-0.12-0.1-0.27-0.19-0.46-0.26
		c-0.19-0.08-0.43-0.14-0.72-0.19c-0.29-0.04-0.64-0.07-0.99-0.07l-11.55-0.03l2.09-5.97l12.85,0.03c0.36,0,0.72-0.02,1.04-0.07
		c0.32-0.04,0.6-0.11,0.85-0.19c0.25-0.08,0.47-0.17,0.66-0.27c0.2-0.1,0.37-0.21,0.53-0.33s0.3-0.25,0.43-0.4
		c0.13-0.15,0.25-0.31,0.36-0.5s0.21-0.39,0.28-0.6s0.13-0.42,0.15-0.62c0.02-0.19,0.02-0.36-0.01-0.51
		C245.56,186.7,245.5,186.56,245.43,186.43z"/>
	<polygon fill="#CA282E" points="214.17,224.42 204.9,251.9 224.49,251.95 226.3,246.6 213.33,246.57 220.8,224.44 	"/>
</g>
<g>
	<polygon fill="none" points="605.96,315.42 597.96,325.25 583.19,326.57 590.3,337.79 582.45,355.09 598.76,345.96 609.94,356.51 
		610.32,338.35 623.24,328.19 610.35,325.28 	"/>
	<polygon fill="none" points="617.86,215.17 609.86,224.99 595.09,226.32 602.2,237.54 594.35,254.83 610.66,245.71 621.84,256.26 
		622.22,238.1 635.14,227.94 622.25,225.02 	"/>
	<polygon fill="none" points="570.33,263.25 565.94,253.4 557.94,263.22 543.17,264.55 550.27,275.77 542.42,293.06 558.74,283.93 
		569.92,294.49 570.3,276.32 583.22,266.17 	"/>
	<polygon fill="none" points="665.72,250.95 657.72,260.78 642.95,262.1 650.05,273.32 642.2,290.62 658.52,281.49 669.69,292.04 
		670.08,273.88 683,263.72 670.11,260.81 	"/>
	<path fill="#112287" d="M716.57,217.6l-82.92-10.98h-0.01l-69.47,5.23l-15.52,2.66l-5.4,1.67l-22.92,140.88
		c-2.46,0.77-4.91,1.54-7.95,1.7c-3.04,0.16-6.65-0.29-10.26-0.73c-3.01,0.14-6,0.83-8.81,2.02s-5.44,2.85-6.26,4.69
		c-0.2,0.46-0.29,0.92-0.28,1.39v0.02c0.04,1.41,0.98,2.82,2.52,3.92c2.06,1.47,5.19,2.4,9.25,2.9c1.33,0.16,2.78,0.28,4.47,0.32
		h2.88c3.04-0.07,6.86-0.35,12-0.95c10.29-1.2,25.88-3.68,42.85-5.55c16.98-1.86,35.34-3.11,57.32-2.31
		c21.98,0.8,47.58,3.64,72.85,8.16L716.57,217.6L716.57,217.6z M569.92,294.49l-11.18-10.55l-16.31,9.13l7.85-17.3l-7.1-11.22
		l14.77-1.32l8-9.83l4.39,9.86l12.89,2.92l-12.92,10.15L569.92,294.49z M610.32,338.35l-0.38,18.16l-11.18-10.55l-16.31,9.13
		l7.85-17.3l-7.1-11.22l14.77-1.32l8-9.83l4.39,9.86l12.89,2.92L610.32,338.35z M622.22,238.1l-0.38,18.16l-11.18-10.55l-16.31,9.13
		l7.85-17.3l-7.1-11.22l14.77-1.32l8-9.83l4.39,9.86l12.89,2.92L622.22,238.1z M670.08,273.88l-0.38,18.16l-11.18-10.55l-16.31,9.13
		l7.85-17.3l-7.1-11.22l14.77-1.32l8-9.83l4.39,9.86l12.89,2.92L670.08,273.88z"/>
</g>
</svg>
