<?xml version="1.0" encoding="utf-8"?>
<!-- Generator: Adobe Illustrator 24.2.1, SVG Export Plug-In . SVG Version: 6.00 Build 0)  -->
<svg version="1.2" baseProfile="tiny" id="Layer_1" xmlns="http://www.w3.org/2000/svg" xmlns:xlink="http://www.w3.org/1999/xlink"
	 x="0px" y="0px" viewBox="0 0 735.79 283.13" overflow="visible" xml:space="preserve">
<g>
	<path fill="#FFFFFF" d="M736.43,2.17L90.91,1.65L-0.83,280.96v0l0.18,0l646.41,0.58L736.62,2.18L736.43,2.17z M36.19,212.32
		l99.39,0.02c12.68,0,25.18-4.62,34.61-9.4c9.43-4.78,15.75-10.84,20.11-17.21c4.36-6.37,6.75-13.03,7.86-18.9
		c1.11-5.87,0.93-10.95-0.52-16c-1.44-5.06-4.15-10.1-8.7-13.8c-4.55-3.71-10.94-6.09-17.36-6.51c4.25-0.99,8.38-2.46,12.76-4.57
		c4.38-2.12,9-4.89,12.77-7.87c3.77-2.98,6.69-6.18,8.93-9.48c2.24-3.3,3.8-6.71,4.81-10.57c1.01-3.86,1.49-8.16,1.34-11.99
		c-0.14-3.83-0.9-7.18-2.13-10.15c-1.24-2.97-2.96-5.56-5.55-8.03c-2.59-2.46-6.06-4.8-10.69-6.53c-4.63-1.73-10.42-3.08-16.21-3.09
		l-90.79-0.11l14.12-43.2L551,15.27l0.19,0l-14.22,43.24l-184.02-0.15l-22.28,67.94l-39-67.96l-42.74-0.03L198.44,212.1l42.79,0.03
		l25.71-78.31l49.9,78.77l28.02,0.02l39.92-121.68l44.89,0.04l-39.85,121.51l51.01,0.04l40-121.39l45.3,0.04l-58.35,177.76
		L18.04,268.4l-0.21,0v0L36.19,212.32z M115.03,119.65l13.04-39.01l13.12,0.01c1.98,0,3.95,0.39,5.77,0.79
		c1.82,0.39,3.5,0.9,5.03,1.91c1.53,1.02,2.91,2.54,3.9,4.64c0.99,2.1,1.59,4.78,1.67,7.37c0,0,0,0,0,0l-0.01,1.34
		c-0.08,2.13-0.52,4.27-1.44,6.64c-1.11,2.87-2.92,6.1-5.37,8.65c-2.45,2.54-5.55,4.4-9.15,5.68c-3.6,1.28-7.72,2-11.81,2
		L115.03,119.65L115.03,119.65z M141.3,158.39c-0.09,2.4-0.59,4.81-1.63,7.48c-1.26,3.24-3.29,6.88-6.05,9.75
		c-2.76,2.87-6.26,4.96-10.32,6.4c-4.07,1.45-8.7,2.26-13.32,2.25l-16.63-0.01l14.71-44l14.8,0.01c2.24,0,4.46,0.44,6.51,0.89
		s3.95,1.01,5.67,2.16c1.72,1.15,3.28,2.87,4.4,5.24c1.11,2.37,1.79,5.39,1.88,8.31c0,0,0,0,0,0L141.3,158.39z M631.55,269.01
		l-139.31-0.11l-0.19,0l83.32-253.86l139.52,0.11L631.55,269.01z"/>
	<path fill="#0055AC" d="M18.04,268.4l449.74,0.51l58.35-177.76l-45.3-0.04l-40,121.39l-51.01-0.04l39.85-121.51l-44.89-0.04
		l-39.92,121.68l-28.02-0.02l-49.9-78.77l-25.71,78.31l-42.79-0.03l50.48-153.78l42.74,0.03l39,67.96l22.28-67.94l184.02,0.15
		l14.22-43.24l-0.19,0l-450.04-0.36l-14.12,43.2l90.79,0.11c5.8,0.01,11.58,1.36,16.21,3.09c4.63,1.73,8.1,4.07,10.69,6.53
		c2.59,2.46,4.31,5.05,5.55,8.03c1.24,2.97,1.99,6.33,2.13,10.15c0.14,3.83-0.33,8.14-1.34,11.99c-1.01,3.86-2.57,7.27-4.81,10.57
		c-2.24,3.3-5.16,6.5-8.93,9.48c-3.77,2.98-8.39,5.75-12.77,7.87c-4.38,2.12-8.51,3.59-12.76,4.57c6.42,0.42,12.81,2.8,17.36,6.51
		c4.55,3.71,7.26,8.75,8.7,13.8c1.44,5.06,1.62,10.13,0.52,16c-1.11,5.87-3.51,12.54-7.86,18.9c-4.36,6.37-10.68,12.43-20.11,17.21
		c-9.43,4.78-21.93,9.4-34.61,9.4l-99.39-0.02L17.83,268.4v0L18.04,268.4z"/>
	<path fill="#0055AC" d="M139.42,148.56c-1.12-2.37-2.67-4.09-4.4-5.24c-1.72-1.14-3.61-1.71-5.67-2.16s-4.28-0.89-6.51-0.89
		l-14.8-0.01l-14.71,44l16.63,0.01c4.62,0,9.26-0.8,13.32-2.25c4.07-1.45,7.56-3.54,10.32-6.4c2.76-2.87,4.8-6.51,6.05-9.75
		c1.04-2.68,1.54-5.08,1.63-7.48l0.01-1.52c0,0,0,0,0,0C141.21,153.95,140.54,150.93,139.42,148.56z"/>
	<path fill="#0055AC" d="M141.59,117.66c3.6-1.28,6.7-3.14,9.15-5.68c2.45-2.54,4.25-5.77,5.37-8.65c0.92-2.38,1.36-4.51,1.44-6.64
		l0.01-1.34c0,0,0,0,0,0c-0.09-2.59-0.68-5.27-1.67-7.37c-0.99-2.1-2.37-3.63-3.9-4.64c-1.53-1.01-3.2-1.52-5.03-1.91
		c-1.82-0.39-3.79-0.79-5.77-0.79l-13.12-0.01l-13.04,39.01l0,0l14.75,0.01C133.87,119.66,137.98,118.94,141.59,117.66z"/>
	<polygon fill="#FF1D1D" points="492.04,268.9 492.23,268.9 631.55,269.01 714.88,15.15 575.36,15.04 	"/>
</g>
</svg>
