<?xml version="1.0" encoding="utf-8"?>
<!-- Generator: Adobe Illustrator 24.2.1, SVG Export Plug-In . SVG Version: 6.00 Build 0)  -->
<svg version="1.2" baseProfile="tiny" id="Layer_1" xmlns="http://www.w3.org/2000/svg" xmlns:xlink="http://www.w3.org/1999/xlink"
	 x="0px" y="0px" viewBox="0 0 1056.38 313.65" overflow="visible" xml:space="preserve">
<g>
	<g>
		<path fill-rule="evenodd" d="M392.53,269.01l-9.19,44.27l-80.02,0.37l11.23-54.09l-43.42-37.51l7.61-43.56L145.82,266.9L0,131
			L182.14,11.4l107.98,101.89l13.69-78.38l51.95-34.72l110.82,0.97l20.57,18.6l3.66-18.97L886.06,0l-2.34,10.67l16.14-10.22
			l110.45,1.06l46.07,41.53l-25.3,97.17l-0.29,0l-21.88,87.13l-57.87,37.74c0.32,1.68,0.48,3.39,0.48,5.11
			c-0.04,5.91-1.57,11.7-4.45,16.86c-2.34,4.16-5.4,7.87-9.04,10.96c-5.54,4.68-12.01,8.14-18.98,10.15
			c-5.33,1.52-10.82,2.39-16.36,2.6c-1.43,0.07-2.87,0.11-4.3,0.11l-46.59,0.22l8.95-43.11l-6.32,0.07l-6.28-5.85l-0.5,2.43
			l1.4-0.01l-9.66,46.53l-80.18,0.37l9.19-44.26l-11.45-0.08l-3.58,17.26l-17.07,0.08l-5.63,27.13l-58.65,0.27l5.63-27.13
			l-17.07,0.08l3.48-16.76l-11.41,0.05l-9.11,43.89l-58.65,0.27l9.11-43.89L577,268.52l-9.11,43.9l-96.86,0.45l9.15-44.1
			l-17.04-0.02l-9.17,44.2l-58.65,0.27l9.15-44.09L392.53,269.01"/>
	</g>
	<g>
		<path fill-rule="evenodd" fill="#A4A7AA" d="M824.91,211.93l38.9-163.82l42.03-26.62l96.31,0.92l30.71,27.68l-17.96,68.97
			l-76.07-0.8l7.91-33.89l-13.47-0.07l-24.5,100.06l13.38,0.46l9.18-39.63l76.57,0.03l-17.34,69.03l-48.93,31.91l-79.06,0.82
			L824.91,211.93 M730.37,246.03l50.58-224.71l78.66,0.26l-52.85,224.97L730.37,246.03z M583.81,247.51l5.57-226.37l78.68,1.51
			l-5.87,98.01l35.3-98.97l79.08,0.62l-86.6,224.71L583.81,247.51z M464.57,247.77l43.56-225.99l76.74,0.06l-44.19,226.03
			L464.57,247.77z M322.93,47.36l39.11-26.14l96.38,0.84l31.17,28.19l-12.88,69.3l-76.11-1.03l6.1-34.29l-13.23-0.08l-18,101.4
			l12.73,0.19l7.61-40.93l75.69,1.34l-13.43,70.02l-47.56,32.04l-77.92-0.81l-38.74-33.46L322.93,47.36z"/>
	</g>
	<g>
		<path fill-rule="evenodd" fill="#FFFFFF" d="M871.39,53.52l-36.93,155.52l31.47,29.29l73.1-0.76l43.99-28.69l13.82-55.04
			l-58.66-0.03l-9.24,39.86l-31.07-1.07l28.64-116.97l31.08,0.16l-7.92,33.95l58.59,0.62l14.94-57.38L998.81,31l-90.5-0.87
			L871.39,53.52 M787.84,29.97l-46.7,207.51l58.8,0.4l48.79-207.72L787.84,29.97z M597.78,29.93l-5.14,208.92l91.38-0.42l80-207.59
			l-60.49-0.47l-53.59,150.24l8.95-149.5L597.78,29.93z M515.25,30.41l-40.24,208.75l58.57,0.08L574.4,30.45L515.25,30.41z
			 M364.63,29.87l-33.84,22.62l-27.61,158.14l32.65,28.21l72.08,0.75l42.36-28.54l10.82-56.43l-58.14-1.03l-7.6,40.91l-30.13-0.45
			l21.04-118.54l30.73,0.19l-6.12,34.37l58.69,0.79l10.67-57.42l-25.16-22.76L364.63,29.87z"/>
	</g>
	<g>
		<polyline fill-rule="evenodd" fill="#FFFFFF" points="333.74,294.03 340.02,258.26 346.85,258.23 341.24,290.21 362.6,290.11 
			361.94,293.9 333.74,294.03 		"/>
		<polyline fill-rule="evenodd" fill="#FFFFFF" points="425.72,293.6 432,257.83 438.83,257.8 432.55,293.57 425.72,293.6 		"/>
		<polyline fill-rule="evenodd" fill="#FFFFFF" points="501.44,293.25 507.72,257.48 517.19,257.44 525.71,285.05 544.32,257.31 
			552.76,257.27 546.48,293.04 540.11,293.07 545.21,263.97 527.21,290.74 520.65,290.77 512.45,264.05 507.33,293.22 
			501.44,293.25 		"/>
		<polyline fill-rule="evenodd" fill="#FFFFFF" points="615.27,292.72 621.55,256.95 628.38,256.92 622.1,292.69 615.27,292.72 		
			"/>
		<polyline fill-rule="evenodd" fill="#FFFFFF" points="702.41,292.31 708.02,260.34 690.95,260.42 691.61,256.62 732.58,256.43 
			731.92,260.23 714.85,260.31 709.24,292.28 702.41,292.31 		"/>
		<polyline fill-rule="evenodd" fill="#FFFFFF" points="789.61,291.91 795.88,256.14 822.84,256.01 822.17,259.81 802.05,259.9 
			800.03,271.38 816.91,271.3 816.25,275.05 799.38,275.13 797.1,288.08 818.63,287.98 817.96,291.77 789.61,291.91 		"/>
		<path fill-rule="evenodd" fill="#FFFFFF" d="M889.7,287.65l8.73-0.04c4.54-0.02,8.04-0.57,10.48-1.65
			c2.45-1.08,4.51-2.79,6.2-5.11c1.68-2.33,2.77-4.91,3.27-7.77c0.44-2.51,0.29-4.8-0.45-6.87c-0.74-2.07-2.23-3.72-4.48-4.95
			c-2.25-1.24-6.65-1.84-13.2-1.81l-5.61,0.03L889.7,287.65 M882.21,291.48l6.27-35.77l15.99-0.07c6.17-0.03,10.74,0.61,13.69,1.93
			c2.95,1.31,5.11,3.25,6.47,5.79c1.36,2.55,1.73,5.61,1.1,9.21c-0.6,3.4-1.97,6.52-4.13,9.36c-2.15,2.84-5.07,5.13-8.75,6.85
			c-3.68,1.72-8.53,2.6-14.55,2.63L882.21,291.48z"/>
	</g>
	<g>
		<polyline fill-rule="evenodd" fill="#FFFFFF" points="161.41,148.84 95.77,192.54 147.96,240.4 213.34,197.46 161.41,148.84 		"/>
	</g>
	<g>
		<polyline fill-rule="evenodd" fill="#FFFFFF" points="99.54,89.92 33.9,133.63 86.09,181.49 151.46,138.55 99.54,89.92 		"/>
	</g>
	<g>
		<polyline fill-rule="evenodd" fill="#FFFFFF" points="179.93,38.07 114.3,81.77 166.49,129.64 231.86,86.7 179.93,38.07 		"/>
	</g>
	<g>
		<polyline fill-rule="evenodd" fill="#FFFFFF" points="240.64,95.68 175,139.39 227.19,187.25 292.56,144.31 240.64,95.68 		"/>
	</g>
</g>
</svg>
