<?xml version="1.0" encoding="utf-8"?>
<!-- Generator: Adobe Illustrator 24.2.1, SVG Export Plug-In . SVG Version: 6.00 Build 0)  -->
<svg version="1.2" baseProfile="tiny" id="Layer_1" xmlns="http://www.w3.org/2000/svg" xmlns:xlink="http://www.w3.org/1999/xlink"
	 x="0px" y="0px" viewBox="0 0 714.89 117.24" overflow="visible" xml:space="preserve">
<path d="M714.88,58.61c-0.01-32.21-26.12-58.33-58.33-58.33H58.62c-32.2,0-58.3,26.09-58.33,58.28v0.11
	c0.03,32.19,26.13,58.27,58.32,58.28h597.95c32.21-0.01,58.32-26.12,58.33-58.33V58.61z"/>
<g>
	<path fill="none" d="M562.05,53.1c1.06-1.18,2.05-2.42,2.97-3.71c0.94-1.32,1.8-2.69,2.59-4.1c1.65-2.94,3-6.03,4.04-9.22
		c-2.52,2.37-4.89,4.89-7.1,7.55c-1.05,1.26-2.05,2.56-3.01,3.89c-0.92,1.27-1.78,2.58-2.6,3.91c-1.55,2.54-2.89,5.21-3.99,7.97
		C557.56,57.56,559.93,55.45,562.05,53.1z"/>
	<path fill="none" d="M406.2,65.94c0.22-0.29,0.43-0.6,0.62-0.91c0.25-0.39,0.46-0.8,0.65-1.22c0.17-0.37,0.3-0.76,0.39-1.16
		c0.04-0.18,0.07-0.35,0.07-0.53c0-0.14-0.02-0.28-0.06-0.42c-0.03-0.1-0.06-0.19-0.1-0.28c-0.09-0.18-0.27-0.3-0.48-0.3
		c-0.73,0.13-1.44,0.34-2.12,0.62c-0.38,0.15-0.74,0.33-1.1,0.52c-0.4,0.21-0.79,0.44-1.16,0.69c-0.43,0.28-0.84,0.57-1.25,0.87
		c-0.69,0.52-1.36,1.06-2,1.63c-0.72,0.63-1.41,1.28-2.08,1.96c-1.96,1.99-3.76,4.14-5.36,6.42c0.4-0.05,0.8-0.1,1.2-0.15
		c0.6-0.07,1.2-0.14,1.79-0.2c0.28-0.03,0.57-0.04,0.85-0.05c0.31,0,0.61,0.01,0.92,0.04c0.66,0.08,1.31,0.19,1.95,0.35
		c1.69-1.63,3.33-3.32,4.91-5.06c0.54-0.59,1.07-1.2,1.57-1.82C405.69,66.62,405.95,66.29,406.2,65.94z"/>
	<path fill="none" d="M440.18,60.03c0.5-0.3,0.99-0.62,1.47-0.96c0.41-0.29,0.81-0.6,1.18-0.93c0.47-0.41,0.89-0.87,1.26-1.37
		c0.32-0.42,0.58-0.88,0.79-1.37c0.07-0.16,0.12-0.32,0.15-0.48c0.01-0.07,0.02-0.14,0.02-0.22c0-0.09-0.03-0.17-0.07-0.25
		c-0.04-0.09-0.1-0.18-0.16-0.26c-0.03-0.04-0.07-0.08-0.11-0.11c-0.04-0.03-0.09-0.05-0.15-0.05c-0.11-0.01-0.21-0.01-0.32,0
		c-0.19,0.02-0.38,0.05-0.57,0.09c-0.26,0.05-0.51,0.11-0.77,0.18c-1.19,0.31-2.34,0.75-3.43,1.31c-0.46,0.24-0.91,0.49-1.35,0.76
		c-0.72,0.44-1.41,0.93-2.07,1.44c-1.66,1.29-3.17,2.76-4.48,4.39c-0.77,0.95-1.47,1.94-2.1,2.98c2.71-1.07,5.36-2.28,7.94-3.62
		C438.35,61.1,439.27,60.58,440.18,60.03z"/>
	<path fill="none" d="M637.15,60.07c0.5-0.3,0.99-0.62,1.47-0.96c0.41-0.29,0.81-0.6,1.18-0.93c0.47-0.41,0.89-0.87,1.26-1.37
		c0.32-0.42,0.58-0.88,0.79-1.37c0.07-0.16,0.12-0.32,0.15-0.48c0.01-0.07,0.02-0.14,0.02-0.22c0-0.09-0.03-0.17-0.07-0.25
		c-0.04-0.09-0.1-0.18-0.16-0.26c-0.03-0.04-0.07-0.08-0.11-0.11c-0.04-0.03-0.09-0.05-0.15-0.05c-0.11-0.01-0.21-0.01-0.32,0.01
		c-0.19,0.02-0.38,0.05-0.57,0.09c-0.26,0.05-0.51,0.11-0.77,0.18c-1.19,0.31-2.34,0.75-3.43,1.31c-0.46,0.24-0.91,0.49-1.35,0.76
		c-0.72,0.44-1.41,0.93-2.07,1.44c-1.66,1.29-3.17,2.76-4.48,4.39c-0.77,0.95-1.47,1.94-2.1,2.98c2.71-1.07,5.36-2.28,7.94-3.62
		C635.32,61.14,636.24,60.62,637.15,60.07z"/>
	<path fill="none" d="M522.31,59.93c-1,0.45-1.99,0.91-2.98,1.39c-0.84,0.41-1.68,0.83-2.5,1.28c-0.89,0.47-1.75,0.99-2.58,1.56
		c-0.45,0.3-0.87,0.63-1.28,0.98c-1.27,1.05-2.22,2.42-2.75,3.96c-0.21,0.59-0.35,1.2-0.44,1.82c-0.04,0.26-0.05,0.53-0.03,0.8
		c0.02,0.22,0.08,0.43,0.18,0.62c0.16,0.35,0.39,0.67,0.69,0.93c0.14,0.11,0.31,0.18,0.48,0.19c0.2,0.01,0.41-0.01,0.61-0.06
		c0.25-0.06,0.49-0.13,0.72-0.22c0.55-0.21,1.08-0.45,1.6-0.73c0.97-0.52,1.92-1.09,2.82-1.72c0.59-0.4,1.16-0.82,1.73-1.25
		c0.98-0.75,1.94-1.52,2.88-2.31c1.06-0.9,2.09-1.81,3.11-2.75c3-2.79,5.86-5.74,8.54-8.82C529.45,56.9,525.85,58.35,522.31,59.93z"
		/>
	<path fill="none" d="M661.73,70.31c0.36-0.42,0.68-0.88,0.95-1.36c0.29-0.53,0.51-1.1,0.65-1.68c0.13-0.5,0.21-1,0.27-1.51
		c0.05-0.47,0.07-0.95,0.07-1.43c-0.01-0.51-0.05-1.01-0.13-1.51c-0.16-1.12-0.38-2.24-0.67-3.34c-0.11-0.43-0.23-0.85-0.36-1.27
		c-1.37,1.25-2.76,2.49-4.17,3.69c-1.58,1.35-3.17,2.68-4.77,4c-0.76,0.63-1.53,1.25-2.3,1.87l0,0.7c-0.11,0.11-0.21,0.22-0.32,0.32
		c0.56,0.04,1.12,0.14,1.67,0.3c0.57,0.17,1.1,0.42,1.59,0.75c0.45,0.31,0.88,0.66,1.27,1.05c0.19,0.19,0.38,0.39,0.57,0.59
		c0.59,0.65,1.13,1.35,1.6,2.08c0.96-0.54,1.87-1.16,2.71-1.87C660.83,71.27,661.3,70.81,661.73,70.31z"/>
	<polygon fill="#FFFFFF" points="80.05,72.36 58.86,72.35 58.86,62.21 80.05,62.22 80.05,52.73 58.86,52.73 58.86,42.89 
		79.99,42.89 79.99,33.25 45.82,33.25 45.81,81.96 80.05,81.97 	"/>
	<polygon fill="#FFFFFF" points="99.01,50.48 126.92,81.98 139.61,81.98 139.62,33.27 126.79,33.26 126.79,64.59 98.86,33.26 
		85.97,33.26 85.96,81.97 99.01,81.98 	"/>
	<path fill="#FFFFFF" d="M175.92,42.88c3.64,0,7.09,0.95,10.11,2.79c1.98,1.21,3.02,2.17,5.06,4.71l8.66-6.53
		c-3.02-3.61-4.52-4.98-7.39-6.73c-4.95-3.03-10.67-4.54-17.16-4.55c-16.82,0-30.32,11.03-30.33,24.76
		c0,14.34,12.97,25.38,29.82,25.39c6.17,0,12.83-1.67,17.56-4.41c6.36-3.68,11.3-11.05,11.3-16.84l0-6.31l-28.06-0.01l0,9.55
		l14.46,0c-2.15,3.72-3.57,5.06-6.72,6.36c-2.1,0.87-4.54,1.33-7.04,1.33c-9.99,0-17.88-6.58-17.88-14.92
		C158.33,49.55,166.36,42.88,175.92,42.88z"/>
	<rect x="208.01" y="33.28" fill="#FFFFFF" width="13.04" height="48.72"/>
	<polygon fill="#FFFFFF" points="240.01,33.29 227.12,33.28 227.11,82 240.15,82.01 240.16,50.51 268.07,82.01 280.76,82.01 
		280.77,33.3 267.94,33.29 267.94,64.62 	"/>
	<polygon fill="#FFFFFF" points="321.09,62.27 321.09,52.78 299.9,52.78 299.9,42.94 321.02,42.94 321.03,33.3 286.86,33.3 
		286.85,82.01 321.08,82.02 321.09,72.41 299.89,72.4 299.89,62.26 	"/>
	<path fill="#FFFFFF" d="M681.92,68.47l-0.09-3.45c-2.36,1.99-4.81,3.86-7.36,5.62c-1.19,0.83-2.42,1.61-3.68,2.34
		c-0.83,0.48-1.68,0.91-2.55,1.29c-1.55,0.67-3.18,1.11-4.86,1.31c-0.24,0.03-0.47,0.03-0.71,0.02c-0.16-0.02-0.31-0.04-0.47-0.07
		c-0.63-0.07-1.26-0.18-1.88-0.32c1.12-0.32,2.2-0.75,3.22-1.28c1.85-0.98,3.51-2.27,4.9-3.81c1.01-1.11,1.86-2.34,2.54-3.67
		c0.93-1.88,1.49-3.92,1.66-6c0.09-1.09,0.03-2.18-0.17-3.26c-0.15-0.78-0.33-1.56-0.53-2.33c-0.24-0.93-0.48-1.85-0.73-2.78
		c-0.1-0.4-0.19-0.79-0.26-1.2c-0.02-0.14-0.03-0.29-0.02-0.43c0.06-0.28,0.11-0.56,0.14-0.85c0.04-0.27,0.04-0.55-0.01-0.82
		c-0.04-0.25-0.18-0.47-0.39-0.62c-0.23-0.15-0.5-0.23-0.78-0.25c-0.56-0.03-1.12-0.02-1.67,0.04c-0.54,0.05-1.08,0.14-1.6,0.29
		c-0.38,0.11-0.74,0.26-1.08,0.45c-0.59,0.35-1.09,0.82-1.47,1.38c-0.61,0.91-1.02,1.92-1.21,2.99c-0.48,0.51-0.97,1.01-1.46,1.5
		c-1.22,1.21-2.47,2.41-3.74,3.57c-2.87,2.64-5.77,5.25-8.71,7.83l0,0.9c-0.39,0.31-0.78,0.61-1.17,0.91
		c-1.93,1.48-3.96,2.82-6.08,4.04c-1.28,0.74-2.62,1.39-3.99,1.94c-1.04,0.42-2.11,0.74-3.2,0.99c-0.7,0.15-1.4,0.25-2.12,0.29
		c-0.72,0.04-1.45-0.02-2.15-0.18c-1.8-0.43-3.25-1.74-3.82-3.45c-0.24-0.74-0.35-1.51-0.34-2.28v-0.39
		c3.91-0.81,7.71-2.08,11.3-3.78c1.82-0.86,3.57-1.86,5.23-3c1.11-0.76,2.15-1.62,3.1-2.57c0.46-0.46,0.88-0.96,1.28-1.48
		c0.56-0.73,1.03-1.51,1.41-2.33c0.25-0.53,0.44-1.08,0.57-1.65c0.08-0.33,0.12-0.68,0.12-1.02c0-0.53-0.18-1.05-0.52-1.46
		c-0.21-0.25-0.45-0.47-0.72-0.66c-0.34-0.23-0.71-0.42-1.1-0.56c-0.52-0.19-1.06-0.32-1.61-0.4c-0.6-0.09-1.2-0.14-1.8-0.15
		c-2.23-0.04-4.45,0.22-6.61,0.78c-2.01,0.54-3.94,1.32-5.75,2.33c-1.93,1.07-3.75,2.31-5.44,3.73c-1.24,1.04-2.4,2.16-3.47,3.38
		c-0.98,1.12-1.85,2.33-2.6,3.62c-0.59,1.02-1.07,2.11-1.42,3.23c-0.27,0.21-0.54,0.43-0.81,0.64c-1.6,1.25-3.27,2.43-4.99,3.53
		c-0.98,0.63-2.01,1.2-3.06,1.72c-0.74,0.36-1.5,0.66-2.29,0.89c-0.48,0.14-0.97,0.24-1.47,0.29c-1.29,0.13-2.58-0.28-3.54-1.13
		c-0.3-0.27-0.54-0.6-0.72-0.96c-0.22-0.49-0.35-1.01-0.4-1.53c-0.03-0.27-0.03-0.54,0.01-0.81c0.09-0.71,0.25-1.42,0.47-2.1
		c2.17-1.62,4.24-3.36,6.19-5.23c0.93-0.89,1.82-1.82,2.66-2.79c0.55-0.63,1.05-1.3,1.52-1.99c0.47-0.71,0.86-1.46,1.17-2.24
		c0.17-0.44,0.31-0.89,0.39-1.36c0.04-0.23,0.06-0.47,0.06-0.71c-0.01-0.23-0.06-0.46-0.15-0.68c-0.12-0.25-0.29-0.48-0.51-0.66
		c-0.33-0.28-0.74-0.48-1.18-0.56c-0.28-0.06-0.56-0.09-0.84-0.1c-1.02-0.04-2.03,0.09-3,0.39c-0.69,0.22-1.34,0.51-1.96,0.87
		c-0.84,0.49-1.63,1.04-2.38,1.65c-1.16,0.95-2.28,1.96-3.34,3.01c-1.03,0.99-1.99,2.05-2.89,3.15c-0.66,0.82-1.26,1.7-1.78,2.61
		c-0.96,1.69-1.61,3.53-1.92,5.44c-0.01,0.04-0.01,0.09-0.02,0.13c-1.62,1.22-3.27,2.4-4.95,3.54c-0.82,0.56-1.67,1.09-2.53,1.6
		c-0.75,0.45-1.53,0.85-2.34,1.2c-0.52,0.23-1.06,0.42-1.62,0.56c-0.38,0.1-0.76,0.17-1.15,0.18c-0.97,0.04-1.86-0.52-2.21-1.41
		c-0.11-0.32-0.16-0.66-0.15-1c0.01-0.53,0.06-1.06,0.14-1.59c0.28-1.76,0.77-3.48,1.49-5.12c0.66-1.52,1.44-2.99,2.34-4.39
		c1.28-2.02,2.74-3.94,4.36-5.71c0.48,0.01,0.97,0.02,1.45,0.03c0.96,0.03,1.92,0.01,2.87-0.08c0.61-0.06,1.21-0.22,1.78-0.45
		c0.64-0.28,1.23-0.64,1.78-1.07c1.08-0.86,2.1-1.79,3.03-2.81c0.72-0.79,1.41-1.62,2.04-2.49c0.23-0.29,0.44-0.6,0.65-0.91
		c0.1-0.16,0.19-0.33,0.25-0.51c0.05-0.15,0.04-0.32-0.02-0.47c-0.1-0.18-0.25-0.32-0.44-0.41c-0.42-0.22-0.87-0.38-1.33-0.47
		c-0.96-0.2-1.93-0.32-2.92-0.36l3.8-4.02c0.23-0.21,0.44-0.44,0.62-0.7c0.24-0.33,0.4-0.7,0.48-1.09c0.08-0.38-0.07-0.78-0.39-1.02
		c-0.24-0.17-0.5-0.31-0.78-0.41c-0.28-0.08-0.57-0.11-0.86-0.09c-0.7,0.05-1.4,0.15-2.08,0.32c-1.35,0.31-2.63,0.88-3.76,1.66
		c-0.67,0.48-1.31,1-1.9,1.57c-0.92,0.88-1.79,1.8-2.61,2.78c-0.23,0.29-0.47,0.57-0.71,0.84c-0.73,0.01-1.47,0.03-2.2,0.06
		c-1.1,0.05-2.21,0.14-3.3,0.28c-0.75,0.09-1.49,0.23-2.22,0.42c-0.63,0.17-1.23,0.43-1.77,0.79c-0.61,0.41-1.18,0.89-1.68,1.43
		c-1.01,1.04-1.92,2.17-2.72,3.37c-0.33,0.49-0.61,1-0.86,1.53c-0.08,0.18-0.15,0.37-0.18,0.56c-0.04,0.16,0.02,0.32,0.17,0.41
		c0.16,0.09,0.34,0.15,0.53,0.15c0.69,0.01,1.38,0.01,2.07,0.01c0.23,0,0.46,0,0.69,0.01c1.36,0.06,2.71,0.19,4.06,0.38
		c-1.56,1.82-3.18,3.59-4.86,5.3c-1.97,2-3.99,3.96-6.06,5.86l0.03,1.01c-1.37,1.1-2.75,2.17-4.16,3.23
		c-0.93,0.7-1.88,1.37-2.86,2.02c-0.75,0.49-1.52,0.94-2.33,1.34c-0.49,0.24-1.01,0.42-1.54,0.53c-1.15,0.23-2.33-0.06-3.24-0.77
		c-0.42-0.35-0.77-0.79-1.02-1.28c-0.38-0.75-0.64-1.56-0.78-2.39c-0.1-0.62-0.17-1.25-0.19-1.88c-0.03-0.89-0.03-1.77-0.02-2.66
		c4.64-3.03,8.92-6.55,12.78-10.48c1.01-1.03,1.98-2.1,2.91-3.2c1.46-1.71,2.78-3.52,3.94-5.43c1.13-1.84,2.05-3.79,2.75-5.82
		c0.91-2.66,1.51-5.41,1.79-8.2c0.04-0.39,0.05-0.78,0.04-1.17c-0.01-0.45-0.13-0.89-0.35-1.29c-0.13-0.26-0.3-0.5-0.51-0.7
		c-0.21-0.2-0.48-0.32-0.77-0.33c-0.22-0.01-0.44,0.01-0.66,0.05c-0.6,0.13-1.18,0.33-1.74,0.59c-0.95,0.43-1.85,0.94-2.7,1.53
		c-1.01,0.69-1.99,1.42-2.94,2.2c-2.82,2.3-5.46,4.81-7.88,7.51c-2.08,2.3-4.04,4.7-5.88,7.19c-0.65,0.87-1.28,1.76-1.89,2.66
		c-1.72,2.54-3.26,5.2-4.59,7.95c-0.81,1.68-1.51,3.41-2.09,5.18c-0.4,1.23-0.72,2.48-0.94,3.75c-1.15,0.89-2.34,1.75-3.55,2.57
		c-0.63,0.43-1.28,0.82-1.94,1.19c-0.69,0.38-1.42,0.7-2.18,0.95c-0.72,0.24-1.47,0.37-2.23,0.39c-0.6,0.01-1.18-0.16-1.68-0.49
		c-0.29-0.2-0.52-0.47-0.65-0.8c-0.07-0.21-0.09-0.42-0.07-0.64c0.03-0.38,0.1-0.76,0.21-1.13c0.22-0.77,0.51-1.51,0.88-2.22
		c0.45-0.87,0.97-1.71,1.56-2.5c0.55-0.74,1.11-1.48,1.68-2.2c0.54-0.68,1.05-1.37,1.54-2.09c0.29-0.42,0.55-0.86,0.79-1.31
		c0.15-0.26,0.26-0.54,0.35-0.82c0.04-0.13,0.05-0.28,0.01-0.42c-0.03-0.09-0.06-0.17-0.09-0.26c-0.09-0.34-0.24-0.67-0.44-0.96
		l-1.57-2.84l1.66-0.87c0.26-0.11,0.51-0.24,0.75-0.38c0.2-0.11,0.39-0.24,0.56-0.39c0.15-0.12,0.27-0.29,0.33-0.47
		c0.03-0.15,0.03-0.3,0-0.45c-0.11-0.58-0.34-1.13-0.68-1.62c-0.44-0.64-1.01-1.19-1.66-1.62c-0.6-0.4-1.3-0.63-2.03-0.68
		c-0.42-0.02-0.84,0.02-1.25,0.1c-0.91,0.18-1.82,0.37-2.72,0.58c-1.26,0.28-2.5,0.62-3.73,0.99c-2.48,0.77-4.92,1.65-7.32,2.65
		c-4.07,1.73-7.87,4.02-11.28,6.79c-0.97,0.79-1.9,1.63-2.78,2.52c-0.94,0.95-1.78,1.99-2.52,3.1c-0.42,0.63-0.79,1.3-1.11,1.99
		c-0.19,0.42-0.34,0.86-0.45,1.31c-1.49,1.15-3.03,2.23-4.63,3.24c-0.98,0.63-2.01,1.2-3.06,1.72c-0.74,0.36-1.5,0.66-2.29,0.89
		c-0.48,0.14-0.97,0.24-1.47,0.29c-1.29,0.13-2.58-0.28-3.54-1.13c-0.3-0.27-0.54-0.6-0.72-0.96c-0.22-0.49-0.35-1-0.4-1.53
		c-0.03-0.27-0.03-0.54,0.01-0.81c0.09-0.71,0.25-1.42,0.47-2.1c2.17-1.62,4.24-3.36,6.19-5.23c0.93-0.89,1.82-1.82,2.66-2.79
		c0.55-0.63,1.05-1.3,1.52-1.99c0.47-0.71,0.86-1.46,1.18-2.24c0.17-0.44,0.31-0.89,0.39-1.36c0.04-0.23,0.06-0.47,0.06-0.71
		c-0.01-0.23-0.06-0.46-0.15-0.68c-0.12-0.25-0.29-0.48-0.51-0.66c-0.33-0.28-0.74-0.48-1.18-0.56c-0.28-0.06-0.56-0.09-0.84-0.1
		c-1.02-0.04-2.03,0.09-3,0.39c-0.69,0.22-1.34,0.51-1.96,0.87c-0.84,0.49-1.63,1.04-2.38,1.65c-1.16,0.95-2.28,1.96-3.34,3.01
		c-1.03,0.99-1.99,2.05-2.89,3.15c-0.66,0.82-1.26,1.7-1.78,2.61c-0.94,1.65-1.58,3.44-1.89,5.29c-1.19,0.88-2.41,1.72-3.66,2.53
		c-0.85,0.55-1.72,1.07-2.61,1.57c-1.29,0.74-2.64,1.37-4.03,1.9c-1.38,0.52-2.82,0.88-4.28,1.09c-0.69,0.1-1.38,0.13-2.07,0.11
		c-0.62-0.02-1.23-0.13-1.82-0.32c-1.44-0.49-2.56-1.62-3.02-3.04c-0.14-0.45-0.24-0.92-0.28-1.39c-0.04-0.52-0.05-1.04-0.03-1.55
		c0.81-1,1.7-1.93,2.67-2.79c1.11-0.97,2.29-1.87,3.53-2.68c1.41-0.93,2.86-1.79,4.36-2.58c0,0.2,0.01,0.4,0.04,0.6
		c0.05,0.41,0.16,0.82,0.34,1.19c0.13,0.26,0.31,0.48,0.53,0.66c0.23,0.18,0.51,0.28,0.81,0.28c0.23,0,0.45-0.04,0.67-0.1
		c0.59-0.17,1.16-0.42,1.69-0.73c0.58-0.33,1.13-0.71,1.64-1.13c1.08-0.9,2.04-1.92,2.87-3.03c0.68-0.9,1.24-1.87,1.67-2.9
		c0.35-0.8,0.59-1.65,0.72-2.51c0.06-0.4,0.07-0.8,0.03-1.2c-0.09-0.75-0.49-1.42-1.12-1.86c-0.42-0.28-0.88-0.48-1.38-0.58
		c-0.41-0.09-0.82-0.13-1.24-0.14c-0.74-0.01-1.48,0.05-2.21,0.18c-1.4,0.24-2.76,0.62-4.08,1.14c-1.38,0.52-2.72,1.13-4.01,1.82
		c-2.58,1.36-5,3-7.21,4.88c-1.01,0.85-1.95,1.77-2.82,2.76c-1.27,1.44-2.29,3.06-3.03,4.81c-0.37,0.86-0.64,1.76-0.81,2.68
		c-0.08,0.06-0.17,0.13-0.25,0.19c-1.93,1.48-3.96,2.82-6.08,4.04c-1.28,0.74-2.62,1.39-3.99,1.94c-1.04,0.42-2.11,0.74-3.2,0.99
		c-0.7,0.15-1.4,0.25-2.12,0.29c-0.72,0.04-1.45-0.02-2.15-0.18c-1.8-0.43-3.25-1.74-3.82-3.45c-0.24-0.74-0.35-1.51-0.34-2.28
		v-0.39c3.91-0.81,7.71-2.08,11.3-3.78c1.82-0.86,3.57-1.86,5.23-3c1.11-0.76,2.15-1.62,3.1-2.57c0.46-0.46,0.88-0.96,1.28-1.48
		c0.56-0.73,1.03-1.51,1.41-2.33c0.25-0.53,0.44-1.08,0.57-1.65c0.08-0.33,0.12-0.68,0.12-1.02c0-0.53-0.18-1.05-0.52-1.46
		c-0.21-0.25-0.45-0.47-0.72-0.66c-0.34-0.23-0.71-0.42-1.1-0.56c-0.52-0.19-1.06-0.32-1.61-0.4c-0.6-0.09-1.2-0.14-1.8-0.15
		c-2.23-0.04-4.45,0.22-6.61,0.78c-2.01,0.54-3.94,1.32-5.75,2.33c-1.93,1.07-3.75,2.31-5.44,3.73c-1.24,1.04-2.4,2.16-3.47,3.38
		c-0.98,1.12-1.85,2.33-2.6,3.62c-0.8,1.38-1.38,2.87-1.74,4.41c-0.03,0.15-0.06,0.3-0.09,0.44c-1.67,1.37-3.4,2.68-5.19,3.91
		c-0.85,0.59-1.74,1.13-2.65,1.61c-1.67,0.88-3.49,1.45-5.37,1.66c-0.36,0.05-0.72,0.05-1.08,0.02c-0.59-0.14-1.18-0.27-1.78-0.37
		c1.3-1.02,2.55-2.09,3.75-3.22c1.76-1.62,3.39-3.35,4.9-5.19c0.79-0.96,1.51-1.96,2.16-3.01c1.33-2.08,2.18-4.4,2.51-6.83
		c0.06-0.44,0.07-0.89,0.04-1.33c-0.04-0.96-0.61-1.82-1.49-2.25c-0.58-0.27-1.22-0.38-1.86-0.31c-0.88,0.1-1.74,0.29-2.56,0.59
		c-1.25,0.44-2.47,0.98-3.64,1.6c-1.67,0.88-3.29,1.84-4.86,2.9c-2.37,1.59-4.64,3.31-6.79,5.17l4.88-7.38
		c0.56-0.85,1.15-1.67,1.77-2.48c0.99-1.29,2.03-2.55,3.11-3.77c0.93-1.03,1.84-2.08,2.74-3.14c0.56-0.67,1.06-1.38,1.5-2.13
		c0.18-0.31,0.32-0.65,0.4-1c0.07-0.28,0.01-0.57-0.17-0.8c-0.16-0.18-0.34-0.33-0.55-0.45c-0.48-0.28-1.03-0.45-1.59-0.49
		c-1.62-0.09-3.23,0.27-4.64,1.04c-0.92,0.52-1.76,1.14-2.51,1.87c-1.27,1.2-2.44,2.49-3.5,3.87c-1.57,1.93-3.16,3.84-4.78,5.72
		c-1.43,1.68-2.9,3.32-4.41,4.94c-1.24,1.33-2.53,2.61-3.85,3.85c-0.26-0.72-0.63-1.4-1.09-2.01c-0.69-0.93-1.51-1.77-2.43-2.49
		c-0.96-0.76-1.99-1.45-3.06-2.06c-1.31-0.74-2.67-1.4-4.07-1.97c-3.23-1.33-6.55-2.44-9.95-3.31c-1.94-0.46-3.88-0.95-5.81-1.46
		c-1.5-0.39-2.99-0.84-4.47-1.33c-0.92-0.3-1.82-0.68-2.67-1.14c-0.35-0.19-0.66-0.44-0.93-0.72c-0.32-0.33-0.44-0.79-0.33-1.22
		c0.11-0.37,0.29-0.71,0.54-1c0.5-0.58,1.08-1.1,1.71-1.54c0.77-0.54,1.59-1.02,2.43-1.44c1.55-0.77,3.16-1.42,4.81-1.96
		c2.97-0.95,6.02-1.63,9.12-2.03c2.71-0.35,5.44-0.6,8.17-0.73c0.99-0.06,1.99-0.09,2.99-0.09c0.85,0.05,1.69,0.07,2.54,0.08
		c-1.4,0.89-2.78,1.81-4.14,2.75c-0.7,0.5-1.36,1.07-1.95,1.69c-0.26,0.27-0.47,0.59-0.63,0.92c-0.05,0.13-0.06,0.26-0.04,0.39
		c0.16,0.43,0.57,0.71,1.04,0.72c0.32-0.02,0.64-0.1,0.93-0.25c0.46-0.23,0.91-0.48,1.35-0.75c0.52-0.31,1.06-0.61,1.61-0.88
		c2.65-1.25,5.35-2.38,8.1-3.39c0.93-0.32,1.81-0.77,2.61-1.33c1.07-0.74,1.92-1.74,2.49-2.89c0.35-0.7,0.64-1.42,0.86-2.17
		c0.2-0.62,0.32-1.25,0.35-1.9c0.02-0.45-0.07-0.9-0.26-1.32c-0.26-0.51-0.67-0.93-1.17-1.21c-0.42-0.26-0.87-0.47-1.34-0.64
		c-1-0.35-2.02-0.61-3.06-0.8c-2.38-0.43-4.79-0.65-7.21-0.68c-2.75-0.03-5.5,0.08-8.23,0.35c-5.37,0.47-10.67,1.5-15.81,3.09
		c-1.9,0.59-3.76,1.27-5.57,2.06c-1.31,0.56-2.59,1.21-3.82,1.93c-0.88,0.51-1.72,1.1-2.49,1.76c-1.04,0.9-1.89,1.99-2.49,3.22
		c-0.76,1.48-1.35,3.04-1.74,4.65c-0.33,1.27-0.53,2.57-0.6,3.87c-0.04,0.79,0.01,1.59,0.15,2.37c0.26,1.42,1.06,2.68,2.25,3.54
		c0.53,0.39,1.1,0.72,1.7,1c0.95,0.44,1.94,0.82,2.94,1.13c1.09,0.34,2.19,0.66,3.3,0.94c2.19,0.55,4.38,1.08,6.58,1.57
		c2.72,0.61,5.44,1.24,8.15,1.89c1.35,0.32,2.69,0.67,4.02,1.06c1.11,0.31,2.19,0.69,3.25,1.14c0.64,0.27,1.23,0.61,1.78,1.03
		c0.46,0.34,0.84,0.77,1.11,1.27c0.24,0.41,0.28,0.89,0.11,1.33c-0.11,0.28-0.28,0.53-0.5,0.74c-0.55,0.52-1.18,0.96-1.87,1.27
		c-1.26,0.59-2.56,1.09-3.9,1.5c-5.2,1.61-10.56,2.68-16,3.2c-2.82,0.25-5.64,0.38-8.47,0.38c-1.59-0.04-3.17-0.11-4.75-0.22
		c-1.06-0.07-2.11-0.16-3.16-0.26c0.24-0.1,0.48-0.2,0.72-0.32c1.09-0.51,2.03-1.28,2.73-2.24c-1.75,0.09-3.49,0.32-5.2,0.71
		c-0.84,0.19-1.67,0.45-2.46,0.79c-0.57,0.25-1.1,0.58-1.56,0.99c-0.39,0.36-0.74,0.75-1.05,1.16c-0.46,0.62-0.88,1.27-1.26,1.94
		c-0.38,0.67-0.75,1.34-1.13,2.01c-0.19,0.32-0.37,0.64-0.54,0.97c-0.21,0.4-0.28,0.85-0.18,1.29c0.1,0.4,0.29,0.78,0.55,1.11
		c0.5,0.63,1.13,1.15,1.84,1.55c0.94,0.51,1.94,0.92,2.98,1.21c1.94,0.53,3.92,0.9,5.93,1.08c1.94,0.18,3.88,0.27,5.82,0.26
		c3.84-0.02,7.67-0.27,11.48-0.74c3.73-0.46,7.43-1.16,11.07-2.1c1.75-0.45,3.47-0.99,5.16-1.6c1.1-0.4,2.18-0.87,3.23-1.39
		c1.84-0.91,3.48-2.16,4.82-3.69c1.46-1.7,2.69-3.57,3.65-5.58c0.18-0.39,0.34-0.78,0.47-1.19c0.42-0.36,0.83-0.72,1.24-1.08
		c2.21-1.93,4.34-3.93,6.39-6.01l-7.03,12.19c-0.44,0.76-0.9,1.52-1.37,2.27c-0.73,1.18-1.52,2.31-2.37,3.41
		c-0.53,0.67-1.08,1.33-1.64,1.98c-1.97,2.25-3.65,4.72-5,7.37c-0.71,1.4-1.27,2.87-1.68,4.38c-0.5,1.96-0.77,3.97-0.8,5.99
		c0,0.42,0.04,0.84,0.12,1.24c0.15,0.68,0.54,1.3,1.1,1.73c0.22,0.17,0.49,0.26,0.76,0.26h0.01c0.09,0,0.18-0.01,0.27-0.03
		c0.4-0.1,0.77-0.27,1.1-0.5c0.7-0.5,1.31-1.11,1.83-1.79c0.71-0.94,1.36-1.93,1.93-2.95c0.63-1.11,1.24-2.23,1.82-3.36
		c1.84-3.55,3.58-7.15,5.23-10.79c0.36,0.1,0.72,0.19,1.08,0.27c0.83,0.2,1.68,0.28,2.54,0.23c0.94-0.06,1.87-0.19,2.78-0.38
		c0.68,0.43,1.42,0.78,2.19,1.04c0.84,0.27,1.71,0.49,2.58,0.64c0.77,0.17,1.56,0.25,2.36,0.23c0.67-0.02,1.34-0.09,2-0.21
		c1.81-0.34,3.56-0.91,5.22-1.68c1.51-0.71,2.97-1.53,4.36-2.44c1.27-0.82,2.51-1.69,3.72-2.6c1.53-1.14,3.02-2.33,4.48-3.55
		c0.06,0.62,0.15,1.24,0.28,1.85c0.17,0.82,0.44,1.61,0.78,2.38c0.38,0.82,0.89,1.58,1.51,2.24c0.98,1.02,2.21,1.79,3.57,2.23
		c0.89,0.29,1.8,0.47,2.73,0.54c1.38,0.11,2.78,0.05,4.14-0.19c1.55-0.26,3.07-0.69,4.52-1.28c1.48-0.61,2.91-1.34,4.27-2.17
		c1.21-0.74,2.38-1.53,3.52-2.38c1.79-1.33,3.52-2.75,5.18-4.23c0.12,1.01,0.35,2.01,0.68,2.98c0.66,1.97,1.76,3.77,3.24,5.26
		c0.67,0.68,1.44,1.27,2.28,1.75c1.55,0.88,3.36,1.22,5.13,0.96c0.72-0.1,1.44-0.27,2.13-0.5c0.98-0.33,1.94-0.73,2.86-1.19
		c0.91-0.46,1.79-0.95,2.65-1.48c1.67-1.05,3.28-2.18,4.82-3.4c1.47-1.16,2.9-2.37,4.29-3.63c0,0.05,0.01,0.1,0.01,0.16
		c0.07,0.89,0.21,1.76,0.43,2.63c0.22,0.9,0.56,1.78,1.01,2.6c0.36,0.66,0.82,1.26,1.35,1.79c0.89,0.88,2.02,1.5,3.25,1.79
		c0.69,0.16,1.41,0.24,2.12,0.22c1.01-0.03,2.01-0.19,2.97-0.49c0.85-0.26,1.68-0.6,2.47-1c1.19-0.61,2.32-1.31,3.39-2.1
		c1-0.73,1.96-1.5,2.89-2.3c1.4-1.21,2.75-2.47,4.06-3.78c0.22,0.78,0.52,1.55,0.88,2.28c0.9,1.84,2.08,3.54,3.49,5.05
		c0.38,0.4,0.8,0.76,1.26,1.06c0.4,0.26,0.86,0.42,1.34,0.47c0.43,0.03,0.86-0.03,1.26-0.17c0.37-0.12,0.73-0.27,1.08-0.45
		c0.49-0.25,0.97-0.53,1.44-0.82c1.84-1.16,3.62-2.43,5.3-3.8c2.32-1.87,4.56-3.84,6.71-5.89l-0.04,0.16
		c-0.65,1.76-1.23,3.55-1.73,5.35c-0.16,0.56-0.28,1.13-0.36,1.71c-0.08,0.57-0.07,1.14,0.03,1.71c0.25,1.39,1.12,2.6,2.38,3.29
		c0.83,0.46,1.79,0.67,2.75,0.6c0.72-0.05,1.43-0.2,2.11-0.44c0.67-0.23,1.32-0.52,1.95-0.87c1.04-0.58,2.03-1.24,2.97-1.97
		c1.02-0.78,2.01-1.58,2.98-2.42c1.82-1.56,3.61-3.16,5.37-4.8c0.17,2.19,0.89,4.31,2.08,6.18c0.61,0.96,1.36,1.83,2.25,2.57
		c0.56,0.47,1.19,0.86,1.87,1.15c0.96,0.41,2.02,0.55,3.05,0.41c0.92-0.14,1.82-0.42,2.66-0.83c0.83-0.39,1.64-0.84,2.41-1.34
		c1.31-0.84,2.58-1.74,3.81-2.7c1.93-1.52,3.81-3.1,5.62-4.76c1.17-1.07,2.33-2.14,3.48-3.22c-0.64,1.2-1.19,2.44-1.64,3.72
		c-0.32,0.89-0.56,1.8-0.73,2.72c-0.11,0.61-0.16,1.22-0.15,1.83c0,0.71,0.12,1.42,0.35,2.1c0.24,0.69,0.67,1.3,1.24,1.77
		c0.72,0.58,1.58,0.97,2.49,1.13c0.67,0.11,1.35,0.13,2.02,0.05c1.04-0.11,2.07-0.33,3.06-0.66c0.99-0.32,1.95-0.7,2.88-1.15
		c0.93-0.45,1.85-0.95,2.73-1.49c1.73-1.07,3.41-2.22,5.03-3.45c1.51-1.15,2.98-2.33,4.43-3.56c0,0.05,0.01,0.09,0.01,0.14
		c0.07,0.89,0.21,1.76,0.43,2.63c0.22,0.9,0.56,1.78,1.01,2.6c0.36,0.66,0.82,1.26,1.35,1.79c0.89,0.88,2.02,1.5,3.25,1.79
		c0.69,0.16,1.41,0.24,2.12,0.22c1.01-0.03,2.01-0.19,2.97-0.49c0.85-0.26,1.68-0.6,2.47-1c1.19-0.61,2.32-1.31,3.39-2.1
		c1-0.73,1.96-1.5,2.89-2.3c1.5-1.3,2.95-2.66,4.35-4.07c0.02,0.98,0.14,1.96,0.34,2.92c0.17,0.82,0.44,1.61,0.78,2.38
		c0.38,0.82,0.89,1.58,1.51,2.24c0.98,1.02,2.21,1.79,3.57,2.23c0.89,0.29,1.8,0.47,2.73,0.54c1.38,0.11,2.78,0.05,4.14-0.19
		c1.55-0.26,3.07-0.69,4.52-1.28c1.48-0.61,2.91-1.34,4.27-2.17c1.21-0.74,2.38-1.53,3.52-2.38c1.04-0.77,2.05-1.57,3.05-2.4
		c0.03,0.19,0.08,0.38,0.13,0.57c0.4,1.49,1.17,2.85,2.26,3.97c0.58,0.6,1.22,1.13,1.91,1.61c1.37,0.96,2.9,1.69,4.51,2.19
		c1.23,0.37,2.52,0.56,3.81,0.54c1.24-0.03,2.48-0.22,3.67-0.57c1.05-0.3,2.07-0.68,3.06-1.13c0.96-0.43,1.9-0.91,2.81-1.43
		c1.76-1.01,3.47-2.12,5.1-3.32c3.12-2.29,6.09-4.77,8.87-7.43V68.47z M628.53,62.26c1.31-1.63,2.82-3.1,4.48-4.39
		c0.66-0.52,1.36-1,2.07-1.44c0.44-0.27,0.89-0.53,1.35-0.76c1.09-0.56,2.24-1,3.43-1.31c0.25-0.07,0.51-0.13,0.77-0.18
		c0.19-0.04,0.38-0.07,0.57-0.09c0.11-0.01,0.21-0.01,0.32-0.01c0.05,0.01,0.1,0.02,0.15,0.05c0.04,0.03,0.08,0.07,0.11,0.11
		c0.06,0.08,0.12,0.17,0.16,0.26c0.04,0.08,0.07,0.16,0.07,0.25c0,0.07,0,0.14-0.02,0.22c-0.03,0.16-0.09,0.33-0.15,0.48
		c-0.2,0.49-0.47,0.95-0.79,1.37c-0.37,0.5-0.79,0.96-1.26,1.37c-0.38,0.33-0.77,0.64-1.18,0.93c-0.48,0.34-0.97,0.66-1.47,0.96
		c-0.91,0.55-1.83,1.06-2.78,1.55c-2.58,1.34-5.23,2.54-7.94,3.62C627.06,64.2,627.77,63.21,628.53,62.26z M558.95,51.41
		c0.81-1.34,1.68-2.64,2.6-3.91c0.96-1.33,1.96-2.62,3.01-3.89c2.2-2.66,4.58-5.18,7.1-7.55c-1.04,3.19-2.39,6.28-4.04,9.22
		c-0.79,1.41-1.66,2.78-2.59,4.1c-0.92,1.29-1.91,2.53-2.97,3.71c-2.11,2.35-4.49,4.46-7.09,6.28
		C556.06,56.62,557.4,53.96,558.95,51.41z M431.56,62.22c1.31-1.63,2.82-3.1,4.48-4.39c0.66-0.52,1.36-1,2.07-1.44
		c0.44-0.27,0.89-0.53,1.35-0.76c1.09-0.56,2.24-1,3.43-1.31c0.25-0.07,0.51-0.13,0.77-0.18c0.19-0.04,0.38-0.07,0.57-0.09
		c0.11-0.01,0.21-0.01,0.32,0c0.05,0.01,0.1,0.02,0.15,0.05c0.04,0.03,0.08,0.07,0.11,0.11c0.06,0.08,0.12,0.17,0.16,0.26
		c0.04,0.08,0.07,0.16,0.07,0.25c0,0.07,0,0.14-0.02,0.22c-0.03,0.16-0.09,0.33-0.15,0.48c-0.2,0.49-0.47,0.95-0.79,1.37
		c-0.37,0.5-0.79,0.96-1.26,1.37c-0.38,0.33-0.77,0.64-1.18,0.93c-0.48,0.34-0.97,0.66-1.47,0.96c-0.91,0.55-1.83,1.06-2.78,1.55
		c-2.58,1.34-5.23,2.54-7.94,3.62C430.09,64.16,430.79,63.17,431.56,62.22z M398.93,73.83c-0.64-0.16-1.3-0.27-1.95-0.35
		c-0.3-0.03-0.61-0.05-0.92-0.04c-0.28,0.01-0.57,0.02-0.85,0.05c-0.6,0.06-1.2,0.12-1.79,0.2c-0.4,0.05-0.8,0.1-1.2,0.15
		c1.61-2.28,3.4-4.42,5.36-6.42c0.67-0.68,1.36-1.33,2.08-1.96c0.64-0.57,1.31-1.11,2-1.63c0.41-0.3,0.82-0.59,1.25-0.87
		c0.38-0.25,0.77-0.47,1.16-0.69c0.36-0.19,0.72-0.36,1.1-0.52c0.68-0.28,1.39-0.49,2.12-0.62c0.21,0,0.39,0.12,0.48,0.3
		c0.04,0.09,0.08,0.18,0.1,0.28c0.04,0.14,0.06,0.28,0.06,0.42c0,0.18-0.03,0.36-0.07,0.53c-0.09,0.4-0.22,0.78-0.39,1.16
		c-0.19,0.42-0.41,0.83-0.65,1.22c-0.2,0.31-0.4,0.61-0.62,0.91c-0.25,0.34-0.52,0.68-0.79,1.01c-0.51,0.62-1.04,1.23-1.57,1.82
		C402.26,70.51,400.62,72.2,398.93,73.83z M524.56,64.41c-1.01,0.94-2.05,1.86-3.11,2.75c-0.94,0.8-1.9,1.57-2.88,2.31
		c-0.57,0.43-1.14,0.85-1.73,1.25c-0.9,0.63-1.85,1.2-2.82,1.72c-0.52,0.27-1.05,0.52-1.6,0.73c-0.24,0.09-0.48,0.16-0.72,0.22
		c-0.2,0.05-0.4,0.07-0.61,0.06c-0.18-0.01-0.35-0.08-0.48-0.19c-0.29-0.26-0.53-0.58-0.69-0.93c-0.1-0.2-0.16-0.41-0.18-0.62
		c-0.02-0.27-0.01-0.53,0.03-0.8c0.08-0.62,0.23-1.23,0.44-1.82c0.53-1.54,1.48-2.91,2.75-3.96c0.41-0.35,0.84-0.67,1.28-0.98
		c0.83-0.56,1.7-1.08,2.58-1.56c0.82-0.44,1.66-0.87,2.5-1.28c0.98-0.48,1.98-0.94,2.98-1.39c3.54-1.59,7.14-3.04,10.79-4.34
		C530.41,58.67,527.56,61.62,524.56,64.41z M657.62,73.57c-0.48-0.74-1.01-1.43-1.6-2.08c-0.18-0.2-0.37-0.4-0.57-0.59
		c-0.39-0.39-0.81-0.74-1.27-1.05c-0.48-0.33-1.02-0.58-1.59-0.75c-0.54-0.16-1.1-0.26-1.67-0.3c0.11-0.11,0.22-0.22,0.32-0.32
		l0-0.7c0.77-0.62,1.54-1.24,2.3-1.87c1.6-1.32,3.19-2.65,4.77-4c1.41-1.21,2.8-2.44,4.17-3.69c0.13,0.42,0.25,0.85,0.36,1.27
		c0.29,1.1,0.52,2.21,0.67,3.34c0.08,0.5,0.12,1,0.13,1.51c0,0.48-0.02,0.95-0.07,1.43c-0.05,0.51-0.14,1.01-0.27,1.51
		c-0.14,0.58-0.36,1.15-0.65,1.68c-0.27,0.48-0.58,0.94-0.95,1.36c-0.43,0.5-0.9,0.96-1.4,1.38
		C659.49,72.41,658.59,73.04,657.62,73.57z"/>
	<path fill="#FFFFFF" d="M504.55,39.01c-0.28,0.02-0.56,0.05-0.84,0.1c-0.63,0.12-1.24,0.3-1.83,0.56c-0.52,0.22-1.01,0.5-1.47,0.83
		c-0.2,0.15-0.4,0.3-0.59,0.47c-0.64,0.54-1.18,1.18-1.63,1.88c-0.47,0.75-0.8,1.57-0.99,2.43c-0.07,0.31-0.11,0.62-0.13,0.94
		c-0.01,0.21,0,0.43,0.04,0.64c0.03,0.18,0.08,0.35,0.16,0.52c0.13,0.28,0.32,0.54,0.55,0.76c0.23,0.23,0.49,0.42,0.78,0.57
		c0.34,0.18,0.71,0.29,1.09,0.32c0.26,0.02,0.52,0.01,0.77-0.02c0.49-0.07,0.97-0.19,1.43-0.36c0.8-0.3,1.54-0.72,2.2-1.26
		c0.85-0.69,1.58-1.51,2.16-2.42c0.45-0.72,0.79-1.5,1-2.32c0.05-0.21,0.1-0.43,0.13-0.65c0.04-0.29,0.05-0.58,0.01-0.87
		c-0.13-1.05-0.96-1.9-2.04-2.07C505.08,39.01,504.81,39,504.55,39.01z"/>
	<path fill="#FFFFFF" d="M619.4,39.08c-0.26-0.04-0.52-0.05-0.78-0.04h-0.01c-0.28,0.02-0.56,0.05-0.83,0.1
		c-0.63,0.12-1.24,0.3-1.83,0.55c-0.52,0.22-1.01,0.5-1.47,0.83c-0.2,0.15-0.4,0.3-0.59,0.47c-0.64,0.54-1.18,1.18-1.63,1.88
		c-0.47,0.75-0.8,1.57-0.99,2.43c-0.07,0.31-0.11,0.62-0.13,0.93v0.03c-0.01,0.21,0,0.41,0.03,0.62c0.03,0.18,0.08,0.35,0.16,0.52
		c0.13,0.28,0.32,0.54,0.55,0.76c0.23,0.23,0.49,0.42,0.78,0.57c0.34,0.18,0.71,0.29,1.09,0.32c0.26,0.02,0.52,0.01,0.77-0.02
		c0.49-0.07,0.97-0.19,1.43-0.36c0.8-0.3,1.54-0.72,2.2-1.26c0.85-0.69,1.58-1.51,2.16-2.43c0.45-0.72,0.79-1.5,1-2.32
		c0.05-0.21,0.1-0.43,0.13-0.65c0.04-0.29,0.04-0.58,0.01-0.86v-0.01C621.31,40.09,620.48,39.25,619.4,39.08z"/>
</g>
</svg>
