<?xml version="1.0" encoding="utf-8"?>
<!-- Generator: Adobe Illustrator 24.2.1, SVG Export Plug-In . SVG Version: 6.00 Build 0)  -->
<svg version="1.2" baseProfile="tiny" xmlns="http://www.w3.org/2000/svg" xmlns:xlink="http://www.w3.org/1999/xlink" x="0px"
	 y="0px" viewBox="0 0 452.11 366.42" overflow="visible" xml:space="preserve">
<g id="Layer_2">
</g>
<g id="Layer_1">
	<g>
		<path fill="#FFFFFF" d="M347.9,244.76l3.36-8.83c7.06,1.83,15.57,2.85,23.66,2.85c30.5-0.02,51.15-13.88,56.66-38.04
			c2.2-9.35,0.93-16.61-1.46-22.01l3.31-14.6l3.87-16.52l3.27-14.4v0l-14.2-4.14c-6.43-1.86-14.41-2.89-22.5-2.89
			c-11.91,0-22.43,2.15-31.06,6.22l-1.74-4.94c-11.06-31.3-35.6-55.23-67.2-67.67l6.23-26.59l3.4-14.74l-14.54-3.95
			c-12.43-3.36-23.9-4.96-35.03-4.97c-2.23,0-4.46,0.05-6.68,0.16l-2.98,0.16c-64.25,4.22-126.21,49.95-149.83,111.81l-2.24,5.89
			L37,127.56l-25.23,109.9l0,0l68.93,0l0.51,1.49c11.11,31.31,35.6,55.24,67.18,67.68l-6.2,26.62l-3.44,14.7l14.6,3.98
			c12.41,3.31,23.84,4.97,35.02,4.93c2.1,0,4.2-0.05,6.3-0.14l3.42-0.19C262.29,352.3,324.22,306.64,347.9,244.76z M197.1,340.97
			l-0.94,0.05c-2.59,0.15-5.19,0.24-7.8,0.23c-11.02-0.02-21.27-1.84-30.93-4.43l7.8-33.57c9.89,2.28,19.87,4.44,30.93,4.43
			c52.97,0,104.82-27.5,137.06-68.47C312.14,294.43,256.08,337.09,197.1,340.97z M140.06,223.71c-1.28,0.08-2.57,0.11-3.89,0.11
			c-17.36,0-28.76-6.5-29.73-20.67l0-0.01c-0.22-3.27,0.11-6.95,1.05-11.04l11.4-49.59l21.84-0.01l-10.55,46.04
			c-2.43,10.52-1.53,19.46,9.64,19.46c11.14,0.02,16.13-8.91,18.52-19.46l10.6-46.02l21.85-0.02v0l-11.43,49.58
			c-4.7,20.49-19.74,30.45-39.2,31.62L140.06,223.71z M312.8,142.5l-7.04,30.55l25.9,0.01l6.98-30.54l21.87-0.01l0,0l-18.38,79.93
			l-0.02,0l-21.85-0.02l7.94-34.22l-25.91-0.01l-7.84,34.25l-21.85-0.02l18.33-79.9h0L312.8,142.5z M233.49,223.05
			c-1.41,0.06-2.88,0.1-4.43,0.1c-17.77,0.01-36.14-7.26-38.1-26.61l-0.19-3.41c0-3.14,0.39-6.56,1.24-10.29
			c6.29-27.36,29.06-40.98,55.63-40.95c7.57-0.03,14.63,1.49,21.36,3.52v0l-4.06,17.45c-6.04-3.69-12.34-5.47-19.7-5.48
			c-15.27-0.01-27.68,10.83-31.02,25.45c-3.56,15.44,5.5,24.79,21.2,24.79c6.63-0.01,13.78-1.62,19.95-3.69l-3.87,16.57
			c-4.42,0.98-9.34,1.98-15.65,2.42L233.49,223.05z M418.18,160.65c-4.81-2.25-10.51-3.28-16.33-3.28
			c-5.44,0.02-14.56,0.44-16.17,7.34c-2.89,12.7,37.21,4.16,30.66,32.55c-4.09,17.85-19.05,24.28-34.74,25.61l-4.36,0.24
			c-0.77,0.02-1.54,0.04-2.31,0.04c-6.85,0-14.98-0.94-21.38-2.8l4.12-17.83c4.87,2.86,12.05,5.09,20.82,5.09
			c6.85-0.01,13.63-1.36,15.05-7.65c3.37-14.66-36.89-5.43-30.3-34.01c3.8-16.55,19.69-22.58,34.45-23.84l4.22-0.23
			c0.68-0.02,1.35-0.03,2.01-0.03c6.71-0.01,13.25,0.84,18.12,2.26L418.18,160.65z M363.07,131.83
			c-18.06-25.09-53.36-38.58-90.91-38.59c-21.91,0-40.93,3.11-59.17,11.19l8.07-36.22c11.84-2.84,23.87-4.3,36.1-4.32
			C308.86,63.88,348.99,92.14,363.07,131.83z M255.14,25.5l2.08-0.11c2.22-0.11,4.45-0.17,6.68-0.17
			c11.05-0.01,21.28,1.82,30.96,4.43l0,0l-7.81,33.55c-9.87-2.28-19.82-4.42-30.9-4.45c-53.03,0.04-104.88,27.52-137.1,68.52l0,0
			C140.15,72.01,196.16,29.38,255.14,25.5z M51.02,142.53L51.02,142.53l54.87-0.01v0l-3.49,15.12l-33.02,0l-4.02,17.53l31.62-0.01
			l-3.46,15.15l-31.62-0.02l-7.38,32.18l-21.87-0.01L51.02,142.53z M98.31,234.58L98.31,234.58c18.05,25.1,53.34,38.56,90.92,38.58
			c22.19-0.02,41.51-3.2,60-11.61l-8.18,36.46c-8.99,2.21-18.21,3.65-27.5,4.23l-0.08,0c-3.08,0.19-6.17,0.29-9.26,0.29
			C152.53,302.53,112.38,274.29,98.31,234.58z"/>
		<path fill="#1226AA" d="M255.37,203.93c-6.17,2.07-13.31,3.68-19.95,3.69c-15.7,0-24.76-9.35-21.2-24.79
			c3.34-14.62,15.75-25.45,31.02-25.45c7.36,0.01,13.66,1.79,19.7,5.48l4.06-17.45v0c-6.73-2.03-13.79-3.55-21.36-3.52
			c-26.58-0.03-49.35,13.59-55.63,40.95c-0.85,3.72-1.25,7.15-1.24,10.29l0.19,3.41c1.96,19.35,20.33,26.62,38.1,26.61
			c1.55,0,3.02-0.04,4.43-0.1l2.36-0.13c6.31-0.44,11.23-1.44,15.65-2.42L255.37,203.93z"/>
		<path fill="#1226AA" d="M401.88,141.88l-4.22,0.23c-14.76,1.26-30.65,7.28-34.45,23.84c-6.59,28.58,33.67,19.35,30.3,34.01
			c-1.41,6.29-8.2,7.65-15.05,7.65c-8.77,0-15.95-2.23-20.82-5.09l-4.12,17.83c6.4,1.86,14.54,2.8,21.38,2.8
			c0.77,0,1.54-0.02,2.31-0.04l4.36-0.24c15.69-1.33,30.65-7.76,34.74-25.61c6.55-28.38-33.55-19.85-30.66-32.55
			c1.6-6.9,10.72-7.32,16.17-7.34c5.82,0,11.53,1.02,16.33,3.28l3.84-16.54c-4.87-1.42-11.41-2.28-18.12-2.26
			C403.23,141.85,402.56,141.86,401.88,141.88z"/>
		<path fill="#1226AA" d="M196.16,307.68c-11.07,0.01-21.05-2.15-30.93-4.43l-7.8,33.57c9.66,2.59,19.91,4.41,30.93,4.43
			c2.6,0,5.2-0.08,7.8-0.23l0.94-0.05c58.98-3.87,115.04-46.53,136.13-101.76C300.99,280.18,249.14,307.67,196.16,307.68z"/>
		<path fill="#1226AA" d="M256.15,58.74c11.08,0.03,21.03,2.16,30.9,4.45l7.81-33.55l0,0c-9.67-2.61-19.91-4.44-30.96-4.43
			c-2.23,0-4.46,0.06-6.68,0.17l-2.08,0.11c-58.97,3.88-114.99,46.51-136.09,101.76l0,0C151.27,86.26,203.12,58.78,256.15,58.74z"/>
		<polygon fill="#1226AA" points="272.6,222.41 294.45,222.43 302.29,188.18 328.2,188.19 320.26,222.41 342.11,222.43 
			342.13,222.43 360.51,142.5 360.51,142.5 338.64,142.51 331.66,173.06 305.76,173.05 312.8,142.5 290.92,142.51 290.92,142.51 		
			"/>
		<path fill="#1226AA" d="M179.37,192.09l11.43-49.58v0l-21.85,0.02l-10.6,46.02c-2.39,10.55-7.39,19.49-18.52,19.46
			c-11.18,0-12.07-8.94-9.64-19.46l10.55-46.04l-21.84,0.01l-11.4,49.59c-0.94,4.1-1.27,7.77-1.05,11.04l0,0.01
			c0.97,14.17,12.37,20.68,29.73,20.67c1.31,0,2.61-0.04,3.89-0.11l0.1-0.01C159.63,222.53,174.67,212.58,179.37,192.09z"/>
		<polygon fill="#1226AA" points="61.9,190.27 93.52,190.29 96.98,175.15 65.36,175.16 69.38,157.63 102.4,157.63 105.89,142.52 
			105.89,142.52 51.02,142.53 51.02,142.53 32.65,222.44 54.52,222.46 		"/>
		<path fill="#EB242B" d="M204.22,302.53c3.09,0,6.18-0.1,9.26-0.29l0.08,0c9.29-0.58,18.51-2.01,27.5-4.23l8.18-36.46
			c-18.49,8.41-37.81,11.59-60,11.61c-37.58-0.02-72.87-13.48-90.92-38.58l0,0C112.38,274.29,152.53,302.53,204.22,302.53z"/>
		<path fill="#EB242B" d="M257.16,63.9c-12.23,0.02-24.26,1.47-36.1,4.32l-8.07,36.22c18.24-8.08,37.26-11.19,59.17-11.19
			c37.55,0,72.85,13.49,90.91,38.59C348.99,92.14,308.86,63.88,257.16,63.9z"/>
	</g>
</g>
</svg>
