<?xml version="1.0" encoding="utf-8"?>
<!-- Generator: Adobe Illustrator 24.2.1, SVG Export Plug-In . SVG Version: 6.00 Build 0)  -->
<svg version="1.2" baseProfile="tiny" id="Layer_1" xmlns="http://www.w3.org/2000/svg" xmlns:xlink="http://www.w3.org/1999/xlink"
	 x="0px" y="0px" viewBox="0 0 624.02 107.56" overflow="visible" xml:space="preserve">
<g>
	<g>
		<path fill-rule="evenodd" fill="#270089" d="M622.82,4.71l-45.14-4.2l-2.96-0.28l-7.19,0.46l-26.56,1.68l-11.81-1.6l-2.54-0.22
			c-2.25-0.27-4.2-0.4-5.94-0.4l-3.64,0c-12.64,0-23.57,3.82-32.53,11.34l0-11.49l-36.99,2.32l0-2.33l-42.06,2.64l-40.3-0.01
			l-2.35,6.53l-2.34-6.54L316.49,2.6l-1.33,13.99c-0.47-0.5-0.96-1-1.46-1.49c-7.14-7.03-14.54-11.26-22-12.57
			c-5.81-1.01-10.01-1.48-13.2-1.48c-11.56,0-21.72,3.29-30.28,9.82l0-8.3l-71.2-0.03l-2.72,11.18
			C167.6,7.48,160.67,3.7,153.69,2.49c-5.81-1.01-10-1.48-13.2-1.48C126.15,1,113.98,6.08,104.33,16.08
			c-0.3,0.31-0.59,0.62-0.88,0.93l-1.36-14.49L58.09,2.5l-2.35,6.53L53.4,2.5L9.41,2.49L0,101.78l48.67,4.88l0.74-8.57l12.49-0.01
			l0.73,8.62l48.79-4.85l-0.43-4.6c4.9,3.81,9.96,6.16,15.15,7.03c6.45,1.07,11.03,1.57,14.42,1.57
			c12.26,0.01,22.97-3.66,31.86-10.91c4.98-4.07,9.02-8.96,12.09-14.59l-0.01,25.53l48.69-3.08l0.01-24.8
			c1.68,3.43,3.75,6.67,6.21,9.7c7.77,9.57,16.09,15.17,24.76,16.63c6.35,1.06,11.07,1.57,14.42,1.57c10.96,0,20.69-2.93,28.96-8.72
			l-0.45,4.71l48.68,4.88l0.74-8.58l12.48-0.01l0.74,8.62l46.94-4.16c0,0-0.01,0-0.01-0.01c3.27,1.74,6.74,2.86,10.38,3.31
			l10.37,1.3l4.47,0c13.3,0.01,23.8-3.81,31.22-11.35c1.92-1.96,3.6-4.1,5.04-6.43c7.41,8.68,14.99,13.73,23.14,15.4
			c7.82,1.61,10.18,1.96,11.44,2.09c1.8,0.2,3.59,0.3,5.33,0.3c2.23,0,4.69-0.13,7.3-0.39c0.53-0.05,1.06-0.12,1.59-0.18l0,0.33
			l40.71-2.56l1.06,3.06l55.32-4.99l-22.48-52.13L622.82,4.71"/>
	</g>
	<polygon fill="#FFFFFF" points="586.87,50.22 602.51,16.62 602.51,16.62 576.67,14.22 564.35,46.4 564.36,14.66 540.28,16.18 
		540.28,16.19 540.25,92.45 564.34,90.94 564.35,54.02 577.79,92.94 604.26,90.55 	"/>
	<path fill="#FFFFFF" d="M615.98,96.32c0-0.85-0.23-1.62-0.61-2.29c-0.58-1.02-1.53-1.78-2.7-2.09l-1.2-0.16c-0.01,0-0.03,0-0.04,0
		c-1.66,0-3.06,0.81-3.85,2.08c-0.24,0.38-0.42,0.81-0.54,1.26l-0.16,1.21c0,0.92,0.26,1.76,0.7,2.46c0.03,0.05,0.06,0.1,0.09,0.15
		c0.61,0.89,1.52,1.53,2.62,1.79l0.9,0.12c0.08,0,0.16,0.01,0.24,0.01c2.18,0,3.91-1.4,4.4-3.39L615.98,96.32z"/>
	<path fill="#FFFFFF" d="M533.68,68.07c-3.23,2.12-7.21,3.38-11.52,3.38c-10.82,0-19.59-7.87-19.58-17.58
		c0-9.71,8.78-17.57,19.6-17.56c2.16,0,4.22,0.33,6.16,0.9c0,0,0.01,0,0.01,0c1.7,0.51,3.3,1.21,4.76,2.09l-3.59-24.16
		c-1.54-0.41-3.11-0.72-4.71-0.96c-1.98-0.29-3.99-0.48-6.04-0.48c-1.71,0-3.38,0.13-5.03,0.33c-14.26,1.7-26.23,10.53-32.08,22.73
		c-1.84,3.84-3.1,8.01-3.61,12.39l0,0.01c-0.17,1.46-0.26,2.95-0.26,4.45c0,7.59,2.21,14.66,5.98,20.7
		c5.78,9.27,15.3,16.08,26.55,18.38c0.16,0.03,0.33,0.06,0.49,0.09c0.42,0.08,0.84,0.15,1.26,0.21l2.55,0.34
		c1.28,0.13,2.57,0.19,3.89,0.2c0.08,0,0.16,0.01,0.25,0.01c0.32,0,0.62-0.04,0.93-0.05c0.73-0.02,1.45-0.06,2.17-0.11
		c0.49-0.03,0.99-0.07,1.51-0.12c2.57-0.28,5.07-0.78,7.47-1.5L533.68,68.07z"/>
	<path fill="#FFFFFF" d="M471.19,62.69l0.02-48.07l0,0l-24.24,1.52l-0.02,51.14c-0.51,2.34-2.53,4.24-6.71,4.26
		c-3.45,0.01-5.47-1.43-6.04-4.29l0.02-52.64l-24.2,1.51l-0.05,46.55l0.03,2.18c0,8.73,1.94,15.34,5.83,19.85
		c3.09,3.58,10.28,7.1,18.41,8.41l2.53,0.34c1.3,0.13,2.62,0.2,3.94,0.2c10.58,0,18.21-2.58,23.07-7.51
		c4.87-4.94,7.31-12.02,7.32-21.26L471.19,62.69z"/>
	<polygon fill="#FFFFFF" points="405.01,90.49 397.96,15.39 373.77,15.38 362.82,45.89 351.89,15.37 327.7,15.36 327.7,15.39 
		320.59,90.44 344.56,92.85 347.91,53.92 362.8,93.6 377.62,53.94 380.94,92.89 405.01,90.49 	"/>
	<path fill="#FFFFFF" d="M316.96,53.61c0-3.27-0.63-7.64-1.87-13.13c-1.26-5.49-4.56-10.87-9.9-16.14
		c-5.36-5.27-10.53-8.34-15.53-9.22c-1.33-0.23-2.57-0.43-3.72-0.6l-2.84-0.38c-1.85-0.22-3.38-0.32-4.6-0.32
		c-10.98,0-20.12,3.77-27.42,11.32c-5.47,5.66-8.89,12.36-10.27,20.1l-0.47,3.49c-0.14,1.51-0.23,3.05-0.23,4.63
		c0,10.25,2.91,18.97,8.75,26.17c5.84,7.19,11.58,11.26,17.26,12.22c1.09,0.18,2.1,0.34,3.08,0.48l4.27,0.57
		c2.08,0.23,3.78,0.35,5.11,0.35c9.45,0,17.51-2.71,24.18-8.16c6.67-5.45,11.05-12.86,13.15-22.23
		C316.6,59.86,316.95,56.8,316.96,53.61z"/>
	<polygon fill="#FFFFFF" points="235.86,38.52 235.86,15.33 235.86,15.33 186.66,15.31 181.13,38.06 196.87,38.07 196.85,92.32 
		196.85,92.32 220.83,90.81 220.85,38.51 235.86,38.52 	"/>
	<path fill="#FFFFFF" d="M178.94,53.55c0-3.27-0.63-7.64-1.87-13.13c-1.25-5.49-4.55-10.87-9.89-16.14
		c-5.36-5.27-10.53-8.34-15.54-9.22c-1.36-0.24-2.61-0.44-3.78-0.61l-2.76-0.37c-1.86-0.22-3.39-0.33-4.61-0.33
		c-10.98,0-20.13,3.77-27.42,11.33c-5.48,5.66-8.9,12.37-10.27,20.12l-0.45,3.35c-0.15,1.54-0.24,3.12-0.24,4.74
		c0,10.25,2.91,18.97,8.74,26.17c5.83,7.19,11.58,11.26,17.24,12.22c1.08,0.18,2.09,0.34,3.06,0.48l4.3,0.57
		c2.07,0.23,3.77,0.35,5.09,0.35c9.45,0,17.51-2.71,24.19-8.16c6.68-5.45,11.06-12.86,13.15-22.23
		C178.58,59.8,178.93,56.75,178.94,53.55z"/>
	<polygon fill="#FFFFFF" points="90.87,15.27 66.69,15.26 55.73,45.78 44.79,15.25 20.61,15.24 20.61,15.27 13.5,90.32 37.47,92.73 
		40.82,53.81 55.71,93.49 70.53,53.82 73.85,92.78 97.93,90.38 	"/>
	<path fill="#270089" d="M615.24,96.32c0-1.83-1.18-3.28-2.85-3.69l-0.96-0.13c0,0,0,0,0,0c-1.83,0-3.27,1.17-3.69,2.84l-0.13,0.99
		c0,1.04,0.4,1.94,1.03,2.61c0.49,0.52,1.12,0.89,1.84,1.07l0.91,0.12c0.01,0,0.02,0,0.03,0c1.9,0,3.34-1.3,3.68-3.08
		C615.15,96.81,615.24,96.59,615.24,96.32z"/>
	<path fill="#270089" d="M155.38,51.47c-0.14-0.87-0.2-1.49-0.2-1.85c-0.41-4.37-2.2-7.73-5.36-10.09
		c-2.37-1.77-4.75-2.89-7.14-3.33l-1.28-0.17c-0.37-0.03-0.74-0.05-1.11-0.05c-6.04,0-10.08,2-12.09,6
		c-1.51,2.99-2.45,5.94-2.83,8.85l-0.01,0.05c-0.12,0.97-0.19,1.93-0.19,2.88c0,5.31,1.35,9.51,4.06,12.6
		c2.09,2.38,4.77,3.84,8.02,4.39l1.36,0.18c0.54,0.05,1.1,0.07,1.67,0.07c5.49,0,9.38-1.96,11.68-5.89
		c2.29-3.92,3.44-7.88,3.44-11.89L155.38,51.47z"/>
	<path fill="#270089" d="M293.39,51.52c-0.14-0.87-0.21-1.49-0.21-1.85c-0.41-4.37-2.2-7.73-5.37-10.09
		c-2.37-1.77-4.75-2.89-7.14-3.33l-1.28-0.17c-0.37-0.03-0.74-0.05-1.11-0.05c-6.04,0-10.08,2-12.09,5.99
		c-1.51,3-2.46,5.95-2.84,8.87l0,0.02c-0.13,0.97-0.19,1.93-0.19,2.9c0,5.31,1.35,9.51,4.06,12.6c2.19,2.5,5.03,3.97,8.49,4.45
		l0.87,0.12c0.55,0.05,1.11,0.07,1.68,0.07c5.48,0,9.38-1.96,11.67-5.89c2.3-3.92,3.45-7.88,3.45-11.89L293.39,51.52z"/>
	<path fill="#FFFFFF" d="M528.34,37.21C528.34,37.21,528.34,37.21,528.34,37.21L528.34,37.21L528.34,37.21
		C528.34,37.21,528.34,37.21,528.34,37.21z"/>
	<path fill="#FFFFFF" d="M613.47,98.71l-0.05-0.09l-0.7-1.37l-0.27-0.53c0.24-0.07,0.4-0.22,0.56-0.37c0.29-0.26,0.5-0.59,0.5-1.09
		c0-0.8-0.45-1.26-1.07-1.42l-0.56-0.07l-1.34,0l-0.18,0l-0.66,0l0,1.46l0,0.14l0,3.37l0.84,0l0-1.07l0-0.6l0-0.25l0.96,0l0.51,1
		l0.46,0.91l0.6,0L613.47,98.71L613.47,98.71z"/>
	<path fill="#270089" d="M612.65,95.27c0-0.42-0.29-0.65-0.68-0.69l-0.12-0.02l-1.3,0l0,0.43l0,0.98l1.31,0
		C612.31,95.98,612.64,95.77,612.65,95.27C612.65,95.28,612.65,95.28,612.65,95.27z"/>
</g>
</svg>
