<svg id="Layer_1" data-name="Layer 1" xmlns="http://www.w3.org/2000/svg" xmlns:xlink="http://www.w3.org/1999/xlink" viewBox="0 0 512.31 137.53"><defs><style>.cls-1{fill:none;}.cls-2{clip-path:url(#clip-path);}.cls-3{fill:#fff;fill-rule:evenodd;}</style><clipPath id="clip-path"><rect class="cls-1" width="512.3" height="137.53"/></clipPath></defs><g class="cls-2"><path class="cls-3" d="M476.47,106.78l2.86-.62v-.4a7.4,7.4,0,0,0-.07-1.09,4.23,4.23,0,0,0-.2-.8,2.92,2.92,0,0,0-.28-.56,2.12,2.12,0,0,0-.33-.39,1.87,1.87,0,0,0-.42-.3,3.64,3.64,0,0,0-.61-.25,5.31,5.31,0,0,0-.91-.19,12.35,12.35,0,0,0-1.28-.07h-9.29a10,10,0,0,0-1.29.08,5,5,0,0,0-.92.2,2.73,2.73,0,0,0-.59.26,2.17,2.17,0,0,0-.41.3,2.64,2.64,0,0,0-.31.4,3.33,3.33,0,0,0-.26.59,4.85,4.85,0,0,0-.19.89,9.5,9.5,0,0,0-.08,1.25v1.57a9.82,9.82,0,0,0,.08,1.27,5,5,0,0,0,.2.89,3.56,3.56,0,0,0,.26.58,2.53,2.53,0,0,0,.31.39,2.06,2.06,0,0,0,.4.29,2.85,2.85,0,0,0,.6.25,5,5,0,0,0,.91.2,10.47,10.47,0,0,0,1.31.07h10.75v4.69l-12.6,0v-2.48l-2.88.6v.46a9.77,9.77,0,0,0,.08,1.26,4.77,4.77,0,0,0,.2.89,2.62,2.62,0,0,0,.27.58,1.52,1.52,0,0,0,.31.39,1.82,1.82,0,0,0,.4.3,3.51,3.51,0,0,0,.6.25,5.19,5.19,0,0,0,.93.19,10.35,10.35,0,0,0,1.31.08l10.15,0a13,13,0,0,0,1.32-.07,5.15,5.15,0,0,0,.92-.2,3.37,3.37,0,0,0,.59-.25,2.09,2.09,0,0,0,.4-.3,1.75,1.75,0,0,0,.3-.39,2.92,2.92,0,0,0,.26-.58,5.86,5.86,0,0,0,.19-.89,9.77,9.77,0,0,0,.08-1.26v-2a9.82,9.82,0,0,0-.08-1.27,5.45,5.45,0,0,0-.21-.88,2.92,2.92,0,0,0-.26-.58,2.22,2.22,0,0,0-.31-.4,2.14,2.14,0,0,0-.41-.29,3.15,3.15,0,0,0-.6-.26,5.92,5.92,0,0,0-.91-.19,12.39,12.39,0,0,0-1.29-.07H464.76V104.6h11.72v2.19m-55.81,12.09v-6.54h4.55l6.67,6.53h4.21l-7.38-6.53h2.22a6.73,6.73,0,0,0,1.24-.11,3.59,3.59,0,0,0,.87-.27,2.18,2.18,0,0,0,.57-.38A2.1,2.1,0,0,0,434,111a2.79,2.79,0,0,0,.28-.79,5.42,5.42,0,0,0,.11-1.11v-3.73a5.62,5.62,0,0,0-.11-1.13,2.86,2.86,0,0,0-.29-.8,2.1,2.1,0,0,0-.42-.54,2.18,2.18,0,0,0-.57-.38,3.56,3.56,0,0,0-.87-.28,7.78,7.78,0,0,0-1.24-.1l-13.43,0,0,16.69Zm8.87-14.26h0a3.32,3.32,0,0,1,.56,0,1.83,1.83,0,0,1,.4.09.89.89,0,0,1,.26.12.94.94,0,0,1,.19.14.72.72,0,0,1,.14.19.83.83,0,0,1,.12.25,1.82,1.82,0,0,1,.09.37,3.84,3.84,0,0,1,0,.5v2a4.26,4.26,0,0,1,0,.54,2.39,2.39,0,0,1-.08.39,2,2,0,0,1-.12.25.7.7,0,0,1-.13.16.76.76,0,0,1-.17.13,1.79,1.79,0,0,1-.26.1,1.83,1.83,0,0,1-.4.09,5.28,5.28,0,0,1-.59,0h-8.89v-5.38Zm-38,14.29v-2.44H377.67v-5h8.23V109h-8.23V104.7h13.65v-2.48l-16.81,0,0,16.69Zm-41.82-14.16v-2.49l-18.94,0v2.48h7.89V119h3.14l0-14.22Zm-43.7-2.4h-3.14l0,16.65H306Zm-44.13,16.71v-6.54h4.56L273,119h4.21l-7.37-6.53h2.21a6.76,6.76,0,0,0,1.25-.11,3.12,3.12,0,0,0,.86-.27,2.24,2.24,0,0,0,.58-.38,2,2,0,0,0,.41-.53,2.86,2.86,0,0,0,.29-.8,5.42,5.42,0,0,0,.11-1.11v-3.73a4.83,4.83,0,0,0-.11-1.12,2.93,2.93,0,0,0-.29-.81,2,2,0,0,0-1-.92,3.23,3.23,0,0,0-.86-.27,6.92,6.92,0,0,0-1.25-.11l-13.42,0,0,16.69Zm8.87-14.26h0a4.68,4.68,0,0,1,.55,0,1.7,1.7,0,0,1,.4.09l.27.12a.86.86,0,0,1,.18.14.7.7,0,0,1,.15.19,2.17,2.17,0,0,1,.12.26,1.58,1.58,0,0,1,.09.36,3.84,3.84,0,0,1,0,.5v2a4.68,4.68,0,0,1,0,.55,1.52,1.52,0,0,1-.09.38,1.17,1.17,0,0,1-.11.25.7.7,0,0,1-.13.16.76.76,0,0,1-.17.13,2.26,2.26,0,0,1-.26.11,2.71,2.71,0,0,1-.41.08,5.22,5.22,0,0,1-.58,0h-8.89V104.8ZM215.45,119.1l4.91-12.45,4.71,12.44h2.31l6.36-16.7h-2.82l-4.61,12.76-4.82-12.75h-2.07l-4.91,12.76-4.63-12.74h-3.27l6.48,16.68Zm-50.33-13.29h0l.25.38c.09.12.18.25.28.37l.3.37.32.36.38.39.43.42,12.52,11h2.15l0-16.69h-2.9v10.08c0,.18,0,.37,0,.55s0,.36,0,.53,0,.35,0,.52,0,.34.05.51,0,.34.07.5.05.34.08.5l-.33-.47q-.17-.23-.33-.42l-.31-.38-.34-.36-.34-.34-.35-.31-12.27-10.89h-2.4l0,16.69h2.9V108.79c0-.33,0-.66,0-1,0-.16,0-.33,0-.5s0-.33,0-.5l-.06-.49C165.17,106.14,165.14,106,165.12,105.81Zm-32.91,1.44,3.15-.54v-.48a7.62,7.62,0,0,0-.08-1.11,4.48,4.48,0,0,0-.2-.82,3,3,0,0,0-.27-.57,2.74,2.74,0,0,0-.34-.4,2.25,2.25,0,0,0-.42-.3,2.94,2.94,0,0,0-.61-.26,5.31,5.31,0,0,0-.91-.19,9.82,9.82,0,0,0-1.27-.08l-11.31,0a10.31,10.31,0,0,0-1.3.08,6.36,6.36,0,0,0-.92.19,3.46,3.46,0,0,0-.6.26,2.31,2.31,0,0,0-.41.31,1.87,1.87,0,0,0-.32.4,2.72,2.72,0,0,0-.27.59,5,5,0,0,0-.2.89,9.44,9.44,0,0,0-.07,1.24v8.79a9.82,9.82,0,0,0,.08,1.27,4.64,4.64,0,0,0,.2.88,2.92,2.92,0,0,0,.26.58,1.87,1.87,0,0,0,.32.4,1.79,1.79,0,0,0,.4.29,2.85,2.85,0,0,0,.6.25,5.15,5.15,0,0,0,.92.2,13.17,13.17,0,0,0,1.32.07h11.31a10.47,10.47,0,0,0,1.31-.08,5,5,0,0,0,.92-.2,2.64,2.64,0,0,0,.6-.25,2.17,2.17,0,0,0,.41-.3,2.64,2.64,0,0,0,.31-.4,3.56,3.56,0,0,0,.26-.58,5,5,0,0,0,.2-.89,9.5,9.5,0,0,0,.08-1.25v-5.38h-10v2.27h6.81v4.54H119V105l13.19,0ZM88.5,102.59H85.36l0,16.65h3.13ZM55,107.27l2.87-.62v-.41a8.81,8.81,0,0,0-.08-1.08,4.16,4.16,0,0,0-.2-.81,2.17,2.17,0,0,0-.28-.55,1.9,1.9,0,0,0-.33-.4,2.25,2.25,0,0,0-.42-.3,3.64,3.64,0,0,0-.61-.25,5.21,5.21,0,0,0-.91-.18,9.86,9.86,0,0,0-1.28-.08H44.45a10.19,10.19,0,0,0-1.3.08,5.15,5.15,0,0,0-.92.2,3.33,3.33,0,0,0-.59.26,1.84,1.84,0,0,0-.41.31,2.22,2.22,0,0,0-.31.4,3.56,3.56,0,0,0-.26.58,6.14,6.14,0,0,0-.19.89,9.61,9.61,0,0,0-.08,1.25v1.58a9.66,9.66,0,0,0,.08,1.26,4.77,4.77,0,0,0,.2.89,2.62,2.62,0,0,0,.27.58,1.75,1.75,0,0,0,.3.39,2.46,2.46,0,0,0,.4.3,3.51,3.51,0,0,0,.6.25,5.11,5.11,0,0,0,.91.19,10.47,10.47,0,0,0,1.31.08l10.75,0v4.7H42.62V114.3l-2.88.6v.46a9.54,9.54,0,0,0,.08,1.26,4.58,4.58,0,0,0,.2.89,2.42,2.42,0,0,0,.27.58,1.58,1.58,0,0,0,.31.4,2.17,2.17,0,0,0,.4.29,2.85,2.85,0,0,0,.6.25,4.58,4.58,0,0,0,.93.19,10.35,10.35,0,0,0,1.31.08H54a10.52,10.52,0,0,0,1.32-.08,5,5,0,0,0,.92-.2,2.75,2.75,0,0,0,.59-.25,2.06,2.06,0,0,0,.4-.29,2,2,0,0,0,.3-.39,3.56,3.56,0,0,0,.26-.58,6,6,0,0,0,.19-.9,9.54,9.54,0,0,0,.08-1.26v-2a9.66,9.66,0,0,0-.08-1.26,4.69,4.69,0,0,0-.21-.89,2.92,2.92,0,0,0-.26-.58,2.13,2.13,0,0,0-.31-.39,2.17,2.17,0,0,0-.41-.3,2.64,2.64,0,0,0-.6-.25,4.22,4.22,0,0,0-.91-.19A10,10,0,0,0,54,109.4H43.26v-4.32l11.71,0ZM0,84.33a54.92,54.92,0,0,0,2.1,15,53.9,53.9,0,0,0,2.59,7.11,51.85,51.85,0,0,0,3.54,6.67,53.88,53.88,0,0,0,4.42,6.08,53,53,0,0,0,5.22,5.37,51.68,51.68,0,0,0,5.9,4.54,50.9,50.9,0,0,0,6.48,3.64,49.74,49.74,0,0,0,6.91,2.65A50.91,50.91,0,0,0,44.4,137a51.81,51.81,0,0,0,7.35.53l409-.47a50.2,50.2,0,0,0,7.35-.55,51.09,51.09,0,0,0,14.11-4.29A51.81,51.81,0,0,0,494.53,124a52.89,52.89,0,0,0,5.2-5.38,53.92,53.92,0,0,0,4.41-6.09,52.39,52.39,0,0,0,3.52-6.67,54.07,54.07,0,0,0,2.57-7.13,55,55,0,0,0,1.56-7.42,56.56,56.56,0,0,0,.52-7.58l0-30.54a54.42,54.42,0,0,0-2.11-15,53.85,53.85,0,0,0-2.58-7.11A54.47,54.47,0,0,0,504,24.42,52.65,52.65,0,0,0,494.4,13a51.79,51.79,0,0,0-5.91-4.54A50.58,50.58,0,0,0,467.9.53,51.6,51.6,0,0,0,460.55,0L51.6.47A50.2,50.2,0,0,0,44.25,1,49.94,49.94,0,0,0,30.14,5.31,52.1,52.1,0,0,0,23.67,9a52.65,52.65,0,0,0-5.89,4.56,51.93,51.93,0,0,0-5.21,5.38A54.25,54.25,0,0,0,4.64,31.66a52.63,52.63,0,0,0-2.56,7.13A52,52,0,0,0,.52,46.21,55,55,0,0,0,0,53.79ZM7.53,87A41.81,41.81,0,0,0,8,93.26a42.45,42.45,0,0,0,1.39,6.08A43.76,43.76,0,0,0,23.32,120a46.46,46.46,0,0,0,17,8.87,47,47,0,0,0,12.85,1.75l406-.46a48.36,48.36,0,0,0,6.49-.46,47.36,47.36,0,0,0,12.46-3.51,44.78,44.78,0,0,0,5.7-3,46.12,46.12,0,0,0,5.21-3.74,44.61,44.61,0,0,0,4.6-4.41,43.41,43.41,0,0,0,3.89-5,42.59,42.59,0,0,0,5.39-11.31,41.21,41.21,0,0,0,1.37-6.09,41.8,41.8,0,0,0,.46-6.22l0-36.16a41.81,41.81,0,0,0-.47-6.22A42.59,42.59,0,0,0,502.82,38a44,44,0,0,0-2.28-5.83,44.9,44.9,0,0,0-3.13-5.47,44.36,44.36,0,0,0-3.91-5,43.63,43.63,0,0,0-4.61-4.4A46.89,46.89,0,0,0,465.5,7.13,48.58,48.58,0,0,0,459,6.69L53.06,7.16a46.76,46.76,0,0,0-6.49.45,46.88,46.88,0,0,0-12.46,3.52,44.78,44.78,0,0,0-5.7,3,43.74,43.74,0,0,0-5.21,3.74,43.4,43.4,0,0,0-8.49,9.4A42.59,42.59,0,0,0,9.32,38.57,40.93,40.93,0,0,0,8,44.66a41.8,41.8,0,0,0-.46,6.22ZM307.42,56l-36.93.08a9.91,9.91,0,0,1,.85-2.21,3.41,3.41,0,0,1,1-1.11,5.19,5.19,0,0,1,1.37-.74,14.15,14.15,0,0,1,2.26-.6,13.21,13.21,0,0,1,2.39-.29l22.26,0,1.48,0c.47,0,.93,0,1.43,0a12.25,12.25,0,0,1,1.53.22,7.48,7.48,0,0,1,1.2.33,3.49,3.49,0,0,1,.82.43,1.73,1.73,0,0,1,.54.63,3,3,0,0,1,.23.93,4.37,4.37,0,0,1,0,1.2A3.17,3.17,0,0,1,307.42,56ZM263.8,44.73a10.85,10.85,0,0,0-3.26,2.87,31.75,31.75,0,0,0-3.07,4.72,48.25,48.25,0,0,0-2.85,6.35,29,29,0,0,0-1.47,5.69A19.42,19.42,0,0,0,253,69a15.1,15.1,0,0,0,.89,3.91,14.12,14.12,0,0,0,1.78,3.28,10.67,10.67,0,0,0,2.46,2.42,15,15,0,0,0,3.73,1.89,31.66,31.66,0,0,0,5.75,1.4,48,48,0,0,0,7.42.62h30l-.4-1.31a12.21,12.21,0,0,0-1.7-3.55,14.16,14.16,0,0,0-2.8-2.93,11.47,11.47,0,0,0-3.4-1.9,12.61,12.61,0,0,0-4.16-.7l-15.25,0a22.27,22.27,0,0,1-3.58-.4,25.94,25.94,0,0,1-2.82-.64,8.61,8.61,0,0,1-1.68-.66,3.76,3.76,0,0,1-.92-.65,2.75,2.75,0,0,1-.52-.72,2.59,2.59,0,0,1-.24-.87,4.46,4.46,0,0,1,0-1.19,8.65,8.65,0,0,1,.4-1.55l51.75-.13a72,72,0,0,0,1.42-8,21.13,21.13,0,0,0,.09-5,15.94,15.94,0,0,0-.81-3.6A8.46,8.46,0,0,0,319,46.23a11.18,11.18,0,0,0-2.38-2.12,17.89,17.89,0,0,0-3.53-1.88,20.35,20.35,0,0,0-3.4-1c-.83-.16-1.17-.19-1.54-.24s-.77-.11-1.81-.22a40.48,40.48,0,0,0-4.42-.35l-21.13,0a36.07,36.07,0,0,0-6.22.54,36.5,36.5,0,0,0-5.66,1.5A29.91,29.91,0,0,0,263.8,44.73Zm96.65,6.83a15.37,15.37,0,0,1,1.8-.32,13.86,13.86,0,0,1,1.74-.17l23.16,0a18.51,18.51,0,0,1,3.15.3,5.82,5.82,0,0,1,1.77.54,4.88,4.88,0,0,1,1.06.76c.29.27.52.54.67.7l.29.32a1.87,1.87,0,0,1,.32.47,3,3,0,0,1,.2,1.09,12.23,12.23,0,0,1-.24,2.42c-.21,1.17-.58,2.8-1,4.21a27.68,27.68,0,0,1-1.18,3.6A11.55,11.55,0,0,1,391,67.73a9.81,9.81,0,0,1-1.38,1.6,9.1,9.1,0,0,1-1.71,1.23,10.83,10.83,0,0,1-2.17,1,14.91,14.91,0,0,1-2.8.63,25.42,25.42,0,0,1-3.48.23l-20.22,0a26.68,26.68,0,0,1-3.55-.22,8.81,8.81,0,0,1-2.24-.58,3.89,3.89,0,0,1-1.25-.78,3,3,0,0,1-.73-1.08,6.25,6.25,0,0,1-.39-1.75,12.06,12.06,0,0,1,0-2.73,26.4,26.4,0,0,1,.8-3.81,40.17,40.17,0,0,1,1.33-4.05,9.28,9.28,0,0,1,1.27-2.3,9,9,0,0,1,1.55-1.6,8.19,8.19,0,0,1,2-1.18A16.7,16.7,0,0,1,360.45,51.56Zm69,1.58a8.35,8.35,0,0,1,1.91-1,16.25,16.25,0,0,1,2.76-.82,13.7,13.7,0,0,1,2.9-.36l18.95,0a16.52,16.52,0,0,1,2.19.11,8.3,8.3,0,0,1,1.63.39,9.45,9.45,0,0,1,1.4.64,4.21,4.21,0,0,1,1.1.82,3.21,3.21,0,0,1,.76,1.22,3.08,3.08,0,0,1,0,1.32,9.49,9.49,0,0,1-.24,1.43l-7.1,25.74,15.31,0,7.48-27.31a5.5,5.5,0,0,0,.15-2.07,12,12,0,0,0-.58-2.54,6.68,6.68,0,0,0-1.1-2.09,13.14,13.14,0,0,0-2.27-2.3,25.22,25.22,0,0,0-3.35-2.2,21.48,21.48,0,0,0-4-1.76,32.08,32.08,0,0,0-5.07-1.08,41,41,0,0,0-6-.55l-17.2,0a45.87,45.87,0,0,0-7,.48,28.58,28.58,0,0,0-5.82,1.58,38.07,38.07,0,0,0-5.4,2.62,21.93,21.93,0,0,0-4,3,18.72,18.72,0,0,0-2.74,3.32,11.2,11.2,0,0,0-1.47,3.11l-7.75,27.8,15.53.1,7.34-26.95a5.19,5.19,0,0,1,.59-1.41A4.22,4.22,0,0,1,429.49,53.14ZM350.61,44a22.28,22.28,0,0,0-4.5,2.58,19.66,19.66,0,0,0-3.37,3.26A19.25,19.25,0,0,0,340,54.25a46.77,46.77,0,0,0-2.22,6.61c-.65,2.45-1.23,5-1.49,6.76a8,8,0,0,0,.11,3.7,13.77,13.77,0,0,0,1.51,3.33,12.53,12.53,0,0,0,2.43,2.88,15.65,15.65,0,0,0,3.54,2.34A26.19,26.19,0,0,0,349,81.66a40.38,40.38,0,0,0,8.72,1c4.44.18,11,.14,15.95,0a82.74,82.74,0,0,0,11-.69,34.93,34.93,0,0,0,7.16-1.92,29.76,29.76,0,0,0,5.24-2.53A21.78,21.78,0,0,0,401,74.49,18,18,0,0,0,403.72,71a22,22,0,0,0,1.84-4.35,61,61,0,0,0,1.72-6.39,44,44,0,0,0,.84-6.3,10.15,10.15,0,0,0-.36-3.71,8.91,8.91,0,0,0-1.52-2.88,12.58,12.58,0,0,0-2.81-2.58,18.58,18.58,0,0,0-4-2,29,29,0,0,0-5.57-1.39,50.45,50.45,0,0,0-7.42-.5l-20.54,0a42.83,42.83,0,0,0-5.6.59,34.38,34.38,0,0,0-4.51.82A36,36,0,0,0,350.61,44ZM43.26,83l15.26,0v0h45.67a40.46,40.46,0,0,0,7-.8,33.72,33.72,0,0,0,6-1.54,31.06,31.06,0,0,0,5.2-2.57,27.35,27.35,0,0,0,4.18-3A17,17,0,0,0,129.21,72a9.06,9.06,0,0,0,1.34-2.73L138.82,39l-1.39.06a25.56,25.56,0,0,0-5.52.9,21.18,21.18,0,0,0-4.72,1.92,16.69,16.69,0,0,0-3.54,2.65,12.67,12.67,0,0,0-2.31,3.08A15.51,15.51,0,0,0,120.22,51l-4,14.78a9.34,9.34,0,0,1-1,2.33,10.45,10.45,0,0,1-1.53,2,6.22,6.22,0,0,1-1.92,1.32,16.14,16.14,0,0,1-3,1,15.45,15.45,0,0,1-3.31.41l-10.18,0,9-34.09-1.39.09a21.63,21.63,0,0,0-5.13,1,27.9,27.9,0,0,0-5,2.15,22.38,22.38,0,0,0-3.92,2.67,9.24,9.24,0,0,0-2.12,2.54,11.24,11.24,0,0,0-.86,2.63l-4.22,16a15.85,15.85,0,0,1-.55,2.14,6.28,6.28,0,0,1-1,1.57,7.86,7.86,0,0,1-1.35,1.29,8,8,0,0,1-1.93,1,25.58,25.58,0,0,1-2.91.82,12.12,12.12,0,0,1-2.61.35l-10.17,0L70.3,39,69,39a14.3,14.3,0,0,0-4.16.49,30.34,30.34,0,0,0-5,1.87,26.66,26.66,0,0,0-4.32,2.5A11.88,11.88,0,0,0,53,46.35a7.1,7.1,0,0,0-1.21,2.39L42.71,83ZM153.45,43.15a27.66,27.66,0,0,0-5.41,2.5,22.81,22.81,0,0,0-4,2.82,15.38,15.38,0,0,0-2.62,3.17,11.07,11.07,0,0,0-1.41,3L132.26,83l15,0,6.57-24.93a8.83,8.83,0,0,1,.91-2.21,11,11,0,0,1,1.56-2,6,6,0,0,1,1.94-1.37,15,15,0,0,1,3-1,14.25,14.25,0,0,1,3.29-.41l6.92,0a20.2,20.2,0,0,0,4.95-.55A30,30,0,0,0,181,49a25,25,0,0,0,3.24-1.64,23.76,23.76,0,0,0,3-2.12,16.75,16.75,0,0,0,2.71-2.68l1.27-1.64-25.25,0a32.64,32.64,0,0,0-5.54.61A50.42,50.42,0,0,0,153.45,43.15Zm57.63-19.37-1.34,0a18.12,18.12,0,0,0-3.83.51,29.91,29.91,0,0,0-4.34,1.32,18,18,0,0,0-3.7,1.95A16.6,16.6,0,0,0,195.12,30a6.53,6.53,0,0,0-1.29,2l-1.44,3.66h15.44ZM207,39h-1.3a19.65,19.65,0,0,0-3.77.37,21.77,21.77,0,0,0-3.79,1,19.36,19.36,0,0,0-2.82,1.35,11.56,11.56,0,0,0-1.38.95l-1.1.89c-.36.28-.68.52-1.14.93A11.07,11.07,0,0,0,190.27,46a4.66,4.66,0,0,0-.8,1.63L180,83l15.24,0ZM234,26.5a21.22,21.22,0,0,0-3.75,1.58,14,14,0,0,0-2.82,2,5.83,5.83,0,0,0-1.76,2.34l-2.07,6.86-4.83.06a8.72,8.72,0,0,0-2.25.34,15.65,15.65,0,0,0-2.59,1,14.11,14.11,0,0,0-2.9,1.8,7.35,7.35,0,0,0-2.3,2.75l-1.7,4.37,13.87,0-4.28,15.65a53.06,53.06,0,0,0-1.35,6,11.09,11.09,0,0,0-.08,3.46,6.44,6.44,0,0,0,.8,2.22,7.63,7.63,0,0,0,1.62,1.92,14.23,14.23,0,0,0,2.72,1.78A17.51,17.51,0,0,0,224.28,82a24.06,24.06,0,0,0,5.55.77h22.22l1.12,0L253,81.67a9,9,0,0,0-.53-2,6.71,6.71,0,0,0-1.15-2,19.39,19.39,0,0,0-2.18-2.16,15.33,15.33,0,0,0-2.32-1.73,11.5,11.5,0,0,0-2.36-1,7.3,7.3,0,0,0-2.17-.47l-7.66,0a10.69,10.69,0,0,1-1.46-.1,5.35,5.35,0,0,1-1-.21,2.18,2.18,0,0,1-.57-.26,1.53,1.53,0,0,1-.35-.32A1.72,1.72,0,0,1,231,71a4.89,4.89,0,0,1-.17-.82,7.34,7.34,0,0,1-.06-.92,3.66,3.66,0,0,1,.11-.77l5.14-18.81,10.5-.07a15.64,15.64,0,0,0,7-1.94A21.51,21.51,0,0,0,259,43.5a14.69,14.69,0,0,0,3-4.3l-23,0,4-13.67-1.37-.08a19.53,19.53,0,0,0-3.61.19A24.54,24.54,0,0,0,234,26.5ZM388.13,55.72a12.62,12.62,0,0,0-1.38-.08l-23.14,0a4.39,4.39,0,0,0-.53,0l-.6.08a12.54,12.54,0,0,0-1.37.24,9.61,9.61,0,0,0-1.79.58,3.81,3.81,0,0,0-1.15.79,4.38,4.38,0,0,0-.93,1.33,22.93,22.93,0,0,0-1,2.83,35.39,35.39,0,0,0-.86,3.45,8.74,8.74,0,0,0-.18,2.38l.17.21c.44.08.89.15,1.46.2s1.3.07,2,.07l20.21,0a19.46,19.46,0,0,0,3.38-.27,9.25,9.25,0,0,0,2.36-.7,5,5,0,0,0,1.5-1,5.76,5.76,0,0,0,1.17-1.73,22.4,22.4,0,0,0,1.13-3.32c.37-1.39.74-3.08,1-4.79l-.15-.09C389,55.85,388.58,55.77,388.13,55.72Zm23.16-9.21a28.14,28.14,0,0,1,6.77-5.59,37,37,0,0,1,9.51-4.05,43.46,43.46,0,0,1,11.17-1.26l17.2,0a48,48,0,0,1,7.43.7,33.35,33.35,0,0,1,6.09,1.47,28.05,28.05,0,0,1,5.1,2.48,26.38,26.38,0,0,1,4.05,3,15.33,15.33,0,0,1,2.68,3.12,13.6,13.6,0,0,1,1.49,3.38,16.47,16.47,0,0,1,.65,3.67,9.9,9.9,0,0,1-.36,3.22l-8.5,31-25.85.06,8.71-31.56a5.49,5.49,0,0,0-.67-.09c-.3,0-.72,0-1.14,0l-18.95,0a10,10,0,0,0-2.29.35,14.3,14.3,0,0,0-2,.7l-.12.17L423.94,87.8l-26.07-.17,1.61-5.76a43.74,43.74,0,0,1-7.17,3.39,36.69,36.69,0,0,1-9.76,2.16c-4.44.44-10.59.53-16.21.53a142.45,142.45,0,0,1-14.46-.52,30.29,30.29,0,0,1-8.37-2,24.94,24.94,0,0,1-5.5-2.92,17.49,17.49,0,0,1-3.92-3.85,20.42,20.42,0,0,1-2.52-4.6,11.52,11.52,0,0,1-.9-4.95,38.12,38.12,0,0,1,1.27-7.41,66.51,66.51,0,0,1,2.73-8.79,23,23,0,0,1,3.55-6,25.49,25.49,0,0,1,4.62-4.48,25.84,25.84,0,0,1,6.07-3.34A48.58,48.58,0,0,1,355.76,37a35.41,35.41,0,0,1,3.72-.61c.83-.1,1.45-.22,2.41-.33a32,32,0,0,1,3.61-.27l20.54,0a52.75,52.75,0,0,1,9.72.82A29.2,29.2,0,0,1,403.05,39a20,20,0,0,1,5,3.39A15.26,15.26,0,0,1,411.29,46.51ZM247.49,68.67a33,33,0,0,1,.57-6.87,55.08,55.08,0,0,1,2.54-7.72c-.74.17-1.48.35-2.22.45a16.08,16.08,0,0,1-2.18.15l-6.66,0-3.43,12.56,5.8,0a9.25,9.25,0,0,1,2.41.32A31.46,31.46,0,0,1,247.49,68.67Zm-120.24,12a47,47,0,0,1-10.59,5.4,43.2,43.2,0,0,1-12.87,2H62.05v0l-25.83,0v0h-.49L46.51,47.46a12.14,12.14,0,0,1,1.73-3.67,15.93,15.93,0,0,1,3.33-3.53A29.48,29.48,0,0,1,57,37a35.17,35.17,0,0,1,6.3-2.39A18.88,18.88,0,0,1,68.77,34l7.71.21L67.39,67.86l3.57,0a6.74,6.74,0,0,0,1.58-.25c.63-.14,1.41-.37,1.93-.53a3.58,3.58,0,0,0,1-.45,2.29,2.29,0,0,0,.6-.67c0-.18.07-.36.11-.51s0-.27.09-.42.07-.34.12-.52l4.22-16c.09-.35.15-.72.38-1.43a13.93,13.93,0,0,1,1.24-2.87,14.16,14.16,0,0,1,2.88-3.36A27.4,27.4,0,0,1,90,37.5a34.08,34.08,0,0,1,6.09-2.59,26.39,26.39,0,0,1,6.18-1.12l8.43-.54-9.15,34.52h3.57a8.52,8.52,0,0,0,1.54-.15,15.53,15.53,0,0,0,1.63-.4,5.3,5.3,0,0,0,1.15-.43,2,2,0,0,0,.6-.56,8.32,8.32,0,0,0,.56-.82,4.18,4.18,0,0,0,.36-.92l4-14.77c.12-.47.21-1,.5-1.82a17.66,17.66,0,0,1,1.49-3.41A17.4,17.4,0,0,1,120,40.66a21.52,21.52,0,0,1,4.48-3.26,25.92,25.92,0,0,1,5.72-2.31A31,31,0,0,1,136.78,34l8.39-.42-2.54,9.25a47.63,47.63,0,0,1,10.25-4.94,43.8,43.8,0,0,1,12.65-2.07l20.93,0,2.25-5.7a12.55,12.55,0,0,1,2.58-3.91A20.74,20.74,0,0,1,196,22.56a28.14,28.14,0,0,1,6.41-2.65,26.36,26.36,0,0,1,6.9-1.15l8.07-.1-4.18,15.28h0l-.41,1.54a22.48,22.48,0,0,1,2.83-.9,14,14,0,0,1,2.69-.31h1.12l1-3.3A8.46,8.46,0,0,1,222,28a16.28,16.28,0,0,1,3.22-3A22.8,22.8,0,0,1,230,22.47a27.43,27.43,0,0,1,5.65-1.6,25.82,25.82,0,0,1,6-.43l7.74.44L245.4,34.17l24,0L268,37.38a52.15,52.15,0,0,1,6.11-1.46,39.63,39.63,0,0,1,6.26-.48l21.14,0c1.5,0,3,.21,3.88.28s1.15.1,1.52.15L308,36c.29,0,.41.06.61.07a12,12,0,0,1,1.66.3,30.17,30.17,0,0,1,5.16,1.58,20.4,20.4,0,0,1,5,3,14.19,14.19,0,0,1,3.24,3.74,16.6,16.6,0,0,1,1.82,4.87,23.76,23.76,0,0,1,.44,6.84,66.26,66.26,0,0,1-1.68,10.1l-.91,3.92-20.88,0a25.8,25.8,0,0,1,4.12,4.18A17.83,17.83,0,0,1,309,79.75l2.41,7.88H274.63a52.42,52.42,0,0,1-9.18-.84,44.05,44.05,0,0,1-7.34-2.13l.4,3.17-6.83.09H229.43a27.47,27.47,0,0,1-6.06-.75A24.74,24.74,0,0,1,218,85.34a18.78,18.78,0,0,1-4.1-2.63,12.53,12.53,0,0,1-2.62-3.07,11.34,11.34,0,0,1-1.4-3.53,13.89,13.89,0,0,1-.16-4.74,53.11,53.11,0,0,1,1.59-7.46l2.52-9.22h-6.22l-9,33.38-25.75,0,9.2-34.17a39.86,39.86,0,0,1-5.62,1.82,25.42,25.42,0,0,1-5.45.53l-6.92,0a8,8,0,0,0-1.48.15,16.17,16.17,0,0,0-1.63.39,5.57,5.57,0,0,0-1.16.44,2,2,0,0,0-.61.57,7.59,7.59,0,0,0-.58.83,3.08,3.08,0,0,0-.34.86l-7.57,28.71-25.58,0ZM383,60.65l0,.06a.43.43,0,0,1,0,.1c0,.07-.06.17-.14.35s-.18.42-.23.56a1.1,1.1,0,0,1-.07.15v0l-.08.07-.11,0-.12,0-.14,0-.16,0-.18,0-.2,0-.24,0-.28,0-.42,0-.48,0-.5,0H379l-17.35,0v0c0-.14.09-.29.17-.5s.2-.52.26-.67l.07-.19,0,0a2.37,2.37,0,0,1,.36-.09l.34-.07.24,0,.2,0,.2,0,.18,0,.13,0H364ZM330.62,47.51c-.07-.25-.13-.51-.21-.76-.12-.42-.25-.84-.4-1.25s-.3-.83-.47-1.23-.34-.79-.54-1.18-.39-.77-.65-1.2-.57-.92-.9-1.39-.69-.92-1.07-1.35c-.18-.22-.38-.42-.58-.63s-.4-.4-.6-.6-.41-.4-.63-.59-.42-.38-.65-.56c-.45-.38-.93-.75-1.41-1.1s-1-.68-1.51-1-1.09-.65-1.66-1-1.15-.58-1.75-.82c-.29-.13-.6-.24-.9-.36l-1-.34-1.15-.37c-.41-.13-.82-.24-1.17-.34l-1-.25-.85-.2-.5-.11-.43-.08-.47-.09-.45-.07-.32,0-.29,0h-.05l-.16,0-.24,0-.52-.07-.54-.06-.39-.05-.37,0-.49-.05-.5,0-.35,0-.33,0-.35,0-.42,0-.63-.06-.7-.05-.78,0h-.8l-21.14,0q-.78,0-1.56,0l-1.57.08.63-1.41-25.16,0,3.77-12.89L241.86,15l-1,0h-1l-1.3.06c-.46,0-.92.07-1.36.12l-1.29.16-1.28.21c-.57.09-1.15.22-1.72.34s-1.14.28-1.71.44-1.12.33-1.68.52-1.1.39-1.63.61-1.07.45-1.58.69-1,.51-1.47.75-.82.46-1.18.68-.74.46-1.1.7l1.95-7.12-15.33.19c-.37,0-.74,0-1.11,0s-.74.05-1.06.09l-.86.09-.86.13c-.33.06-.72.12-1.1.2l-1.15.25-1.09.26-1.08.3c-.67.18-1.33.39-2,.62s-1.3.46-1.94.73c-.33.12-.64.26-1,.41l-.94.44c-.32.15-.63.31-.93.47s-.62.33-.92.51c-.58.33-1.13.69-1.68,1.07s-1.08.77-1.58,1.17-1,.79-1.39,1.2-.88.83-1.28,1.28a8.39,8.39,0,0,0-.56.63c-.19.21-.36.42-.52.61s-.28.36-.4.53a6,6,0,0,0-.37.51,8.28,8.28,0,0,0-.52.79c-.17.26-.32.53-.48.81s-.29.57-.43.86-.26.58-.38.88l-.88,2.24-17.22,0c-.64,0-1.28,0-1.92.05s-1.28.07-2.05.15-1.69.19-2.6.33-1.81.29-2.71.5-1.68.37-2.51.59-1.65.46-2.08.58l-.5.15-.1,0,1.37-5-15.93.8a36.48,36.48,0,0,0-3.91.41c-1.3.22-2.58.51-3.52.75s-1.54.44-2.14.64-1.19.43-1.77.66-1.14.48-1.69.74-1.1.54-1.63.83-1,.6-1.53.91-1,.66-1.46,1-.91.69-1.35,1.05-.86.74-1.27,1.13c-.19.17-.37.36-.55.54l-.53.55,2.78-10.48-16,1c-.62,0-1.24.09-1.85.17s-1.23.16-1.86.27-1.25.25-1.87.4-1.25.32-1.87.51-1.23.4-1.84.62-1.21.47-1.8.72-1.17.52-1.75.8-1.14.57-1.69.87-1.08.61-1.6.93-1,.65-1.53,1c-.25.16-.49.33-.72.5l-.7.53c-.23.17-.45.35-.67.53l-.54.46-.15.13,0,0,2.14-7.91L68.93,28.5H68.1c-.28,0-.56,0-.84,0-.44,0-.88,0-1.32.08s-.88.09-1.33.16-.92.15-1.38.24-.92.2-1.37.32l-.93.26-1,.31-1.31.46c-.46.17-.92.34-1.38.53s-.9.38-1.35.58-.89.4-1.33.62-1.14.57-1.7.87-1.12.61-1.66,1l-.79.49c-.26.17-.52.34-.77.52s-.5.34-.74.52l-.72.55c-.23.18-.46.36-.68.55s-.44.38-.65.58-.61.57-.89.87-.58.6-.91,1-.73.89-1.09,1.4-.7,1-1,1.48-.43.75-.59,1.09-.32.67-.46,1-.28.69-.4,1.05-.23.71-.33,1.07L28.68,93.31l7.42.27H62.05l41.75,0c1.26,0,2.52,0,3.78-.16s2.51-.26,3.72-.46,2.39-.43,3.56-.71,2.31-.6,3.46-1l.19-.06.2-.06L118,93.58l37,0,8.39-31.85.15,0,.15,0,.16,0,.15,0h.14l6.91,0,1.62,0,1.36-.09.32,0h.07l-8.6,32,37.07,0,3.23-12c.08.15.16.31.25.46s.17.32.27.47c.24.41.51.8.78,1.19s.57.76.88,1.12l.49.54c.16.18.33.35.5.52s.35.35.54.52l.56.5.58.48c.2.16.4.32.6.46s.64.46,1,.68l1,.64,1.06.6c.36.19.73.38,1.17.59s1,.43,1.47.65,1.05.41,1.59.59,1.1.36,1.66.51,1.12.3,1.54.4l1,.22.93.18c.36.06.81.14,1.26.2s.9.13,1.36.17.95.08,1.43.11.95,0,1.43,0h22.29l13-.17-.13-1c.8.13,1.59.26,2.39.37s1.59.21,2.39.28S271.1,93,272,93s1.76.07,2.65.07h44.2l-4.56-14.93c-.11-.38-.24-.75-.37-1.13s-.28-.74-.43-1.1l12.94,0,0,.09s0,.06.13.32.32.76.54,1.25.46,1,.72,1.44l.42.74.45.74q.23.36.48.72c.16.24.32.48.5.71.35.49.73,1,1.12,1.4s.8.89,1.23,1.31.88.83,1.34,1.22.94.77,1.44,1.12l.76.53c.26.17.51.34.78.49s.8.48,1.21.71.82.45,1.25.65.88.42,1.33.62.89.39,1.35.56c.69.28,1.4.53,2.11.76s1.42.45,2.14.62q.64.16,1.29.3l1.33.25,1.44.23,1.51.19c.52.06,1.08.11,1.63.15s1.11.09,1.85.13,1.67.09,2.6.13l2.84.08,3,0,2.92,0h2.32l2.34,0c.91,0,2,0,3.07,0s2.16-.06,3-.09l1.82-.08,1.51-.08,1.44-.1,1.47-.13,1.65-.19c.56-.07,1.12-.14,1.68-.24.72-.11,1.43-.25,2.14-.4s1.42-.34,1.81-.44.46-.12.53-.14l.22-.06-.47,1.66,37.43.24,8.66-31.79,13.52,0-8.75,31.7,37.2-.09,9.6-35c.11-.39.2-.78.28-1.17s.14-.8.19-1.21.08-.85.09-1.28a11.28,11.28,0,0,0,0-1.3c0-.21,0-.43,0-.64s0-.43-.08-.69-.07-.57-.12-.87-.11-.62-.18-.92-.13-.61-.2-.91l-.23-.84c-.08-.25-.14-.45-.2-.65s-.13-.4-.21-.59a8.83,8.83,0,0,0-.35-.9c-.12-.3-.25-.6-.4-.9s-.29-.59-.46-.89-.33-.58-.54-.92-.48-.72-.75-1.09-.56-.74-.86-1.08c-.15-.18-.3-.35-.46-.52s-.31-.34-.48-.51-.33-.33-.5-.5l-.53-.49-.56-.5-.62-.51-.84-.66-.91-.66c-.32-.22-.64-.44-1-.65s-.65-.43-1.06-.67L476,34.75c-.48-.26-1-.52-1.45-.75s-1.06-.51-1.6-.74-1.09-.45-1.64-.64c-.28-.11-.57-.2-.86-.3l-.94-.29-1.24-.33c-.44-.11-.88-.22-1.33-.31s-.91-.19-1.36-.27l-1.3-.22-1-.15-1-.14c-.41-.06-.92-.13-1.43-.18l-1.42-.15c-.39,0-.67-.06-.94-.07l-.84-.05-.85,0h-.85l-17.2,0-1.55,0c-.52,0-1,0-1.69.06s-1.44.08-2.23.15l-2.16.24c-.6.08-1,.14-1.39.21l-1.18.22-1.2.25c-.39.1-.79.19-1.18.3a42.89,42.89,0,0,0-10.92,4.64c-.38.24-.77.48-1.14.73s-.76.5-1,.69l-.62.44-.51.38-.07-.06-.06-.06c-.47-.42-.93-.83-1.42-1.22s-1-.76-1.52-1.11c-.26-.18-.53-.35-.8-.52l-.83-.5-.9-.49c-.3-.16-.6-.32-.92-.46-.64-.33-1.3-.61-2-.88s-1.35-.51-2-.73l-1.11-.34-1.13-.31L398,31.51l-1.22-.25L395.5,31l-1.41-.2-1.89-.22-2-.16q-1-.06-2.07-.09t-2.07,0l-20.55,0h-.63l-.67,0-.8.05-.8.08-.67.07-.66.07-.72.09-.65.09-.34,0-.27,0L359,31l-.25,0-.3,0-.4,0-.68.09-.81.13-1,.18c-.35.06-.7.14-1.17.24l-1.68.41-1.66.46c-.47.13-.8.23-1.14.34s-.67.21-1,.33-.69.23-1,.36-.69.25-1,.39l-1,.41c-.33.15-.67.29-1,.45-.48.22-1,.46-1.42.7l-1.37.77c-.44.27-.87.54-1.3.83s-.84.57-1.31.93-1,.76-1.49,1.19-1,.88-1.45,1.33-.91.91-1.34,1.39-.85.95-1.25,1.45c-.21.25-.41.51-.6.77s-.4.51-.58.78-.6.86-.87,1.31-.55.9-.7,1.18-.22.38-.27.48l-.16.3Z"/></g></svg>